<svg width="1130" height="680" viewBox="0 0 1130 680" fill="none" xmlns="http://www.w3.org/2000/svg">
<rect width="1130" height="680" fill="#F2F2F2"/>
<g filter="url(#filter0_d_1015_1219)">
<path d="M134.167 132.977C134.167 128.111 138.127 124.167 143.011 124.167H509.156C514.041 124.167 518 128.111 518 132.977V284.522C518 289.388 514.041 293.333 509.156 293.333H143.011C138.127 293.333 134.167 289.388 134.167 284.522V132.977Z" fill="white"/>
<path d="M133 284V133.5C133 127.701 137.737 123 143.58 123V124.75L143.127 124.762C138.468 124.996 134.763 128.818 134.763 133.5V284L134.775 284.449C135.004 288.924 138.618 292.512 143.127 292.738L143.58 292.75H508.587L509.04 292.738C513.548 292.512 517.163 288.924 517.391 284.449L517.403 284V133.5C517.403 128.818 513.698 124.996 509.04 124.762L508.587 124.75V123C514.43 123 519.167 127.701 519.167 133.5V284C519.167 289.799 514.43 294.5 508.587 294.5H143.58C137.737 294.5 133 289.799 133 284ZM508.587 123V124.75H143.58V123H508.587Z" fill="#F0F0F0"/>
<path d="M213.209 159.041L211.131 159.267C211.072 159.058 210.969 158.86 210.823 158.676C210.68 158.491 210.487 158.342 210.243 158.229C210 158.115 209.702 158.059 209.349 158.059C208.875 158.059 208.476 158.162 208.153 158.367C207.834 158.573 207.677 158.839 207.681 159.167C207.677 159.448 207.78 159.677 207.99 159.853C208.204 160.029 208.556 160.174 209.047 160.287L210.697 160.64C211.612 160.837 212.292 161.15 212.736 161.578C213.186 162.006 213.412 162.566 213.416 163.259C213.412 163.867 213.234 164.405 212.881 164.871C212.533 165.332 212.048 165.693 211.427 165.953C210.806 166.214 210.092 166.344 209.286 166.344C208.103 166.344 207.15 166.096 206.428 165.601C205.706 165.101 205.276 164.407 205.138 163.517L207.36 163.303C207.461 163.739 207.675 164.069 208.002 164.291C208.33 164.514 208.756 164.625 209.28 164.625C209.822 164.625 210.256 164.514 210.583 164.291C210.915 164.069 211.081 163.794 211.081 163.467C211.081 163.19 210.974 162.961 210.76 162.78C210.55 162.6 210.222 162.461 209.778 162.365L208.128 162.019C207.201 161.826 206.514 161.5 206.069 161.043C205.625 160.581 205.404 159.998 205.408 159.293C205.404 158.697 205.566 158.18 205.893 157.744C206.225 157.303 206.684 156.963 207.272 156.724C207.864 156.481 208.546 156.359 209.318 156.359C210.451 156.359 211.343 156.6 211.994 157.083C212.648 157.566 213.053 158.218 213.209 159.041Z" fill="#4D4D4D"/>
<path d="M203.221 153.26V166.154H200.942V153.26H203.221Z" fill="#4D4D4D"/>
<path d="M196.323 166.154V156.484H198.602V166.154H196.323ZM197.469 155.111C197.108 155.111 196.797 154.992 196.537 154.753C196.277 154.509 196.146 154.217 196.146 153.877C196.146 153.533 196.277 153.242 196.537 153.002C196.797 152.759 197.108 152.637 197.469 152.637C197.834 152.637 198.144 152.759 198.4 153.002C198.661 153.242 198.791 153.533 198.791 153.877C198.791 154.217 198.661 154.509 198.4 154.753C198.144 154.992 197.834 155.111 197.469 155.111Z" fill="#4D4D4D"/>
<path d="M188.924 166.35C188.312 166.35 187.76 166.241 187.269 166.023C186.782 165.8 186.396 165.473 186.11 165.04C185.829 164.608 185.688 164.075 185.688 163.441C185.688 162.896 185.789 162.445 185.991 162.088C186.192 161.731 186.467 161.446 186.815 161.232C187.164 161.018 187.556 160.856 187.993 160.747C188.433 160.634 188.889 160.552 189.359 160.501C189.925 160.443 190.385 160.39 190.738 160.344C191.09 160.294 191.346 160.218 191.506 160.117C191.669 160.012 191.751 159.851 191.751 159.633V159.595C191.751 159.121 191.611 158.753 191.329 158.493C191.048 158.233 190.643 158.103 190.114 158.103C189.556 158.103 189.113 158.224 188.786 158.468C188.463 158.711 188.244 158.999 188.131 159.33L186.003 159.028C186.171 158.441 186.448 157.95 186.834 157.555C187.22 157.156 187.693 156.858 188.251 156.661C188.809 156.46 189.426 156.359 190.102 156.359C190.568 156.359 191.031 156.413 191.493 156.523C191.955 156.632 192.376 156.812 192.758 157.064C193.14 157.312 193.447 157.649 193.678 158.078C193.913 158.506 194.03 159.041 194.03 159.683V166.155H191.839V164.826H191.764C191.625 165.095 191.43 165.347 191.178 165.582C190.931 165.813 190.618 166 190.24 166.142C189.867 166.281 189.428 166.35 188.924 166.35ZM189.516 164.675C189.974 164.675 190.37 164.585 190.706 164.405C191.042 164.22 191.3 163.977 191.48 163.674C191.665 163.372 191.757 163.043 191.757 162.686V161.546C191.686 161.605 191.564 161.66 191.392 161.71C191.224 161.76 191.036 161.805 190.826 161.842C190.616 161.88 190.408 161.914 190.202 161.943C189.997 161.972 189.818 161.998 189.667 162.019C189.327 162.065 189.023 162.14 188.754 162.245C188.486 162.35 188.274 162.497 188.119 162.686C187.963 162.871 187.886 163.11 187.886 163.404C187.886 163.823 188.039 164.14 188.345 164.354C188.652 164.568 189.042 164.675 189.516 164.675Z" fill="#4D4D4D"/>
<path d="M184.236 156.485V158.248H178.677V156.485H184.236ZM180.049 154.168H182.328V163.246C182.328 163.553 182.374 163.788 182.467 163.951C182.563 164.111 182.689 164.22 182.844 164.279C183 164.337 183.172 164.367 183.361 164.367C183.503 164.367 183.633 164.356 183.751 164.335C183.873 164.314 183.965 164.295 184.028 164.279L184.412 166.06C184.29 166.102 184.116 166.148 183.889 166.199C183.667 166.249 183.394 166.279 183.071 166.287C182.5 166.304 181.986 166.218 181.529 166.029C181.071 165.836 180.708 165.538 180.44 165.135C180.175 164.732 180.045 164.228 180.049 163.624V154.168Z" fill="#4D4D4D"/>
<path d="M173.178 166.344C172.208 166.344 171.371 166.142 170.666 165.739C169.965 165.332 169.426 164.757 169.048 164.014C168.67 163.267 168.481 162.388 168.481 161.376C168.481 160.382 168.67 159.509 169.048 158.758C169.43 158.002 169.963 157.414 170.647 156.995C171.331 156.571 172.135 156.359 173.058 156.359C173.654 156.359 174.217 156.455 174.746 156.648C175.279 156.837 175.749 157.131 176.156 157.53C176.567 157.929 176.89 158.436 177.125 159.053C177.36 159.666 177.478 160.396 177.478 161.244V161.943H169.552V160.407H175.293C175.289 159.97 175.195 159.582 175.01 159.242C174.825 158.898 174.567 158.627 174.236 158.43C173.908 158.233 173.526 158.134 173.09 158.134C172.624 158.134 172.215 158.248 171.862 158.474C171.51 158.697 171.235 158.99 171.037 159.356C170.844 159.717 170.746 160.113 170.742 160.545V161.886C170.742 162.449 170.844 162.931 171.05 163.334C171.256 163.733 171.543 164.039 171.913 164.254C172.282 164.463 172.714 164.568 173.209 164.568C173.541 164.568 173.841 164.522 174.11 164.43C174.378 164.333 174.611 164.193 174.809 164.008C175.006 163.823 175.155 163.595 175.255 163.322L177.383 163.561C177.249 164.123 176.993 164.614 176.615 165.034C176.242 165.45 175.763 165.773 175.18 166.004C174.597 166.23 173.929 166.344 173.178 166.344Z" fill="#4D4D4D"/>
<path d="M160.521 166.154H156.152V153.26H160.61C161.89 153.26 162.989 153.518 163.908 154.035C164.832 154.547 165.541 155.283 166.036 156.244C166.532 157.205 166.779 158.355 166.779 159.694C166.779 161.037 166.53 162.192 166.03 163.157C165.535 164.122 164.819 164.863 163.883 165.379C162.952 165.895 161.831 166.154 160.521 166.154ZM158.488 164.133H160.408C161.306 164.133 162.055 163.969 162.656 163.642C163.256 163.31 163.707 162.817 164.009 162.162C164.311 161.503 164.463 160.681 164.463 159.694C164.463 158.708 164.311 157.89 164.009 157.239C163.707 156.584 163.26 156.095 162.668 155.772C162.081 155.445 161.35 155.281 160.477 155.281H158.488V164.133Z" fill="#4D4D4D"/>
<path d="M231.234 206.446V219.339H229.748V206.446H231.234Z" fill="#767676"/>
<path d="M223.486 219.541C222.554 219.541 221.751 219.335 221.075 218.924C220.403 218.508 219.885 217.929 219.52 217.186C219.159 216.439 218.979 215.57 218.979 214.58C218.979 213.589 219.159 212.716 219.52 211.961C219.885 211.201 220.393 210.61 221.043 210.186C221.698 209.758 222.462 209.543 223.335 209.543C223.839 209.543 224.336 209.627 224.827 209.795C225.318 209.963 225.765 210.236 226.168 210.614C226.571 210.987 226.892 211.482 227.131 212.099C227.371 212.716 227.49 213.476 227.49 214.378V215.008H220.036V213.724H225.979C225.979 213.178 225.87 212.691 225.652 212.263C225.438 211.835 225.131 211.497 224.733 211.25C224.338 211.002 223.872 210.878 223.335 210.878C222.743 210.878 222.231 211.025 221.799 211.319C221.371 211.608 221.041 211.986 220.811 212.452C220.58 212.918 220.464 213.417 220.464 213.95V214.807C220.464 215.537 220.59 216.156 220.842 216.664C221.098 217.167 221.453 217.551 221.906 217.816C222.359 218.076 222.886 218.206 223.486 218.206C223.876 218.206 224.229 218.152 224.544 218.042C224.863 217.929 225.138 217.761 225.369 217.539C225.599 217.312 225.778 217.031 225.904 216.695L227.339 217.098C227.188 217.585 226.934 218.013 226.577 218.382C226.221 218.748 225.78 219.033 225.255 219.239C224.731 219.44 224.141 219.541 223.486 219.541Z" fill="#767676"/>
<path d="M217.817 209.669L214.241 219.339H212.73L209.154 209.669H210.766L213.435 217.375H213.536L216.205 209.669H217.817Z" fill="#767676"/>
<path d="M203.939 219.541C203.008 219.541 202.204 219.335 201.528 218.924C200.857 218.508 200.338 217.929 199.973 217.186C199.612 216.439 199.432 215.57 199.432 214.58C199.432 213.589 199.612 212.716 199.973 211.961C200.338 211.201 200.846 210.61 201.497 210.186C202.151 209.758 202.915 209.543 203.788 209.543C204.292 209.543 204.789 209.627 205.28 209.795C205.771 209.963 206.218 210.236 206.621 210.614C207.024 210.987 207.345 211.482 207.584 212.099C207.824 212.716 207.943 213.476 207.943 214.378V215.008H200.489V213.724H206.432C206.432 213.178 206.323 212.691 206.105 212.263C205.891 211.835 205.585 211.497 205.186 211.25C204.791 211.002 204.325 210.878 203.788 210.878C203.196 210.878 202.684 211.025 202.252 211.319C201.824 211.608 201.494 211.986 201.264 212.452C201.033 212.918 200.917 213.417 200.917 213.95V214.807C200.917 215.537 201.043 216.156 201.295 216.664C201.551 217.167 201.906 217.551 202.359 217.816C202.812 218.076 203.339 218.206 203.939 218.206C204.33 218.206 204.682 218.152 204.997 218.042C205.316 217.929 205.591 217.761 205.822 217.539C206.052 217.312 206.231 217.031 206.357 216.695L207.792 217.098C207.641 217.585 207.387 218.013 207.03 218.382C206.674 218.748 206.233 219.033 205.708 219.239C205.184 219.44 204.594 219.541 203.939 219.541Z" fill="#767676"/>
<path d="M197.163 206.446V219.339H195.677V206.446H197.163Z" fill="#767676"/>
<path d="M182.433 215.814L182.408 213.975H182.71L186.941 209.669H188.779L184.271 214.227H184.145L182.433 215.814ZM181.048 219.339V206.446H182.534V219.339H181.048ZM187.192 219.339L183.415 214.555L184.473 213.522L189.081 219.339H187.192Z" fill="#767676"/>
<path d="M178.636 211.835L177.301 212.213C177.217 211.99 177.094 211.774 176.93 211.564C176.77 211.35 176.552 211.174 176.275 211.036C175.998 210.897 175.644 210.828 175.211 210.828C174.62 210.828 174.126 210.964 173.732 211.237C173.342 211.506 173.146 211.848 173.146 212.263C173.146 212.632 173.281 212.924 173.549 213.138C173.818 213.352 174.238 213.531 174.808 213.673L176.244 214.026C177.108 214.236 177.753 214.557 178.177 214.989C178.6 215.417 178.812 215.969 178.812 216.645C178.812 217.199 178.653 217.694 178.334 218.131C178.019 218.567 177.578 218.911 177.012 219.163C176.445 219.415 175.786 219.541 175.035 219.541C174.049 219.541 173.232 219.327 172.586 218.899C171.94 218.471 171.53 217.845 171.358 217.023L172.769 216.67C172.903 217.19 173.157 217.581 173.53 217.841C173.908 218.101 174.401 218.231 175.01 218.231C175.702 218.231 176.252 218.084 176.659 217.791C177.071 217.493 177.276 217.136 177.276 216.72C177.276 216.385 177.159 216.103 176.924 215.877C176.689 215.646 176.328 215.474 175.841 215.361L174.229 214.983C173.344 214.773 172.693 214.448 172.278 214.007C171.866 213.562 171.661 213.006 171.661 212.339C171.661 211.793 171.814 211.31 172.12 210.891C172.431 210.471 172.853 210.142 173.386 209.902C173.923 209.663 174.531 209.543 175.211 209.543C176.168 209.543 176.919 209.753 177.465 210.173C178.015 210.593 178.405 211.147 178.636 211.835Z" fill="#767676"/>
<path d="M167.58 219.339V209.669H169.065V219.339H167.58ZM168.335 208.058C168.045 208.058 167.796 207.959 167.586 207.762C167.38 207.564 167.277 207.327 167.277 207.05C167.277 206.773 167.38 206.536 167.586 206.339C167.796 206.142 168.045 206.043 168.335 206.043C168.625 206.043 168.872 206.142 169.078 206.339C169.288 206.536 169.393 206.773 169.393 207.05C169.393 207.327 169.288 207.564 169.078 207.762C168.872 207.959 168.625 208.058 168.335 208.058Z" fill="#767676"/>
<path d="M156.441 219.339V206.446H160.798C161.805 206.446 162.632 206.618 163.278 206.962C163.925 207.302 164.403 207.77 164.714 208.366C165.024 208.962 165.18 209.64 165.18 210.399C165.18 211.159 165.024 211.833 164.714 212.42C164.403 213.008 163.927 213.47 163.285 213.805C162.643 214.137 161.822 214.303 160.823 214.303H157.298V212.892H160.773C161.461 212.892 162.015 212.792 162.435 212.59C162.859 212.389 163.165 212.103 163.354 211.734C163.547 211.361 163.644 210.916 163.644 210.399C163.644 209.883 163.547 209.432 163.354 209.046C163.161 208.66 162.852 208.362 162.429 208.152C162.005 207.938 161.444 207.831 160.748 207.831H158.003V219.339H156.441ZM162.51 213.547L165.683 219.339H163.87L160.748 213.547H162.51Z" fill="#767676"/>
<path d="M189.99 272.648C189.326 272.648 188.761 272.467 188.294 272.106C187.826 271.741 187.47 271.214 187.223 270.523C186.976 269.83 186.853 268.993 186.853 268.012C186.853 267.036 186.976 266.203 187.223 265.513C187.472 264.819 187.831 264.291 188.298 263.926C188.768 263.559 189.332 263.375 189.99 263.375C190.648 263.375 191.211 263.559 191.678 263.926C192.148 264.291 192.507 264.819 192.753 265.513C193.003 266.203 193.128 267.036 193.128 268.012C193.128 268.993 193.005 269.83 192.758 270.523C192.511 271.214 192.154 271.741 191.687 272.106C191.22 272.467 190.654 272.648 189.99 272.648ZM189.99 271.678C190.648 271.678 191.16 271.361 191.524 270.726C191.888 270.092 192.07 269.187 192.07 268.012C192.07 267.23 191.987 266.565 191.819 266.015C191.655 265.466 191.417 265.047 191.105 264.759C190.797 264.471 190.425 264.327 189.99 264.327C189.338 264.327 188.828 264.649 188.461 265.292C188.094 265.933 187.91 266.839 187.91 268.012C187.91 268.793 187.992 269.457 188.157 270.003C188.322 270.55 188.558 270.966 188.866 271.251C189.178 271.536 189.553 271.678 189.99 271.678Z" fill="#ACACAC"/>
<path d="M182.233 272.648C181.569 272.648 181.004 272.467 180.537 272.106C180.07 271.741 179.713 271.214 179.466 270.523C179.219 269.83 179.096 268.993 179.096 268.012C179.096 267.036 179.219 266.203 179.466 265.513C179.716 264.819 180.074 264.291 180.541 263.926C181.011 263.559 181.575 263.375 182.233 263.375C182.892 263.375 183.454 263.559 183.921 263.926C184.391 264.291 184.75 264.819 184.997 265.513C185.246 266.203 185.371 267.036 185.371 268.012C185.371 268.993 185.248 269.83 185.001 270.523C184.754 271.214 184.397 271.741 183.93 272.106C183.463 272.467 182.897 272.648 182.233 272.648ZM182.233 271.678C182.892 271.678 183.403 271.361 183.767 270.726C184.131 270.092 184.313 269.187 184.313 268.012C184.313 267.23 184.23 266.565 184.062 266.015C183.898 265.466 183.66 265.047 183.348 264.759C183.04 264.471 182.668 264.327 182.233 264.327C181.581 264.327 181.071 264.649 180.704 265.292C180.337 265.933 180.153 266.839 180.153 268.012C180.153 268.793 180.236 269.457 180.4 270.003C180.565 270.55 180.801 270.966 181.11 271.251C181.421 271.536 181.796 271.678 182.233 271.678Z" fill="#ACACAC"/>
<path d="M176.694 263.499V272.524H175.601V264.645H175.548L173.345 266.108V264.997L175.601 263.499H176.694Z" fill="#ACACAC"/>
<path d="M172.305 263.076L169.396 273.881H168.444L171.353 263.076H172.305Z" fill="#ACACAC"/>
<path d="M161.584 272.524V271.731L164.563 268.47C164.913 268.088 165.201 267.756 165.427 267.474C165.653 267.189 165.82 266.922 165.929 266.672C166.041 266.419 166.097 266.155 166.097 265.879C166.097 265.561 166.02 265.287 165.867 265.055C165.718 264.822 165.512 264.643 165.251 264.517C164.989 264.391 164.695 264.327 164.369 264.327C164.022 264.327 163.72 264.399 163.461 264.543C163.206 264.684 163.007 264.883 162.866 265.138C162.728 265.394 162.659 265.694 162.659 266.037H161.619C161.619 265.508 161.741 265.044 161.985 264.645C162.229 264.245 162.561 263.934 162.981 263.71C163.404 263.487 163.879 263.375 164.404 263.375C164.933 263.375 165.402 263.487 165.81 263.71C166.219 263.934 166.539 264.235 166.771 264.614C167.003 264.993 167.119 265.414 167.119 265.879C167.119 266.211 167.059 266.535 166.938 266.853C166.821 267.167 166.615 267.518 166.321 267.906C166.031 268.291 165.627 268.761 165.11 269.316L163.082 271.484V271.555H167.278V272.524H161.584Z" fill="#ACACAC"/>
<path d="M158.988 263.499V272.524H157.895V264.645H157.842L155.639 266.108V264.997L157.895 263.499H158.988Z" fill="#ACACAC"/>
<path d="M276.104 219.339L273.372 209.669H275.695L277.395 216.469H277.483L279.221 209.669H281.519L283.256 216.431H283.351L285.025 209.669H287.355L284.616 219.339H282.243L280.429 212.805H280.297L278.484 219.339H276.104Z" fill="#6BDA7A"/>
<path d="M267.816 219.528C266.872 219.528 266.053 219.32 265.361 218.905C264.668 218.489 264.131 217.908 263.749 217.161C263.371 216.414 263.183 215.541 263.183 214.542C263.183 213.543 263.371 212.668 263.749 211.917C264.131 211.166 264.668 210.582 265.361 210.167C266.053 209.751 266.872 209.543 267.816 209.543C268.761 209.543 269.579 209.751 270.271 210.167C270.964 210.582 271.499 211.166 271.877 211.917C272.259 212.668 272.45 213.543 272.45 214.542C272.45 215.541 272.259 216.414 271.877 217.161C271.499 217.908 270.964 218.489 270.271 218.905C269.579 219.32 268.761 219.528 267.816 219.528ZM267.829 217.703C268.341 217.703 268.769 217.562 269.113 217.281C269.457 216.995 269.713 216.613 269.881 216.135C270.053 215.656 270.139 215.123 270.139 214.536C270.139 213.944 270.053 213.409 269.881 212.93C269.713 212.448 269.457 212.064 269.113 211.778C268.769 211.493 268.341 211.35 267.829 211.35C267.304 211.35 266.868 211.493 266.519 211.778C266.175 212.064 265.917 212.448 265.745 212.93C265.577 213.409 265.493 213.944 265.493 214.536C265.493 215.123 265.577 215.656 265.745 216.135C265.917 216.613 266.175 216.995 266.519 217.281C266.868 217.562 267.304 217.703 267.829 217.703Z" fill="#6BDA7A"/>
<path d="M253.659 219.339V206.446H255.995V217.381H261.673V219.339H253.659Z" fill="#6BDA7A"/>
<path d="M425.834 159.75C425.834 154.273 430.301 149.833 435.811 149.833H487.024C492.534 149.833 497.001 154.273 497.001 159.75V159.75C497.001 165.227 492.534 169.667 487.024 169.667H435.811C430.301 169.667 425.834 165.227 425.834 159.75V159.75Z" fill="#03FF81"/>
<path d="M443.281 164.817L441 155.667H442.31L444.298 163.928H444.451L446.427 155.667H447.737L445.468 164.817H443.281Z" fill="#14054D"/>
<path d="M448.885 164.817V158.372H450.09V164.817H448.885ZM449.493 157.497C449.26 157.497 449.061 157.414 448.897 157.248C448.741 157.074 448.663 156.852 448.663 156.582C448.663 156.311 448.741 156.094 448.897 155.928C449.061 155.754 449.26 155.667 449.493 155.667C449.735 155.667 449.934 155.754 450.09 155.928C450.246 156.094 450.324 156.311 450.324 156.582C450.324 156.852 450.246 157.074 450.09 157.248C449.934 157.414 449.735 157.497 449.493 157.497Z" fill="#14054D"/>
<path d="M454.521 165C453.937 165 453.426 164.865 452.989 164.595C452.552 164.316 452.209 163.928 451.96 163.431C451.718 162.926 451.597 162.342 451.597 161.68V161.523C451.597 160.852 451.718 160.268 451.96 159.771C452.202 159.266 452.537 158.878 452.966 158.608C453.402 158.329 453.905 158.189 454.475 158.189C455.028 158.189 455.512 158.329 455.925 158.608C456.346 158.878 456.674 159.257 456.908 159.745C457.141 160.233 457.258 160.804 457.258 161.457V161.967H452.825C452.841 162.534 453.009 162.987 453.328 163.327C453.656 163.658 454.061 163.823 454.545 163.823C454.997 163.823 455.336 163.71 455.562 163.483C455.796 163.257 455.976 162.995 456.1 162.699L457.095 163.274C456.986 163.518 456.826 163.775 456.615 164.046C456.412 164.316 456.143 164.542 455.808 164.725C455.473 164.908 455.044 165 454.521 165ZM452.837 160.934H456.03C455.999 160.446 455.843 160.067 455.562 159.797C455.282 159.518 454.915 159.379 454.463 159.379C454.011 159.379 453.64 159.518 453.352 159.797C453.071 160.067 452.899 160.446 452.837 160.934Z" fill="#14054D"/>
<path d="M459.272 164.817L458.289 158.372H459.494L460.219 163.915H460.406L461.412 158.372H463.366L464.36 163.915H464.547L465.272 158.372H466.477L465.494 164.817H463.471L462.477 159.287H462.289L461.295 164.817H459.272Z" fill="#14054D"/>
<path d="M472.675 165C472.261 165 471.891 164.921 471.564 164.765C471.244 164.608 470.986 164.377 470.792 164.072C470.604 163.767 470.511 163.396 470.511 162.961C470.511 162.516 470.604 162.15 470.792 161.863C470.986 161.566 471.248 161.344 471.575 161.196C471.911 161.048 472.289 160.974 472.71 160.974H474.464V160.555C474.464 160.181 474.363 159.88 474.16 159.653C473.957 159.427 473.646 159.314 473.224 159.314C472.811 159.314 472.495 159.422 472.277 159.64C472.059 159.858 471.914 160.141 471.844 160.49L470.721 160.085C470.815 159.736 470.963 159.422 471.166 159.144C471.376 158.856 471.653 158.625 471.996 158.451C472.339 158.277 472.753 158.189 473.236 158.189C473.985 158.189 474.573 158.403 475.002 158.83C475.431 159.257 475.646 159.863 475.646 160.647V163.3C475.646 163.562 475.755 163.693 475.973 163.693H476.464V164.817H475.564C475.291 164.817 475.069 164.738 474.897 164.582C474.726 164.425 474.64 164.211 474.64 163.941V163.902H474.464C474.402 164.033 474.308 164.185 474.184 164.359C474.059 164.534 473.876 164.686 473.634 164.817C473.392 164.939 473.072 165 472.675 165ZM472.85 163.889C473.334 163.889 473.724 163.736 474.02 163.431C474.316 163.117 474.464 162.69 474.464 162.15V162.019H472.78C472.46 162.019 472.203 162.098 472.008 162.255C471.813 162.403 471.716 162.625 471.716 162.921C471.716 163.218 471.817 163.453 472.02 163.627C472.222 163.802 472.499 163.889 472.85 163.889Z" fill="#14054D"/>
<path d="M477.636 164.817V155.667H478.841V164.817H477.636Z" fill="#14054D"/>
<path d="M480.629 164.817V155.667H481.833V164.817H480.629Z" fill="#14054D"/>
<path d="M155.167 246.083C155.167 243.184 157.546 240.833 160.48 240.833H491.687C494.621 240.833 497 243.184 497 246.083V246.083C497 248.983 494.621 251.333 491.687 251.333H160.48C157.546 251.333 155.167 248.983 155.167 246.083V246.083Z" fill="#D9D9D9"/>
<path d="M155.167 246.083C155.167 243.184 157.517 240.833 160.417 240.833H188.417C191.316 240.833 193.667 243.184 193.667 246.083V246.083C193.667 248.983 191.316 251.333 188.417 251.333H160.417C157.517 251.333 155.167 248.983 155.167 246.083V246.083Z" fill="#6BDA7A"/>
<path d="M163.334 350.037C163.334 345.138 167.304 341.167 172.201 341.167H509.134C514.031 341.167 518.001 345.138 518.001 350.037V546.963C518.001 551.862 514.031 555.833 509.134 555.833H172.201C167.304 555.833 163.334 551.862 163.334 546.963V350.037Z" fill="white"/>
<path d="M163.334 546.471V351.695C163.334 345.88 168.066 341.167 173.903 341.167V342.921L173.451 342.933C168.797 343.168 165.096 347.001 165.096 351.695V546.471L165.108 546.922C165.336 551.409 168.947 555.006 173.451 555.233L173.903 555.245H508.598L509.05 555.233C513.555 555.006 517.166 551.409 517.394 546.922L517.406 546.471V351.695C517.406 347.001 513.705 343.168 509.05 342.933L508.598 342.921V341.167C514.435 341.167 519.167 345.88 519.167 351.695V546.471C519.167 552.286 514.435 557 508.598 557H173.903C168.066 557 163.334 552.286 163.334 546.471ZM508.598 341.167V342.921H173.903V341.167H508.598Z" fill="#F0F0F0"/>
<path d="M352.253 506.961C350.359 506.961 348.657 506.599 347.146 505.873C345.645 505.138 344.446 504.131 343.55 502.852C342.653 501.572 342.175 500.112 342.114 498.47H346.647C346.758 499.799 347.347 500.892 348.415 501.749C349.483 502.605 350.762 503.033 352.253 503.033C353.441 503.033 354.494 502.761 355.411 502.217C356.337 501.663 357.062 500.902 357.586 499.935C358.12 498.968 358.387 497.865 358.387 496.627C358.387 495.367 358.115 494.244 357.571 493.257C357.027 492.27 356.277 491.494 355.32 490.93C354.373 490.366 353.285 490.079 352.056 490.069C351.119 490.069 350.178 490.23 349.231 490.553C348.284 490.875 347.518 491.298 346.934 491.822L342.658 491.187L344.396 475.594H361.409V479.598H348.279L347.297 488.256H347.478C348.082 487.672 348.883 487.183 349.88 486.79C350.888 486.397 351.966 486.201 353.114 486.201C354.998 486.201 356.675 486.649 358.145 487.546C359.626 488.442 360.789 489.666 361.636 491.217C362.492 492.759 362.915 494.531 362.905 496.536C362.915 498.54 362.462 500.328 361.545 501.9C360.638 503.471 359.379 504.71 357.768 505.617C356.166 506.513 354.328 506.961 352.253 506.961Z" fill="#FF0004"/>
<path d="M318.857 506.538L332.364 479.825V479.598H316.741V475.594H337.199V479.734L323.737 506.538H318.857Z" fill="#FF0004"/>
<path d="M364.831 530.311L364.811 528.84H365.052L368.437 525.395H369.907L366.301 529.041H366.201L364.831 530.311ZM363.723 533.131V522.816H364.911V533.131H363.723ZM368.638 533.131L365.616 529.303L366.462 528.477L370.149 533.131H368.638Z" fill="#767676"/>
<path d="M361.793 527.128L360.725 527.43C360.658 527.252 360.559 527.079 360.428 526.911C360.3 526.74 360.126 526.599 359.904 526.488C359.683 526.377 359.399 526.322 359.053 526.322C358.58 526.322 358.185 526.431 357.869 526.649C357.557 526.864 357.401 527.138 357.401 527.47C357.401 527.766 357.509 527.999 357.723 528.17C357.938 528.341 358.274 528.484 358.731 528.598L359.879 528.88C360.571 529.048 361.086 529.305 361.425 529.651C361.764 529.993 361.934 530.435 361.934 530.976C361.934 531.419 361.806 531.815 361.551 532.164C361.299 532.513 360.947 532.789 360.493 532.99C360.04 533.192 359.513 533.292 358.912 533.292C358.123 533.292 357.47 533.121 356.953 532.779C356.436 532.436 356.108 531.936 355.971 531.278L357.099 530.996C357.206 531.412 357.409 531.724 357.708 531.932C358.01 532.141 358.405 532.245 358.892 532.245C359.446 532.245 359.886 532.127 360.211 531.892C360.54 531.654 360.705 531.368 360.705 531.036C360.705 530.767 360.611 530.542 360.423 530.361C360.235 530.176 359.946 530.039 359.557 529.948L358.267 529.646C357.559 529.478 357.038 529.218 356.706 528.865C356.377 528.509 356.212 528.064 356.212 527.531C356.212 527.094 356.335 526.708 356.58 526.372C356.829 526.036 357.166 525.773 357.592 525.582C358.022 525.39 358.509 525.294 359.053 525.294C359.819 525.294 360.42 525.462 360.856 525.798C361.296 526.134 361.608 526.577 361.793 527.128Z" fill="#767676"/>
<path d="M352.948 533.131V525.395H354.136V533.131H352.948ZM353.552 524.106C353.321 524.106 353.121 524.027 352.953 523.869C352.788 523.711 352.706 523.522 352.706 523.3C352.706 523.078 352.788 522.889 352.953 522.731C353.121 522.573 353.321 522.494 353.552 522.494C353.784 522.494 353.982 522.573 354.146 522.731C354.314 522.889 354.398 523.078 354.398 523.3C354.398 523.522 354.314 523.711 354.146 523.869C353.982 524.027 353.784 524.106 353.552 524.106Z" fill="#767676"/>
<path d="M347.669 533.131V525.395H348.817V526.564H348.898C349.039 526.181 349.294 525.87 349.663 525.632C350.033 525.394 350.449 525.274 350.912 525.274C351 525.274 351.109 525.276 351.24 525.279C351.371 525.283 351.47 525.288 351.537 525.295V526.503C351.497 526.493 351.404 526.478 351.26 526.458C351.119 526.434 350.97 526.423 350.812 526.423C350.436 526.423 350.1 526.502 349.804 526.659C349.512 526.814 349.281 527.029 349.109 527.304C348.941 527.576 348.858 527.887 348.858 528.236V533.131H347.669Z" fill="#767676"/>
<path d="M336.489 528.477V533.131H335.301V522.816H336.489V526.604H336.59C336.771 526.204 337.043 525.887 337.406 525.652C337.772 525.414 338.259 525.294 338.867 525.294C339.394 525.294 339.855 525.4 340.252 525.612C340.648 525.82 340.955 526.14 341.173 526.574C341.395 527.003 341.506 527.551 341.506 528.215V533.131H340.317V528.296C340.317 527.682 340.158 527.207 339.839 526.871C339.523 526.532 339.085 526.362 338.524 526.362C338.135 526.362 337.785 526.444 337.477 526.609C337.171 526.773 336.929 527.013 336.751 527.329C336.577 527.645 336.489 528.027 336.489 528.477Z" fill="#767676"/>
<path d="M329.782 536.193C329.208 536.193 328.714 536.119 328.301 535.972C327.888 535.827 327.544 535.636 327.269 535.398C326.997 535.163 326.78 534.911 326.619 534.642L327.566 533.977C327.674 534.118 327.809 534.279 327.974 534.461C328.139 534.645 328.364 534.805 328.649 534.939C328.938 535.077 329.315 535.146 329.782 535.146C330.407 535.146 330.922 534.995 331.328 534.692C331.735 534.39 331.938 533.917 331.938 533.272V531.701H331.837C331.75 531.842 331.625 532.016 331.464 532.225C331.306 532.429 331.078 532.612 330.779 532.774C330.484 532.931 330.084 533.01 329.581 533.01C328.956 533.01 328.395 532.863 327.898 532.567C327.405 532.272 327.014 531.842 326.725 531.278C326.44 530.714 326.297 530.029 326.297 529.223C326.297 528.43 326.436 527.74 326.715 527.153C326.994 526.562 327.381 526.105 327.878 525.783C328.375 525.457 328.949 525.294 329.601 525.294C330.104 525.294 330.504 525.378 330.799 525.546C331.098 525.711 331.327 525.899 331.484 526.11C331.646 526.319 331.77 526.49 331.857 526.624H331.978V525.395H333.126V533.353C333.126 534.018 332.975 534.558 332.673 534.975C332.374 535.394 331.971 535.701 331.464 535.896C330.961 536.094 330.4 536.193 329.782 536.193ZM329.742 531.943C330.219 531.943 330.622 531.833 330.951 531.615C331.28 531.397 331.53 531.083 331.701 530.673C331.872 530.264 331.958 529.774 331.958 529.203C331.958 528.645 331.874 528.153 331.706 527.727C331.538 527.301 331.29 526.967 330.961 526.725C330.632 526.483 330.225 526.362 329.742 526.362C329.238 526.362 328.818 526.49 328.483 526.745C328.15 527 327.9 527.343 327.732 527.772C327.568 528.202 327.485 528.679 327.485 529.203C327.485 529.74 327.569 530.215 327.737 530.628C327.909 531.038 328.16 531.36 328.493 531.595C328.829 531.827 329.245 531.943 329.742 531.943Z" fill="#767676"/>
<path d="M323.294 533.131V525.395H324.482V533.131H323.294ZM323.898 524.106C323.666 524.106 323.466 524.027 323.299 523.869C323.134 523.711 323.052 523.522 323.052 523.3C323.052 523.078 323.134 522.889 323.299 522.731C323.466 522.573 323.666 522.494 323.898 522.494C324.13 522.494 324.328 522.573 324.492 522.731C324.66 522.889 324.744 523.078 324.744 523.3C324.744 523.522 324.66 523.711 324.492 523.869C324.328 524.027 324.13 524.106 323.898 524.106Z" fill="#767676"/>
<path d="M312.955 533.131V522.816H314.204V527.41H319.704V522.816H320.953V533.131H319.704V528.518H314.204V533.131H312.955Z" fill="#767676"/>
<path d="M282.198 375.631C281.379 375.631 280.676 375.52 280.089 375.298C279.501 375.08 279.029 374.786 278.672 374.416C278.315 374.047 278.068 373.638 277.929 373.189L279.982 372.691C280.074 372.88 280.208 373.067 280.385 373.252C280.561 373.441 280.798 373.596 281.096 373.718C281.398 373.844 281.778 373.906 282.236 373.906C282.882 373.906 283.417 373.749 283.841 373.434C284.265 373.124 284.477 372.612 284.477 371.898V370.066H284.363C284.246 370.301 284.074 370.543 283.847 370.79C283.625 371.038 283.329 371.246 282.96 371.413C282.594 371.581 282.135 371.665 281.581 371.665C280.838 371.665 280.164 371.491 279.56 371.143C278.96 370.79 278.481 370.266 278.125 369.569C277.772 368.868 277.596 367.991 277.596 366.937C277.596 365.875 277.772 364.979 278.125 364.249C278.481 363.515 278.962 362.958 279.566 362.581C280.171 362.199 280.844 362.008 281.587 362.008C282.154 362.008 282.62 362.104 282.985 362.297C283.354 362.486 283.648 362.715 283.866 362.984C284.084 363.248 284.25 363.498 284.363 363.733H284.489V362.134H286.737V371.961C286.737 372.788 286.54 373.472 286.145 374.013C285.751 374.555 285.211 374.96 284.527 375.229C283.843 375.497 283.067 375.631 282.198 375.631ZM282.217 369.877C282.699 369.877 283.111 369.76 283.451 369.525C283.791 369.29 284.049 368.952 284.225 368.511C284.401 368.07 284.489 367.542 284.489 366.925C284.489 366.316 284.401 365.783 284.225 365.326C284.053 364.868 283.797 364.513 283.457 364.262C283.121 364.006 282.708 363.878 282.217 363.878C281.709 363.878 281.285 364.01 280.945 364.274C280.605 364.539 280.349 364.902 280.177 365.363C280.005 365.821 279.919 366.341 279.919 366.925C279.919 367.516 280.005 368.035 280.177 368.48C280.353 368.92 280.611 369.265 280.951 369.512C281.295 369.756 281.717 369.877 282.217 369.877Z" fill="#4D4D4D"/>
<path d="M269.467 366.138V371.804H267.188V362.134H269.367V363.777H269.48C269.703 363.235 270.057 362.805 270.544 362.486C271.035 362.167 271.642 362.008 272.363 362.008C273.031 362.008 273.612 362.151 274.107 362.436C274.607 362.721 274.993 363.135 275.266 363.676C275.543 364.218 275.679 364.874 275.675 365.647V371.804H273.396V365.999C273.396 365.353 273.228 364.847 272.892 364.482C272.561 364.117 272.101 363.934 271.514 363.934C271.115 363.934 270.76 364.022 270.45 364.199C270.143 364.371 269.902 364.62 269.726 364.948C269.554 365.275 269.467 365.672 269.467 366.138Z" fill="#4D4D4D"/>
<path d="M262.569 371.803V362.133H264.848V371.803H262.569ZM263.715 360.76C263.354 360.76 263.043 360.641 262.783 360.401C262.523 360.158 262.393 359.866 262.393 359.526C262.393 359.182 262.523 358.891 262.783 358.651C263.043 358.408 263.354 358.286 263.715 358.286C264.08 358.286 264.39 358.408 264.646 358.651C264.907 358.891 265.037 359.182 265.037 359.526C265.037 359.866 264.907 360.158 264.646 360.401C264.39 360.641 264.08 360.76 263.715 360.76Z" fill="#4D4D4D"/>
<path d="M255.538 371.803V362.133H257.748V363.745H257.849C258.025 363.187 258.327 362.756 258.755 362.454C259.187 362.148 259.681 361.995 260.235 361.995C260.36 361.995 260.501 362.001 260.656 362.014C260.816 362.022 260.948 362.037 261.053 362.058V364.154C260.956 364.12 260.803 364.091 260.593 364.066C260.388 364.036 260.188 364.022 259.995 364.022C259.58 364.022 259.206 364.112 258.875 364.293C258.547 364.469 258.289 364.714 258.1 365.029C257.912 365.344 257.817 365.707 257.817 366.118V371.803H255.538Z" fill="#4D4D4D"/>
<path d="M248.969 371.993C248.025 371.993 247.207 371.785 246.514 371.369C245.822 370.954 245.284 370.373 244.903 369.625C244.525 368.878 244.336 368.005 244.336 367.007C244.336 366.008 244.525 365.133 244.903 364.381C245.284 363.63 245.822 363.047 246.514 362.631C247.207 362.216 248.025 362.008 248.969 362.008C249.914 362.008 250.732 362.216 251.425 362.631C252.117 363.047 252.652 363.63 253.03 364.381C253.412 365.133 253.603 366.008 253.603 367.007C253.603 368.005 253.412 368.878 253.03 369.625C252.652 370.373 252.117 370.954 251.425 371.369C250.732 371.785 249.914 371.993 248.969 371.993ZM248.982 370.167C249.494 370.167 249.922 370.026 250.266 369.745C250.611 369.46 250.867 369.078 251.034 368.599C251.207 368.121 251.293 367.588 251.293 367C251.293 366.408 251.207 365.873 251.034 365.395C250.867 364.912 250.611 364.528 250.266 364.243C249.922 363.957 249.494 363.815 248.982 363.815C248.457 363.815 248.021 363.957 247.673 364.243C247.328 364.528 247.07 364.912 246.898 365.395C246.73 365.873 246.646 366.408 246.646 367C246.646 367.588 246.73 368.121 246.898 368.599C247.07 369.078 247.328 369.46 247.673 369.745C248.021 370.026 248.457 370.167 248.982 370.167Z" fill="#4D4D4D"/>
<path d="M238.737 371.993C237.772 371.993 236.943 371.781 236.25 371.357C235.562 370.933 235.031 370.347 234.658 369.6C234.288 368.849 234.104 367.984 234.104 367.007C234.104 366.024 234.292 365.158 234.67 364.406C235.048 363.651 235.581 363.063 236.269 362.644C236.962 362.22 237.78 362.008 238.724 362.008C239.509 362.008 240.204 362.153 240.808 362.442C241.417 362.728 241.902 363.133 242.263 363.657C242.624 364.178 242.829 364.786 242.88 365.483H240.701C240.613 365.017 240.403 364.629 240.072 364.318C239.744 364.004 239.306 363.846 238.756 363.846C238.29 363.846 237.881 363.972 237.528 364.224C237.176 364.471 236.901 364.828 236.704 365.294C236.511 365.76 236.414 366.318 236.414 366.969C236.414 367.628 236.511 368.194 236.704 368.669C236.897 369.139 237.167 369.502 237.516 369.758C237.868 370.009 238.282 370.135 238.756 370.135C239.092 370.135 239.392 370.072 239.656 369.947C239.925 369.816 240.149 369.63 240.33 369.386C240.51 369.143 240.634 368.847 240.701 368.499H242.88C242.825 369.183 242.624 369.789 242.275 370.318C241.927 370.843 241.453 371.254 240.852 371.552C240.252 371.846 239.547 371.993 238.737 371.993Z" fill="#4D4D4D"/>
<path d="M232.433 364.69L230.356 364.916C230.297 364.707 230.194 364.509 230.047 364.325C229.905 364.14 229.711 363.991 229.468 363.878C229.225 363.764 228.927 363.708 228.574 363.708C228.1 363.708 227.701 363.81 227.378 364.016C227.059 364.222 226.902 364.488 226.906 364.816C226.902 365.097 227.004 365.326 227.214 365.502C227.428 365.678 227.781 365.823 228.272 365.936L229.921 366.289C230.836 366.486 231.516 366.799 231.961 367.227C232.41 367.655 232.637 368.215 232.641 368.908C232.637 369.516 232.458 370.054 232.106 370.519C231.758 370.981 231.273 371.342 230.652 371.602C230.03 371.862 229.317 371.993 228.511 371.993C227.328 371.993 226.375 371.745 225.653 371.25C224.931 370.75 224.501 370.056 224.362 369.166L226.585 368.952C226.685 369.388 226.899 369.718 227.227 369.94C227.554 370.163 227.98 370.274 228.505 370.274C229.046 370.274 229.481 370.163 229.808 369.94C230.14 369.718 230.305 369.443 230.305 369.116C230.305 368.839 230.198 368.61 229.984 368.429C229.774 368.249 229.447 368.11 229.002 368.014L227.353 367.668C226.425 367.474 225.739 367.149 225.294 366.692C224.849 366.23 224.629 365.647 224.633 364.942C224.629 364.346 224.79 363.829 225.118 363.393C225.449 362.952 225.909 362.612 226.497 362.373C227.088 362.13 227.77 362.008 228.543 362.008C229.676 362.008 230.568 362.249 231.218 362.732C231.873 363.214 232.278 363.867 232.433 364.69Z" fill="#4D4D4D"/>
<path d="M212.376 368.768L212.37 366.017H212.735L216.21 362.133H218.873L214.599 366.892H214.127L212.376 368.768ZM210.299 371.803V358.909H212.578V371.803H210.299ZM216.368 371.803L213.22 367.402L214.756 365.797L219.094 371.803H216.368Z" fill="#4D4D4D"/>
<path d="M208.213 364.69L206.135 364.916C206.076 364.707 205.973 364.509 205.827 364.325C205.684 364.14 205.491 363.991 205.247 363.878C205.004 363.764 204.706 363.708 204.353 363.708C203.879 363.708 203.48 363.81 203.157 364.016C202.838 364.222 202.681 364.488 202.685 364.816C202.681 365.097 202.784 365.326 202.993 365.502C203.208 365.678 203.56 365.823 204.051 365.936L205.701 366.289C206.616 366.486 207.295 366.799 207.74 367.227C208.189 367.655 208.416 368.215 208.42 368.908C208.416 369.516 208.238 370.054 207.885 370.519C207.537 370.981 207.052 371.342 206.431 371.602C205.81 371.862 205.096 371.993 204.29 371.993C203.107 371.993 202.154 371.745 201.432 371.25C200.71 370.75 200.28 370.056 200.142 369.166L202.364 368.952C202.465 369.388 202.679 369.718 203.006 369.94C203.333 370.163 203.759 370.274 204.284 370.274C204.826 370.274 205.26 370.163 205.587 369.94C205.919 369.718 206.085 369.443 206.085 369.116C206.085 368.839 205.978 368.61 205.764 368.429C205.554 368.249 205.226 368.11 204.781 368.014L203.132 367.668C202.204 367.474 201.518 367.149 201.073 366.692C200.628 366.23 200.408 365.647 200.412 364.942C200.408 364.346 200.57 363.829 200.897 363.393C201.229 362.952 201.688 362.612 202.276 362.373C202.868 362.13 203.55 362.008 204.322 362.008C205.455 362.008 206.347 362.249 206.997 362.732C207.652 363.214 208.057 363.867 208.213 364.69Z" fill="#4D4D4D"/>
<path d="M195.948 371.803V362.133H198.227V371.803H195.948ZM197.094 360.76C196.733 360.76 196.422 360.641 196.162 360.401C195.902 360.158 195.771 359.866 195.771 359.526C195.771 359.182 195.902 358.891 196.162 358.651C196.422 358.408 196.733 358.286 197.094 358.286C197.459 358.286 197.769 358.408 198.025 358.651C198.286 358.891 198.416 359.182 198.416 359.526C198.416 359.866 198.286 360.158 198.025 360.401C197.769 360.641 197.459 360.76 197.094 360.76Z" fill="#4D4D4D"/>
<path d="M184.519 371.803V358.909H189.354C190.344 358.909 191.175 359.081 191.847 359.425C192.522 359.77 193.032 360.252 193.376 360.873C193.725 361.49 193.899 362.21 193.899 363.033C193.899 363.86 193.723 364.577 193.37 365.186C193.022 365.79 192.508 366.258 191.828 366.59C191.148 366.917 190.313 367.081 189.322 367.081H185.878V365.142H189.007C189.586 365.142 190.061 365.062 190.43 364.903C190.799 364.739 191.072 364.502 191.249 364.191C191.429 363.876 191.519 363.49 191.519 363.033C191.519 362.575 191.429 362.185 191.249 361.862C191.068 361.534 190.793 361.287 190.424 361.119C190.054 360.947 189.578 360.861 188.995 360.861H186.854V371.803H184.519ZM191.179 365.96L194.371 371.803H191.765L188.63 365.96H191.179Z" fill="#4D4D4D"/>
<mask id="mask0_1015_1219" style="mask-type:alpha" maskUnits="userSpaceOnUse" x="218" y="411" width="247" height="124">
<path fill-rule="evenodd" clip-rule="evenodd" d="M341.25 420.063C340.414 420.063 339.58 420.072 338.748 420.09L338.558 411.196C339.453 411.176 340.351 411.167 341.25 411.167C342.15 411.167 343.047 411.176 343.943 411.196L343.753 420.09C342.921 420.072 342.087 420.063 341.25 420.063ZM333.768 420.306C332.103 420.414 330.448 420.558 328.804 420.736L327.85 411.891C329.622 411.699 331.404 411.544 333.197 411.427L333.768 420.306ZM353.697 420.736C352.053 420.558 350.398 420.414 348.733 420.306L349.304 411.427C351.097 411.544 352.879 411.699 354.65 411.891L353.697 420.736ZM323.864 421.384C322.215 421.637 320.577 421.925 318.952 422.248L317.234 413.52C318.986 413.172 320.75 412.861 322.528 412.589L323.864 421.384ZM363.548 422.248C361.923 421.925 360.286 421.637 358.637 421.384L359.973 412.589C361.75 412.861 363.515 413.172 365.267 413.52L363.548 422.248ZM314.085 423.328C312.467 423.724 310.862 424.155 309.271 424.621L306.797 416.078C308.512 415.577 310.242 415.112 311.987 414.684L314.085 423.328ZM373.23 424.621C371.639 424.155 370.034 423.724 368.415 423.328L370.514 414.684C372.259 415.112 373.989 415.577 375.704 416.078L373.23 424.621ZM304.519 426.125C302.942 426.662 301.381 427.233 299.837 427.837L296.625 419.546C298.291 418.895 299.973 418.279 301.673 417.7L304.519 426.125ZM382.664 427.837C381.119 427.233 379.558 426.662 377.982 426.125L380.828 417.7C382.527 418.279 384.21 418.895 385.875 419.546L382.664 427.837ZM295.234 429.755C293.712 430.429 292.207 431.136 290.72 431.874L286.798 423.897C288.4 423.102 290.023 422.34 291.664 421.614L295.234 429.755ZM391.781 431.874C390.294 431.136 388.789 430.429 387.266 429.755L390.837 421.614C392.478 422.34 394.1 423.102 395.703 423.897L391.781 431.874ZM400.512 436.697C399.095 435.831 397.656 434.994 396.199 434.189L400.465 426.393C402.036 427.261 403.585 428.162 405.113 429.095L400.512 436.697ZM286.302 434.189C284.844 434.994 283.406 435.831 281.988 436.697L277.387 429.095C278.915 428.162 280.465 427.261 282.036 426.393L286.302 434.189ZM408.795 442.268C407.457 441.281 406.096 440.322 404.714 439.392L409.64 431.999C411.129 433 412.595 434.034 414.037 435.098L408.795 442.268ZM277.786 439.392C276.404 440.322 275.044 441.281 273.705 442.268L268.464 435.098C269.905 434.034 271.371 433 272.86 431.999L277.786 439.392ZM416.566 448.542C415.317 447.441 414.044 446.367 412.748 445.32L418.295 438.385C419.691 439.512 421.062 440.669 422.407 441.855L416.566 448.542ZM269.752 445.32C268.456 446.367 267.184 447.441 265.935 448.542L260.094 441.855C261.439 440.669 262.81 439.512 264.206 438.385L269.752 445.32ZM423.765 455.469C422.616 454.263 421.441 453.082 420.24 451.927L426.364 445.501C427.657 446.745 428.923 448.017 430.161 449.316L423.765 455.469ZM262.26 451.927C261.06 453.082 259.885 454.263 258.735 455.469L252.339 449.316C253.577 448.017 254.843 446.745 256.136 445.501L262.26 451.927ZM430.341 462.996C429.3 461.694 428.23 460.415 427.135 459.161L433.79 453.292C434.97 454.643 436.122 456.021 437.243 457.423L430.341 462.996ZM255.366 459.161C254.27 460.416 253.201 461.694 252.16 462.996L245.257 457.423C246.379 456.021 247.531 454.643 248.711 453.292L255.366 459.161ZM436.241 471.068C435.316 469.68 434.362 468.313 433.379 466.968L440.515 461.701C441.574 463.15 442.603 464.623 443.6 466.119L436.241 471.068ZM249.122 466.968C248.139 468.313 247.184 469.68 246.259 471.068L238.901 466.119C239.898 464.623 240.926 463.15 241.985 461.701L249.122 466.968ZM441.419 479.624C440.618 478.16 439.786 476.715 438.924 475.29L446.49 470.668C447.419 472.203 448.315 473.76 449.179 475.338L441.419 479.624ZM243.577 475.29C242.715 476.715 241.883 478.16 241.081 479.624L233.322 475.338C234.185 473.76 235.082 472.203 236.011 470.668L243.577 475.29ZM445.833 488.599C445.162 487.07 444.459 485.557 443.724 484.063L451.663 480.122C452.455 481.733 453.213 483.363 453.936 485.012L445.833 488.599ZM238.777 484.063C238.042 485.557 237.339 487.07 236.668 488.599L228.565 485.012C229.288 483.363 230.046 481.733 230.838 480.122L238.777 484.063ZM234.759 493.223C234.158 494.775 233.59 496.344 233.055 497.927L224.67 495.068C225.246 493.361 225.859 491.67 226.507 489.997L234.759 493.223ZM449.446 497.927C448.911 496.344 448.342 494.775 447.741 493.223L455.993 489.997C456.641 491.67 457.254 493.361 457.831 495.068L449.446 497.927ZM231.558 502.702C231.095 504.3 230.665 505.913 230.271 507.539L221.668 505.431C222.094 503.678 222.556 501.939 223.055 500.216L231.558 502.702ZM452.23 507.539C451.835 505.913 451.406 504.3 450.943 502.702L459.445 500.216C459.944 501.939 460.407 503.678 460.833 505.431L452.23 507.539ZM229.196 512.43C228.875 514.062 228.588 515.707 228.336 517.364L219.583 516.022C219.854 514.236 220.163 512.463 220.51 510.703L229.196 512.43ZM454.165 517.364C453.913 515.707 453.626 514.062 453.304 512.43L461.991 510.703C462.337 512.463 462.647 514.236 462.918 516.022L454.165 517.364ZM227.692 522.328C227.514 523.98 227.37 525.643 227.263 527.315L218.426 526.742C218.542 524.94 218.697 523.149 218.888 521.37L227.692 522.328ZM455.238 527.315C455.13 525.643 454.987 523.98 454.809 522.328L463.612 521.37C463.804 523.149 463.958 524.94 464.074 526.742L455.238 527.315ZM227.049 532.319C227.031 533.155 227.022 533.993 227.022 534.833H218.167C218.167 533.929 218.177 533.028 218.196 532.128L227.049 532.319ZM455.479 534.833C455.479 533.993 455.47 533.155 455.452 532.319L464.305 532.128C464.324 533.028 464.334 533.929 464.334 534.833H455.479Z" fill="black"/>
</mask>
<g mask="url(#mask0_1015_1219)">
<path d="M255.134 467.167L239.167 454.8L245.376 442.433L263.117 425.65L303.922 410.633L346.5 405.333L344.726 425.65L286.181 442.433L255.134 467.167Z" fill="#FF9320"/>
<path d="M346.5 425.933L349.165 406.5L371.375 410.033L403.356 419.75L435.338 447.133L443.333 455.967L431.784 465.683L421.124 468.333L410.463 454.2L386.477 438.3L346.5 425.933Z" fill="#FF0004"/>
<path d="M428.167 469.045L443.917 456.667L455.292 470.814L466.667 494.688L473.667 538.898L451.792 540.667L448.292 530.94L442.167 499.109L428.167 469.045Z" fill="#4C0000"/>
<path d="M233.917 543H212.334V494.389L237.515 455.5L255.501 468.758L242.011 494.389L233.917 543Z" fill="#6BDA7A"/>
</g>
<path d="M341.251 396C418.248 396 480.667 458.158 480.667 534.833H478.891C478.891 459.135 417.267 397.769 341.251 397.769C265.234 397.769 203.61 459.135 203.61 534.833H201.834C201.834 458.158 264.253 396 341.251 396Z" fill="#F5F5F5"/>
<path d="M442.534 456.106L450.936 439.709L460.934 455.183L442.534 456.106Z" fill="#FF0004"/>
<path d="M557.667 198.346C557.667 193.461 561.633 189.5 566.525 189.5H979.309C984.201 189.5 988.167 193.461 988.167 198.346V502.654C988.167 507.539 984.201 511.5 979.309 511.5H566.525C561.633 511.5 557.667 507.539 557.667 502.654V198.346Z" fill="white"/>
<path d="M979.309 509.731V511.5H566.525V509.731H979.309ZM986.395 502.654V198.346C986.395 194.438 983.223 191.269 979.309 191.269H566.525C562.611 191.269 559.439 194.438 559.439 198.346V502.654C559.439 506.562 562.611 509.731 566.525 509.731V511.5L566.07 511.488C561.54 511.259 557.908 507.632 557.679 503.108L557.667 502.654V198.346C557.667 193.613 561.389 189.749 566.07 189.512L566.525 189.5H979.309L979.764 189.512C984.445 189.749 988.167 193.613 988.167 198.346V502.654L988.155 503.108C987.926 507.632 984.294 511.259 979.764 511.488L979.309 511.5V509.731C983.223 509.731 986.395 506.562 986.395 502.654Z" fill="#F0F0F0"/>
<path d="M703.193 256.758C702.223 256.758 701.386 256.557 700.681 256.154C699.98 255.747 699.44 255.172 699.063 254.429C698.685 253.682 698.496 252.803 698.496 251.791C698.496 250.796 698.685 249.923 699.063 249.172C699.445 248.417 699.978 247.829 700.662 247.409C701.346 246.985 702.15 246.773 703.073 246.773C703.669 246.773 704.231 246.87 704.76 247.063C705.293 247.252 705.763 247.546 706.17 247.944C706.582 248.343 706.905 248.851 707.14 249.468C707.375 250.081 707.492 250.811 707.492 251.659V252.358H699.566V250.821H705.308C705.304 250.385 705.209 249.997 705.025 249.657C704.84 249.313 704.582 249.042 704.25 248.845C703.923 248.647 703.541 248.549 703.104 248.549C702.639 248.549 702.229 248.662 701.877 248.889C701.524 249.111 701.249 249.405 701.052 249.77C700.859 250.131 700.76 250.528 700.756 250.96V252.301C700.756 252.863 700.859 253.346 701.065 253.749C701.27 254.148 701.558 254.454 701.927 254.668C702.297 254.878 702.729 254.983 703.224 254.983C703.556 254.983 703.856 254.937 704.124 254.844C704.393 254.748 704.626 254.607 704.823 254.423C705.02 254.238 705.169 254.009 705.27 253.736L707.398 253.976C707.264 254.538 707.008 255.029 706.63 255.449C706.256 255.864 705.778 256.187 705.195 256.418C704.611 256.645 703.944 256.758 703.193 256.758Z" fill="#4D4D4D"/>
<path d="M690.388 250.903V256.569H688.109V246.899H690.288V248.542H690.401C690.623 248.001 690.978 247.571 691.465 247.252C691.956 246.933 692.562 246.773 693.284 246.773C693.952 246.773 694.533 246.916 695.028 247.202C695.528 247.487 695.914 247.9 696.187 248.442C696.464 248.983 696.6 249.64 696.596 250.412V256.569H694.317V250.765C694.317 250.118 694.149 249.613 693.813 249.248C693.482 248.882 693.022 248.7 692.434 248.7C692.036 248.7 691.681 248.788 691.37 248.964C691.064 249.136 690.823 249.386 690.646 249.713C690.474 250.041 690.388 250.437 690.388 250.903Z" fill="#4D4D4D"/>
<path d="M683.488 256.568V246.898H685.767V256.568H683.488ZM684.634 245.526C684.273 245.526 683.962 245.406 683.702 245.167C683.442 244.924 683.312 244.632 683.312 244.292C683.312 243.948 683.442 243.656 683.702 243.417C683.962 243.173 684.273 243.052 684.634 243.052C684.999 243.052 685.309 243.173 685.565 243.417C685.826 243.656 685.956 243.948 685.956 244.292C685.956 244.632 685.826 244.924 685.565 245.167C685.309 245.406 684.999 245.526 684.634 245.526Z" fill="#4D4D4D"/>
<path d="M676.612 260.397C675.793 260.397 675.09 260.286 674.503 260.063C673.915 259.845 673.443 259.551 673.086 259.182C672.73 258.813 672.482 258.403 672.343 257.954L674.396 257.457C674.488 257.646 674.622 257.833 674.799 258.017C674.975 258.206 675.212 258.362 675.51 258.483C675.812 258.609 676.192 258.672 676.65 258.672C677.296 258.672 677.831 258.515 678.255 258.2C678.679 257.889 678.891 257.377 678.891 256.664V254.832H678.778C678.66 255.067 678.488 255.308 678.261 255.556C678.039 255.803 677.743 256.011 677.374 256.179C677.008 256.347 676.549 256.431 675.995 256.431C675.252 256.431 674.578 256.257 673.974 255.908C673.374 255.556 672.895 255.031 672.539 254.334C672.186 253.634 672.01 252.756 672.01 251.703C672.01 250.641 672.186 249.745 672.539 249.015C672.895 248.28 673.376 247.724 673.98 247.346C674.585 246.964 675.258 246.773 676.001 246.773C676.568 246.773 677.034 246.87 677.399 247.063C677.768 247.252 678.062 247.481 678.28 247.749C678.498 248.014 678.664 248.263 678.778 248.498H678.903V246.899H681.151V256.727C681.151 257.554 680.954 258.238 680.559 258.779C680.165 259.321 679.625 259.726 678.941 259.994C678.257 260.263 677.481 260.397 676.612 260.397ZM676.631 254.643C677.113 254.643 677.525 254.525 677.865 254.29C678.205 254.055 678.463 253.717 678.639 253.277C678.815 252.836 678.903 252.307 678.903 251.69C678.903 251.082 678.815 250.549 678.639 250.091C678.467 249.634 678.211 249.279 677.871 249.027C677.535 248.771 677.122 248.643 676.631 248.643C676.123 248.643 675.699 248.775 675.359 249.04C675.019 249.304 674.763 249.667 674.591 250.129C674.419 250.586 674.333 251.107 674.333 251.69C674.333 252.282 674.419 252.8 674.591 253.245C674.767 253.686 675.025 254.03 675.365 254.278C675.709 254.521 676.131 254.643 676.631 254.643Z" fill="#4D4D4D"/>
<path d="M663.882 250.903V256.569H661.603V246.899H663.781V248.542H663.894C664.117 248.001 664.471 247.571 664.958 247.252C665.449 246.933 666.056 246.773 666.778 246.773C667.445 246.773 668.026 246.916 668.521 247.202C669.021 247.487 669.407 247.9 669.68 248.442C669.957 248.983 670.093 249.64 670.089 250.412V256.569H667.81V250.765C667.81 250.118 667.642 249.613 667.306 249.248C666.975 248.882 666.515 248.7 665.928 248.7C665.529 248.7 665.174 248.788 664.864 248.964C664.557 249.136 664.316 249.386 664.14 249.713C663.968 250.041 663.882 250.437 663.882 250.903Z" fill="#4D4D4D"/>
<path d="M650.937 256.568V243.675H659.322V245.633H653.272V249.133H658.888V251.091H653.272V254.61H659.373V256.568H650.937Z" fill="#4D4D4D"/>
<path d="M644.35 249.455L642.273 249.682C642.214 249.472 642.111 249.275 641.964 249.09C641.822 248.906 641.628 248.757 641.385 248.643C641.142 248.53 640.844 248.473 640.491 248.473C640.017 248.473 639.618 248.576 639.295 248.782C638.976 248.987 638.819 249.254 638.823 249.581C638.819 249.862 638.921 250.091 639.131 250.267C639.345 250.444 639.698 250.589 640.189 250.702L641.838 251.054C642.753 251.252 643.433 251.564 643.878 251.992C644.327 252.421 644.554 252.981 644.558 253.673C644.554 254.282 644.375 254.819 644.023 255.285C643.675 255.747 643.19 256.108 642.569 256.368C641.947 256.628 641.234 256.758 640.428 256.758C639.245 256.758 638.292 256.511 637.57 256.015C636.848 255.516 636.418 254.821 636.279 253.932L638.502 253.717C638.602 254.154 638.816 254.483 639.144 254.706C639.471 254.928 639.897 255.04 640.422 255.04C640.963 255.04 641.398 254.928 641.725 254.706C642.057 254.483 642.222 254.209 642.222 253.881C642.222 253.604 642.115 253.375 641.901 253.195C641.691 253.014 641.364 252.876 640.919 252.779L639.27 252.433C638.342 252.24 637.656 251.915 637.211 251.457C636.766 250.996 636.546 250.412 636.55 249.707C636.546 249.111 636.707 248.595 637.035 248.158C637.366 247.718 637.826 247.378 638.413 247.139C639.005 246.895 639.687 246.773 640.46 246.773C641.593 246.773 642.485 247.015 643.135 247.497C643.79 247.98 644.195 248.633 644.35 249.455Z" fill="#4D4D4D"/>
<path d="M630.479 256.758C629.509 256.758 628.672 256.557 627.967 256.154C627.266 255.747 626.727 255.172 626.349 254.429C625.971 253.682 625.782 252.803 625.782 251.791C625.782 250.796 625.971 249.923 626.349 249.172C626.731 248.417 627.264 247.829 627.948 247.409C628.632 246.985 629.436 246.773 630.359 246.773C630.955 246.773 631.517 246.87 632.046 247.063C632.579 247.252 633.049 247.546 633.457 247.944C633.868 248.343 634.191 248.851 634.426 249.468C634.661 250.081 634.779 250.811 634.779 251.659V252.358H626.852V250.821H632.594C632.59 250.385 632.495 249.997 632.311 249.657C632.126 249.313 631.868 249.042 631.536 248.845C631.209 248.647 630.827 248.549 630.391 248.549C629.925 248.549 629.516 248.662 629.163 248.889C628.81 249.111 628.535 249.405 628.338 249.77C628.145 250.131 628.047 250.528 628.042 250.96V252.301C628.042 252.863 628.145 253.346 628.351 253.749C628.556 254.148 628.844 254.454 629.213 254.668C629.583 254.878 630.015 254.983 630.51 254.983C630.842 254.983 631.142 254.937 631.41 254.844C631.679 254.748 631.912 254.607 632.109 254.423C632.307 254.238 632.456 254.009 632.556 253.736L634.684 253.976C634.55 254.538 634.294 255.029 633.916 255.449C633.543 255.864 633.064 256.187 632.481 256.418C631.897 256.645 631.23 256.758 630.479 256.758Z" fill="#4D4D4D"/>
<path d="M623.855 243.675V256.568H621.576V243.675H623.855Z" fill="#4D4D4D"/>
<path d="M616.953 252.502V246.898H619.232V256.568H617.023V254.85H616.922C616.704 255.391 616.345 255.834 615.845 256.178C615.35 256.522 614.739 256.694 614.013 256.694C613.38 256.694 612.819 256.554 612.332 256.273C611.85 255.987 611.472 255.574 611.199 255.032C610.926 254.487 610.79 253.828 610.79 253.056V246.898H613.069V252.703C613.069 253.316 613.237 253.803 613.573 254.164C613.908 254.524 614.349 254.705 614.895 254.705C615.231 254.705 615.556 254.623 615.871 254.459C616.185 254.296 616.443 254.052 616.645 253.729C616.851 253.402 616.953 252.993 616.953 252.502Z" fill="#4D4D4D"/>
<path d="M599.361 256.568V243.675H604.196C605.187 243.675 606.018 243.847 606.689 244.191C607.365 244.535 607.875 245.018 608.219 245.639C608.568 246.256 608.742 246.976 608.742 247.798C608.742 248.625 608.565 249.343 608.213 249.951C607.865 250.556 607.35 251.024 606.67 251.355C605.991 251.683 605.155 251.846 604.165 251.846H600.721V249.907H603.85C604.429 249.907 604.904 249.828 605.273 249.668C605.642 249.505 605.915 249.267 606.091 248.957C606.272 248.642 606.362 248.256 606.362 247.798C606.362 247.341 606.272 246.951 606.091 246.627C605.911 246.3 605.636 246.052 605.267 245.885C604.897 245.712 604.421 245.626 603.837 245.626H601.697V256.568H599.361ZM606.022 250.726L609.214 256.568H606.608L603.472 250.726H606.022Z" fill="#4D4D4D"/>
<path d="M810.235 315.274C809.333 315.274 808.552 315.064 807.893 314.644C807.234 314.22 806.724 313.635 806.363 312.888C806.006 312.136 805.828 311.272 805.828 310.294C805.828 309.32 806.006 308.456 806.363 307.7C806.724 306.94 807.222 306.347 807.855 305.918C808.493 305.486 809.23 305.27 810.065 305.27C810.59 305.27 811.095 305.367 811.582 305.56C812.069 305.748 812.506 306.04 812.892 306.435C813.282 306.825 813.591 307.318 813.817 307.914C814.044 308.506 814.157 309.207 814.157 310.017V310.571H806.602V309.582H813.011C813.011 308.961 812.885 308.403 812.634 307.908C812.386 307.408 812.04 307.014 811.595 306.724C811.154 306.435 810.644 306.29 810.065 306.29C809.452 306.29 808.913 306.454 808.447 306.781C807.981 307.108 807.616 307.541 807.352 308.078C807.091 308.615 806.959 309.203 806.955 309.841V310.432C806.955 311.2 807.087 311.872 807.352 312.447C807.62 313.018 808 313.461 808.491 313.775C808.982 314.09 809.563 314.248 810.235 314.248C810.693 314.248 811.093 314.176 811.437 314.033C811.786 313.891 812.078 313.7 812.313 313.461C812.552 313.217 812.732 312.951 812.854 312.661L813.918 313.007C813.771 313.414 813.53 313.79 813.194 314.134C812.862 314.478 812.447 314.755 811.947 314.965C811.452 315.171 810.881 315.274 810.235 315.274Z" fill="#767676"/>
<path d="M803.363 302.179V315.072H802.242V302.179H803.363Z" fill="#767676"/>
<path d="M798.154 311.377V305.402H799.275V315.072H798.154V313.467H798.066C797.839 313.962 797.481 314.376 796.99 314.707C796.499 315.035 795.898 315.198 795.189 315.198C794.572 315.198 794.024 315.064 793.546 314.795C793.067 314.523 792.692 314.124 792.419 313.599C792.146 313.075 792.01 312.43 792.01 311.666V305.402H793.13V311.597C793.13 312.353 793.353 312.961 793.798 313.423C794.243 313.88 794.813 314.109 795.51 314.109C795.947 314.109 796.366 314.004 796.769 313.794C797.172 313.584 797.504 313.278 797.764 312.875C798.024 312.468 798.154 311.969 798.154 311.377Z" fill="#767676"/>
<path d="M785.691 315.072V305.402H786.781V306.888H786.862C787.055 306.401 787.391 306.009 787.87 305.711C788.352 305.408 788.898 305.257 789.507 305.257C789.599 305.257 789.702 305.259 789.815 305.264C789.928 305.268 790.023 305.272 790.098 305.276V306.416C790.048 306.407 789.96 306.395 789.834 306.378C789.708 306.361 789.572 306.353 789.425 306.353C788.921 306.353 788.472 306.46 788.077 306.674C787.687 306.884 787.379 307.175 787.152 307.549C786.925 307.922 786.812 308.348 786.812 308.827V315.072H785.691Z" fill="#767676"/>
<path d="M765.486 315.073V305.403H766.575V306.889H766.676C766.869 306.389 767.19 305.997 767.639 305.711C768.093 305.422 768.636 305.277 769.27 305.277C769.937 305.277 770.485 305.434 770.913 305.749C771.345 306.06 771.669 306.488 771.883 307.033H771.964C772.183 306.496 772.537 306.07 773.028 305.755C773.524 305.436 774.124 305.277 774.829 305.277C775.727 305.277 776.436 305.56 776.957 306.127C777.477 306.689 777.738 307.512 777.738 308.595V315.073H776.617V308.595C776.617 307.831 776.422 307.258 776.031 306.876C775.641 306.494 775.127 306.303 774.489 306.303C773.75 306.303 773.182 306.53 772.783 306.983C772.384 307.436 772.185 308.011 772.185 308.708V315.073H771.039V308.494C771.039 307.839 770.856 307.31 770.491 306.907C770.126 306.504 769.612 306.303 768.949 306.303C768.504 306.303 768.103 306.412 767.746 306.63C767.394 306.849 767.115 307.153 766.909 307.543C766.708 307.929 766.607 308.374 766.607 308.878V315.073H765.486Z" fill="#767676"/>
<path d="M758.769 315.274C757.934 315.274 757.196 315.062 756.553 314.638C755.915 314.214 755.416 313.628 755.055 312.881C754.694 312.13 754.514 311.263 754.514 310.281C754.514 309.291 754.694 308.42 755.055 307.669C755.416 306.913 755.915 306.326 756.553 305.906C757.196 305.482 757.934 305.27 758.769 305.27C759.605 305.27 760.341 305.482 760.979 305.906C761.617 306.33 762.117 306.917 762.478 307.669C762.843 308.42 763.025 309.291 763.025 310.281C763.025 311.263 762.845 312.13 762.484 312.881C762.123 313.628 761.621 314.214 760.979 314.638C760.341 315.062 759.605 315.274 758.769 315.274ZM758.769 314.248C759.441 314.248 760.01 314.067 760.476 313.706C760.941 313.345 761.294 312.865 761.533 312.264C761.777 311.664 761.898 311.003 761.898 310.281C761.898 309.559 761.777 308.896 761.533 308.292C761.294 307.688 760.941 307.203 760.476 306.838C760.01 306.472 759.441 306.29 758.769 306.29C758.102 306.29 757.533 306.472 757.063 306.838C756.598 307.203 756.243 307.688 755.999 308.292C755.76 308.896 755.641 309.559 755.641 310.281C755.641 311.003 755.76 311.664 755.999 312.264C756.243 312.865 756.598 313.345 757.063 313.706C757.529 314.067 758.098 314.248 758.769 314.248Z" fill="#767676"/>
<path d="M752.57 305.403V306.379H747.955V305.403H752.57ZM749.397 303.086H750.524V312.548C750.524 312.951 750.593 313.268 750.731 313.499C750.87 313.725 751.05 313.887 751.273 313.984C751.495 314.076 751.732 314.122 751.984 314.122C752.131 314.122 752.257 314.114 752.362 314.097C752.467 314.076 752.559 314.055 752.639 314.034L752.878 315.048C752.769 315.09 752.635 315.127 752.475 315.161C752.316 315.199 752.119 315.218 751.884 315.218C751.472 315.218 751.076 315.127 750.694 314.947C750.316 314.766 750.005 314.498 749.762 314.141C749.518 313.784 749.397 313.341 749.397 312.813V303.086Z" fill="#767676"/>
<path d="M746.168 307.524L745.142 307.813C745.041 307.524 744.898 307.262 744.714 307.026C744.529 306.791 744.288 306.605 743.99 306.466C743.696 306.328 743.331 306.258 742.894 306.258C742.24 306.258 741.702 306.414 741.283 306.724C740.863 307.035 740.653 307.436 740.653 307.927C740.653 308.342 740.796 308.68 741.081 308.94C741.371 309.196 741.816 309.4 742.416 309.551L743.876 309.91C744.686 310.107 745.293 310.42 745.696 310.848C746.103 311.276 746.306 311.813 746.306 312.46C746.306 313.005 746.155 313.49 745.853 313.914C745.551 314.338 745.129 314.671 744.588 314.915C744.051 315.154 743.427 315.274 742.718 315.274C741.774 315.274 740.995 315.062 740.382 314.638C739.77 314.21 739.377 313.593 739.205 312.787L740.282 312.523C740.42 313.098 740.691 313.532 741.094 313.826C741.501 314.12 742.036 314.266 742.699 314.266C743.442 314.266 744.036 314.101 744.481 313.769C744.926 313.433 745.148 313.014 745.148 312.51C745.148 312.12 745.018 311.792 744.758 311.528C744.498 311.259 744.103 311.062 743.574 310.936L741.994 310.558C741.155 310.357 740.533 310.038 740.131 309.601C739.728 309.165 739.526 308.623 739.526 307.977C739.526 307.444 739.671 306.976 739.961 306.573C740.25 306.166 740.649 305.847 741.157 305.616C741.665 305.385 742.244 305.27 742.894 305.27C743.78 305.27 744.487 305.471 745.016 305.874C745.549 306.273 745.933 306.823 746.168 307.524Z" fill="#767676"/>
<path d="M735.586 311.377V305.402H736.707V315.072H735.586V313.467H735.498C735.271 313.962 734.912 314.376 734.421 314.707C733.93 315.035 733.33 315.198 732.621 315.198C732.004 315.198 731.456 315.064 730.978 314.795C730.499 314.523 730.123 314.124 729.851 313.599C729.578 313.075 729.441 312.43 729.441 311.666V305.402H730.562V311.597C730.562 312.353 730.784 312.961 731.229 313.423C731.674 313.88 732.245 314.109 732.942 314.109C733.378 314.109 733.798 314.004 734.201 313.794C734.604 313.584 734.935 313.278 735.196 312.875C735.456 312.468 735.586 311.969 735.586 311.377Z" fill="#767676"/>
<path d="M726.908 306.208H725.724C725.636 305.768 725.477 305.361 725.246 304.987C725.019 304.609 724.734 304.28 724.39 303.999C724.045 303.717 723.655 303.499 723.219 303.344C722.782 303.189 722.31 303.111 721.802 303.111C720.988 303.111 720.245 303.323 719.573 303.747C718.906 304.171 718.371 304.794 717.968 305.617C717.569 306.435 717.37 307.438 717.37 308.626C717.37 309.822 717.569 310.829 717.968 311.648C718.371 312.466 718.906 313.087 719.573 313.511C720.245 313.931 720.988 314.141 721.802 314.141C722.31 314.141 722.782 314.063 723.219 313.908C723.655 313.753 724.045 313.536 724.39 313.259C724.734 312.978 725.019 312.649 725.246 312.271C725.477 311.893 725.636 311.484 725.724 311.043H726.908C726.803 311.635 726.606 312.187 726.316 312.699C726.031 313.207 725.665 313.652 725.221 314.034C724.78 314.416 724.272 314.714 723.697 314.928C723.122 315.142 722.49 315.249 721.802 315.249C720.719 315.249 719.758 314.978 718.919 314.437C718.079 313.891 717.42 313.123 716.942 312.133C716.468 311.142 716.23 309.973 716.23 308.626C716.23 307.279 716.468 306.11 716.942 305.119C717.42 304.129 718.079 303.363 718.919 302.821C719.758 302.276 720.719 302.003 721.802 302.003C722.49 302.003 723.122 302.11 723.697 302.324C724.272 302.534 724.78 302.832 725.221 303.218C725.665 303.6 726.031 304.045 726.316 304.553C726.606 305.06 726.803 305.612 726.908 306.208Z" fill="#767676"/>
<path d="M887.312 384.414C886.41 384.414 885.629 384.204 884.97 383.784C884.311 383.36 883.801 382.775 883.44 382.028C883.084 381.277 882.905 380.412 882.905 379.434C882.905 378.46 883.084 377.596 883.44 376.84C883.801 376.081 884.299 375.487 884.932 375.059C885.57 374.626 886.307 374.41 887.142 374.41C887.667 374.41 888.173 374.507 888.659 374.7C889.146 374.889 889.583 375.18 889.969 375.575C890.359 375.965 890.668 376.458 890.894 377.054C891.121 377.646 891.234 378.347 891.234 379.157V379.711H883.68V378.723H890.089C890.089 378.101 889.963 377.543 889.711 377.048C889.463 376.549 889.117 376.154 888.672 375.864C888.231 375.575 887.721 375.43 887.142 375.43C886.529 375.43 885.99 375.594 885.524 375.921C885.058 376.248 884.693 376.681 884.429 377.218C884.169 377.755 884.036 378.343 884.032 378.981V379.573C884.032 380.341 884.164 381.012 884.429 381.587C884.697 382.158 885.077 382.601 885.568 382.915C886.059 383.23 886.641 383.388 887.312 383.388C887.77 383.388 888.17 383.316 888.515 383.174C888.863 383.031 889.155 382.84 889.39 382.601C889.629 382.357 889.809 382.091 889.931 381.801L890.995 382.147C890.848 382.555 890.607 382.93 890.271 383.274C889.94 383.618 889.524 383.895 889.025 384.105C888.529 384.311 887.959 384.414 887.312 384.414Z" fill="#767676"/>
<path d="M880.438 371.319V384.213H879.317V371.319H880.438Z" fill="#767676"/>
<path d="M875.229 380.517V374.542H876.35V384.212H875.229V382.607H875.141C874.915 383.102 874.556 383.516 874.065 383.847C873.574 384.175 872.974 384.338 872.264 384.338C871.647 384.338 871.1 384.204 870.621 383.935C870.143 383.663 869.767 383.264 869.494 382.739C869.221 382.215 869.085 381.57 869.085 380.807V374.542H870.206V380.737C870.206 381.493 870.428 382.101 870.873 382.563C871.318 383.021 871.889 383.249 872.585 383.249C873.022 383.249 873.441 383.144 873.844 382.934C874.247 382.725 874.579 382.418 874.839 382.015C875.099 381.608 875.229 381.109 875.229 380.517Z" fill="#767676"/>
<path d="M862.767 384.213V374.543H863.856V376.029H863.938C864.131 375.542 864.466 375.15 864.945 374.852C865.428 374.55 865.973 374.398 866.582 374.398C866.674 374.398 866.777 374.401 866.89 374.405C867.004 374.409 867.098 374.413 867.174 374.417V375.557C867.123 375.548 867.035 375.536 866.909 375.519C866.783 375.502 866.647 375.494 866.5 375.494C865.996 375.494 865.547 375.601 865.153 375.815C864.762 376.025 864.454 376.316 864.227 376.69C864.001 377.064 863.887 377.49 863.887 377.968V384.213H862.767Z" fill="#767676"/>
<path d="M850.821 388.04C850.162 388.04 849.585 387.954 849.09 387.782C848.595 387.614 848.177 387.383 847.837 387.089C847.497 386.796 847.233 386.466 847.044 386.101L847.963 385.497C848.102 385.74 848.286 385.979 848.517 386.214C848.752 386.449 849.056 386.645 849.43 386.8C849.808 386.955 850.272 387.033 850.821 387.033C851.678 387.033 852.368 386.819 852.893 386.391C853.421 385.963 853.686 385.297 853.686 384.395V382.217H853.585C853.455 382.51 853.268 382.804 853.025 383.098C852.781 383.388 852.462 383.629 852.068 383.822C851.678 384.015 851.193 384.112 850.614 384.112C849.841 384.112 849.155 383.921 848.555 383.539C847.959 383.157 847.489 382.611 847.145 381.902C846.805 381.188 846.635 380.338 846.635 379.352C846.635 378.374 846.801 377.514 847.132 376.771C847.468 376.028 847.936 375.449 848.536 375.033C849.136 374.618 849.835 374.41 850.632 374.41C851.224 374.41 851.715 374.515 852.106 374.725C852.496 374.931 852.809 375.187 853.044 375.493C853.283 375.799 853.47 376.097 853.604 376.387H853.717V374.542H854.813V384.464C854.813 385.283 854.639 385.956 854.29 386.485C853.942 387.014 853.468 387.404 852.867 387.656C852.267 387.912 851.585 388.04 850.821 388.04ZM850.746 383.085C851.367 383.085 851.898 382.936 852.339 382.638C852.779 382.336 853.117 381.904 853.352 381.342C853.587 380.779 853.705 380.11 853.705 379.333C853.705 378.578 853.589 377.908 853.358 377.325C853.128 376.737 852.792 376.276 852.351 375.94C851.915 375.6 851.38 375.43 850.746 375.43C850.099 375.43 849.554 375.604 849.109 375.953C848.664 376.301 848.328 376.771 848.102 377.363C847.875 377.95 847.762 378.607 847.762 379.333C847.762 380.072 847.877 380.725 848.108 381.291C848.339 381.854 848.677 382.294 849.122 382.613C849.566 382.928 850.108 383.085 850.746 383.085Z" fill="#767676"/>
<path d="M837.987 378.169V384.213H836.866V374.543H837.955V376.06H838.056C838.283 375.565 838.635 375.168 839.114 374.87C839.596 374.568 840.192 374.417 840.902 374.417C841.552 374.417 842.123 374.553 842.614 374.826C843.109 375.095 843.493 375.491 843.766 376.016C844.043 376.541 844.182 377.185 844.182 377.949V384.213H843.061V378.018C843.061 377.225 842.839 376.597 842.394 376.136C841.953 375.674 841.361 375.443 840.618 375.443C840.111 375.443 839.659 375.552 839.265 375.771C838.87 375.989 838.558 376.304 838.327 376.715C838.1 377.122 837.987 377.607 837.987 378.169Z" fill="#767676"/>
<path d="M832.775 384.212V374.542H833.902V384.212H832.775ZM833.348 372.88C833.117 372.88 832.92 372.803 832.756 372.647C832.593 372.488 832.511 372.297 832.511 372.074C832.511 371.852 832.593 371.663 832.756 371.508C832.92 371.348 833.117 371.269 833.348 371.269C833.579 371.269 833.776 371.348 833.94 371.508C834.104 371.663 834.185 371.852 834.185 372.074C834.185 372.297 834.104 372.488 833.94 372.647C833.776 372.803 833.579 372.88 833.348 372.88Z" fill="#767676"/>
<path d="M823.618 378.169V384.213H822.497V374.543H823.586V376.06H823.687C823.914 375.565 824.266 375.168 824.745 374.87C825.227 374.568 825.823 374.417 826.533 374.417C827.183 374.417 827.754 374.553 828.245 374.826C828.74 375.095 829.124 375.491 829.397 376.016C829.674 376.541 829.813 377.185 829.813 377.949V384.213H828.692V378.018C828.692 377.225 828.469 376.597 828.025 376.136C827.584 375.674 826.992 375.443 826.249 375.443C825.741 375.443 825.29 375.552 824.896 375.771C824.501 375.989 824.188 376.304 823.958 376.715C823.731 377.122 823.618 377.607 823.618 378.169Z" fill="#767676"/>
<path d="M816.177 384.213V374.543H817.266V376.029H817.348C817.541 375.542 817.877 375.15 818.355 374.852C818.838 374.55 819.383 374.398 819.992 374.398C820.084 374.398 820.187 374.401 820.3 374.405C820.414 374.409 820.508 374.413 820.584 374.417V375.557C820.533 375.548 820.445 375.536 820.319 375.519C820.193 375.502 820.057 375.494 819.91 375.494C819.406 375.494 818.957 375.601 818.563 375.815C818.172 376.025 817.864 376.316 817.637 376.69C817.411 377.064 817.297 377.49 817.297 377.968V384.213H816.177Z" fill="#767676"/>
<path d="M809.009 384.433C808.426 384.433 807.893 384.319 807.41 384.093C806.928 383.862 806.544 383.53 806.258 383.098C805.973 382.662 805.83 382.133 805.83 381.512C805.83 381.033 805.92 380.63 806.101 380.303C806.281 379.975 806.537 379.707 806.869 379.497C807.2 379.287 807.593 379.121 808.046 379C808.499 378.878 808.999 378.783 809.544 378.716C810.086 378.649 810.543 378.59 810.917 378.54C811.295 378.49 811.582 378.41 811.779 378.301C811.977 378.192 812.075 378.015 812.075 377.772V377.545C812.075 376.886 811.878 376.368 811.484 375.99C811.093 375.608 810.531 375.417 809.796 375.417C809.1 375.417 808.531 375.571 808.09 375.877C807.654 376.183 807.347 376.544 807.171 376.96L806.107 376.576C806.325 376.047 806.628 375.625 807.014 375.31C807.4 374.991 807.832 374.763 808.311 374.624C808.789 374.482 809.274 374.41 809.765 374.41C810.134 374.41 810.518 374.458 810.917 374.555C811.32 374.651 811.693 374.819 812.038 375.059C812.382 375.294 812.661 375.623 812.875 376.047C813.089 376.467 813.196 377 813.196 377.646V384.212H812.075V382.683H812.006C811.872 382.968 811.672 383.245 811.408 383.514C811.144 383.782 810.812 384.003 810.413 384.175C810.015 384.347 809.547 384.433 809.009 384.433ZM809.16 383.407C809.756 383.407 810.273 383.274 810.709 383.01C811.146 382.746 811.481 382.395 811.716 381.959C811.956 381.518 812.075 381.033 812.075 380.504V379.107C811.991 379.186 811.851 379.258 811.653 379.321C811.46 379.384 811.236 379.44 810.98 379.491C810.728 379.537 810.476 379.577 810.224 379.61C809.973 379.644 809.746 379.673 809.544 379.698C808.999 379.766 808.533 379.871 808.147 380.013C807.761 380.156 807.465 380.353 807.259 380.605C807.054 380.853 806.951 381.172 806.951 381.562C806.951 382.15 807.161 382.605 807.58 382.928C808 383.247 808.527 383.407 809.16 383.407Z" fill="#767676"/>
<path d="M799.917 384.414C799.014 384.414 798.234 384.204 797.575 383.784C796.916 383.36 796.406 382.775 796.045 382.028C795.688 381.277 795.51 380.412 795.51 379.434C795.51 378.46 795.688 377.596 796.045 376.84C796.406 376.081 796.903 375.487 797.537 375.059C798.175 374.626 798.911 374.41 799.747 374.41C800.271 374.41 800.777 374.507 801.264 374.7C801.751 374.889 802.187 375.18 802.573 375.575C802.964 375.965 803.272 376.458 803.499 377.054C803.725 377.646 803.839 378.347 803.839 379.157V379.711H796.284V378.723H802.693C802.693 378.101 802.567 377.543 802.315 377.048C802.068 376.549 801.721 376.154 801.277 375.864C800.836 375.575 800.326 375.43 799.747 375.43C799.134 375.43 798.595 375.594 798.129 375.921C797.663 376.248 797.298 376.681 797.033 377.218C796.773 377.755 796.641 378.343 796.637 378.981V379.573C796.637 380.341 796.769 381.012 797.033 381.587C797.302 382.158 797.682 382.601 798.173 382.915C798.664 383.23 799.245 383.388 799.917 383.388C800.374 383.388 800.775 383.316 801.119 383.174C801.467 383.031 801.759 382.84 801.994 382.601C802.233 382.357 802.414 382.091 802.536 381.801L803.6 382.147C803.453 382.555 803.211 382.93 802.876 383.274C802.544 383.618 802.129 383.895 801.629 384.105C801.134 384.311 800.563 384.414 799.917 384.414Z" fill="#767676"/>
<path d="M793.042 371.319V384.213H791.922V371.319H793.042Z" fill="#767676"/>
<path d="M780.544 384.414C779.641 384.414 778.861 384.204 778.202 383.784C777.543 383.36 777.033 382.775 776.672 382.028C776.315 381.277 776.137 380.412 776.137 379.434C776.137 378.46 776.315 377.596 776.672 376.84C777.033 376.081 777.53 375.487 778.164 375.059C778.802 374.626 779.538 374.41 780.374 374.41C780.898 374.41 781.404 374.507 781.891 374.7C782.378 374.889 782.814 375.18 783.2 375.575C783.591 375.965 783.899 376.458 784.126 377.054C784.352 377.646 784.466 378.347 784.466 379.157V379.711H776.911V378.723H783.32C783.32 378.101 783.194 377.543 782.942 377.048C782.695 376.549 782.348 376.154 781.903 375.864C781.463 375.575 780.953 375.43 780.374 375.43C779.761 375.43 779.222 375.594 778.756 375.921C778.29 376.248 777.925 376.681 777.66 377.218C777.4 377.755 777.268 378.343 777.264 378.981V379.573C777.264 380.341 777.396 381.012 777.66 381.587C777.929 382.158 778.309 382.601 778.8 382.915C779.291 383.23 779.872 383.388 780.544 383.388C781.001 383.388 781.402 383.316 781.746 383.174C782.094 383.031 782.386 382.84 782.621 382.601C782.86 382.357 783.041 382.091 783.163 381.801L784.227 382.147C784.08 382.555 783.838 382.93 783.503 383.274C783.171 383.618 782.755 383.895 782.256 384.105C781.761 384.311 781.19 384.414 780.544 384.414Z" fill="#767676"/>
<path d="M767.489 378.169V384.213H766.368V374.543H767.457V376.06H767.558C767.785 375.565 768.137 375.168 768.616 374.87C769.098 374.568 769.694 374.417 770.404 374.417C771.054 374.417 771.625 374.553 772.116 374.826C772.611 375.095 772.995 375.491 773.268 376.016C773.545 376.541 773.684 377.185 773.684 377.949V384.213H772.563V378.018C772.563 377.225 772.341 376.597 771.896 376.136C771.455 375.674 770.863 375.443 770.12 375.443C769.612 375.443 769.161 375.552 768.767 375.771C768.372 375.989 768.06 376.304 767.829 376.715C767.602 377.122 767.489 377.607 767.489 378.169Z" fill="#767676"/>
<path d="M762.277 384.212V374.542H763.404V384.212H762.277ZM762.85 372.88C762.619 372.88 762.422 372.803 762.258 372.647C762.095 372.488 762.013 372.297 762.013 372.074C762.013 371.852 762.095 371.663 762.258 371.508C762.422 371.348 762.619 371.269 762.85 371.269C763.081 371.269 763.278 371.348 763.442 371.508C763.605 371.663 763.687 371.852 763.687 372.074C763.687 372.297 763.605 372.488 763.442 372.647C763.278 372.803 763.081 372.88 762.85 372.88Z" fill="#767676"/>
<path d="M753.05 378.169V384.213H751.93V371.319H753.05V376.06H753.151C753.378 375.56 753.728 375.162 754.202 374.864C754.681 374.566 755.285 374.417 756.016 374.417C756.67 374.417 757.245 374.551 757.741 374.82C758.236 375.088 758.622 375.485 758.899 376.01C759.176 376.534 759.314 377.181 759.314 377.949V384.213H758.187V378.018C758.187 377.22 757.965 376.593 757.52 376.135C757.079 375.674 756.483 375.443 755.732 375.443C755.216 375.443 754.756 375.552 754.353 375.77C753.951 375.989 753.632 376.303 753.397 376.715C753.166 377.122 753.05 377.607 753.05 378.169Z" fill="#767676"/>
<path d="M745.837 384.414C744.973 384.414 744.219 384.198 743.577 383.765C742.939 383.333 742.444 382.741 742.091 381.99C741.739 381.239 741.562 380.383 741.562 379.421C741.562 378.452 741.741 377.589 742.098 376.834C742.459 376.078 742.958 375.487 743.596 375.059C744.234 374.626 744.975 374.41 745.818 374.41C746.465 374.41 747.05 374.536 747.575 374.788C748.099 375.036 748.532 375.386 748.872 375.839C749.216 376.288 749.432 376.813 749.52 377.413H748.387C748.269 376.868 747.986 376.402 747.537 376.016C747.092 375.625 746.526 375.43 745.837 375.43C745.22 375.43 744.675 375.598 744.2 375.934C743.726 376.265 743.355 376.729 743.086 377.325C742.822 377.917 742.689 378.603 742.689 379.384C742.689 380.169 742.82 380.863 743.08 381.468C743.34 382.068 743.705 382.538 744.175 382.878C744.649 383.218 745.203 383.388 745.837 383.388C746.265 383.388 746.656 383.308 747.008 383.148C747.365 382.985 747.663 382.754 747.902 382.456C748.146 382.158 748.309 381.803 748.393 381.392H749.526C749.442 381.975 749.235 382.496 748.903 382.953C748.576 383.407 748.15 383.763 747.625 384.024C747.105 384.284 746.509 384.414 745.837 384.414Z" fill="#767676"/>
<path d="M734.892 384.433C734.309 384.433 733.776 384.319 733.293 384.093C732.81 383.862 732.426 383.53 732.141 383.098C731.856 382.662 731.713 382.133 731.713 381.512C731.713 381.033 731.803 380.63 731.984 380.303C732.164 379.975 732.42 379.707 732.752 379.497C733.083 379.287 733.476 379.121 733.929 379C734.382 378.878 734.882 378.783 735.427 378.716C735.969 378.649 736.426 378.59 736.8 378.54C737.177 378.49 737.465 378.41 737.662 378.301C737.859 378.192 737.958 378.015 737.958 377.772V377.545C737.958 376.886 737.761 376.368 737.366 375.99C736.976 375.608 736.414 375.417 735.679 375.417C734.982 375.417 734.414 375.571 733.973 375.877C733.537 376.183 733.23 376.544 733.054 376.96L731.99 376.576C732.208 376.047 732.51 375.625 732.896 375.31C733.283 374.991 733.715 374.763 734.193 374.624C734.672 374.482 735.157 374.41 735.648 374.41C736.017 374.41 736.401 374.458 736.8 374.555C737.203 374.651 737.576 374.819 737.92 375.059C738.264 375.294 738.544 375.623 738.758 376.047C738.972 376.467 739.079 377 739.079 377.646V384.212H737.958V382.683H737.889C737.755 382.968 737.555 383.245 737.291 383.514C737.026 383.782 736.695 384.003 736.296 384.175C735.897 384.347 735.429 384.433 734.892 384.433ZM735.043 383.407C735.639 383.407 736.155 383.274 736.592 383.01C737.028 382.746 737.364 382.395 737.599 381.959C737.838 381.518 737.958 381.033 737.958 380.504V379.107C737.874 379.186 737.734 379.258 737.536 379.321C737.343 379.384 737.119 379.44 736.863 379.491C736.611 379.537 736.359 379.577 736.107 379.61C735.855 379.644 735.629 379.673 735.427 379.698C734.882 379.766 734.416 379.871 734.03 380.013C733.644 380.156 733.348 380.353 733.142 380.605C732.936 380.853 732.834 381.172 732.834 381.562C732.834 382.15 733.043 382.605 733.463 382.928C733.883 383.247 734.409 383.407 735.043 383.407Z" fill="#767676"/>
<path d="M716.809 371.319H718.168L722.846 382.551H722.959L727.637 371.319H728.997V384.213H727.889V373.806H727.788L723.438 384.213H722.368L718.017 373.806H717.917V384.213H716.809V371.319Z" fill="#767676"/>
<path d="M805.63 453.554C804.727 453.554 803.947 453.345 803.288 452.925C802.629 452.501 802.119 451.916 801.758 451.168C801.401 450.417 801.223 449.553 801.223 448.575C801.223 447.601 801.401 446.736 801.758 445.981C802.119 445.221 802.616 444.627 803.25 444.199C803.888 443.767 804.624 443.551 805.46 443.551C805.984 443.551 806.49 443.647 806.977 443.84C807.464 444.029 807.9 444.321 808.286 444.715C808.677 445.106 808.985 445.599 809.212 446.195C809.438 446.787 809.552 447.488 809.552 448.298V448.852H801.997V447.863H808.406C808.406 447.242 808.28 446.684 808.028 446.189C807.781 445.689 807.434 445.295 806.989 445.005C806.549 444.715 806.039 444.571 805.46 444.571C804.847 444.571 804.307 444.734 803.842 445.062C803.376 445.389 803.011 445.821 802.746 446.359C802.486 446.896 802.354 447.483 802.35 448.121V448.713C802.35 449.481 802.482 450.153 802.746 450.728C803.015 451.299 803.395 451.741 803.886 452.056C804.377 452.371 804.958 452.528 805.63 452.528C806.087 452.528 806.488 452.457 806.832 452.314C807.18 452.172 807.472 451.981 807.707 451.741C807.946 451.498 808.127 451.231 808.249 450.942L809.312 451.288C809.166 451.695 808.924 452.071 808.588 452.415C808.257 452.759 807.841 453.036 807.342 453.246C806.847 453.452 806.276 453.554 805.63 453.554Z" fill="#767676"/>
<path d="M798.756 440.46V453.353H797.636V440.46H798.756Z" fill="#767676"/>
<path d="M793.548 449.658V443.684H794.668V453.354H793.548V451.748H793.46C793.233 452.243 792.874 452.657 792.383 452.988C791.892 453.316 791.292 453.48 790.583 453.48C789.966 453.48 789.418 453.345 788.939 453.077C788.461 452.804 788.085 452.405 787.813 451.88C787.54 451.356 787.403 450.712 787.403 449.948V443.684H788.524V449.878C788.524 450.634 788.746 451.242 789.191 451.704C789.636 452.162 790.207 452.39 790.904 452.39C791.34 452.39 791.76 452.285 792.163 452.076C792.566 451.866 792.897 451.559 793.157 451.156C793.418 450.749 793.548 450.25 793.548 449.658Z" fill="#767676"/>
<path d="M781.085 453.354V443.684H782.174V445.17H782.256C782.449 444.683 782.785 444.29 783.263 443.992C783.746 443.69 784.292 443.539 784.9 443.539C784.992 443.539 785.095 443.541 785.209 443.545C785.322 443.55 785.416 443.554 785.492 443.558V444.697C785.441 444.689 785.353 444.676 785.227 444.66C785.102 444.643 784.965 444.634 784.818 444.634C784.315 444.634 783.866 444.742 783.471 444.956C783.081 445.165 782.772 445.457 782.546 445.831C782.319 446.204 782.206 446.63 782.206 447.109V453.354H781.085Z" fill="#767676"/>
<path d="M773.552 443.683V444.659H768.938V443.683H773.552ZM770.379 441.367H771.506V450.829C771.506 451.232 771.575 451.549 771.714 451.78C771.852 452.006 772.033 452.168 772.255 452.264C772.478 452.357 772.715 452.403 772.967 452.403C773.114 452.403 773.239 452.394 773.344 452.378C773.449 452.357 773.542 452.336 773.621 452.315L773.861 453.328C773.752 453.37 773.617 453.408 773.458 453.442C773.298 453.479 773.101 453.498 772.866 453.498C772.455 453.498 772.058 453.408 771.676 453.228C771.298 453.047 770.988 452.778 770.744 452.422C770.501 452.065 770.379 451.622 770.379 451.093V441.367Z" fill="#767676"/>
<path d="M766.779 440.46V453.353H765.658V440.46H766.779Z" fill="#767676"/>
<path d="M761.57 449.658V443.684H762.691V453.354H761.57V451.748H761.482C761.255 452.243 760.897 452.657 760.406 452.988C759.915 453.316 759.314 453.48 758.605 453.48C757.988 453.48 757.44 453.345 756.962 453.077C756.483 452.804 756.108 452.405 755.835 451.88C755.562 451.356 755.426 450.712 755.426 449.948V443.684H756.546V449.878C756.546 450.634 756.769 451.242 757.214 451.704C757.659 452.162 758.229 452.39 758.926 452.39C759.363 452.39 759.782 452.285 760.185 452.076C760.588 451.866 760.92 451.559 761.18 451.156C761.44 450.749 761.57 450.25 761.57 449.658Z" fill="#767676"/>
<path d="M748.258 453.573C747.675 453.573 747.142 453.46 746.659 453.233C746.177 453.003 745.793 452.671 745.507 452.239C745.222 451.802 745.079 451.273 745.079 450.652C745.079 450.174 745.169 449.771 745.35 449.443C745.53 449.116 745.786 448.847 746.118 448.638C746.449 448.428 746.842 448.262 747.295 448.14C747.748 448.019 748.248 447.924 748.793 447.857C749.335 447.79 749.792 447.731 750.166 447.681C750.544 447.63 750.831 447.551 751.028 447.441C751.226 447.332 751.324 447.156 751.324 446.913V446.686C751.324 446.027 751.127 445.509 750.733 445.131C750.342 444.749 749.78 444.558 749.045 444.558C748.349 444.558 747.78 444.711 747.339 445.018C746.903 445.324 746.596 445.685 746.42 446.1L745.356 445.716C745.574 445.188 745.877 444.766 746.263 444.451C746.649 444.132 747.081 443.903 747.56 443.765C748.038 443.622 748.523 443.551 749.014 443.551C749.383 443.551 749.767 443.599 750.166 443.696C750.569 443.792 750.942 443.96 751.287 444.199C751.631 444.434 751.91 444.764 752.124 445.188C752.338 445.607 752.445 446.14 752.445 446.787V453.353H751.324V451.823H751.255C751.121 452.109 750.921 452.386 750.657 452.654C750.393 452.923 750.061 453.143 749.662 453.315C749.264 453.487 748.796 453.573 748.258 453.573ZM748.409 452.547C749.005 452.547 749.522 452.415 749.958 452.151C750.395 451.886 750.73 451.536 750.965 451.099C751.205 450.658 751.324 450.174 751.324 449.645V448.247C751.24 448.327 751.1 448.398 750.903 448.461C750.709 448.524 750.485 448.581 750.229 448.631C749.977 448.677 749.725 448.717 749.473 448.751C749.222 448.785 748.995 448.814 748.793 448.839C748.248 448.906 747.782 449.011 747.396 449.154C747.01 449.297 746.714 449.494 746.508 449.746C746.303 449.993 746.2 450.312 746.2 450.703C746.2 451.29 746.41 451.746 746.829 452.069C747.249 452.388 747.776 452.547 748.409 452.547Z" fill="#767676"/>
<path d="M743.58 443.684V444.66H738.827V443.684H743.58ZM740.313 453.354V442.267C740.313 441.747 740.433 441.308 740.672 440.951C740.915 440.595 741.232 440.324 741.622 440.139C742.013 439.955 742.426 439.862 742.863 439.862C743.156 439.862 743.4 439.887 743.593 439.938C743.79 439.984 743.945 440.03 744.059 440.076L743.731 441.058C743.647 441.033 743.545 441.004 743.423 440.97C743.301 440.937 743.148 440.92 742.963 440.92C742.476 440.92 742.101 441.056 741.836 441.329C741.572 441.602 741.44 441.992 741.44 442.5L741.434 453.354H740.313Z" fill="#767676"/>
<path d="M733.211 453.554C732.308 453.554 731.528 453.345 730.869 452.925C730.21 452.501 729.7 451.916 729.339 451.168C728.982 450.417 728.804 449.553 728.804 448.575C728.804 447.601 728.982 446.736 729.339 445.981C729.7 445.221 730.197 444.627 730.831 444.199C731.469 443.767 732.205 443.551 733.041 443.551C733.565 443.551 734.071 443.647 734.558 443.84C735.045 444.029 735.481 444.321 735.867 444.715C736.258 445.106 736.566 445.599 736.793 446.195C737.019 446.787 737.133 447.488 737.133 448.298V448.852H729.578V447.863H735.987C735.987 447.242 735.861 446.684 735.609 446.189C735.362 445.689 735.015 445.295 734.57 445.005C734.13 444.715 733.62 444.571 733.041 444.571C732.428 444.571 731.889 444.734 731.423 445.062C730.957 445.389 730.592 445.821 730.327 446.359C730.067 446.896 729.935 447.483 729.931 448.121V448.713C729.931 449.481 730.063 450.153 730.327 450.728C730.596 451.299 730.976 451.741 731.467 452.056C731.958 452.371 732.539 452.528 733.211 452.528C733.668 452.528 734.069 452.457 734.413 452.314C734.761 452.172 735.053 451.981 735.288 451.741C735.527 451.498 735.708 451.231 735.83 450.942L736.894 451.288C736.747 451.695 736.505 452.071 736.17 452.415C735.838 452.759 735.422 453.036 734.923 453.246C734.428 453.452 733.857 453.554 733.211 453.554Z" fill="#767676"/>
<path d="M720.586 453.353H716.809V440.46H720.813C722.042 440.46 723.094 440.716 723.967 441.228C724.844 441.74 725.515 442.475 725.981 443.431C726.447 444.388 726.68 445.536 726.68 446.875C726.68 448.227 726.441 449.387 725.962 450.357C725.488 451.322 724.796 452.063 723.885 452.579C722.978 453.095 721.879 453.353 720.586 453.353ZM717.986 452.296H720.517C721.625 452.296 722.552 452.077 723.299 451.641C724.046 451.204 724.607 450.581 724.98 449.771C725.354 448.961 725.541 447.996 725.541 446.875C725.536 445.763 725.352 444.806 724.987 444.004C724.626 443.203 724.088 442.588 723.375 442.16C722.666 441.732 721.788 441.518 720.743 441.518H717.986V452.296Z" fill="#767676"/>
<path d="M598.5 306.75C598.5 299.34 604.42 293.333 611.722 293.333H664.611C671.914 293.333 677.833 299.34 677.833 306.75V306.75C677.833 314.16 671.914 320.167 664.611 320.167H611.722C604.42 320.167 598.5 314.16 598.5 306.75V306.75Z" fill="#5B4CE2"/>
<path d="M674.333 306.75C674.333 312.227 669.893 316.667 664.417 316.667C658.94 316.667 654.5 312.227 654.5 306.75C654.5 301.273 658.94 296.833 664.417 296.833C669.893 296.833 674.333 301.273 674.333 306.75Z" fill="white"/>
<path d="M598.5 376.167C598.5 369.079 604.42 363.333 611.722 363.333H664.611C671.914 363.333 677.833 369.079 677.833 376.167V376.167C677.833 383.254 671.914 389 664.611 389H611.722C604.42 389 598.5 383.254 598.5 376.167V376.167Z" fill="#DEDEDE"/>
<path d="M620.667 376.167C620.667 381.321 616.488 385.5 611.333 385.5C606.179 385.5 602 381.321 602 376.167C602 371.012 606.179 366.833 611.333 366.833C616.488 366.833 620.667 371.012 620.667 376.167Z" fill="white"/>
<path d="M598.5 445.583C598.5 438.173 604.42 432.167 611.722 432.167H664.611C671.914 432.167 677.833 438.173 677.833 445.583V445.583C677.833 452.993 671.914 459 664.611 459H611.722C604.42 459 598.5 452.993 598.5 445.583V445.583Z" fill="#DEDEDE"/>
<path d="M620.667 445.583C620.667 451.06 616.488 455.5 611.333 455.5C606.179 455.5 602 451.06 602 445.583C602 440.106 606.179 435.667 611.333 435.667C616.488 435.667 620.667 440.106 620.667 445.583Z" fill="white"/>
<path d="M950.833 341.167V342.333H595V341.167H950.833Z" fill="#DEDEDE"/>
<path d="M950.833 410V411.167H595V410H950.833Z" fill="#DEDEDE"/>
<path d="M916.397 304.055L903.329 275.071C901.986 272.093 904.998 269.017 908.001 270.299L936.99 282.682C940.051 283.989 939.832 288.401 936.658 289.4L927.977 292.13C926.819 292.494 925.924 293.42 925.599 294.591L923.115 303.54C922.218 306.771 917.776 307.112 916.397 304.055Z" fill="#03FF81"/>
<path d="M924 316.9C924 310.972 928.781 306.167 934.679 306.167H1052.15C1058.05 306.167 1062.83 310.972 1062.83 316.9V349.1C1062.83 355.028 1058.05 359.833 1052.15 359.833H934.679C928.781 359.833 924 355.028 924 349.1V316.9Z" fill="#03FF81"/>
<path d="M1028.29 328.45V330.212H1022.73V328.45H1028.29ZM1024.1 326.133H1026.38V335.211C1026.38 335.517 1026.42 335.752 1026.52 335.916C1026.61 336.076 1026.74 336.185 1026.89 336.244C1027.05 336.302 1027.22 336.332 1027.41 336.332C1027.55 336.332 1027.68 336.321 1027.8 336.3C1027.92 336.279 1028.01 336.26 1028.08 336.244L1028.46 338.025C1028.34 338.067 1028.17 338.113 1027.94 338.164C1027.72 338.214 1027.44 338.243 1027.12 338.252C1026.55 338.269 1026.04 338.183 1025.58 337.994C1025.12 337.801 1024.76 337.503 1024.49 337.1C1024.22 336.697 1024.09 336.193 1024.1 335.589V326.133Z" fill="#4D4D4D"/>
<path d="M1021.37 331.006L1019.29 331.232C1019.23 331.022 1019.13 330.825 1018.98 330.641C1018.84 330.456 1018.65 330.307 1018.4 330.194C1018.16 330.08 1017.86 330.024 1017.51 330.024C1017.04 330.024 1016.64 330.126 1016.31 330.332C1016 330.538 1015.84 330.804 1015.84 331.132C1015.84 331.413 1015.94 331.642 1016.15 331.818C1016.36 331.994 1016.72 332.139 1017.21 332.252L1018.86 332.605C1019.77 332.802 1020.45 333.115 1020.9 333.543C1021.35 333.971 1021.57 334.531 1021.58 335.224C1021.57 335.832 1021.39 336.369 1021.04 336.835C1020.69 337.297 1020.21 337.658 1019.59 337.918C1018.97 338.178 1018.25 338.309 1017.45 338.309C1016.26 338.309 1015.31 338.061 1014.59 337.566C1013.87 337.066 1013.44 336.372 1013.3 335.482L1015.52 335.268C1015.62 335.704 1015.84 336.034 1016.16 336.256C1016.49 336.479 1016.92 336.59 1017.44 336.59C1017.98 336.59 1018.42 336.479 1018.74 336.256C1019.08 336.034 1019.24 335.759 1019.24 335.431C1019.24 335.154 1019.13 334.926 1018.92 334.745C1018.71 334.565 1018.38 334.426 1017.94 334.33L1016.29 333.983C1015.36 333.79 1014.68 333.465 1014.23 333.008C1013.79 332.546 1013.57 331.963 1013.57 331.257C1013.57 330.661 1013.73 330.145 1014.05 329.709C1014.39 329.268 1014.85 328.928 1015.43 328.689C1016.02 328.445 1016.71 328.324 1017.48 328.324C1018.61 328.324 1019.5 328.565 1020.15 329.048C1020.81 329.53 1021.21 330.183 1021.37 331.006Z" fill="#4D4D4D"/>
<path d="M1009.1 338.119V328.449H1011.38V338.119H1009.1ZM1010.25 327.076C1009.89 327.076 1009.58 326.957 1009.32 326.717C1009.06 326.474 1008.93 326.182 1008.93 325.842C1008.93 325.498 1009.06 325.206 1009.32 324.967C1009.58 324.724 1009.89 324.602 1010.25 324.602C1010.62 324.602 1010.93 324.724 1011.18 324.967C1011.44 325.206 1011.57 325.498 1011.57 325.842C1011.57 326.182 1011.44 326.474 1011.18 326.717C1010.93 326.957 1010.62 327.076 1010.25 327.076Z" fill="#4D4D4D"/>
<path d="M1007.02 331.006L1004.94 331.232C1004.88 331.022 1004.78 330.825 1004.63 330.641C1004.49 330.456 1004.3 330.307 1004.05 330.194C1003.81 330.08 1003.51 330.024 1003.16 330.024C1002.68 330.024 1002.29 330.126 1001.96 330.332C1001.64 330.538 1001.49 330.804 1001.49 331.132C1001.49 331.413 1001.59 331.642 1001.8 331.818C1002.01 331.994 1002.37 332.139 1002.86 332.252L1004.51 332.605C1005.42 332.802 1006.1 333.115 1006.55 333.543C1007 333.971 1007.22 334.531 1007.23 335.224C1007.22 335.832 1007.04 336.369 1006.69 336.835C1006.34 337.297 1005.86 337.658 1005.24 337.918C1004.62 338.178 1003.9 338.309 1003.1 338.309C1001.91 338.309 1000.96 338.061 1000.24 337.566C999.516 337.066 999.086 336.372 998.947 335.482L1001.17 335.268C1001.27 335.704 1001.48 336.034 1001.81 336.256C1002.14 336.479 1002.57 336.59 1003.09 336.59C1003.63 336.59 1004.07 336.479 1004.39 336.256C1004.72 336.034 1004.89 335.759 1004.89 335.431C1004.89 335.154 1004.78 334.926 1004.57 334.745C1004.36 334.565 1004.03 334.426 1003.59 334.33L1001.94 333.983C1001.01 333.79 1000.32 333.465 999.879 333.008C999.434 332.546 999.214 331.963 999.218 331.257C999.214 330.661 999.375 330.145 999.703 329.709C1000.03 329.268 1000.49 328.928 1001.08 328.689C1001.67 328.445 1002.36 328.324 1003.13 328.324C1004.26 328.324 1005.15 328.565 1005.8 329.048C1006.46 329.53 1006.86 330.183 1007.02 331.006Z" fill="#4D4D4D"/>
<path d="M997.288 331.006L995.21 331.232C995.151 331.022 995.049 330.825 994.902 330.641C994.759 330.456 994.566 330.307 994.323 330.194C994.079 330.08 993.781 330.024 993.429 330.024C992.954 330.024 992.556 330.126 992.232 330.332C991.913 330.538 991.756 330.804 991.76 331.132C991.756 331.413 991.859 331.642 992.069 331.818C992.283 331.994 992.635 332.139 993.126 332.252L994.776 332.605C995.691 332.802 996.371 333.115 996.816 333.543C997.265 333.971 997.491 334.531 997.495 335.224C997.491 335.832 997.313 336.369 996.96 336.835C996.612 337.297 996.127 337.658 995.506 337.918C994.885 338.178 994.171 338.309 993.366 338.309C992.182 338.309 991.229 338.061 990.507 337.566C989.785 337.066 989.355 336.372 989.217 335.482L991.439 335.268C991.54 335.704 991.754 336.034 992.081 336.256C992.409 336.479 992.835 336.59 993.359 336.59C993.901 336.59 994.335 336.479 994.662 336.256C994.994 336.034 995.16 335.759 995.16 335.431C995.16 335.154 995.053 334.926 994.839 334.745C994.629 334.565 994.302 334.426 993.857 334.33L992.207 333.983C991.28 333.79 990.593 333.465 990.149 333.008C989.704 332.546 989.483 331.963 989.488 331.257C989.483 330.661 989.645 330.145 989.972 329.709C990.304 329.268 990.763 328.928 991.351 328.689C991.943 328.445 992.625 328.324 993.397 328.324C994.53 328.324 995.422 328.565 996.073 329.048C996.727 329.53 997.132 330.183 997.288 331.006Z" fill="#4D4D4D"/>
<path d="M982.249 338.315C981.636 338.315 981.084 338.206 980.593 337.987C980.106 337.765 979.72 337.438 979.434 337.005C979.153 336.573 979.013 336.04 979.013 335.406C979.013 334.861 979.113 334.409 979.315 334.053C979.516 333.696 979.791 333.411 980.14 333.197C980.488 332.982 980.88 332.821 981.317 332.712C981.758 332.598 982.213 332.517 982.683 332.466C983.25 332.407 983.709 332.355 984.062 332.309C984.414 332.258 984.67 332.183 984.83 332.082C984.993 331.977 985.075 331.816 985.075 331.597V331.56C985.075 331.085 984.935 330.718 984.654 330.458C984.372 330.198 983.967 330.068 983.438 330.068C982.88 330.068 982.437 330.189 982.11 330.433C981.787 330.676 981.569 330.964 981.455 331.295L979.327 330.993C979.495 330.405 979.772 329.914 980.158 329.52C980.545 329.121 981.017 328.823 981.575 328.626C982.133 328.424 982.75 328.324 983.426 328.324C983.892 328.324 984.356 328.378 984.817 328.487C985.279 328.597 985.701 328.777 986.083 329.029C986.465 329.276 986.771 329.614 987.002 330.042C987.237 330.471 987.354 331.006 987.354 331.648V338.12H985.163V336.791H985.088C984.949 337.06 984.754 337.312 984.502 337.547C984.255 337.778 983.942 337.964 983.564 338.107C983.191 338.246 982.752 338.315 982.249 338.315ZM982.84 336.64C983.298 336.64 983.695 336.55 984.03 336.369C984.366 336.185 984.624 335.941 984.805 335.639C984.989 335.337 985.082 335.008 985.082 334.651V333.511C985.01 333.57 984.889 333.625 984.716 333.675C984.549 333.725 984.36 333.769 984.15 333.807C983.94 333.845 983.732 333.879 983.527 333.908C983.321 333.937 983.143 333.962 982.992 333.983C982.652 334.03 982.347 334.105 982.079 334.21C981.81 334.315 981.598 334.462 981.443 334.651C981.287 334.835 981.21 335.075 981.21 335.368C981.21 335.788 981.363 336.105 981.669 336.319C981.976 336.533 982.366 336.64 982.84 336.64Z" fill="#4D4D4D"/>
<path d="M972.64 325.225V338.118H970.305V325.225H972.64Z" fill="#4D4D4D"/>
<path d="M959.13 338.118H956.637L961.176 325.225H964.059L968.605 338.118H966.112L962.668 327.869H962.567L959.13 338.118ZM959.212 333.063H966.011V334.939H959.212V333.063Z" fill="#4D4D4D"/>
</g>
<defs>
<filter id="filter0_d_1015_1219" x="93" y="93" width="1009.83" height="514" filterUnits="userSpaceOnUse" color-interpolation-filters="sRGB">
<feFlood flood-opacity="0" result="BackgroundImageFix"/>
<feColorMatrix in="SourceAlpha" type="matrix" values="0 0 0 0 0 0 0 0 0 0 0 0 0 0 0 0 0 0 127 0" result="hardAlpha"/>
<feOffset dy="10"/>
<feGaussianBlur stdDeviation="20"/>
<feComposite in2="hardAlpha" operator="out"/>
<feColorMatrix type="matrix" values="0 0 0 0 0.0784314 0 0 0 0 0.0196078 0 0 0 0 0.301961 0 0 0 0.15 0"/>
<feBlend mode="normal" in2="BackgroundImageFix" result="effect1_dropShadow_1015_1219"/>
<feBlend mode="normal" in="SourceGraphic" in2="effect1_dropShadow_1015_1219" result="shape"/>
</filter>
</defs>
</svg>
