<svg width="1130" height="680" viewBox="0 0 1130 680" fill="none" xmlns="http://www.w3.org/2000/svg">
<rect width="1130" height="680" fill="#F2F2F2"/>
<g filter="url(#filter0_d_1015_1440)">
<path d="M292.023 188.378C292.023 180.84 298.134 174.729 305.672 174.729H824.33C831.868 174.729 837.979 180.84 837.979 188.378V491.383C837.979 498.922 831.868 505.032 824.33 505.032H305.672C298.134 505.032 292.023 498.922 292.023 491.383V188.378Z" fill="white"/>
<path d="M289.293 491.384V188.379C289.293 179.333 296.626 172 305.672 172V174.73L304.971 174.748C297.758 175.113 292.023 181.076 292.023 188.379V491.384L292.041 492.085C292.395 499.065 297.991 504.661 304.971 505.014L305.672 505.033H824.329L825.03 505.014C832.01 504.661 837.606 499.065 837.959 492.085L837.978 491.384V188.379C837.978 181.076 832.242 175.113 825.03 174.748L824.329 174.73V172C833.375 172 840.708 179.333 840.708 188.379V491.384C840.708 500.429 833.375 507.762 824.329 507.762H305.672C296.626 507.762 289.293 500.429 289.293 491.384ZM824.329 172V174.73H305.672V172H824.329Z" fill="#F0F0F0"/>
<path d="M563.613 428.599V423.388L579.736 406.683C581.457 404.869 582.876 403.279 583.993 401.914C585.125 400.534 585.971 399.223 586.529 397.982C587.087 396.741 587.367 395.423 587.367 394.027C587.367 392.445 586.994 391.08 586.25 389.933C585.505 388.769 584.49 387.877 583.202 387.257C581.915 386.621 580.465 386.303 578.852 386.303C577.145 386.303 575.657 386.652 574.385 387.35C573.113 388.048 572.136 389.033 571.453 390.305C570.771 391.577 570.43 393.066 570.43 394.772H563.566C563.566 391.871 564.233 389.335 565.567 387.164C566.901 384.993 568.731 383.31 571.058 382.115C573.384 380.906 576.029 380.301 578.991 380.301C581.985 380.301 584.621 380.898 586.901 382.092C589.197 383.271 590.988 384.884 592.276 386.931C593.563 388.963 594.207 391.259 594.207 393.818C594.207 395.586 593.873 397.315 593.206 399.006C592.555 400.697 591.415 402.581 589.786 404.659C588.158 406.722 585.893 409.227 582.993 412.174L573.524 422.085V422.434H594.974V428.599H563.613Z" fill="#6BDA7A"/>
<path d="M550.723 380.952V428.599H543.511V388.164H543.232L531.832 395.609V388.722L543.721 380.952H550.723Z" fill="#6BDA7A"/>
<path d="M599.197 465.203L599.166 462.938H599.539L604.75 457.634H607.014L601.462 463.248H601.307L599.197 465.203ZM597.491 469.545V453.663H599.321V469.545H597.491ZM605.06 469.545L600.407 463.652L601.71 462.38L607.387 469.545H605.06Z" fill="#767676"/>
<path d="M594.52 460.301L592.876 460.767C592.773 460.493 592.621 460.226 592.419 459.968C592.222 459.704 591.954 459.487 591.612 459.316C591.271 459.146 590.834 459.061 590.302 459.061C589.573 459.061 588.965 459.229 588.479 459.565C587.999 459.896 587.758 460.317 587.758 460.829C587.758 461.284 587.924 461.643 588.254 461.907C588.585 462.17 589.102 462.39 589.805 462.566L591.574 463C592.639 463.259 593.432 463.654 593.954 464.187C594.477 464.714 594.738 465.394 594.738 466.226C594.738 466.909 594.541 467.519 594.148 468.056C593.761 468.594 593.218 469.018 592.52 469.328C591.822 469.638 591.01 469.794 590.085 469.794C588.87 469.794 587.864 469.53 587.068 469.003C586.272 468.475 585.768 467.705 585.556 466.692L587.293 466.257C587.458 466.898 587.771 467.379 588.231 467.7C588.696 468.02 589.304 468.18 590.054 468.18C590.907 468.18 591.584 468 592.085 467.638C592.592 467.271 592.845 466.831 592.845 466.319C592.845 465.906 592.701 465.559 592.411 465.28C592.122 464.996 591.677 464.784 591.077 464.644L589.092 464.179C588.001 463.92 587.2 463.52 586.688 462.977C586.181 462.429 585.928 461.744 585.928 460.922C585.928 460.25 586.117 459.655 586.494 459.138C586.877 458.621 587.396 458.215 588.053 457.921C588.715 457.626 589.464 457.479 590.302 457.479C591.481 457.479 592.406 457.737 593.078 458.254C593.755 458.771 594.236 459.453 594.52 460.301Z" fill="#767676"/>
<path d="M580.902 469.546V457.634H582.732V469.546H580.902ZM581.832 455.649C581.475 455.649 581.168 455.527 580.909 455.284C580.656 455.041 580.529 454.749 580.529 454.408C580.529 454.067 580.656 453.774 580.909 453.531C581.168 453.288 581.475 453.167 581.832 453.167C582.189 453.167 582.494 453.288 582.747 453.531C583.006 453.774 583.135 454.067 583.135 454.408C583.135 454.749 583.006 455.041 582.747 455.284C582.494 455.527 582.189 455.649 581.832 455.649Z" fill="#767676"/>
<path d="M572.773 469.545V457.634H574.542V459.433H574.666C574.883 458.843 575.276 458.365 575.844 457.998C576.413 457.631 577.054 457.448 577.768 457.448C577.902 457.448 578.07 457.45 578.272 457.455C578.473 457.46 578.626 457.468 578.729 457.479V459.34C578.667 459.324 578.525 459.301 578.303 459.27C578.086 459.234 577.856 459.216 577.613 459.216C577.034 459.216 576.517 459.337 576.062 459.58C575.612 459.818 575.255 460.149 574.991 460.573C574.733 460.992 574.604 461.47 574.604 462.007V469.545H572.773Z" fill="#767676"/>
<path d="M551.587 469.546L547.958 457.634H549.881L552.456 466.754H552.58L555.124 457.634H557.078L559.591 466.723H559.715L562.289 457.634H564.213L560.583 469.546H558.784L556.178 460.395H555.992L553.387 469.546H551.587Z" fill="#767676"/>
<path d="M541.104 469.794C540.028 469.794 539.085 469.538 538.273 469.026C537.466 468.514 536.836 467.798 536.381 466.878C535.931 465.957 535.706 464.882 535.706 463.652C535.706 462.411 535.931 461.328 536.381 460.402C536.836 459.477 537.466 458.758 538.273 458.246C539.085 457.734 540.028 457.479 541.104 457.479C542.179 457.479 543.12 457.734 543.926 458.246C544.738 458.758 545.369 459.477 545.819 460.402C546.274 461.328 546.501 462.411 546.501 463.652C546.501 464.882 546.274 465.957 545.819 466.878C545.369 467.798 544.738 468.514 543.926 469.026C543.12 469.538 542.179 469.794 541.104 469.794ZM541.104 468.149C541.92 468.149 542.593 467.94 543.12 467.521C543.647 467.103 544.038 466.552 544.291 465.869C544.544 465.187 544.671 464.448 544.671 463.652C544.671 462.855 544.544 462.113 544.291 461.426C544.038 460.738 543.647 460.182 543.12 459.758C542.593 459.335 541.92 459.123 541.104 459.123C540.287 459.123 539.615 459.335 539.087 459.758C538.56 460.182 538.17 460.738 537.916 461.426C537.663 462.113 537.536 462.855 537.536 463.652C537.536 464.448 537.663 465.187 537.916 465.869C538.17 466.552 538.56 467.103 539.087 467.521C539.615 467.94 540.287 468.149 541.104 468.149Z" fill="#767676"/>
<path d="M524.228 469.545V453.663H526.151V467.839H533.534V469.545H524.228Z" fill="#767676"/>
<path d="M474.413 227.03C473.153 227.03 472.071 226.858 471.166 226.516C470.261 226.18 469.534 225.727 468.985 225.159C468.435 224.59 468.054 223.96 467.841 223.268L471.001 222.503C471.143 222.793 471.35 223.081 471.622 223.365C471.893 223.656 472.258 223.895 472.717 224.083C473.182 224.277 473.767 224.374 474.471 224.374C475.467 224.374 476.291 224.131 476.943 223.647C477.596 223.168 477.922 222.38 477.922 221.281V218.46H477.748C477.567 218.822 477.302 219.194 476.953 219.575C476.611 219.956 476.155 220.276 475.586 220.535C475.024 220.793 474.316 220.923 473.463 220.923C472.319 220.923 471.282 220.654 470.352 220.118C469.427 219.575 468.691 218.767 468.141 217.695C467.599 216.615 467.327 215.265 467.327 213.642C467.327 212.007 467.599 210.628 468.141 209.503C468.691 208.372 469.431 207.516 470.361 206.934C471.292 206.346 472.329 206.052 473.473 206.052C474.345 206.052 475.063 206.201 475.625 206.498C476.194 206.789 476.646 207.141 476.982 207.555C477.318 207.962 477.573 208.346 477.748 208.708H477.942V206.246H481.403V221.378C481.403 222.651 481.099 223.705 480.491 224.538C479.884 225.372 479.053 225.996 478 226.409C476.947 226.823 475.751 227.03 474.413 227.03ZM474.442 218.17C475.186 218.17 475.819 217.989 476.342 217.627C476.866 217.265 477.263 216.745 477.535 216.066C477.806 215.387 477.942 214.573 477.942 213.623C477.942 212.686 477.806 211.865 477.535 211.161C477.27 210.456 476.876 209.91 476.352 209.523C475.835 209.128 475.199 208.931 474.442 208.931C473.66 208.931 473.008 209.135 472.484 209.542C471.961 209.949 471.567 210.508 471.302 211.219C471.037 211.923 470.904 212.725 470.904 213.623C470.904 214.534 471.037 215.332 471.302 216.017C471.573 216.696 471.97 217.226 472.494 217.607C473.024 217.982 473.673 218.17 474.442 218.17Z" fill="#4D4D4D"/>
<path d="M454.813 212.411V221.136H451.304V206.246H454.658V208.776H454.832C455.175 207.943 455.721 207.28 456.471 206.789C457.227 206.298 458.16 206.052 459.272 206.052C460.3 206.052 461.195 206.272 461.957 206.711C462.726 207.151 463.321 207.787 463.741 208.621C464.167 209.455 464.377 210.466 464.371 211.655V221.136H460.862V212.198C460.862 211.203 460.603 210.424 460.086 209.862C459.576 209.3 458.868 209.019 457.963 209.019C457.349 209.019 456.803 209.154 456.325 209.426C455.853 209.691 455.482 210.075 455.21 210.579C454.945 211.083 454.813 211.694 454.813 212.411Z" fill="#4D4D4D"/>
<path d="M444.187 221.136V206.247H447.697V221.136H444.187ZM445.952 204.133C445.396 204.133 444.918 203.949 444.517 203.581C444.116 203.206 443.916 202.757 443.916 202.233C443.916 201.703 444.116 201.254 444.517 200.886C444.918 200.511 445.396 200.324 445.952 200.324C446.514 200.324 446.992 200.511 447.386 200.886C447.787 201.254 447.987 201.703 447.987 202.233C447.987 202.757 447.787 203.206 447.386 203.581C446.992 203.949 446.514 204.133 445.952 204.133Z" fill="#4D4D4D"/>
<path d="M433.363 221.136V206.246H436.766V208.728H436.921C437.192 207.869 437.658 207.206 438.317 206.741C438.982 206.269 439.742 206.033 440.595 206.033C440.789 206.033 441.005 206.043 441.244 206.062C441.49 206.075 441.693 206.098 441.855 206.13V209.358C441.706 209.306 441.471 209.261 441.147 209.222C440.831 209.177 440.524 209.155 440.226 209.155C439.587 209.155 439.012 209.294 438.501 209.571C437.997 209.843 437.599 210.221 437.309 210.706C437.018 211.19 436.872 211.749 436.872 212.383V221.136H433.363Z" fill="#4D4D4D"/>
<path d="M423.25 221.427C421.796 221.427 420.536 221.107 419.469 220.467C418.403 219.827 417.576 218.932 416.988 217.782C416.406 216.631 416.115 215.287 416.115 213.749C416.115 212.211 416.406 210.864 416.988 209.707C417.576 208.55 418.403 207.652 419.469 207.012C420.536 206.372 421.796 206.052 423.25 206.052C424.704 206.052 425.964 206.372 427.03 207.012C428.097 207.652 428.921 208.55 429.502 209.707C430.09 210.864 430.385 212.211 430.385 213.749C430.385 215.287 430.09 216.631 429.502 217.782C428.921 218.932 428.097 219.827 427.03 220.467C425.964 221.107 424.704 221.427 423.25 221.427ZM423.269 218.615C424.058 218.615 424.717 218.399 425.247 217.966C425.777 217.526 426.171 216.938 426.429 216.202C426.694 215.465 426.827 214.644 426.827 213.739C426.827 212.828 426.694 212.004 426.429 211.268C426.171 210.524 425.777 209.933 425.247 209.494C424.717 209.054 424.058 208.834 423.269 208.834C422.461 208.834 421.789 209.054 421.253 209.494C420.723 209.933 420.326 210.524 420.061 211.268C419.802 212.004 419.673 212.828 419.673 213.739C419.673 214.644 419.802 215.465 420.061 216.202C420.326 216.938 420.723 217.526 421.253 217.966C421.789 218.399 422.461 218.615 423.269 218.615Z" fill="#4D4D4D"/>
<path d="M407.495 221.427C406.009 221.427 404.732 221.1 403.666 220.448C402.606 219.795 401.789 218.893 401.213 217.743C400.645 216.586 400.36 215.255 400.36 213.749C400.36 212.237 400.651 210.902 401.233 209.746C401.814 208.582 402.635 207.678 403.695 207.031C404.761 206.379 406.022 206.052 407.476 206.052C408.684 206.052 409.754 206.275 410.684 206.721C411.621 207.161 412.368 207.784 412.924 208.592C413.479 209.393 413.796 210.33 413.874 211.403H410.519C410.384 210.686 410.061 210.088 409.55 209.61C409.046 209.125 408.371 208.883 407.524 208.883C406.807 208.883 406.177 209.077 405.634 209.464C405.091 209.846 404.668 210.395 404.364 211.112C404.067 211.83 403.918 212.689 403.918 213.691C403.918 214.706 404.067 215.578 404.364 216.308C404.661 217.032 405.078 217.591 405.614 217.985C406.157 218.373 406.794 218.567 407.524 218.567C408.041 218.567 408.503 218.47 408.91 218.276C409.324 218.076 409.67 217.788 409.948 217.413C410.225 217.039 410.416 216.583 410.519 216.047H413.874C413.789 217.1 413.479 218.034 412.943 218.848C412.407 219.656 411.676 220.289 410.752 220.748C409.828 221.2 408.742 221.427 407.495 221.427Z" fill="#4D4D4D"/>
<path d="M397.787 210.182L394.588 210.531C394.497 210.208 394.339 209.904 394.113 209.62C393.893 209.335 393.596 209.106 393.221 208.931C392.846 208.757 392.387 208.67 391.845 208.67C391.114 208.67 390.5 208.828 390.003 209.145C389.512 209.461 389.269 209.872 389.276 210.376C389.269 210.809 389.428 211.161 389.751 211.432C390.08 211.704 390.623 211.927 391.379 212.101L393.919 212.644C395.328 212.948 396.375 213.429 397.06 214.088C397.751 214.748 398.1 215.61 398.107 216.677C398.1 217.614 397.826 218.441 397.283 219.158C396.746 219.869 396 220.425 395.043 220.826C394.087 221.226 392.988 221.427 391.748 221.427C389.925 221.427 388.458 221.045 387.347 220.283C386.235 219.514 385.573 218.444 385.359 217.074L388.781 216.745C388.936 217.417 389.266 217.924 389.77 218.266C390.274 218.609 390.93 218.78 391.738 218.78C392.572 218.78 393.24 218.609 393.745 218.266C394.255 217.924 394.51 217.501 394.51 216.997C394.51 216.57 394.346 216.218 394.016 215.94C393.693 215.662 393.189 215.449 392.504 215.3L389.964 214.767C388.536 214.47 387.479 213.969 386.794 213.264C386.109 212.554 385.77 211.655 385.776 210.57C385.77 209.652 386.019 208.857 386.523 208.185C387.033 207.506 387.741 206.983 388.646 206.614C389.557 206.24 390.607 206.052 391.796 206.052C393.541 206.052 394.914 206.424 395.916 207.167C396.924 207.91 397.548 208.915 397.787 210.182Z" fill="#4D4D4D"/>
<path d="M366.905 216.464L366.895 212.228H367.458L372.809 206.247H376.909L370.327 213.575H369.6L366.905 216.464ZM363.706 221.136V201.283H367.215V221.136H363.706ZM373.051 221.136L368.204 214.36L370.569 211.888L377.248 221.136H373.051Z" fill="#4D4D4D"/>
<path d="M360.493 210.182L357.294 210.531C357.203 210.208 357.045 209.904 356.819 209.62C356.599 209.335 356.302 209.106 355.927 208.931C355.552 208.757 355.093 208.67 354.551 208.67C353.82 208.67 353.206 208.828 352.709 209.145C352.218 209.461 351.975 209.872 351.982 210.376C351.975 210.809 352.134 211.161 352.457 211.432C352.786 211.704 353.329 211.927 354.085 212.101L356.625 212.644C358.034 212.948 359.081 213.429 359.766 214.088C360.457 214.748 360.806 215.61 360.813 216.677C360.806 217.614 360.532 218.441 359.989 219.158C359.452 219.869 358.706 220.425 357.75 220.826C356.793 221.226 355.694 221.427 354.454 221.427C352.631 221.427 351.164 221.045 350.053 220.283C348.941 219.514 348.279 218.444 348.065 217.074L351.487 216.745C351.642 217.417 351.972 217.924 352.476 218.266C352.98 218.609 353.636 218.78 354.444 218.78C355.278 218.78 355.946 218.609 356.451 218.266C356.961 217.924 357.216 217.501 357.216 216.997C357.216 216.57 357.052 216.218 356.722 215.94C356.399 215.662 355.895 215.449 355.21 215.3L352.67 214.767C351.242 214.47 350.185 213.969 349.5 213.264C348.815 212.554 348.476 211.655 348.482 210.57C348.476 209.652 348.725 208.857 349.229 208.185C349.739 207.506 350.447 206.983 351.352 206.614C352.263 206.24 353.313 206.052 354.502 206.052C356.247 206.052 357.62 206.424 358.622 207.167C359.63 207.91 360.254 208.915 360.493 210.182Z" fill="#4D4D4D"/>
<path d="M341.608 221.136V206.247H345.117V221.136H341.608ZM343.373 204.133C342.817 204.133 342.339 203.949 341.938 203.581C341.537 203.206 341.337 202.757 341.337 202.233C341.337 201.703 341.537 201.254 341.938 200.886C342.339 200.511 342.817 200.324 343.373 200.324C343.935 200.324 344.413 200.511 344.807 200.886C345.208 201.254 345.408 201.703 345.408 202.233C345.408 202.757 345.208 203.206 344.807 203.581C344.413 203.949 343.935 204.133 343.373 204.133Z" fill="#4D4D4D"/>
<path d="M324.009 221.136V201.283H331.454C332.979 201.283 334.258 201.548 335.292 202.078C336.333 202.608 337.118 203.351 337.648 204.308C338.184 205.258 338.453 206.366 338.453 207.633C338.453 208.906 338.181 210.011 337.638 210.948C337.102 211.879 336.31 212.599 335.263 213.11C334.216 213.614 332.93 213.866 331.405 213.866H326.103V210.88H330.92C331.812 210.88 332.543 210.758 333.111 210.512C333.68 210.26 334.1 209.895 334.371 209.417C334.649 208.932 334.788 208.337 334.788 207.633C334.788 206.928 334.649 206.327 334.371 205.83C334.094 205.326 333.67 204.944 333.102 204.686C332.533 204.421 331.799 204.289 330.901 204.289H327.605V221.136H324.009ZM334.265 212.141L339.18 221.136H335.166L330.339 212.141H334.265Z" fill="#4D4D4D"/>
<mask id="mask0_1015_1440" style="mask-type:alpha" maskUnits="userSpaceOnUse" x="375" y="282" width="380" height="191">
<path fill-rule="evenodd" clip-rule="evenodd" d="M565.001 296.205C563.712 296.205 562.426 296.219 561.144 296.246L560.851 282.6C562.231 282.571 563.614 282.556 565.001 282.556C566.387 282.556 567.771 282.571 569.151 282.6L568.857 296.246C567.575 296.219 566.29 296.205 565.001 296.205ZM553.467 296.576C550.901 296.742 548.35 296.963 545.816 297.237L544.346 283.668C547.076 283.372 549.824 283.134 552.587 282.956L553.467 296.576ZM584.186 297.237C581.651 296.963 579.1 296.742 576.534 296.576L577.414 282.956C580.177 283.134 582.925 283.372 585.655 283.668L584.186 297.237ZM538.201 298.23C535.659 298.618 533.136 299.061 530.631 299.556L527.982 286.167C530.682 285.633 533.402 285.156 536.142 284.738L538.201 298.23ZM599.37 299.556C596.866 299.061 594.342 298.618 591.8 298.23L593.86 284.738C596.599 285.156 599.319 285.633 602.019 286.167L599.37 299.556ZM523.129 301.212C520.634 301.821 518.16 302.482 515.708 303.196L511.894 290.091C514.538 289.322 517.205 288.608 519.894 287.952L523.129 301.212ZM614.293 303.196C611.841 302.483 609.368 301.821 606.873 301.212L610.107 287.952C612.797 288.608 615.464 289.322 618.107 290.091L614.293 303.196ZM508.383 305.504C505.953 306.328 503.547 307.205 501.166 308.131L496.216 295.412C498.783 294.413 501.377 293.468 503.996 292.579L508.383 305.504ZM628.835 308.131C626.454 307.205 624.048 306.328 621.619 305.504L626.005 292.579C628.625 293.468 631.218 294.413 633.785 295.412L628.835 308.131ZM494.072 311.073C491.725 312.107 489.406 313.191 487.114 314.323L481.068 302.087C483.538 300.866 486.039 299.698 488.568 298.583L494.072 311.073ZM642.888 314.323C640.596 313.191 638.276 312.107 635.929 311.073L641.433 298.583C643.963 299.698 646.463 300.866 648.934 302.087L642.888 314.323ZM656.347 321.723C654.161 320.394 651.944 319.111 649.698 317.876L656.273 305.915C658.694 307.246 661.083 308.628 663.438 310.061L656.347 321.723ZM480.304 317.876C478.057 319.111 475.84 320.394 473.655 321.723L466.563 310.061C468.918 308.628 471.307 307.246 473.728 305.915L480.304 317.876ZM669.114 330.27C667.051 328.755 664.953 327.283 662.823 325.857L670.416 314.515C672.711 316.052 674.971 317.637 677.193 319.269L669.114 330.27ZM467.178 325.857C465.048 327.283 462.95 328.755 460.887 330.27L452.808 319.269C455.03 317.637 457.29 316.052 459.585 314.515L467.178 325.857ZM681.091 339.894C679.166 338.205 677.204 336.557 675.207 334.952L683.757 324.313C685.908 326.042 688.021 327.817 690.094 329.636L681.091 339.894ZM454.794 334.952C452.797 336.557 450.835 338.205 448.91 339.894L439.907 329.636C441.98 327.817 444.093 326.042 446.245 324.313L454.794 334.952ZM692.189 350.521C690.417 348.671 688.605 346.859 686.755 345.087L696.195 335.229C698.187 337.137 700.139 339.088 702.047 341.081L692.189 350.521ZM443.246 345.087C441.396 346.859 439.584 348.671 437.813 350.521L427.954 341.081C429.863 339.088 431.814 337.137 433.807 335.229L443.246 345.087ZM702.324 362.069C700.719 360.072 699.071 358.11 697.382 356.185L707.64 347.182C709.459 349.255 711.234 351.368 712.963 353.519L702.324 362.069ZM432.62 356.185C430.93 358.11 429.282 360.072 427.677 362.069L417.038 353.519C418.767 351.368 420.542 349.255 422.361 347.182L432.62 356.185ZM711.419 374.453C709.993 372.322 708.521 370.225 707.006 368.162L718.007 360.082C719.639 362.305 721.224 364.564 722.761 366.859L711.419 374.453ZM422.995 368.162C421.48 370.225 420.008 372.322 418.582 374.453L407.241 366.859C408.777 364.564 410.362 362.305 411.994 360.083L422.995 368.162ZM719.4 387.578C718.165 385.332 716.882 383.115 715.553 380.929L727.215 373.838C728.647 376.193 730.03 378.582 731.361 381.003L719.4 387.578ZM414.448 380.929C413.119 383.115 411.836 385.332 410.601 387.578L398.64 381.003C399.972 378.582 401.354 376.193 402.786 373.838L414.448 380.929ZM726.203 401.347C725.169 399 724.085 396.68 722.953 394.388L735.189 388.342C736.41 390.813 737.578 393.313 738.693 395.843L726.203 401.347ZM407.049 394.388C405.916 396.68 404.832 399 403.798 401.347L391.308 395.843C392.423 393.313 393.591 390.813 394.812 388.342L407.049 394.388ZM400.856 408.441C399.93 410.822 399.054 413.228 398.229 415.657L385.304 411.271C386.193 408.651 387.138 406.057 388.137 403.491L400.856 408.441ZM731.772 415.657C730.948 413.228 730.071 410.822 729.145 408.441L741.864 403.491C742.863 406.057 743.808 408.651 744.697 411.271L731.772 415.657ZM395.921 422.983C395.208 425.434 394.546 427.908 393.938 430.403L380.678 427.169C381.334 424.479 382.047 421.812 382.816 419.169L395.921 422.983ZM736.064 430.403C735.455 427.908 734.793 425.434 734.08 422.983L747.185 419.169C747.954 421.812 748.668 424.479 749.324 427.169L736.064 430.403ZM392.282 437.906C391.786 440.41 391.344 442.934 390.956 445.476L377.463 443.416C377.881 440.677 378.358 437.957 378.892 435.257L392.282 437.906ZM739.046 445.476C738.658 442.934 738.215 440.41 737.72 437.906L751.109 435.257C751.643 437.957 752.12 440.677 752.538 443.416L739.046 445.476ZM389.963 453.09C389.688 455.625 389.467 458.176 389.302 460.742L375.681 459.862C375.86 457.098 376.097 454.351 376.393 451.62L389.963 453.09ZM740.7 460.742C740.534 458.176 740.313 455.625 740.039 453.09L753.608 451.62C753.904 454.351 754.142 457.099 754.32 459.862L740.7 460.742ZM388.972 468.418C388.944 469.701 388.93 470.986 388.93 472.275H375.281C375.281 470.889 375.296 469.505 375.326 468.125L388.972 468.418ZM741.071 472.275C741.071 470.986 741.057 469.701 741.03 468.418L754.675 468.125C754.705 469.505 754.72 470.889 754.72 472.275H741.071Z" fill="black"/>
</mask>
<g mask="url(#mask0_1015_1440)">
<path d="M432.607 368.544L408.039 349.435L417.593 330.327L444.891 304.394L507.676 281.191L573.19 273.002L570.461 304.394L480.378 330.327L432.607 368.544Z" fill="#FF9320"/>
<path d="M573.189 304.394L577.284 274.366L611.406 279.826L660.542 294.84L709.678 337.151L721.962 350.8L704.219 365.814L687.84 369.909L671.461 348.07L634.609 323.502L573.189 304.394Z" fill="#FF0004"/>
<path d="M698.76 371.273L723.328 352.165L741.071 374.003L758.815 410.855L769.734 479.1L735.612 481.829L730.152 466.816L720.598 417.68L698.76 371.273Z" fill="#4C0000"/>
<path d="M399.85 484.559H367.093V409.491L405.31 349.436L432.607 369.909L412.134 409.491L399.85 484.559Z" fill="#6BDA7A"/>
</g>
<path d="M564.999 257.988C683.347 257.988 779.287 353.928 779.287 472.275H776.557C776.557 355.435 681.839 260.718 564.999 260.718C448.159 260.718 353.442 355.435 353.442 472.275H350.712C350.712 353.928 446.652 257.988 564.999 257.988Z" fill="#F5F5F5"/>
<path d="M373.087 353.396L390.921 331.334L401.11 357.81L373.087 353.396Z" fill="#6BDA7A"/>
</g>
<path d="M366.424 318.475L384.733 276.307C386.614 271.974 382.394 267.498 378.187 269.364L337.573 287.379C333.286 289.281 333.591 295.7 338.039 297.153L350.2 301.125C351.823 301.655 353.076 303.002 353.532 304.705L357.012 317.726C358.268 322.427 364.493 322.922 366.424 318.475Z" fill="#03FF81"/>
<path d="M146 325.588C146 317.408 152.779 310.777 161.141 310.777H327.69C336.052 310.777 342.831 317.408 342.831 325.588V370.021C342.831 378.201 336.052 384.832 327.69 384.832H161.141C152.779 384.832 146 378.201 146 370.021V325.588Z" fill="#03FF81"/>
<path d="M293.101 341.665V344.178H285.177V341.665H293.101ZM287.133 338.363H290.382V351.303C290.382 351.74 290.447 352.075 290.579 352.308C290.717 352.535 290.896 352.691 291.117 352.775C291.339 352.858 291.584 352.9 291.853 352.9C292.057 352.9 292.242 352.885 292.41 352.855C292.583 352.825 292.715 352.799 292.805 352.775L293.352 355.314C293.178 355.374 292.93 355.44 292.607 355.512C292.29 355.583 291.901 355.625 291.441 355.637C290.627 355.661 289.894 355.539 289.242 355.269C288.59 354.994 288.072 354.569 287.689 353.995C287.313 353.421 287.127 352.703 287.133 351.841V338.363Z" fill="#4D4D4D"/>
<path d="M283.241 345.309L280.279 345.632C280.196 345.333 280.049 345.051 279.84 344.788C279.636 344.525 279.361 344.313 279.014 344.151C278.667 343.99 278.242 343.909 277.74 343.909C277.064 343.909 276.495 344.055 276.035 344.349C275.58 344.642 275.356 345.022 275.362 345.488C275.356 345.889 275.502 346.215 275.802 346.466C276.107 346.718 276.609 346.924 277.309 347.086L279.66 347.588C280.964 347.869 281.934 348.315 282.568 348.925C283.208 349.535 283.531 350.334 283.537 351.321C283.531 352.189 283.277 352.954 282.774 353.619C282.278 354.277 281.587 354.791 280.701 355.162C279.816 355.533 278.799 355.718 277.65 355.718C275.963 355.718 274.605 355.365 273.576 354.66C272.547 353.948 271.934 352.957 271.736 351.689L274.904 351.384C275.048 352.006 275.353 352.476 275.819 352.793C276.286 353.11 276.893 353.269 277.641 353.269C278.413 353.269 279.032 353.11 279.499 352.793C279.971 352.476 280.208 352.084 280.208 351.617C280.208 351.223 280.055 350.896 279.75 350.639C279.451 350.382 278.984 350.185 278.35 350.047L275.999 349.553C274.677 349.278 273.699 348.815 273.064 348.162C272.43 347.504 272.116 346.673 272.122 345.668C272.116 344.818 272.347 344.082 272.813 343.46C273.286 342.832 273.941 342.347 274.778 342.006C275.622 341.659 276.594 341.486 277.695 341.486C279.31 341.486 280.582 341.83 281.509 342.518C282.442 343.206 283.02 344.136 283.241 345.309Z" fill="#4D4D4D"/>
<path d="M265.762 355.45V341.666H269.011V355.45H265.762ZM267.395 339.709C266.881 339.709 266.438 339.539 266.067 339.198C265.696 338.851 265.511 338.435 265.511 337.95C265.511 337.46 265.696 337.044 266.067 336.703C266.438 336.356 266.881 336.183 267.395 336.183C267.916 336.183 268.358 336.356 268.723 336.703C269.094 337.044 269.28 337.46 269.28 337.95C269.28 338.435 269.094 338.851 268.723 339.198C268.358 339.539 267.916 339.709 267.395 339.709Z" fill="#4D4D4D"/>
<path d="M262.785 345.309L259.823 345.632C259.74 345.333 259.593 345.051 259.384 344.788C259.18 344.525 258.905 344.313 258.558 344.151C258.211 343.99 257.786 343.909 257.284 343.909C256.608 343.909 256.039 344.055 255.579 344.349C255.124 344.642 254.9 345.022 254.906 345.488C254.9 345.889 255.046 346.215 255.345 346.466C255.651 346.718 256.153 346.924 256.853 347.086L259.204 347.588C260.508 347.869 261.478 348.315 262.112 348.925C262.752 349.535 263.075 350.334 263.081 351.321C263.075 352.189 262.821 352.954 262.318 353.619C261.822 354.277 261.131 354.791 260.245 355.162C259.36 355.533 258.343 355.718 257.194 355.718C255.507 355.718 254.149 355.365 253.12 354.66C252.091 353.948 251.478 352.957 251.28 351.689L254.448 351.384C254.592 352.006 254.897 352.476 255.363 352.793C255.83 353.11 256.437 353.269 257.185 353.269C257.957 353.269 258.576 353.11 259.043 352.793C259.515 352.476 259.752 352.084 259.752 351.617C259.752 351.223 259.599 350.896 259.294 350.639C258.995 350.382 258.528 350.185 257.894 350.047L255.543 349.553C254.221 349.278 253.243 348.815 252.608 348.162C251.974 347.504 251.66 346.673 251.666 345.668C251.66 344.818 251.89 344.082 252.357 343.46C252.83 342.832 253.485 342.347 254.322 342.006C255.166 341.659 256.138 341.486 257.239 341.486C258.854 341.486 260.126 341.83 261.053 342.518C261.986 343.206 262.563 344.136 262.785 345.309Z" fill="#4D4D4D"/>
<path d="M248.915 345.309L245.953 345.632C245.87 345.333 245.723 345.051 245.514 344.788C245.31 344.525 245.035 344.313 244.688 344.151C244.341 343.99 243.916 343.909 243.414 343.909C242.738 343.909 242.169 344.055 241.709 344.349C241.254 344.642 241.03 345.022 241.036 345.488C241.03 345.889 241.176 346.215 241.475 346.466C241.78 346.718 242.283 346.924 242.983 347.086L245.334 347.588C246.638 347.869 247.607 348.315 248.242 348.925C248.882 349.535 249.205 350.334 249.211 351.321C249.205 352.189 248.951 352.954 248.448 353.619C247.951 354.277 247.26 354.791 246.375 355.162C245.49 355.533 244.473 355.718 243.324 355.718C241.637 355.718 240.279 355.365 239.25 354.66C238.221 353.948 237.608 352.957 237.41 351.689L240.578 351.384C240.722 352.006 241.027 352.476 241.493 352.793C241.96 353.11 242.567 353.269 243.315 353.269C244.087 353.269 244.706 353.11 245.173 352.793C245.645 352.476 245.882 352.084 245.882 351.617C245.882 351.223 245.729 350.896 245.424 350.639C245.125 350.382 244.658 350.185 244.024 350.047L241.673 349.553C240.351 349.278 239.372 348.815 238.738 348.162C238.104 347.504 237.79 346.673 237.796 345.668C237.79 344.818 238.02 344.082 238.487 343.46C238.96 342.832 239.615 342.347 240.452 342.006C241.296 341.659 242.268 341.486 243.369 341.486C244.984 341.486 246.255 341.83 247.183 342.518C248.116 343.206 248.693 344.136 248.915 345.309Z" fill="#4D4D4D"/>
<path d="M227.479 355.727C226.605 355.727 225.819 355.572 225.119 355.261C224.425 354.944 223.874 354.477 223.467 353.861C223.067 353.245 222.866 352.485 222.866 351.581C222.866 350.804 223.01 350.161 223.297 349.652C223.584 349.144 223.976 348.737 224.473 348.432C224.969 348.127 225.528 347.896 226.151 347.741C226.779 347.579 227.428 347.462 228.098 347.391C228.906 347.307 229.561 347.232 230.063 347.166C230.566 347.095 230.931 346.987 231.158 346.843C231.391 346.694 231.508 346.463 231.508 346.152V346.098C231.508 345.422 231.308 344.899 230.907 344.528C230.506 344.157 229.929 343.972 229.175 343.972C228.379 343.972 227.748 344.145 227.281 344.492C226.821 344.839 226.51 345.249 226.348 345.722L223.315 345.291C223.554 344.453 223.949 343.753 224.499 343.191C225.05 342.623 225.723 342.198 226.519 341.917C227.314 341.629 228.194 341.486 229.157 341.486C229.821 341.486 230.482 341.564 231.14 341.719C231.798 341.875 232.399 342.132 232.944 342.491C233.488 342.844 233.925 343.325 234.254 343.936C234.589 344.546 234.757 345.309 234.757 346.224V355.449H231.634V353.556H231.526C231.329 353.939 231.05 354.298 230.691 354.633C230.338 354.962 229.893 355.228 229.354 355.431C228.822 355.629 228.197 355.727 227.479 355.727ZM228.322 353.34C228.974 353.34 229.54 353.212 230.018 352.954C230.497 352.691 230.865 352.344 231.122 351.913C231.385 351.483 231.517 351.013 231.517 350.505V348.88C231.415 348.964 231.242 349.042 230.997 349.114C230.757 349.185 230.488 349.248 230.189 349.302C229.89 349.356 229.594 349.404 229.3 349.446C229.007 349.488 228.753 349.523 228.538 349.553C228.053 349.619 227.619 349.727 227.236 349.876C226.854 350.026 226.551 350.235 226.33 350.505C226.109 350.768 225.998 351.109 225.998 351.528C225.998 352.126 226.216 352.578 226.653 352.883C227.09 353.188 227.646 353.34 228.322 353.34Z" fill="#4D4D4D"/>
<path d="M213.781 337.071V355.45H210.452V337.071H213.781Z" fill="#4D4D4D"/>
<path d="M194.525 355.45H190.972L197.442 337.071H201.552L208.031 355.45H204.477L199.569 340.84H199.425L194.525 355.45ZM194.642 348.244H204.334V350.918H194.642V348.244Z" fill="#4D4D4D"/>
<defs>
<filter id="filter0_d_1015_1440" x="249.293" y="142" width="631.415" height="415.762" filterUnits="userSpaceOnUse" color-interpolation-filters="sRGB">
<feFlood flood-opacity="0" result="BackgroundImageFix"/>
<feColorMatrix in="SourceAlpha" type="matrix" values="0 0 0 0 0 0 0 0 0 0 0 0 0 0 0 0 0 0 127 0" result="hardAlpha"/>
<feOffset dy="10"/>
<feGaussianBlur stdDeviation="20"/>
<feComposite in2="hardAlpha" operator="out"/>
<feColorMatrix type="matrix" values="0 0 0 0 0.0784314 0 0 0 0 0.0196078 0 0 0 0 0.301961 0 0 0 0.15 0"/>
<feBlend mode="normal" in2="BackgroundImageFix" result="effect1_dropShadow_1015_1440"/>
<feBlend mode="normal" in="SourceGraphic" in2="effect1_dropShadow_1015_1440" result="shape"/>
</filter>
</defs>
</svg>
