<svg width="1130" height="680" viewBox="0 0 1130 680" fill="none" xmlns="http://www.w3.org/2000/svg">
<rect width="1130" height="680" fill="#F2F2F2"/>
<g filter="url(#filter0_d_1015_865)">
<path d="M286 138.208C286 131.729 291.251 126.476 297.728 126.476H844.272C850.749 126.476 856 131.729 856 138.208V541.792C856 548.271 850.749 553.524 844.272 553.524H297.728C291.251 553.524 286 548.271 286 541.792V138.208Z" fill="white"/>
</g>
<path d="M844.272 551.177V553.524H297.728V551.177H844.272ZM853.654 541.792V138.208C853.654 133.025 849.454 128.822 844.272 128.822H297.728C292.546 128.822 288.346 133.025 288.346 138.208V541.792C288.346 546.975 292.546 551.177 297.728 551.177V553.524L297.126 553.508C291.128 553.204 286.32 548.394 286.016 542.394L286 541.792V138.208C286 131.931 290.929 126.806 297.126 126.492L297.728 126.476H844.272L844.874 126.492C851.071 126.806 856 131.931 856 138.208V541.792L855.984 542.394C855.68 548.394 850.872 553.204 844.874 553.508L844.272 553.524V551.177C849.454 551.177 853.654 546.975 853.654 541.792Z" fill="#F0F0F0"/>
<path d="M479.077 215.89C477.794 215.89 476.686 215.623 475.753 215.09C474.825 214.551 474.111 213.79 473.611 212.807C473.111 211.818 472.861 210.655 472.861 209.316C472.861 207.999 473.111 206.844 473.611 205.849C474.117 204.85 474.822 204.072 475.728 203.516C476.633 202.955 477.697 202.675 478.919 202.675C479.708 202.675 480.452 202.803 481.152 203.058C481.858 203.308 482.48 203.697 483.019 204.225C483.563 204.752 483.991 205.425 484.302 206.241C484.613 207.052 484.768 208.019 484.768 209.141V210.066H474.278V208.033H481.877C481.871 207.455 481.746 206.941 481.502 206.491C481.258 206.036 480.916 205.677 480.477 205.416C480.044 205.155 479.538 205.025 478.961 205.025C478.344 205.025 477.802 205.175 477.336 205.475C476.869 205.769 476.505 206.158 476.244 206.641C475.989 207.119 475.858 207.644 475.853 208.216V209.991C475.853 210.735 475.989 211.374 476.261 211.907C476.533 212.435 476.914 212.84 477.403 213.124C477.891 213.401 478.464 213.54 479.119 213.54C479.558 213.54 479.955 213.479 480.311 213.357C480.666 213.229 480.974 213.043 481.235 212.799C481.497 212.554 481.694 212.252 481.827 211.89L484.643 212.207C484.466 212.951 484.127 213.601 483.627 214.157C483.132 214.707 482.499 215.135 481.727 215.44C480.955 215.74 480.072 215.89 479.077 215.89Z" fill="#4D4D4D"/>
<path d="M462.128 208.141V215.64H459.111V202.841H461.994V205.016H462.144C462.439 204.3 462.908 203.73 463.553 203.308C464.202 202.886 465.005 202.675 465.961 202.675C466.844 202.675 467.613 202.864 468.269 203.241C468.93 203.619 469.441 204.166 469.802 204.883C470.168 205.599 470.349 206.469 470.343 207.491V215.64H467.327V207.958C467.327 207.102 467.105 206.433 466.661 205.949C466.222 205.466 465.613 205.225 464.836 205.225C464.308 205.225 463.839 205.341 463.428 205.574C463.022 205.802 462.703 206.133 462.469 206.566C462.242 206.999 462.128 207.524 462.128 208.141Z" fill="#4D4D4D"/>
<path d="M452.996 215.641V202.842H456.012V215.641H452.996ZM454.513 201.026C454.035 201.026 453.624 200.867 453.279 200.551C452.935 200.228 452.763 199.842 452.763 199.392C452.763 198.937 452.935 198.551 453.279 198.234C453.624 197.912 454.035 197.751 454.513 197.751C454.996 197.751 455.407 197.912 455.746 198.234C456.09 198.551 456.262 198.937 456.262 199.392C456.262 199.842 456.09 200.228 455.746 200.551C455.407 200.867 454.996 201.026 454.513 201.026Z" fill="#4D4D4D"/>
<path d="M443.895 220.706C442.812 220.706 441.881 220.559 441.103 220.265C440.326 219.976 439.701 219.587 439.229 219.098C438.756 218.609 438.429 218.068 438.245 217.473L440.962 216.815C441.084 217.065 441.262 217.312 441.495 217.557C441.728 217.807 442.042 218.012 442.437 218.173C442.837 218.34 443.339 218.423 443.945 218.423C444.8 218.423 445.508 218.215 446.069 217.798C446.631 217.387 446.911 216.709 446.911 215.765V213.34H446.761C446.606 213.651 446.378 213.971 446.078 214.299C445.783 214.626 445.392 214.901 444.903 215.123C444.42 215.346 443.811 215.457 443.078 215.457C442.095 215.457 441.203 215.226 440.403 214.765C439.609 214.299 438.976 213.604 438.504 212.682C438.037 211.754 437.804 210.593 437.804 209.199C437.804 207.794 438.037 206.608 438.504 205.641C438.976 204.669 439.612 203.933 440.412 203.433C441.212 202.928 442.103 202.675 443.086 202.675C443.836 202.675 444.453 202.803 444.936 203.058C445.425 203.308 445.814 203.611 446.103 203.966C446.392 204.316 446.611 204.647 446.761 204.958H446.928V202.841H449.902V215.848C449.902 216.943 449.641 217.848 449.119 218.565C448.597 219.281 447.883 219.817 446.978 220.173C446.072 220.528 445.045 220.706 443.895 220.706ZM443.92 213.09C444.559 213.09 445.103 212.935 445.553 212.624C446.003 212.313 446.344 211.865 446.578 211.282C446.811 210.699 446.928 209.999 446.928 209.182C446.928 208.377 446.811 207.671 446.578 207.066C446.35 206.461 446.011 205.991 445.561 205.658C445.117 205.319 444.57 205.15 443.92 205.15C443.248 205.15 442.687 205.325 442.237 205.674C441.787 206.024 441.448 206.505 441.22 207.116C440.992 207.721 440.878 208.41 440.878 209.182C440.878 209.966 440.992 210.652 441.22 211.241C441.453 211.824 441.795 212.279 442.245 212.607C442.7 212.929 443.259 213.09 443.92 213.09Z" fill="#4D4D4D"/>
<path d="M427.048 208.141V215.64H424.031V202.841H426.914V205.016H427.064C427.359 204.3 427.828 203.73 428.472 203.308C429.122 202.886 429.925 202.675 430.881 202.675C431.764 202.675 432.533 202.864 433.189 203.241C433.85 203.619 434.361 204.166 434.722 204.883C435.088 205.599 435.269 206.469 435.263 207.491V215.64H432.247V207.958C432.247 207.102 432.025 206.433 431.58 205.949C431.142 205.466 430.533 205.225 429.756 205.225C429.228 205.225 428.759 205.341 428.347 205.574C427.942 205.802 427.623 206.133 427.389 206.566C427.161 206.999 427.048 207.524 427.048 208.141Z" fill="#4D4D4D"/>
<path d="M409.913 215.641V198.576H421.012V201.167H413.004V205.8H420.437V208.391H413.004V213.049H421.079V215.641H409.913Z" fill="#4D4D4D"/>
<path d="M401.196 206.224L398.446 206.524C398.368 206.247 398.232 205.986 398.038 205.741C397.849 205.497 397.593 205.3 397.271 205.15C396.949 205 396.555 204.925 396.088 204.925C395.46 204.925 394.933 205.061 394.505 205.333C394.083 205.605 393.874 205.958 393.88 206.391C393.874 206.763 394.011 207.066 394.288 207.299C394.572 207.533 395.038 207.724 395.688 207.874L397.871 208.341C399.082 208.602 399.982 209.016 400.571 209.582C401.165 210.149 401.465 210.891 401.471 211.807C401.465 212.613 401.229 213.324 400.763 213.94C400.302 214.551 399.66 215.029 398.838 215.373C398.016 215.718 397.071 215.89 396.005 215.89C394.438 215.89 393.177 215.562 392.222 214.907C391.266 214.246 390.697 213.326 390.514 212.149L393.455 211.865C393.588 212.443 393.872 212.879 394.305 213.174C394.738 213.468 395.302 213.615 395.996 213.615C396.713 213.615 397.288 213.468 397.721 213.174C398.16 212.879 398.379 212.515 398.379 212.082C398.379 211.716 398.238 211.413 397.955 211.174C397.677 210.935 397.244 210.752 396.655 210.624L394.472 210.166C393.244 209.91 392.336 209.48 391.747 208.874C391.158 208.263 390.866 207.491 390.872 206.558C390.866 205.769 391.08 205.086 391.514 204.508C391.952 203.925 392.561 203.475 393.338 203.158C394.122 202.836 395.024 202.675 396.046 202.675C397.546 202.675 398.727 202.994 399.588 203.633C400.454 204.272 400.99 205.136 401.196 206.224Z" fill="#4D4D4D"/>
<path d="M382.837 215.89C381.554 215.89 380.446 215.623 379.512 215.09C378.585 214.551 377.871 213.79 377.371 212.807C376.871 211.818 376.621 210.655 376.621 209.316C376.621 207.999 376.871 206.844 377.371 205.849C377.877 204.85 378.582 204.072 379.487 203.516C380.393 202.955 381.457 202.675 382.679 202.675C383.468 202.675 384.212 202.803 384.912 203.058C385.617 203.308 386.24 203.697 386.778 204.225C387.323 204.752 387.75 205.425 388.062 206.241C388.373 207.052 388.528 208.019 388.528 209.141V210.066H378.038V208.033H385.637C385.631 207.455 385.506 206.941 385.262 206.491C385.017 206.036 384.676 205.677 384.237 205.416C383.804 205.155 383.298 205.025 382.72 205.025C382.104 205.025 381.562 205.175 381.096 205.475C380.629 205.769 380.265 206.158 380.004 206.641C379.749 207.119 379.618 207.644 379.612 208.216V209.991C379.612 210.735 379.749 211.374 380.021 211.907C380.293 212.435 380.673 212.84 381.162 213.124C381.651 213.401 382.223 213.54 382.879 213.54C383.318 213.54 383.715 213.479 384.07 213.357C384.426 213.229 384.734 213.043 384.995 212.799C385.256 212.554 385.453 212.252 385.587 211.89L388.403 212.207C388.225 212.951 387.887 213.601 387.387 214.157C386.892 214.707 386.259 215.135 385.487 215.44C384.715 215.74 383.831 215.89 382.837 215.89Z" fill="#4D4D4D"/>
<path d="M374.069 198.576V215.641H371.053V198.576H374.069Z" fill="#4D4D4D"/>
<path d="M364.936 210.258V202.842H367.952V215.64H365.027V213.366H364.894C364.605 214.082 364.13 214.668 363.469 215.124C362.814 215.579 362.006 215.807 361.045 215.807C360.206 215.807 359.464 215.621 358.82 215.249C358.181 214.871 357.681 214.324 357.32 213.607C356.959 212.885 356.778 212.013 356.778 210.991V202.842H359.795V210.524C359.795 211.335 360.017 211.98 360.461 212.457C360.906 212.935 361.489 213.174 362.211 213.174C362.655 213.174 363.086 213.066 363.503 212.849C363.919 212.632 364.261 212.31 364.527 211.882C364.8 211.449 364.936 210.908 364.936 210.258Z" fill="#4D4D4D"/>
<path d="M341.651 215.641V198.576H348.051C349.362 198.576 350.462 198.803 351.35 199.259C352.245 199.714 352.92 200.353 353.375 201.175C353.836 201.992 354.067 202.945 354.067 204.033C354.067 205.128 353.833 206.078 353.367 206.883C352.906 207.683 352.225 208.302 351.325 208.741C350.425 209.175 349.32 209.391 348.009 209.391H343.451V206.825H347.592C348.359 206.825 348.987 206.719 349.476 206.508C349.964 206.292 350.325 205.978 350.559 205.567C350.798 205.15 350.917 204.639 350.917 204.033C350.917 203.428 350.798 202.911 350.559 202.484C350.32 202.05 349.956 201.723 349.467 201.5C348.978 201.273 348.348 201.159 347.576 201.159H344.743V215.641H341.651ZM350.467 207.908L354.692 215.641H351.242L347.092 207.908H350.467Z" fill="#4D4D4D"/>
<path d="M620.751 293.339C619.556 293.339 618.523 293.061 617.651 292.506C616.779 291.945 616.104 291.17 615.626 290.181C615.154 289.187 614.918 288.042 614.918 286.748C614.918 285.459 615.154 284.315 615.626 283.315C616.104 282.31 616.762 281.523 617.601 280.957C618.445 280.385 619.42 280.099 620.526 280.099C621.22 280.099 621.889 280.226 622.534 280.482C623.178 280.732 623.756 281.118 624.267 281.64C624.784 282.157 625.192 282.809 625.492 283.598C625.792 284.382 625.942 285.309 625.942 286.381V287.115H615.943V285.806H624.425C624.425 284.984 624.259 284.245 623.925 283.59C623.598 282.929 623.139 282.407 622.55 282.023C621.967 281.64 621.292 281.448 620.526 281.448C619.715 281.448 619.001 281.665 618.384 282.098C617.768 282.532 617.284 283.104 616.934 283.815C616.59 284.526 616.415 285.304 616.409 286.148V286.931C616.409 287.948 616.584 288.837 616.934 289.598C617.29 290.353 617.793 290.939 618.443 291.356C619.093 291.772 619.862 291.981 620.751 291.981C621.356 291.981 621.887 291.886 622.342 291.697C622.803 291.509 623.189 291.256 623.5 290.939C623.817 290.617 624.056 290.264 624.217 289.881L625.625 290.339C625.431 290.878 625.111 291.375 624.667 291.831C624.228 292.286 623.678 292.653 623.017 292.931C622.362 293.203 621.606 293.339 620.751 293.339Z" fill="#767676"/>
<path d="M611.653 276.007V293.072H610.17V276.007H611.653Z" fill="#767676"/>
<path d="M604.759 288.181V280.273H606.243V293.072H604.759V290.947H604.643C604.343 291.603 603.868 292.15 603.218 292.589C602.568 293.022 601.774 293.239 600.835 293.239C600.018 293.239 599.293 293.061 598.66 292.705C598.027 292.344 597.53 291.817 597.169 291.122C596.807 290.428 596.627 289.575 596.627 288.564V280.273H598.11V288.473C598.11 289.472 598.405 290.278 598.993 290.889C599.582 291.494 600.338 291.797 601.26 291.797C601.838 291.797 602.393 291.658 602.926 291.381C603.46 291.103 603.898 290.697 604.243 290.164C604.587 289.625 604.759 288.964 604.759 288.181Z" fill="#767676"/>
<path d="M588.263 293.073V280.274H589.704V282.241H589.813C590.068 281.596 590.512 281.077 591.146 280.682C591.785 280.282 592.507 280.083 593.312 280.083C593.434 280.083 593.57 280.085 593.72 280.091C593.87 280.096 593.995 280.102 594.095 280.108V281.616C594.029 281.605 593.912 281.588 593.745 281.566C593.579 281.543 593.398 281.532 593.204 281.532C592.537 281.532 591.943 281.674 591.421 281.957C590.904 282.235 590.496 282.621 590.196 283.116C589.896 283.61 589.746 284.174 589.746 284.807V293.073H588.263Z" fill="#767676"/>
<path d="M561.523 293.072V280.273H562.965V282.24H563.098C563.354 281.579 563.779 281.059 564.373 280.681C564.973 280.298 565.692 280.106 566.531 280.106C567.414 280.106 568.139 280.315 568.706 280.731C569.278 281.142 569.706 281.709 569.989 282.431H570.098C570.386 281.72 570.856 281.156 571.506 280.74C572.161 280.318 572.956 280.106 573.889 280.106C575.078 280.106 576.016 280.481 576.705 281.231C577.394 281.976 577.738 283.064 577.738 284.498V293.072H576.255V284.498C576.255 283.487 575.997 282.728 575.48 282.223C574.964 281.717 574.283 281.465 573.439 281.465C572.461 281.465 571.708 281.765 571.181 282.365C570.653 282.964 570.389 283.726 570.389 284.648V293.072H568.873V284.364C568.873 283.498 568.631 282.798 568.148 282.265C567.664 281.731 566.984 281.465 566.106 281.465C565.517 281.465 564.987 281.609 564.515 281.898C564.048 282.187 563.679 282.59 563.407 283.106C563.14 283.617 563.007 284.206 563.007 284.873V293.072H561.523Z" fill="#767676"/>
<path d="M552.632 293.339C551.526 293.339 550.549 293.058 549.699 292.497C548.854 291.936 548.193 291.161 547.716 290.173C547.238 289.178 546.999 288.031 546.999 286.731C546.999 285.42 547.238 284.268 547.716 283.273C548.193 282.273 548.854 281.496 549.699 280.94C550.549 280.379 551.526 280.099 552.632 280.099C553.737 280.099 554.712 280.379 555.556 280.94C556.401 281.501 557.062 282.279 557.54 283.273C558.023 284.268 558.264 285.42 558.264 286.731C558.264 288.031 558.026 289.178 557.548 290.173C557.07 291.161 556.406 291.936 555.556 292.497C554.712 293.058 553.737 293.339 552.632 293.339ZM552.632 291.981C553.521 291.981 554.273 291.742 554.89 291.264C555.506 290.786 555.973 290.15 556.29 289.356C556.612 288.562 556.773 287.687 556.773 286.731C556.773 285.776 556.612 284.898 556.29 284.098C555.973 283.298 555.506 282.657 554.89 282.173C554.273 281.69 553.521 281.448 552.632 281.448C551.749 281.448 550.996 281.69 550.374 282.173C549.757 282.657 549.288 283.298 548.965 284.098C548.649 284.898 548.491 285.776 548.491 286.731C548.491 287.687 548.649 288.562 548.965 289.356C549.288 290.15 549.757 290.786 550.374 291.264C550.99 291.742 551.743 291.981 552.632 291.981Z" fill="#767676"/>
<path d="M544.427 280.273V281.564H538.319V280.273H544.427ZM540.227 277.207H541.719V289.73C541.719 290.263 541.811 290.683 541.994 290.988C542.177 291.288 542.416 291.502 542.711 291.63C543.005 291.752 543.319 291.813 543.652 291.813C543.847 291.813 544.013 291.802 544.152 291.78C544.291 291.752 544.413 291.724 544.519 291.697L544.835 293.038C544.691 293.094 544.513 293.144 544.302 293.188C544.091 293.238 543.83 293.263 543.519 293.263C542.974 293.263 542.449 293.144 541.944 292.905C541.444 292.666 541.033 292.31 540.711 291.838C540.389 291.366 540.227 290.78 540.227 290.08V277.207Z" fill="#767676"/>
<path d="M535.955 283.082L534.597 283.465C534.463 283.082 534.275 282.734 534.03 282.423C533.786 282.112 533.466 281.865 533.072 281.682C532.683 281.498 532.2 281.407 531.622 281.407C530.755 281.407 530.044 281.612 529.489 282.023C528.933 282.434 528.656 282.965 528.656 283.615C528.656 284.165 528.845 284.612 529.222 284.956C529.606 285.295 530.194 285.565 530.989 285.765L532.922 286.24C533.994 286.501 534.797 286.915 535.33 287.481C535.869 288.048 536.138 288.759 536.138 289.614C536.138 290.336 535.938 290.978 535.538 291.539C535.138 292.1 534.58 292.542 533.863 292.864C533.152 293.181 532.328 293.339 531.389 293.339C530.139 293.339 529.108 293.058 528.297 292.497C527.486 291.931 526.967 291.114 526.739 290.048L528.164 289.698C528.347 290.459 528.706 291.034 529.239 291.422C529.778 291.811 530.486 292.006 531.364 292.006C532.347 292.006 533.133 291.786 533.722 291.347C534.311 290.903 534.605 290.348 534.605 289.681C534.605 289.164 534.433 288.731 534.088 288.381C533.744 288.026 533.222 287.764 532.522 287.598L530.431 287.098C529.32 286.831 528.497 286.409 527.964 285.831C527.431 285.254 527.164 284.537 527.164 283.682C527.164 282.976 527.356 282.357 527.739 281.823C528.122 281.285 528.65 280.862 529.322 280.557C529.994 280.251 530.761 280.099 531.622 280.099C532.794 280.099 533.73 280.365 534.43 280.899C535.136 281.426 535.644 282.154 535.955 283.082Z" fill="#767676"/>
<path d="M521.949 288.181V280.273H523.432V293.072H521.949V290.947H521.832C521.532 291.603 521.057 292.15 520.407 292.589C519.757 293.022 518.963 293.239 518.024 293.239C517.208 293.239 516.483 293.061 515.85 292.705C515.216 292.344 514.719 291.817 514.358 291.122C513.997 290.428 513.816 289.575 513.816 288.564V280.273H515.3V288.473C515.3 289.472 515.594 290.278 516.183 290.889C516.772 291.494 517.527 291.797 518.449 291.797C519.027 291.797 519.582 291.658 520.116 291.381C520.649 291.103 521.088 290.697 521.432 290.164C521.777 289.625 521.949 288.964 521.949 288.181Z" fill="#767676"/>
<path d="M510.464 281.34H508.897C508.781 280.757 508.57 280.218 508.264 279.724C507.964 279.224 507.586 278.788 507.131 278.416C506.675 278.044 506.159 277.755 505.581 277.549C505.003 277.344 504.378 277.241 503.706 277.241C502.629 277.241 501.645 277.521 500.757 278.082C499.873 278.644 499.165 279.468 498.632 280.557C498.104 281.64 497.84 282.968 497.84 284.54C497.84 286.123 498.104 287.456 498.632 288.54C499.165 289.623 499.873 290.445 500.757 291.006C501.645 291.562 502.629 291.839 503.706 291.839C504.378 291.839 505.003 291.737 505.581 291.531C506.159 291.326 506.675 291.039 507.131 290.673C507.586 290.301 507.964 289.865 508.264 289.365C508.57 288.865 508.781 288.323 508.897 287.74H510.464C510.325 288.523 510.064 289.254 509.681 289.931C509.303 290.603 508.82 291.192 508.231 291.698C507.647 292.203 506.975 292.598 506.214 292.881C505.453 293.164 504.617 293.306 503.706 293.306C502.273 293.306 501.001 292.948 499.89 292.231C498.779 291.509 497.907 290.492 497.274 289.181C496.646 287.87 496.332 286.323 496.332 284.54C496.332 282.757 496.646 281.21 497.274 279.899C497.907 278.588 498.779 277.574 499.89 276.858C501.001 276.135 502.273 275.774 503.706 275.774C504.617 275.774 505.453 275.916 506.214 276.199C506.975 276.477 507.647 276.872 508.231 277.383C508.82 277.888 509.303 278.477 509.681 279.149C510.064 279.821 510.325 280.552 510.464 281.34Z" fill="#767676"/>
<path d="M722.764 384.849C721.57 384.849 720.537 384.571 719.665 384.015C718.793 383.454 718.118 382.679 717.64 381.691C717.168 380.696 716.932 379.552 716.932 378.258C716.932 376.969 717.168 375.825 717.64 374.825C718.118 373.819 718.776 373.033 719.615 372.467C720.459 371.894 721.434 371.608 722.539 371.608C723.234 371.608 723.903 371.736 724.547 371.992C725.192 372.242 725.77 372.628 726.281 373.15C726.797 373.667 727.206 374.319 727.506 375.108C727.805 375.891 727.955 376.819 727.955 377.891V378.624H717.957V377.316H726.439C726.439 376.494 726.272 375.755 725.939 375.1C725.611 374.439 725.153 373.916 724.564 373.533C723.981 373.15 723.306 372.958 722.539 372.958C721.728 372.958 721.015 373.175 720.398 373.608C719.781 374.041 719.298 374.614 718.948 375.325C718.604 376.036 718.429 376.813 718.423 377.658V378.441C718.423 379.458 718.598 380.346 718.948 381.107C719.304 381.863 719.806 382.449 720.456 382.866C721.106 383.282 721.876 383.49 722.764 383.49C723.37 383.49 723.9 383.396 724.356 383.207C724.817 383.018 725.203 382.766 725.514 382.449C725.831 382.127 726.07 381.774 726.231 381.391L727.639 381.849C727.444 382.388 727.125 382.885 726.681 383.34C726.242 383.796 725.692 384.163 725.031 384.44C724.375 384.713 723.62 384.849 722.764 384.849Z" fill="#767676"/>
<path d="M713.667 367.517V384.581H712.184V367.517H713.667Z" fill="#767676"/>
<path d="M706.775 379.69V371.782H708.258V384.581H706.775V382.456H706.658C706.358 383.112 705.883 383.659 705.234 384.098C704.584 384.531 703.789 384.748 702.85 384.748C702.034 384.748 701.309 384.57 700.676 384.214C700.042 383.853 699.545 383.325 699.184 382.631C698.823 381.937 698.643 381.084 698.643 380.073V371.782H700.126V379.981C700.126 380.981 700.42 381.787 701.009 382.398C701.598 383.003 702.353 383.306 703.275 383.306C703.853 383.306 704.409 383.167 704.942 382.889C705.475 382.612 705.914 382.206 706.258 381.673C706.603 381.134 706.775 380.473 706.775 379.69Z" fill="#767676"/>
<path d="M690.278 384.582V371.783H691.72V373.75H691.828C692.084 373.106 692.528 372.586 693.161 372.192C693.8 371.792 694.522 371.592 695.328 371.592C695.45 371.592 695.586 371.595 695.736 371.6C695.886 371.606 696.011 371.611 696.111 371.617V373.125C696.044 373.114 695.928 373.097 695.761 373.075C695.594 373.053 695.414 373.042 695.219 373.042C694.553 373.042 693.958 373.183 693.436 373.467C692.92 373.744 692.511 374.13 692.211 374.625C691.911 375.119 691.761 375.683 691.761 376.316V384.582H690.278Z" fill="#767676"/>
<path d="M674.468 389.648C673.596 389.648 672.832 389.534 672.176 389.307C671.521 389.084 670.968 388.779 670.518 388.39C670.068 388.001 669.718 387.565 669.468 387.082L670.685 386.282C670.868 386.604 671.113 386.921 671.418 387.232C671.729 387.543 672.132 387.801 672.626 388.007C673.126 388.212 673.74 388.315 674.468 388.315C675.601 388.315 676.515 388.032 677.209 387.465C677.909 386.898 678.259 386.018 678.259 384.824V381.941H678.126C677.954 382.329 677.706 382.718 677.384 383.107C677.062 383.49 676.64 383.81 676.118 384.065C675.601 384.321 674.959 384.449 674.193 384.449C673.171 384.449 672.263 384.196 671.468 383.69C670.679 383.185 670.057 382.463 669.602 381.524C669.152 380.58 668.927 379.455 668.927 378.149C668.927 376.855 669.146 375.716 669.585 374.733C670.029 373.75 670.649 372.983 671.443 372.433C672.238 371.883 673.162 371.608 674.218 371.608C675.001 371.608 675.651 371.747 676.168 372.025C676.684 372.297 677.098 372.636 677.409 373.042C677.726 373.447 677.973 373.841 678.151 374.225H678.301V371.783H679.751V384.915C679.751 385.999 679.52 386.89 679.059 387.59C678.598 388.29 677.97 388.807 677.176 389.14C676.382 389.479 675.479 389.648 674.468 389.648ZM674.368 383.091C675.19 383.091 675.893 382.893 676.476 382.499C677.059 382.099 677.506 381.527 677.817 380.782C678.129 380.038 678.284 379.152 678.284 378.124C678.284 377.124 678.131 376.238 677.826 375.466C677.52 374.689 677.076 374.078 676.493 373.633C675.915 373.183 675.207 372.958 674.368 372.958C673.512 372.958 672.79 373.189 672.201 373.65C671.613 374.111 671.168 374.733 670.868 375.516C670.568 376.294 670.418 377.163 670.418 378.124C670.418 379.102 670.571 379.966 670.877 380.716C671.182 381.46 671.629 382.043 672.218 382.466C672.807 382.882 673.523 383.091 674.368 383.091Z" fill="#767676"/>
<path d="M657.481 376.582V384.581H655.998V371.783H657.44V373.791H657.573C657.873 373.135 658.339 372.611 658.973 372.216C659.612 371.816 660.4 371.616 661.339 371.616C662.2 371.616 662.956 371.797 663.606 372.158C664.261 372.513 664.769 373.038 665.13 373.733C665.497 374.427 665.68 375.28 665.68 376.291V384.581H664.197V376.382C664.197 375.332 663.903 374.502 663.314 373.891C662.731 373.28 661.947 372.974 660.964 372.974C660.292 372.974 659.695 373.119 659.173 373.408C658.651 373.697 658.237 374.113 657.931 374.658C657.631 375.196 657.481 375.838 657.481 376.582Z" fill="#767676"/>
<path d="M650.582 384.582V371.783H652.074V384.582H650.582ZM651.341 369.583C651.035 369.583 650.774 369.481 650.557 369.275C650.341 369.064 650.232 368.811 650.232 368.517C650.232 368.222 650.341 367.972 650.557 367.767C650.774 367.556 651.035 367.45 651.341 367.45C651.646 367.45 651.907 367.556 652.124 367.767C652.341 367.972 652.449 368.222 652.449 368.517C652.449 368.811 652.341 369.064 652.124 369.275C651.907 369.481 651.646 369.583 651.341 369.583Z" fill="#767676"/>
<path d="M638.462 376.582V384.581H636.979V371.783H638.42V373.791H638.553C638.853 373.135 639.32 372.611 639.953 372.216C640.592 371.816 641.381 371.616 642.32 371.616C643.181 371.616 643.936 371.797 644.586 372.158C645.242 372.513 645.75 373.038 646.111 373.733C646.477 374.427 646.661 375.28 646.661 376.291V384.581H645.178V376.382C645.178 375.332 644.883 374.502 644.294 373.891C643.711 373.28 642.928 372.974 641.945 372.974C641.272 372.974 640.675 373.119 640.153 373.408C639.631 373.697 639.217 374.113 638.912 374.658C638.612 375.196 638.462 375.838 638.462 376.582Z" fill="#767676"/>
<path d="M628.615 384.582V371.783H630.057V373.75H630.165C630.421 373.106 630.865 372.586 631.498 372.192C632.137 371.792 632.859 371.592 633.665 371.592C633.787 371.592 633.923 371.595 634.073 371.6C634.223 371.606 634.348 371.611 634.448 371.617V373.125C634.381 373.114 634.265 373.097 634.098 373.075C633.931 373.053 633.751 373.042 633.556 373.042C632.89 373.042 632.295 373.183 631.773 373.467C631.257 373.744 630.848 374.13 630.548 374.625C630.248 375.119 630.098 375.683 630.098 376.316V384.582H628.615Z" fill="#767676"/>
<path d="M619.128 384.874C618.356 384.874 617.65 384.724 617.011 384.424C616.373 384.118 615.864 383.679 615.487 383.107C615.109 382.529 614.92 381.83 614.92 381.007C614.92 380.374 615.039 379.841 615.278 379.408C615.517 378.974 615.856 378.619 616.295 378.341C616.734 378.063 617.253 377.844 617.853 377.683C618.453 377.522 619.114 377.397 619.836 377.308C620.553 377.219 621.158 377.141 621.653 377.074C622.152 377.008 622.533 376.902 622.794 376.758C623.055 376.613 623.186 376.38 623.186 376.058V375.758C623.186 374.886 622.925 374.2 622.402 373.7C621.886 373.194 621.141 372.942 620.169 372.942C619.247 372.942 618.495 373.144 617.911 373.55C617.334 373.955 616.928 374.433 616.695 374.983L615.287 374.475C615.575 373.775 615.975 373.217 616.486 372.8C616.997 372.378 617.57 372.075 618.203 371.892C618.836 371.703 619.478 371.608 620.128 371.608C620.617 371.608 621.125 371.672 621.653 371.8C622.186 371.928 622.68 372.15 623.136 372.467C623.591 372.778 623.961 373.214 624.244 373.775C624.527 374.33 624.669 375.036 624.669 375.891V384.582H623.186V382.557H623.094C622.916 382.935 622.652 383.302 622.302 383.657C621.952 384.013 621.514 384.304 620.986 384.532C620.458 384.76 619.839 384.874 619.128 384.874ZM619.328 383.515C620.117 383.515 620.8 383.34 621.378 382.991C621.955 382.641 622.4 382.177 622.711 381.599C623.027 381.016 623.186 380.374 623.186 379.674V377.824C623.075 377.93 622.889 378.024 622.627 378.108C622.372 378.191 622.075 378.266 621.736 378.333C621.403 378.394 621.069 378.447 620.736 378.491C620.403 378.535 620.103 378.574 619.836 378.608C619.114 378.697 618.497 378.835 617.986 379.024C617.475 379.213 617.084 379.474 616.811 379.808C616.539 380.135 616.403 380.557 616.403 381.074C616.403 381.852 616.681 382.454 617.236 382.882C617.792 383.304 618.489 383.515 619.328 383.515Z" fill="#767676"/>
<path d="M607.092 384.849C605.898 384.849 604.865 384.571 603.993 384.015C603.121 383.454 602.446 382.679 601.968 381.691C601.496 380.696 601.26 379.552 601.26 378.258C601.26 376.969 601.496 375.825 601.968 374.825C602.446 373.819 603.104 373.033 603.943 372.467C604.787 371.894 605.762 371.608 606.868 371.608C607.562 371.608 608.231 371.736 608.876 371.992C609.52 372.242 610.098 372.628 610.609 373.15C611.125 373.667 611.534 374.319 611.834 375.108C612.134 375.891 612.284 376.819 612.284 377.891V378.624H602.285V377.316H610.767C610.767 376.494 610.6 375.755 610.267 375.1C609.939 374.439 609.481 373.916 608.892 373.533C608.309 373.15 607.634 372.958 606.868 372.958C606.056 372.958 605.343 373.175 604.726 373.608C604.109 374.041 603.626 374.614 603.276 375.325C602.932 376.036 602.757 376.813 602.751 377.658V378.441C602.751 379.458 602.926 380.346 603.276 381.107C603.632 381.863 604.134 382.449 604.784 382.866C605.434 383.282 606.204 383.49 607.092 383.49C607.698 383.49 608.228 383.396 608.684 383.207C609.145 383.018 609.531 382.766 609.842 382.449C610.159 382.127 610.398 381.774 610.559 381.391L611.967 381.849C611.773 382.388 611.453 382.885 611.009 383.34C610.57 383.796 610.02 384.163 609.359 384.44C608.703 384.713 607.948 384.849 607.092 384.849Z" fill="#767676"/>
<path d="M597.997 367.517V384.581H596.514V367.517H597.997Z" fill="#767676"/>
<path d="M581.452 384.849C580.258 384.849 579.224 384.571 578.352 384.015C577.48 383.454 576.805 382.679 576.327 381.691C575.855 380.696 575.619 379.552 575.619 378.258C575.619 376.969 575.855 375.825 576.327 374.825C576.805 373.819 577.463 373.033 578.302 372.467C579.147 371.894 580.121 371.608 581.227 371.608C581.921 371.608 582.591 371.736 583.235 371.992C583.879 372.242 584.457 372.628 584.968 373.15C585.485 373.667 585.893 374.319 586.193 375.108C586.493 375.891 586.643 376.819 586.643 377.891V378.624H576.644V377.316H585.126C585.126 376.494 584.96 375.755 584.627 375.1C584.299 374.439 583.84 373.916 583.252 373.533C582.668 373.15 581.993 372.958 581.227 372.958C580.416 372.958 579.702 373.175 579.085 373.608C578.469 374.041 577.986 374.614 577.636 375.325C577.291 376.036 577.116 376.813 577.111 377.658V378.441C577.111 379.458 577.286 380.346 577.636 381.107C577.991 381.863 578.494 382.449 579.144 382.866C579.794 383.282 580.563 383.49 581.452 383.49C582.057 383.49 582.588 383.396 583.043 383.207C583.504 383.018 583.89 382.766 584.202 382.449C584.518 382.127 584.757 381.774 584.918 381.391L586.326 381.849C586.132 382.388 585.812 382.885 585.368 383.34C584.929 383.796 584.379 384.163 583.718 384.44C583.063 384.713 582.307 384.849 581.452 384.849Z" fill="#767676"/>
<path d="M564.175 376.582V384.581H562.691V371.783H564.133V373.791H564.266C564.566 373.135 565.033 372.611 565.666 372.216C566.305 371.816 567.094 371.616 568.033 371.616C568.894 371.616 569.649 371.797 570.299 372.158C570.954 372.513 571.463 373.038 571.824 373.733C572.19 374.427 572.374 375.28 572.374 376.291V384.581H570.891V376.382C570.891 375.332 570.596 374.502 570.007 373.891C569.424 373.28 568.641 372.974 567.658 372.974C566.985 372.974 566.388 373.119 565.866 373.408C565.344 373.697 564.93 374.113 564.625 374.658C564.325 375.196 564.175 375.838 564.175 376.582Z" fill="#767676"/>
<path d="M557.277 384.582V371.783H558.768V384.582H557.277ZM558.035 369.583C557.729 369.583 557.468 369.481 557.252 369.275C557.035 369.064 556.927 368.811 556.927 368.517C556.927 368.222 557.035 367.972 557.252 367.767C557.468 367.556 557.729 367.45 558.035 367.45C558.34 367.45 558.602 367.556 558.818 367.767C559.035 367.972 559.143 368.222 559.143 368.517C559.143 368.811 559.035 369.064 558.818 369.275C558.602 369.481 558.34 369.583 558.035 369.583Z" fill="#767676"/>
<path d="M545.064 376.582V384.581H543.581V367.517H545.064V373.791H545.198C545.498 373.13 545.961 372.602 546.589 372.208C547.222 371.813 548.022 371.616 548.989 371.616C549.855 371.616 550.616 371.794 551.272 372.149C551.927 372.505 552.438 373.03 552.805 373.724C553.172 374.419 553.355 375.274 553.355 376.291V384.581H551.864V376.382C551.864 375.327 551.569 374.496 550.98 373.891C550.397 373.28 549.608 372.974 548.614 372.974C547.931 372.974 547.322 373.119 546.789 373.408C546.256 373.696 545.834 374.113 545.523 374.658C545.217 375.196 545.064 375.838 545.064 376.582Z" fill="#767676"/>
<path d="M535.517 384.849C534.373 384.849 533.376 384.563 532.526 383.99C531.681 383.418 531.026 382.635 530.559 381.641C530.093 380.646 529.859 379.513 529.859 378.241C529.859 376.958 530.095 375.816 530.568 374.816C531.045 373.816 531.706 373.033 532.551 372.467C533.395 371.894 534.376 371.608 535.492 371.608C536.348 371.608 537.122 371.775 537.817 372.108C538.511 372.436 539.083 372.9 539.533 373.5C539.989 374.094 540.275 374.789 540.392 375.583H538.892C538.736 374.861 538.361 374.244 537.767 373.733C537.178 373.217 536.428 372.958 535.517 372.958C534.701 372.958 533.978 373.18 533.351 373.625C532.723 374.064 532.231 374.678 531.876 375.466C531.526 376.25 531.351 377.158 531.351 378.191C531.351 379.23 531.523 380.149 531.867 380.949C532.212 381.743 532.695 382.366 533.317 382.816C533.945 383.265 534.678 383.49 535.517 383.49C536.084 383.49 536.6 383.385 537.067 383.174C537.539 382.957 537.934 382.652 538.25 382.257C538.572 381.863 538.789 381.393 538.9 380.849H540.4C540.289 381.621 540.014 382.31 539.575 382.916C539.142 383.515 538.578 383.988 537.884 384.332C537.195 384.676 536.406 384.849 535.517 384.849Z" fill="#767676"/>
<path d="M521.032 384.874C520.26 384.874 519.554 384.724 518.916 384.424C518.277 384.118 517.769 383.679 517.391 383.107C517.013 382.529 516.824 381.83 516.824 381.007C516.824 380.374 516.944 379.841 517.183 379.408C517.421 378.974 517.76 378.619 518.199 378.341C518.638 378.063 519.157 377.844 519.757 377.683C520.357 377.522 521.018 377.397 521.74 377.308C522.457 377.219 523.062 377.141 523.557 377.074C524.057 377.008 524.437 376.902 524.698 376.758C524.959 376.613 525.09 376.38 525.09 376.058V375.758C525.09 374.886 524.829 374.2 524.307 373.7C523.79 373.194 523.046 372.942 522.074 372.942C521.152 372.942 520.399 373.144 519.816 373.55C519.238 373.955 518.832 374.433 518.599 374.983L517.191 374.475C517.48 373.775 517.88 373.217 518.391 372.8C518.902 372.378 519.474 372.075 520.107 371.892C520.74 371.703 521.382 371.608 522.032 371.608C522.521 371.608 523.029 371.672 523.557 371.8C524.09 371.928 524.585 372.15 525.04 372.467C525.496 372.778 525.865 373.214 526.148 373.775C526.432 374.33 526.573 375.036 526.573 375.891V384.582H525.09V382.557H524.998C524.821 382.935 524.557 383.302 524.207 383.657C523.857 384.013 523.418 384.304 522.89 384.532C522.363 384.76 521.743 384.874 521.032 384.874ZM521.232 383.515C522.021 383.515 522.704 383.34 523.282 382.991C523.86 382.641 524.304 382.177 524.615 381.599C524.932 381.016 525.09 380.374 525.09 379.674V377.824C524.979 377.93 524.793 378.024 524.532 378.108C524.276 378.191 523.979 378.266 523.64 378.333C523.307 378.394 522.974 378.447 522.64 378.491C522.307 378.535 522.007 378.574 521.74 378.608C521.018 378.697 520.402 378.835 519.891 379.024C519.38 379.213 518.988 379.474 518.716 379.808C518.443 380.135 518.307 380.557 518.307 381.074C518.307 381.852 518.585 382.454 519.141 382.882C519.696 383.304 520.393 383.515 521.232 383.515Z" fill="#767676"/>
<path d="M497.098 367.516H498.897L505.088 382.381H505.238L511.429 367.516H513.229V384.581H511.763V370.807H511.629L505.872 384.581H504.455L498.697 370.807H498.564V384.581H497.098V367.516Z" fill="#767676"/>
<path d="M614.654 476.359C613.46 476.359 612.426 476.081 611.554 475.526C610.682 474.965 610.007 474.19 609.53 473.201C609.057 472.207 608.821 471.062 608.821 469.768C608.821 468.479 609.057 467.335 609.53 466.335C610.007 465.33 610.666 464.543 611.504 463.977C612.349 463.405 613.324 463.119 614.429 463.119C615.123 463.119 615.793 463.246 616.437 463.502C617.082 463.752 617.659 464.138 618.17 464.66C618.687 465.177 619.095 465.829 619.395 466.618C619.695 467.402 619.845 468.329 619.845 469.401V470.135H609.846V468.826H618.329C618.329 468.004 618.162 467.265 617.829 466.61C617.501 465.949 617.043 465.427 616.454 465.043C615.871 464.66 615.196 464.469 614.429 464.469C613.618 464.469 612.904 464.685 612.288 465.118C611.671 465.552 611.188 466.124 610.838 466.835C610.493 467.546 610.318 468.324 610.313 469.168V469.951C610.313 470.968 610.488 471.857 610.838 472.618C611.193 473.373 611.696 473.959 612.346 474.376C612.996 474.792 613.765 475.001 614.654 475.001C615.259 475.001 615.79 474.906 616.245 474.717C616.707 474.529 617.093 474.276 617.404 473.959C617.72 473.637 617.959 473.284 618.12 472.901L619.528 473.359C619.334 473.898 619.015 474.395 618.57 474.851C618.131 475.306 617.581 475.673 616.92 475.951C616.265 476.223 615.509 476.359 614.654 476.359Z" fill="#767676"/>
<path d="M605.558 459.028V476.093H604.075V459.028H605.558Z" fill="#767676"/>
<path d="M598.665 471.201V463.293H600.148V476.092H598.665V473.967H598.548C598.248 474.623 597.773 475.17 597.123 475.609C596.473 476.042 595.679 476.259 594.74 476.259C593.924 476.259 593.199 476.081 592.565 475.725C591.932 475.364 591.435 474.837 591.074 474.142C590.713 473.448 590.532 472.595 590.532 471.584V463.293H592.015V471.493C592.015 472.492 592.31 473.298 592.899 473.909C593.487 474.514 594.243 474.817 595.165 474.817C595.743 474.817 596.298 474.678 596.832 474.401C597.365 474.123 597.804 473.717 598.148 473.184C598.492 472.645 598.665 471.984 598.665 471.201Z" fill="#767676"/>
<path d="M582.168 476.093V463.295H583.609V465.261H583.718C583.973 464.617 584.418 464.097 585.051 463.703C585.69 463.303 586.412 463.103 587.217 463.103C587.34 463.103 587.476 463.106 587.626 463.111C587.776 463.117 587.901 463.122 588.001 463.128V464.636C587.934 464.625 587.817 464.608 587.651 464.586C587.484 464.564 587.304 464.553 587.109 464.553C586.443 464.553 585.848 464.695 585.326 464.978C584.809 465.256 584.401 465.642 584.101 466.136C583.801 466.63 583.651 467.194 583.651 467.828V476.093H582.168Z" fill="#767676"/>
<path d="M572.2 463.294V464.585H566.093V463.294H572.2ZM568.001 460.228H569.492V472.751C569.492 473.284 569.584 473.704 569.767 474.009C569.951 474.309 570.19 474.523 570.484 474.651C570.778 474.773 571.092 474.834 571.426 474.834C571.62 474.834 571.787 474.823 571.925 474.801C572.064 474.773 572.187 474.745 572.292 474.718L572.609 476.059C572.464 476.115 572.287 476.165 572.075 476.209C571.864 476.259 571.603 476.284 571.292 476.284C570.748 476.284 570.223 476.165 569.717 475.926C569.217 475.687 568.806 475.331 568.484 474.859C568.162 474.387 568.001 473.801 568.001 473.101V460.228Z" fill="#767676"/>
<path d="M563.236 459.028V476.093H561.753V459.028H563.236Z" fill="#767676"/>
<path d="M556.342 471.201V463.293H557.826V476.092H556.342V473.967H556.226C555.926 474.623 555.451 475.17 554.801 475.609C554.151 476.042 553.357 476.259 552.418 476.259C551.601 476.259 550.876 476.081 550.243 475.725C549.61 475.364 549.113 474.837 548.752 474.142C548.39 473.448 548.21 472.595 548.21 471.584V463.293H549.693V471.493C549.693 472.492 549.988 473.298 550.576 473.909C551.165 474.514 551.921 474.817 552.843 474.817C553.421 474.817 553.976 474.678 554.509 474.401C555.043 474.123 555.481 473.717 555.826 473.184C556.17 472.645 556.342 471.984 556.342 471.201Z" fill="#767676"/>
<path d="M538.723 476.384C537.95 476.384 537.245 476.234 536.606 475.934C535.967 475.628 535.459 475.19 535.081 474.617C534.704 474.04 534.515 473.34 534.515 472.518C534.515 471.884 534.634 471.351 534.873 470.918C535.112 470.485 535.451 470.129 535.89 469.851C536.328 469.574 536.848 469.354 537.448 469.193C538.048 469.032 538.709 468.907 539.431 468.818C540.147 468.729 540.753 468.651 541.247 468.585C541.747 468.518 542.128 468.413 542.389 468.268C542.65 468.124 542.78 467.89 542.78 467.568V467.268C542.78 466.396 542.519 465.71 541.997 465.21C541.481 464.705 540.736 464.452 539.764 464.452C538.842 464.452 538.089 464.655 537.506 465.06C536.928 465.466 536.523 465.943 536.289 466.493L534.881 465.985C535.17 465.285 535.57 464.727 536.081 464.31C536.592 463.888 537.164 463.585 537.798 463.402C538.431 463.213 539.072 463.119 539.722 463.119C540.211 463.119 540.72 463.183 541.247 463.31C541.781 463.438 542.275 463.66 542.73 463.977C543.186 464.288 543.555 464.724 543.839 465.285C544.122 465.841 544.264 466.546 544.264 467.402V476.092H542.78V474.067H542.689C542.511 474.445 542.247 474.812 541.897 475.167C541.547 475.523 541.108 475.815 540.581 476.042C540.053 476.27 539.434 476.384 538.723 476.384ZM538.923 475.026C539.711 475.026 540.395 474.851 540.972 474.501C541.55 474.151 541.994 473.687 542.305 473.109C542.622 472.526 542.78 471.884 542.78 471.184V469.335C542.669 469.44 542.483 469.535 542.222 469.618C541.967 469.701 541.669 469.776 541.331 469.843C540.997 469.904 540.664 469.957 540.331 470.001C539.997 470.046 539.697 470.085 539.431 470.118C538.709 470.207 538.092 470.346 537.581 470.535C537.07 470.723 536.678 470.984 536.406 471.318C536.134 471.646 535.998 472.068 535.998 472.584C535.998 473.362 536.276 473.965 536.831 474.392C537.387 474.815 538.084 475.026 538.923 475.026Z" fill="#767676"/>
<path d="M532.53 463.295V464.586H526.239V463.295H532.53ZM528.206 476.093V461.42C528.206 460.731 528.364 460.15 528.681 459.678C529.003 459.206 529.422 458.848 529.939 458.603C530.455 458.359 531.003 458.237 531.58 458.237C531.969 458.237 532.291 458.27 532.547 458.337C532.808 458.398 533.014 458.459 533.164 458.52L532.73 459.82C532.619 459.787 532.483 459.748 532.322 459.703C532.161 459.659 531.958 459.637 531.714 459.637C531.069 459.637 530.572 459.817 530.222 460.178C529.872 460.539 529.697 461.056 529.697 461.728L529.689 476.093H528.206Z" fill="#767676"/>
<path d="M518.804 476.359C517.61 476.359 516.577 476.081 515.705 475.526C514.833 474.965 514.158 474.19 513.68 473.201C513.208 472.207 512.972 471.062 512.972 469.768C512.972 468.479 513.208 467.335 513.68 466.335C514.158 465.33 514.816 464.543 515.655 463.977C516.499 463.405 517.474 463.119 518.579 463.119C519.274 463.119 519.943 463.246 520.588 463.502C521.232 463.752 521.81 464.138 522.321 464.66C522.837 465.177 523.246 465.829 523.546 466.618C523.846 467.402 523.995 468.329 523.995 469.401V470.135H513.997V468.826H522.479C522.479 468.004 522.312 467.265 521.979 466.61C521.651 465.949 521.193 465.427 520.604 465.043C520.021 464.66 519.346 464.469 518.579 464.469C517.768 464.469 517.055 464.685 516.438 465.118C515.821 465.552 515.338 466.124 514.988 466.835C514.644 467.546 514.469 468.324 514.463 469.168V469.951C514.463 470.968 514.638 471.857 514.988 472.618C515.344 473.373 515.846 473.959 516.496 474.376C517.146 474.792 517.916 475.001 518.804 475.001C519.41 475.001 519.94 474.906 520.396 474.717C520.857 474.529 521.243 474.276 521.554 473.959C521.871 473.637 522.11 473.284 522.271 472.901L523.679 473.359C523.484 473.898 523.165 474.395 522.721 474.851C522.282 475.306 521.732 475.673 521.071 475.951C520.415 476.223 519.66 476.359 518.804 476.359Z" fill="#767676"/>
<path d="M502.097 476.093H497.098V459.028H502.397C504.025 459.028 505.416 459.367 506.572 460.044C507.733 460.722 508.621 461.694 509.238 462.961C509.855 464.227 510.163 465.747 510.163 467.519C510.163 469.307 509.846 470.843 509.213 472.126C508.585 473.404 507.669 474.385 506.463 475.068C505.263 475.751 503.808 476.093 502.097 476.093ZM498.656 474.693H502.005C503.472 474.693 504.7 474.404 505.688 473.826C506.677 473.249 507.419 472.424 507.913 471.352C508.408 470.279 508.655 469.002 508.655 467.519C508.649 466.047 508.405 464.78 507.921 463.719C507.444 462.658 506.733 461.844 505.788 461.278C504.85 460.711 503.689 460.428 502.305 460.428H498.656V474.693Z" fill="#767676"/>
<path d="M340.286 283C340.286 273.506 348.118 265.81 357.778 265.81H427.746C437.407 265.81 445.239 273.506 445.239 283V283C445.239 292.494 437.407 300.191 427.746 300.191H357.778C348.118 300.191 340.286 292.494 340.286 283V283Z" fill="#5B4CE2"/>
<path d="M440.715 282.548C440.715 289.793 434.841 295.667 427.596 295.667C420.35 295.667 414.477 289.793 414.477 282.548C414.477 275.302 420.35 269.429 427.596 269.429C434.841 269.429 440.715 275.302 440.715 282.548Z" fill="white"/>
<path d="M340.286 374.381C340.286 364.387 348.118 356.286 357.778 356.286H427.746C437.407 356.286 445.239 364.387 445.239 374.381V374.381C445.239 384.375 437.407 392.476 427.746 392.476H357.778C348.118 392.476 340.286 384.375 340.286 374.381V374.381Z" fill="#DEDEDE"/>
<path d="M371.047 374.381C371.047 381.377 364.971 387.048 357.476 387.048C349.98 387.048 343.904 381.377 343.904 374.381C343.904 367.385 349.98 361.714 357.476 361.714C364.971 361.714 371.047 367.385 371.047 374.381Z" fill="white"/>
<path d="M340.286 465.762C340.286 456.268 348.118 448.571 357.778 448.571H427.746C437.407 448.571 445.239 456.268 445.239 465.762V465.762C445.239 475.256 437.407 482.952 427.746 482.952H357.778C348.118 482.952 340.286 475.256 340.286 465.762V465.762Z" fill="#DEDEDE"/>
<path d="M371.047 465.762C371.047 473.257 364.971 479.333 357.476 479.333C349.98 479.333 343.904 473.257 343.904 465.762C343.904 458.267 349.98 452.19 357.476 452.19C364.971 452.19 371.047 458.267 371.047 465.762Z" fill="white"/>
<path d="M807.143 327.333V329.143H334.857V327.333H807.143Z" fill="#DEDEDE"/>
<path d="M807.143 417.81V419.619H334.857V417.81H807.143Z" fill="#DEDEDE"/>
<path d="M775.714 279.243L758.714 240.089C756.967 236.066 760.886 231.91 764.792 233.642L802.502 250.37C806.484 252.136 806.2 258.096 802.07 259.445L790.778 263.133C789.272 263.625 788.107 264.877 787.685 266.458L784.453 278.548C783.287 282.912 777.507 283.373 775.714 279.243Z" fill="#03FF81"/>
<path d="M787.238 295.848C787.238 288.252 793.533 282.095 801.297 282.095H955.942C963.706 282.095 970 288.252 970 295.848V337.105C970 344.7 963.706 350.857 955.942 350.857H801.297C793.533 350.857 787.238 344.7 787.238 337.105V295.848Z" fill="#03FF81"/>
<path d="M923.824 310.776V313.109H916.467V310.776H923.824ZM918.283 307.709H921.3V319.725C921.3 320.13 921.361 320.441 921.483 320.658C921.611 320.869 921.777 321.014 921.983 321.091C922.188 321.169 922.416 321.208 922.666 321.208C922.855 321.208 923.027 321.194 923.183 321.166C923.344 321.139 923.466 321.114 923.549 321.091L924.058 323.449C923.897 323.505 923.666 323.566 923.366 323.633C923.072 323.699 922.711 323.738 922.283 323.749C921.527 323.772 920.847 323.658 920.241 323.408C919.636 323.152 919.155 322.758 918.8 322.225C918.45 321.691 918.278 321.025 918.283 320.225V307.709Z" fill="#4D4D4D"/>
<path d="M914.669 314.159L911.92 314.459C911.842 314.181 911.706 313.92 911.511 313.676C911.323 313.431 911.067 313.234 910.745 313.084C910.423 312.934 910.028 312.859 909.562 312.859C908.934 312.859 908.406 312.995 907.979 313.267C907.556 313.54 907.348 313.892 907.354 314.326C907.348 314.698 907.484 315.001 907.762 315.234C908.045 315.467 908.512 315.659 909.162 315.809L911.345 316.275C912.556 316.537 913.456 316.95 914.045 317.517C914.639 318.084 914.939 318.825 914.944 319.742C914.939 320.547 914.703 321.258 914.236 321.875C913.775 322.486 913.134 322.964 912.311 323.308C911.489 323.652 910.545 323.825 909.478 323.825C907.912 323.825 906.651 323.497 905.695 322.841C904.74 322.18 904.171 321.261 903.987 320.083L906.929 319.8C907.062 320.378 907.345 320.814 907.779 321.108C908.212 321.403 908.776 321.55 909.47 321.55C910.187 321.55 910.762 321.403 911.195 321.108C911.634 320.814 911.853 320.45 911.853 320.017C911.853 319.65 911.711 319.347 911.428 319.108C911.15 318.87 910.717 318.686 910.128 318.559L907.945 318.1C906.718 317.845 905.809 317.414 905.221 316.809C904.632 316.198 904.34 315.426 904.346 314.492C904.34 313.703 904.554 313.02 904.987 312.443C905.426 311.859 906.034 311.409 906.812 311.093C907.595 310.77 908.498 310.609 909.52 310.609C911.02 310.609 912.2 310.929 913.061 311.568C913.928 312.206 914.464 313.07 914.669 314.159Z" fill="#4D4D4D"/>
<path d="M898.439 323.575V310.777H901.456V323.575H898.439ZM899.956 308.96C899.478 308.96 899.067 308.802 898.723 308.485C898.378 308.163 898.206 307.777 898.206 307.327C898.206 306.872 898.378 306.485 898.723 306.169C899.067 305.847 899.478 305.686 899.956 305.686C900.439 305.686 900.85 305.847 901.189 306.169C901.533 306.485 901.706 306.872 901.706 307.327C901.706 307.777 901.533 308.163 901.189 308.485C900.85 308.802 900.439 308.96 899.956 308.96Z" fill="#4D4D4D"/>
<path d="M895.675 314.159L892.926 314.459C892.848 314.181 892.712 313.92 892.517 313.676C892.328 313.431 892.073 313.234 891.751 313.084C891.429 312.934 891.034 312.859 890.568 312.859C889.94 312.859 889.412 312.995 888.984 313.267C888.562 313.54 888.354 313.892 888.359 314.326C888.354 314.698 888.49 315.001 888.768 315.234C889.051 315.467 889.518 315.659 890.168 315.809L892.351 316.275C893.562 316.537 894.462 316.95 895.05 317.517C895.645 318.084 895.945 318.825 895.95 319.742C895.945 320.547 895.709 321.258 895.242 321.875C894.781 322.486 894.139 322.964 893.317 323.308C892.495 323.652 891.551 323.825 890.484 323.825C888.918 323.825 887.657 323.497 886.701 322.841C885.746 322.18 885.176 321.261 884.993 320.083L887.935 319.8C888.068 320.378 888.351 320.814 888.784 321.108C889.218 321.403 889.782 321.55 890.476 321.55C891.192 321.55 891.767 321.403 892.201 321.108C892.64 320.814 892.859 320.45 892.859 320.017C892.859 319.65 892.717 319.347 892.434 319.108C892.156 318.87 891.723 318.686 891.134 318.559L888.951 318.1C887.723 317.845 886.815 317.414 886.226 316.809C885.638 316.198 885.346 315.426 885.351 314.492C885.346 313.703 885.56 313.02 885.993 312.443C886.432 311.859 887.04 311.409 887.818 311.093C888.601 310.77 889.504 310.609 890.526 310.609C892.026 310.609 893.206 310.929 894.067 311.568C894.934 312.206 895.47 313.07 895.675 314.159Z" fill="#4D4D4D"/>
<path d="M882.796 314.159L880.047 314.459C879.969 314.181 879.833 313.92 879.638 313.676C879.45 313.431 879.194 313.234 878.872 313.084C878.55 312.934 878.155 312.859 877.689 312.859C877.061 312.859 876.533 312.995 876.105 313.267C875.683 313.54 875.475 313.892 875.481 314.326C875.475 314.698 875.611 315.001 875.889 315.234C876.172 315.467 876.639 315.659 877.289 315.809L879.472 316.275C880.683 316.537 881.583 316.95 882.172 317.517C882.766 318.084 883.066 318.825 883.071 319.742C883.066 320.547 882.83 321.258 882.363 321.875C881.902 322.486 881.26 322.964 880.438 323.308C879.616 323.652 878.672 323.825 877.605 323.825C876.039 323.825 874.778 323.497 873.822 322.841C872.867 322.18 872.298 321.261 872.114 320.083L875.056 319.8C875.189 320.378 875.472 320.814 875.906 321.108C876.339 321.403 876.903 321.55 877.597 321.55C878.314 321.55 878.889 321.403 879.322 321.108C879.761 320.814 879.98 320.45 879.98 320.017C879.98 319.65 879.838 319.347 879.555 319.108C879.277 318.87 878.844 318.686 878.255 318.559L876.072 318.1C874.845 317.845 873.936 317.414 873.347 316.809C872.759 316.198 872.467 315.426 872.473 314.492C872.467 313.703 872.681 313.02 873.114 312.443C873.553 311.859 874.161 311.409 874.939 311.093C875.722 310.77 876.625 310.609 877.647 310.609C879.147 310.609 880.327 310.929 881.188 311.568C882.055 312.206 882.591 313.07 882.796 314.159Z" fill="#4D4D4D"/>
<path d="M862.893 323.833C862.082 323.833 861.352 323.689 860.702 323.4C860.057 323.105 859.546 322.672 859.169 322.1C858.796 321.528 858.61 320.822 858.61 319.983C858.61 319.261 858.744 318.664 859.01 318.192C859.277 317.72 859.641 317.342 860.102 317.059C860.563 316.775 861.082 316.562 861.66 316.417C862.243 316.267 862.846 316.159 863.468 316.092C864.218 316.014 864.826 315.945 865.293 315.884C865.76 315.817 866.098 315.717 866.31 315.584C866.526 315.445 866.634 315.231 866.634 314.942V314.892C866.634 314.265 866.448 313.778 866.076 313.434C865.704 313.09 865.168 312.917 864.468 312.917C863.729 312.917 863.143 313.079 862.71 313.401C862.282 313.723 861.993 314.103 861.843 314.542L859.027 314.142C859.249 313.365 859.616 312.715 860.127 312.193C860.638 311.665 861.263 311.27 862.002 311.009C862.74 310.743 863.557 310.609 864.451 310.609C865.068 310.609 865.682 310.682 866.293 310.826C866.904 310.97 867.462 311.209 867.968 311.543C868.473 311.87 868.879 312.318 869.184 312.884C869.495 313.451 869.651 314.159 869.651 315.009V323.575H866.751V321.817H866.651C866.468 322.172 866.21 322.505 865.876 322.816C865.548 323.122 865.135 323.369 864.635 323.558C864.14 323.741 863.56 323.833 862.893 323.833ZM863.676 321.617C864.282 321.617 864.807 321.497 865.251 321.258C865.696 321.014 866.037 320.692 866.276 320.292C866.521 319.892 866.643 319.456 866.643 318.983V317.475C866.548 317.553 866.387 317.625 866.16 317.692C865.937 317.759 865.687 317.817 865.41 317.867C865.132 317.917 864.857 317.961 864.585 318C864.313 318.039 864.076 318.072 863.876 318.1C863.427 318.161 863.024 318.261 862.668 318.4C862.313 318.539 862.032 318.734 861.827 318.983C861.621 319.228 861.518 319.545 861.518 319.933C861.518 320.489 861.721 320.908 862.127 321.192C862.532 321.475 863.049 321.617 863.676 321.617Z" fill="#4D4D4D"/>
<path d="M850.174 306.511V323.576H847.083V306.511H850.174Z" fill="#4D4D4D"/>
<path d="M832.295 323.576H828.995L835.003 306.511H838.819L844.835 323.576H841.535L836.978 310.01H836.844L832.295 323.576ZM832.403 316.885H841.402V319.368H832.403V316.885Z" fill="#4D4D4D"/>
<defs>
<filter id="filter0_d_1015_865" x="246" y="106.476" width="650" height="507.048" filterUnits="userSpaceOnUse" color-interpolation-filters="sRGB">
<feFlood flood-opacity="0" result="BackgroundImageFix"/>
<feColorMatrix in="SourceAlpha" type="matrix" values="0 0 0 0 0 0 0 0 0 0 0 0 0 0 0 0 0 0 127 0" result="hardAlpha"/>
<feOffset dy="20"/>
<feGaussianBlur stdDeviation="20"/>
<feComposite in2="hardAlpha" operator="out"/>
<feColorMatrix type="matrix" values="0 0 0 0 0.0784314 0 0 0 0 0.0196078 0 0 0 0 0.301961 0 0 0 0.15 0"/>
<feBlend mode="normal" in2="BackgroundImageFix" result="effect1_dropShadow_1015_865"/>
<feBlend mode="normal" in="SourceGraphic" in2="effect1_dropShadow_1015_865" result="shape"/>
</filter>
</defs>
</svg>
