<svg width="77" height="57" viewBox="0 0 77 57" fill="none" xmlns="http://www.w3.org/2000/svg">
<g id="svgexport-4 1">
<path id="Vector" d="M23.4473 22.7916C23.4473 23.6156 23.5391 24.2836 23.6998 24.7736C23.8834 25.2635 24.1129 25.7979 24.4341 26.3769C24.5489 26.555 24.5948 26.7331 24.5948 26.8891C24.5948 27.1117 24.4571 27.3344 24.1588 27.5571L22.713 28.4924C22.5065 28.626 22.2999 28.6928 22.1163 28.6928C21.8868 28.6928 21.6573 28.5815 21.4279 28.3811C21.1066 28.0471 20.8312 27.6908 20.6017 27.3344C20.3722 26.9559 20.1428 26.5327 19.8903 26.0206C18.1003 28.0693 15.8513 29.0937 13.1434 29.0937C11.2157 29.0937 9.67817 28.5592 8.55369 27.4904C7.42914 26.4214 6.85547 24.9962 6.85547 23.2147C6.85547 21.3218 7.54389 19.7853 8.94377 18.6273C10.3436 17.4693 12.2025 16.8903 14.5662 16.8903C15.3464 16.8903 16.1497 16.9571 16.9988 17.0685C17.8478 17.1798 18.7199 17.358 19.6379 17.5584V15.9328C19.6379 14.2403 19.2707 13.0601 18.5593 12.3698C17.8249 11.6794 16.5857 11.3454 14.8187 11.3454C14.0154 11.3454 13.1893 11.4344 12.3402 11.6349C11.4911 11.8353 10.6649 12.0803 9.86177 12.392C9.49457 12.5479 9.21917 12.637 9.05852 12.6815C8.89787 12.7261 8.78312 12.7483 8.69132 12.7483C8.37009 12.7483 8.20944 12.5256 8.20944 12.058V10.9668C8.20944 10.6105 8.25534 10.3432 8.37009 10.1874C8.48484 10.0315 8.69132 9.87563 9.01262 9.71978C9.81587 9.3189 10.7797 8.98485 11.9042 8.71763C13.0286 8.42813 14.222 8.29455 15.4841 8.29455C18.215 8.29455 20.2116 8.89583 21.4967 10.0983C22.7589 11.3009 23.4014 13.1269 23.4014 15.5765V22.7916H23.4473ZM14.1302 26.1764C14.8875 26.1764 15.6677 26.0429 16.4939 25.7756C17.3201 25.5084 18.0544 25.0185 18.674 24.3504C19.0412 23.9273 19.3166 23.4596 19.4543 22.9252C19.592 22.3907 19.6838 21.745 19.6838 20.9878V20.0525C19.0183 19.8966 18.3068 19.763 17.5725 19.6739C16.8381 19.5848 16.1267 19.5403 15.4153 19.5403C13.8777 19.5403 12.7532 19.8299 11.996 20.4311C11.2386 21.0323 10.8715 21.8785 10.8715 22.992C10.8715 24.0386 11.1469 24.818 11.7206 25.3525C12.2714 25.9092 13.0745 26.1764 14.1302 26.1764ZM32.558 28.5815C32.1449 28.5815 31.8695 28.5147 31.6859 28.3588C31.5023 28.2252 31.3417 27.9134 31.204 27.4904L25.811 10.2764C25.6733 9.83108 25.6045 9.54158 25.6045 9.38573C25.6045 9.0294 25.7881 8.829 26.1553 8.829H28.4042C28.8403 8.829 29.1386 8.89583 29.2993 9.05168C29.4828 9.18525 29.6205 9.49702 29.7582 9.92017L33.6136 24.6622L37.1936 9.92017C37.3083 9.47475 37.446 9.18525 37.6296 9.05168C37.8132 8.91803 38.1345 8.829 38.5475 8.829H40.3835C40.8195 8.829 41.1178 8.89583 41.3014 9.05168C41.485 9.18525 41.6456 9.49702 41.7374 9.92017L45.3633 24.8403L49.3334 9.92017C49.4711 9.47475 49.6318 9.18525 49.7924 9.05168C49.976 8.91803 50.2743 8.829 50.6874 8.829H52.8217C53.1888 8.829 53.3954 9.00713 53.3954 9.38573C53.3954 9.49703 53.3724 9.6084 53.3495 9.74197C53.3265 9.87562 53.2806 10.0538 53.1888 10.2987L47.6582 27.5126C47.5205 27.958 47.3599 28.2475 47.1763 28.3811C46.9927 28.5147 46.6943 28.6038 46.3042 28.6038H44.3306C43.8946 28.6038 43.5963 28.537 43.4127 28.3811C43.2291 28.2252 43.0685 27.9357 42.9767 27.4904L39.4196 13.1269L35.8856 27.4681C35.7708 27.9134 35.6331 28.2029 35.4495 28.3588C35.2659 28.5147 34.9446 28.5815 34.5316 28.5815H32.558ZM62.0467 29.1827C60.8537 29.1827 59.6603 29.0492 58.5129 28.7819C57.3655 28.5147 56.4705 28.2252 55.8738 27.8912C55.5066 27.6908 55.2542 27.4681 55.1624 27.2676C55.0706 27.0672 55.0247 26.8445 55.0247 26.6441V25.5084C55.0247 25.0408 55.2083 24.818 55.5525 24.818C55.6902 24.818 55.8279 24.8403 55.9656 24.8849C56.1033 24.9294 56.3099 25.0185 56.5394 25.1075C57.3196 25.4416 58.1687 25.7088 59.0637 25.8869C59.9816 26.0651 60.8766 26.1542 61.7947 26.1542C63.2407 26.1542 64.3649 25.9092 65.1449 25.4193C65.9257 24.9294 66.3382 24.2168 66.3382 23.3038C66.3382 22.6802 66.1319 22.1681 65.7187 21.745C65.3054 21.3218 64.5254 20.9433 63.4012 20.587L60.0734 19.5848C58.3982 19.0726 57.1589 18.3155 56.4017 17.3134C55.6443 16.3336 55.2542 15.2424 55.2542 14.0845C55.2542 13.1492 55.4607 12.3252 55.8738 11.6126C56.2869 10.9 56.8376 10.2764 57.5261 9.78652C58.2146 9.27435 58.9949 8.89582 59.9128 8.6286C60.8307 8.3613 61.7947 8.25 62.8042 8.25C63.3089 8.25 63.8369 8.27228 64.3417 8.3391C64.8697 8.40585 65.3519 8.49495 65.8334 8.58405C66.2924 8.69535 66.7282 8.80672 67.1414 8.9403C67.5547 9.07395 67.8757 9.20752 68.1052 9.34117C68.4269 9.5193 68.6564 9.6975 68.7937 9.8979C68.9317 10.076 69.0007 10.321 69.0007 10.6327V11.6794C69.0007 12.1471 68.8169 12.392 68.4727 12.392C68.2889 12.392 67.9904 12.3029 67.6004 12.1248C66.2924 11.5458 64.8239 11.2563 63.1942 11.2563C61.8862 11.2563 60.8537 11.4567 60.1423 11.8799C59.4308 12.3029 59.0637 12.9488 59.0637 13.8617C59.0637 14.4853 59.2931 15.0197 59.7521 15.4429C60.2111 15.866 61.0604 16.2891 62.2762 16.6676L65.5349 17.6697C67.1872 18.182 68.3812 18.8945 69.0922 19.8076C69.8039 20.7205 70.1482 21.7672 70.1482 22.9252C70.1482 23.8828 69.9412 24.7513 69.5512 25.5084C69.1379 26.2655 68.5874 26.9336 67.8757 27.4681C67.1647 28.0248 66.3157 28.4256 65.3287 28.7151C64.2959 29.0269 63.2174 29.1827 62.0467 29.1827Z" fill="#5B4CE2"/>
<path id="Vector_2" d="M66.382 40.0057C58.8318 45.417 47.8622 48.2894 38.4303 48.2894C25.2119 48.2894 13.3016 43.5464 4.3057 35.6632C3.59425 35.0397 4.23685 34.1935 5.08593 34.6834C14.8162 40.1615 26.8183 43.4796 39.2336 43.4796C47.6098 43.4796 56.8122 41.7871 65.2803 38.3132C66.5425 37.7565 67.621 39.1149 66.382 40.0057ZM69.526 36.5317C68.5622 35.3292 63.1458 35.9527 60.6906 36.2422C59.9562 36.3313 59.8415 35.7077 60.507 35.2401C64.8212 32.3006 71.9125 33.1468 72.739 34.1266C73.5648 35.1288 72.5095 42.0098 68.47 45.3056C67.8505 45.8179 67.2542 45.5506 67.5295 44.8825C68.4475 42.6779 70.4897 37.7119 69.526 36.5317Z" fill="#5B4CE2"/>
</g>
</svg>
