<svg width="1130" height="680" viewBox="0 0 1130 680" fill="none" xmlns="http://www.w3.org/2000/svg">
<rect width="1130" height="680" fill="#F2F2F2"/>
<g filter="url(#filter0_d_1082_624)">
<path d="M125.615 194.707C125.615 187.478 131.476 181.618 138.705 181.618H636.103C643.332 181.618 649.193 187.478 649.193 194.707V485.292C649.193 492.522 643.332 498.382 636.103 498.382H138.705C131.476 498.382 125.615 492.522 125.615 485.292V194.707Z" fill="white"/>
<path d="M123 485.293V194.707C123 186.032 130.032 179 138.707 179V181.618L138.035 181.636C131.118 181.986 125.618 187.704 125.618 194.707V485.293L125.636 485.965C125.975 492.659 131.341 498.025 138.035 498.364L138.707 498.382H636.106L636.778 498.364C643.472 498.025 648.839 492.659 649.177 485.965L649.195 485.293V194.707C649.195 187.704 643.695 181.986 636.778 181.636L636.106 181.618V179C644.781 179 651.813 186.032 651.813 194.707V485.293C651.813 493.968 644.781 501 636.106 501H138.707C130.032 501 123 493.968 123 485.293ZM636.106 179V181.618H138.707V179H636.106Z" fill="#F0F0F0"/>
<path d="M403.975 425.706C401.179 425.706 398.665 425.17 396.434 424.1C394.217 423.014 392.447 421.526 391.124 419.637C389.8 417.748 389.093 415.591 389.004 413.167H395.697C395.861 415.13 396.731 416.744 398.308 418.008C399.884 419.273 401.774 419.905 403.975 419.905C405.73 419.905 407.284 419.503 408.638 418.7C410.006 417.882 411.077 416.759 411.851 415.331C412.639 413.903 413.033 412.274 413.033 410.445C413.033 408.586 412.632 406.927 411.829 405.469C411.025 404.012 409.917 402.866 408.504 402.033C407.106 401.2 405.5 400.777 403.685 400.762C402.302 400.762 400.911 401 399.513 401.476C398.114 401.952 396.984 402.576 396.121 403.35L389.807 402.413L392.373 379.387H417.496V385.3H398.107L396.657 398.084H396.925C397.817 397.222 398.999 396.5 400.472 395.92C401.959 395.34 403.551 395.05 405.247 395.05C408.028 395.05 410.505 395.712 412.676 397.036C414.863 398.359 416.581 400.167 417.83 402.457C419.095 404.733 419.719 407.351 419.705 410.311C419.719 413.271 419.05 415.911 417.697 418.232C416.358 420.552 414.499 422.382 412.119 423.72C409.754 425.044 407.039 425.706 403.975 425.706Z" fill="#FF0004"/>
<path d="M354.665 425.081L374.611 385.634V385.3H351.541V379.387H381.751V385.501L361.871 425.081H354.665Z" fill="#FF0004"/>
<path d="M422.552 460.185L422.522 458.013H422.879L427.877 452.926H430.049L424.724 458.311H424.575L422.552 460.185ZM420.916 464.35V449.118H422.671V464.35H420.916ZM428.175 464.35L423.712 458.697L424.962 457.478L430.406 464.35H428.175Z" fill="#767676"/>
<path d="M418.066 455.484L416.489 455.93C416.39 455.667 416.244 455.412 416.051 455.164C415.862 454.911 415.604 454.703 415.277 454.539C414.95 454.376 414.531 454.294 414.02 454.294C413.321 454.294 412.739 454.455 412.273 454.777C411.811 455.095 411.581 455.499 411.581 455.99C411.581 456.426 411.74 456.771 412.057 457.023C412.374 457.276 412.87 457.487 413.544 457.656L415.24 458.072C416.261 458.32 417.022 458.699 417.523 459.21C418.024 459.716 418.274 460.368 418.274 461.166C418.274 461.82 418.086 462.406 417.709 462.921C417.337 463.437 416.817 463.843 416.147 464.141C415.478 464.438 414.7 464.587 413.812 464.587C412.647 464.587 411.683 464.334 410.919 463.828C410.155 463.323 409.672 462.584 409.469 461.612L411.135 461.196C411.293 461.811 411.593 462.272 412.035 462.579C412.481 462.886 413.063 463.04 413.782 463.04C414.6 463.04 415.25 462.867 415.731 462.52C416.217 462.168 416.46 461.746 416.46 461.255C416.46 460.859 416.321 460.526 416.043 460.259C415.766 459.986 415.339 459.783 414.764 459.649L412.86 459.203C411.814 458.955 411.045 458.57 410.555 458.05C410.069 457.524 409.826 456.867 409.826 456.079C409.826 455.434 410.007 454.864 410.369 454.368C410.736 453.873 411.234 453.483 411.864 453.201C412.498 452.918 413.217 452.777 414.02 452.777C415.151 452.777 416.038 453.025 416.683 453.521C417.332 454.016 417.793 454.671 418.066 455.484Z" fill="#767676"/>
<path d="M405.005 464.35V452.926H406.761V464.35H405.005ZM405.898 451.022C405.556 451.022 405.261 450.906 405.013 450.673C404.77 450.44 404.648 450.16 404.648 449.833C404.648 449.505 404.77 449.225 405.013 448.992C405.261 448.759 405.556 448.643 405.898 448.643C406.24 448.643 406.533 448.759 406.775 448.992C407.023 449.225 407.147 449.505 407.147 449.833C407.147 450.16 407.023 450.44 406.775 450.673C406.533 450.906 406.24 451.022 405.898 451.022Z" fill="#767676"/>
<path d="M397.213 464.35V452.927H398.909V454.652H399.028C399.236 454.087 399.613 453.628 400.158 453.276C400.703 452.924 401.318 452.748 402.002 452.748C402.131 452.748 402.292 452.751 402.486 452.755C402.679 452.76 402.825 452.768 402.925 452.778V454.563C402.865 454.548 402.729 454.526 402.516 454.496C402.307 454.461 402.087 454.444 401.854 454.444C401.298 454.444 400.803 454.56 400.366 454.793C399.935 455.021 399.593 455.339 399.34 455.745C399.092 456.147 398.968 456.605 398.968 457.121V464.35H397.213Z" fill="#767676"/>
<path d="M380.702 457.478V464.35H378.947V449.118H380.702V454.711H380.851C381.119 454.121 381.521 453.652 382.056 453.305C382.596 452.953 383.315 452.777 384.213 452.777C384.991 452.777 385.673 452.933 386.258 453.246C386.843 453.553 387.297 454.027 387.619 454.666C387.946 455.301 388.11 456.109 388.11 457.091V464.35H386.355V457.21C386.355 456.302 386.119 455.601 385.648 455.105C385.182 454.604 384.535 454.354 383.707 454.354C383.132 454.354 382.616 454.475 382.16 454.718C381.709 454.961 381.352 455.316 381.089 455.782C380.831 456.248 380.702 456.813 380.702 457.478Z" fill="#767676"/>
<path d="M370.795 468.871C369.947 468.871 369.218 468.762 368.608 468.544C367.999 468.33 367.49 468.048 367.084 467.696C366.682 467.349 366.362 466.977 366.124 466.58L367.523 465.599C367.681 465.807 367.882 466.045 368.125 466.313C368.368 466.585 368.7 466.821 369.122 467.019C369.548 467.222 370.106 467.324 370.795 467.324C371.717 467.324 372.478 467.101 373.078 466.655C373.678 466.208 373.978 465.509 373.978 464.557V462.237H373.829C373.7 462.445 373.517 462.703 373.279 463.01C373.046 463.313 372.709 463.583 372.268 463.821C371.831 464.054 371.241 464.171 370.497 464.171C369.575 464.171 368.747 463.952 368.013 463.516C367.285 463.08 366.707 462.445 366.281 461.612C365.859 460.779 365.648 459.768 365.648 458.578C365.648 457.408 365.854 456.389 366.266 455.521C366.677 454.649 367.25 453.974 367.984 453.498C368.718 453.017 369.565 452.777 370.527 452.777C371.271 452.777 371.861 452.901 372.297 453.149C372.739 453.392 373.076 453.669 373.309 453.982C373.547 454.289 373.73 454.542 373.859 454.74H374.038V452.926H375.733V464.676C375.733 465.658 375.51 466.456 375.064 467.071C374.623 467.691 374.028 468.145 373.279 468.432C372.535 468.725 371.707 468.871 370.795 468.871ZM370.735 462.594C371.44 462.594 372.034 462.433 372.52 462.111C373.006 461.788 373.376 461.325 373.629 460.72C373.881 460.115 374.008 459.391 374.008 458.548C374.008 457.725 373.884 456.999 373.636 456.369C373.388 455.739 373.021 455.246 372.535 454.889C372.049 454.532 371.449 454.354 370.735 454.354C369.992 454.354 369.372 454.542 368.876 454.919C368.385 455.296 368.016 455.801 367.768 456.436C367.525 457.071 367.404 457.775 367.404 458.548C367.404 459.341 367.528 460.043 367.775 460.653C368.028 461.258 368.4 461.734 368.891 462.081C369.387 462.423 370.002 462.594 370.735 462.594Z" fill="#767676"/>
<path d="M361.212 464.35V452.926H362.968V464.35H361.212ZM362.105 451.022C361.763 451.022 361.468 450.906 361.22 450.673C360.977 450.44 360.855 450.16 360.855 449.833C360.855 449.505 360.977 449.225 361.22 448.992C361.468 448.759 361.763 448.643 362.105 448.643C362.447 448.643 362.74 448.759 362.983 448.992C363.23 449.225 363.354 449.505 363.354 449.833C363.354 450.16 363.23 450.44 362.983 450.673C362.74 450.906 362.447 451.022 362.105 451.022Z" fill="#767676"/>
<path d="M345.951 464.35V449.118H347.796V455.901H355.917V449.118H357.761V464.35H355.917V457.537H347.796V464.35H345.951Z" fill="#767676"/>
<path d="M300.534 231.775C299.325 231.775 298.287 231.611 297.42 231.283C296.552 230.96 295.855 230.526 295.328 229.981C294.801 229.436 294.436 228.831 294.231 228.168L297.262 227.434C297.398 227.713 297.596 227.989 297.857 228.261C298.117 228.54 298.467 228.769 298.907 228.949C299.353 229.135 299.914 229.228 300.59 229.228C301.544 229.228 302.334 228.996 302.96 228.531C303.586 228.072 303.899 227.316 303.899 226.262V223.557H303.732C303.558 223.904 303.304 224.261 302.97 224.626C302.641 224.992 302.204 225.299 301.659 225.547C301.12 225.795 300.441 225.918 299.623 225.918C298.526 225.918 297.531 225.661 296.639 225.147C295.753 224.626 295.046 223.852 294.519 222.823C293.999 221.788 293.738 220.492 293.738 218.937C293.738 217.369 293.999 216.046 294.519 214.967C295.046 213.883 295.756 213.061 296.648 212.504C297.541 211.94 298.535 211.658 299.632 211.658C300.469 211.658 301.157 211.8 301.696 212.085C302.241 212.364 302.675 212.702 302.998 213.099C303.32 213.489 303.565 213.858 303.732 214.205H303.918V211.844H307.237V226.355C307.237 227.576 306.945 228.587 306.363 229.386C305.78 230.186 304.984 230.784 303.974 231.18C302.963 231.577 301.817 231.775 300.534 231.775ZM300.562 223.278C301.275 223.278 301.882 223.105 302.384 222.758C302.886 222.411 303.267 221.912 303.527 221.261C303.788 220.61 303.918 219.829 303.918 218.918C303.918 218.02 303.788 217.232 303.527 216.557C303.273 215.881 302.895 215.358 302.393 214.986C301.897 214.608 301.287 214.419 300.562 214.419C299.812 214.419 299.186 214.614 298.684 215.004C298.182 215.395 297.804 215.931 297.55 216.613C297.296 217.288 297.169 218.057 297.169 218.918C297.169 219.792 297.296 220.558 297.55 221.214C297.81 221.865 298.191 222.373 298.693 222.739C299.202 223.099 299.824 223.278 300.562 223.278Z" fill="#4D4D4D"/>
<path d="M281.733 217.756V226.123H278.367V211.844H281.584V214.27H281.751C282.08 213.471 282.603 212.835 283.322 212.364C284.047 211.893 284.943 211.658 286.009 211.658C286.994 211.658 287.853 211.868 288.584 212.29C289.322 212.711 289.892 213.322 290.295 214.121C290.704 214.921 290.905 215.891 290.899 217.031V226.123H287.534V217.552C287.534 216.597 287.286 215.85 286.79 215.311C286.3 214.772 285.622 214.502 284.754 214.502C284.165 214.502 283.641 214.633 283.183 214.893C282.73 215.147 282.374 215.516 282.114 215.999C281.86 216.483 281.733 217.068 281.733 217.756Z" fill="#4D4D4D"/>
<path d="M271.542 226.121V211.842H274.907V226.121H271.542ZM273.234 209.815C272.701 209.815 272.242 209.639 271.858 209.285C271.473 208.926 271.281 208.495 271.281 207.993C271.281 207.485 271.473 207.054 271.858 206.701C272.242 206.341 272.701 206.162 273.234 206.162C273.773 206.162 274.231 206.341 274.609 206.701C274.994 207.054 275.186 207.485 275.186 207.993C275.186 208.495 274.994 208.926 274.609 209.285C274.231 209.639 273.773 209.815 273.234 209.815Z" fill="#4D4D4D"/>
<path d="M261.162 226.122V211.842H264.425V214.222H264.574C264.834 213.398 265.28 212.763 265.913 212.316C266.551 211.864 267.279 211.638 268.097 211.638C268.283 211.638 268.491 211.647 268.72 211.666C268.956 211.678 269.151 211.7 269.306 211.731V214.826C269.163 214.777 268.937 214.733 268.627 214.696C268.323 214.653 268.029 214.631 267.744 214.631C267.13 214.631 266.579 214.764 266.089 215.031C265.606 215.291 265.225 215.654 264.946 216.119C264.667 216.583 264.527 217.12 264.527 217.727V226.122H261.162Z" fill="#4D4D4D"/>
<path d="M251.467 226.402C250.073 226.402 248.864 226.095 247.842 225.482C246.819 224.868 246.026 224.01 245.462 222.906C244.904 221.803 244.625 220.514 244.625 219.039C244.625 217.564 244.904 216.272 245.462 215.162C246.026 214.053 246.819 213.192 247.842 212.578C248.864 211.964 250.073 211.658 251.467 211.658C252.862 211.658 254.07 211.964 255.093 212.578C256.115 213.192 256.906 214.053 257.463 215.162C258.027 216.272 258.309 217.564 258.309 219.039C258.309 220.514 258.027 221.803 257.463 222.906C256.906 224.01 256.115 224.868 255.093 225.482C254.07 226.095 252.862 226.402 251.467 226.402ZM251.486 223.706C252.242 223.706 252.874 223.498 253.382 223.083C253.89 222.662 254.269 222.098 254.516 221.391C254.771 220.685 254.898 219.897 254.898 219.03C254.898 218.156 254.771 217.366 254.516 216.659C254.269 215.946 253.89 215.379 253.382 214.958C252.874 214.537 252.242 214.326 251.486 214.326C250.711 214.326 250.067 214.537 249.552 214.958C249.044 215.379 248.663 215.946 248.409 216.659C248.161 217.366 248.037 218.156 248.037 219.03C248.037 219.897 248.161 220.685 248.409 221.391C248.663 222.098 249.044 222.662 249.552 223.083C250.067 223.498 250.711 223.706 251.486 223.706Z" fill="#4D4D4D"/>
<path d="M236.354 226.402C234.928 226.402 233.704 226.089 232.682 225.463C231.665 224.837 230.881 223.972 230.33 222.869C229.784 221.76 229.512 220.483 229.512 219.039C229.512 217.589 229.791 216.309 230.348 215.2C230.906 214.084 231.693 213.216 232.71 212.597C233.732 211.971 234.941 211.658 236.335 211.658C237.494 211.658 238.52 211.872 239.412 212.299C240.311 212.721 241.027 213.319 241.56 214.093C242.093 214.862 242.397 215.761 242.471 216.789H239.254C239.124 216.101 238.814 215.528 238.325 215.07C237.841 214.605 237.194 214.372 236.382 214.372C235.694 214.372 235.09 214.558 234.569 214.93C234.048 215.296 233.642 215.823 233.351 216.51C233.066 217.198 232.924 218.023 232.924 218.983C232.924 219.956 233.066 220.793 233.351 221.493C233.636 222.188 234.036 222.724 234.55 223.102C235.071 223.474 235.681 223.659 236.382 223.659C236.878 223.659 237.321 223.566 237.711 223.381C238.108 223.188 238.439 222.913 238.706 222.553C238.972 222.194 239.155 221.757 239.254 221.242H242.471C242.39 222.253 242.093 223.148 241.579 223.929C241.064 224.704 240.364 225.311 239.478 225.751C238.591 226.185 237.55 226.402 236.354 226.402Z" fill="#4D4D4D"/>
<path d="M227.047 215.618L223.979 215.953C223.892 215.643 223.741 215.352 223.524 215.079C223.313 214.806 223.028 214.586 222.668 214.419C222.309 214.251 221.869 214.168 221.348 214.168C220.648 214.168 220.059 214.32 219.582 214.623C219.111 214.927 218.878 215.321 218.885 215.804C218.878 216.219 219.03 216.557 219.34 216.817C219.656 217.078 220.177 217.291 220.902 217.459L223.338 217.979C224.689 218.271 225.693 218.732 226.35 219.364C227.013 219.997 227.348 220.824 227.354 221.847C227.348 222.745 227.084 223.539 226.564 224.227C226.049 224.908 225.333 225.441 224.416 225.826C223.499 226.21 222.445 226.402 221.255 226.402C219.508 226.402 218.101 226.036 217.035 225.305C215.969 224.567 215.333 223.542 215.129 222.228L218.411 221.912C218.559 222.556 218.875 223.043 219.359 223.371C219.842 223.7 220.471 223.864 221.246 223.864C222.045 223.864 222.687 223.7 223.17 223.371C223.66 223.043 223.905 222.637 223.905 222.153C223.905 221.744 223.747 221.407 223.431 221.14C223.121 220.874 222.637 220.669 221.98 220.527L219.545 220.015C218.175 219.73 217.162 219.25 216.505 218.574C215.848 217.893 215.522 217.031 215.529 215.99C215.522 215.11 215.761 214.347 216.244 213.703C216.734 213.052 217.413 212.55 218.28 212.197C219.154 211.837 220.161 211.658 221.302 211.658C222.975 211.658 224.292 212.014 225.253 212.727C226.22 213.44 226.818 214.403 227.047 215.618Z" fill="#4D4D4D"/>
<path d="M197.429 221.64L197.42 217.578H197.959L203.091 211.842H207.023L200.711 218.87H200.014L197.429 221.64ZM194.361 226.121V207.082H197.727V226.121H194.361ZM203.323 226.121L198.675 219.623L200.943 217.252L207.348 226.121H203.323Z" fill="#4D4D4D"/>
<path d="M191.283 215.618L188.215 215.953C188.129 215.643 187.977 215.352 187.76 215.079C187.549 214.806 187.264 214.586 186.905 214.419C186.545 214.251 186.105 214.168 185.585 214.168C184.884 214.168 184.295 214.32 183.818 214.623C183.347 214.927 183.115 215.321 183.121 215.804C183.115 216.219 183.267 216.557 183.577 216.817C183.893 217.078 184.413 217.291 185.138 217.459L187.574 217.979C188.925 218.271 189.929 218.732 190.586 219.364C191.249 219.997 191.584 220.824 191.59 221.847C191.584 222.745 191.32 223.539 190.8 224.227C190.285 224.908 189.57 225.441 188.652 225.826C187.735 226.21 186.682 226.402 185.492 226.402C183.744 226.402 182.337 226.036 181.271 225.305C180.205 224.567 179.57 223.542 179.365 222.228L182.647 221.912C182.796 222.556 183.112 223.043 183.595 223.371C184.079 223.7 184.708 223.864 185.482 223.864C186.282 223.864 186.923 223.7 187.407 223.371C187.896 223.043 188.141 222.637 188.141 222.153C188.141 221.744 187.983 221.407 187.667 221.14C187.357 220.874 186.874 220.669 186.217 220.527L183.781 220.015C182.411 219.73 181.398 219.25 180.741 218.574C180.084 217.893 179.759 217.031 179.765 215.99C179.759 215.11 179.997 214.347 180.481 213.703C180.97 213.052 181.649 212.55 182.517 212.197C183.391 211.837 184.398 211.658 185.538 211.658C187.211 211.658 188.528 212.014 189.489 212.727C190.456 213.44 191.054 214.403 191.283 215.618Z" fill="#4D4D4D"/>
<path d="M173.169 226.121V211.842H176.534V226.121H173.169ZM174.86 209.815C174.327 209.815 173.869 209.639 173.485 209.285C173.1 208.926 172.908 208.495 172.908 207.993C172.908 207.485 173.1 207.054 173.485 206.701C173.869 206.341 174.327 206.162 174.86 206.162C175.4 206.162 175.858 206.341 176.236 206.701C176.621 207.054 176.813 207.485 176.813 207.993C176.813 208.495 176.621 208.926 176.236 209.285C175.858 209.639 175.4 209.815 174.86 209.815Z" fill="#4D4D4D"/>
<path d="M156.289 226.121V207.082H163.429C164.891 207.082 166.119 207.336 167.11 207.844C168.108 208.353 168.861 209.065 169.369 209.983C169.884 210.894 170.141 211.956 170.141 213.171C170.141 214.392 169.881 215.452 169.36 216.351C168.845 217.243 168.086 217.934 167.082 218.424C166.078 218.907 164.845 219.149 163.382 219.149H158.297V216.286H162.917C163.773 216.286 164.473 216.168 165.018 215.932C165.564 215.691 165.967 215.34 166.227 214.882C166.493 214.417 166.627 213.847 166.627 213.171C166.627 212.496 166.493 211.919 166.227 211.442C165.96 210.959 165.555 210.593 165.009 210.345C164.464 210.091 163.76 209.964 162.899 209.964H159.738V226.121H156.289ZM166.125 217.494L170.838 226.121H166.989L162.36 217.494H166.125Z" fill="#4D4D4D"/>
<mask id="mask0_1082_624" style="mask-type:alpha" maskUnits="userSpaceOnUse" x="205" y="285" width="365" height="182">
<path fill-rule="evenodd" clip-rule="evenodd" d="M387.402 298.113C386.166 298.113 384.933 298.127 383.703 298.153L383.422 285.067C384.746 285.038 386.072 285.024 387.402 285.024C388.732 285.024 390.059 285.038 391.382 285.067L391.101 298.153C389.871 298.127 388.638 298.113 387.402 298.113ZM376.342 298.47C373.881 298.629 371.434 298.84 369.003 299.104L367.594 286.09C370.212 285.807 372.847 285.579 375.498 285.407L376.342 298.47ZM405.801 299.104C403.37 298.84 400.924 298.629 398.463 298.47L399.307 285.407C401.957 285.579 404.592 285.807 407.21 286.09L405.801 299.104ZM361.701 300.056C359.264 300.428 356.843 300.852 354.441 301.327L351.901 288.487C354.49 287.975 357.099 287.517 359.726 287.116L361.701 300.056ZM420.363 301.327C417.961 300.852 415.541 300.428 413.103 300.056L415.078 287.116C417.705 287.517 420.314 287.975 422.903 288.487L420.363 301.327ZM347.246 302.916C344.854 303.499 342.481 304.134 340.13 304.818L336.472 292.25C339.007 291.512 341.565 290.828 344.145 290.199L347.246 302.916ZM434.674 304.818C432.323 304.134 429.95 303.499 427.558 302.916L430.659 290.199C433.239 290.828 435.797 291.512 438.332 292.25L434.674 304.818ZM333.105 307.031C330.775 307.822 328.467 308.662 326.184 309.551L321.437 297.353C323.898 296.395 326.386 295.489 328.898 294.636L333.105 307.031ZM448.62 309.551C446.337 308.662 444.029 307.822 441.699 307.031L445.906 294.636C448.418 295.489 450.906 296.395 453.367 297.353L448.62 309.551ZM319.381 312.372C317.13 313.364 314.905 314.403 312.708 315.489L306.909 303.754C309.278 302.584 311.677 301.463 314.103 300.394L319.381 312.372ZM462.097 315.489C459.899 314.403 457.674 313.364 455.423 312.372L460.701 300.394C463.128 301.463 465.526 302.584 467.895 303.754L462.097 315.489ZM475.004 322.585C472.908 321.311 470.782 320.08 468.628 318.896L474.934 307.426C477.255 308.702 479.546 310.028 481.805 311.401L475.004 322.585ZM306.177 318.896C304.022 320.08 301.896 321.311 299.8 322.585L292.999 311.401C295.258 310.028 297.549 308.702 299.871 307.426L306.177 318.896ZM487.248 330.782C485.269 329.329 483.258 327.918 481.215 326.55L488.497 315.673C490.698 317.147 492.865 318.667 494.996 320.232L487.248 330.782ZM293.589 326.55C291.546 327.918 289.535 329.329 287.556 330.782L279.808 320.232C281.939 318.667 284.106 317.147 286.307 315.673L293.589 326.55ZM498.734 340.012C496.888 338.392 495.007 336.812 493.091 335.272L501.29 325.069C503.354 326.727 505.38 328.429 507.368 330.174L498.734 340.012ZM281.713 335.272C279.797 336.812 277.916 338.392 276.07 340.012L267.436 330.174C269.424 328.43 271.45 326.727 273.514 325.069L281.713 335.272ZM509.377 350.203C507.678 348.429 505.94 346.691 504.166 344.992L513.219 335.538C515.13 337.368 517.001 339.239 518.831 341.15L509.377 350.203ZM270.638 344.992C268.864 346.691 267.126 348.429 265.427 350.203L255.973 341.15C257.803 339.239 259.674 337.368 261.585 335.538L270.638 344.992ZM519.097 361.278C517.557 359.362 515.977 357.481 514.357 355.635L524.195 347.001C525.94 348.989 527.642 351.015 529.3 353.079L519.097 361.278ZM260.447 355.635C258.827 357.481 257.247 359.362 255.707 361.278L245.504 353.079C247.162 351.015 248.865 348.989 250.609 347.001L260.447 355.635ZM527.819 373.154C526.451 371.111 525.04 369.1 523.587 367.121L534.137 359.373C535.702 361.504 537.222 363.671 538.696 365.872L527.819 373.154ZM251.217 367.121C249.764 369.1 248.353 371.111 246.985 373.154L236.108 365.872C237.582 363.671 239.102 361.504 240.667 359.373L251.217 367.121ZM535.473 385.742C534.289 383.587 533.058 381.461 531.784 379.365L542.968 372.564C544.341 374.823 545.667 377.114 546.943 379.436L535.473 385.742ZM243.02 379.365C241.746 381.461 240.515 383.587 239.331 385.742L227.861 379.436C229.137 377.114 230.463 374.823 231.836 372.564L243.02 379.365ZM541.997 398.946C541.005 396.695 539.966 394.47 538.88 392.273L550.615 386.474C551.785 388.843 552.906 391.242 553.975 393.668L541.997 398.946ZM235.924 392.273C234.838 394.47 233.799 396.695 232.807 398.946L220.829 393.668C221.898 391.242 223.019 388.843 224.189 386.474L235.924 392.273ZM229.986 405.749C229.097 408.032 228.257 410.34 227.466 412.67L215.071 408.463C215.924 405.951 216.83 403.463 217.788 401.002L229.986 405.749ZM547.338 412.67C546.547 410.34 545.707 408.032 544.818 405.749L557.016 401.002C557.974 403.463 558.88 405.951 559.733 408.463L547.338 412.67ZM225.253 419.695C224.569 422.046 223.934 424.419 223.351 426.811L210.634 423.71C211.263 421.13 211.947 418.572 212.685 416.037L225.253 419.695ZM551.453 426.811C550.87 424.419 550.235 422.046 549.551 419.695L562.119 416.037C562.857 418.572 563.541 421.13 564.17 423.71L551.453 426.811ZM221.763 434.006C221.287 436.408 220.863 438.828 220.491 441.266L207.551 439.291C207.952 436.664 208.41 434.055 208.922 431.466L221.763 434.006ZM554.313 441.266C553.941 438.829 553.517 436.408 553.042 434.006L565.882 431.466C566.394 434.055 566.852 436.664 567.253 439.291L554.313 441.266ZM219.539 448.568C219.275 450.999 219.064 453.445 218.905 455.907L205.842 455.062C206.014 452.412 206.242 449.777 206.525 447.159L219.539 448.568ZM555.899 455.907C555.74 453.445 555.529 450.999 555.265 448.568L568.279 447.159C568.562 449.777 568.79 452.412 568.962 455.062L555.899 455.907ZM218.588 463.268C218.562 464.498 218.548 465.731 218.548 466.967H205.459C205.459 465.637 205.473 464.31 205.502 462.987L218.588 463.268ZM556.256 466.967C556.256 465.731 556.242 464.498 556.216 463.268L569.302 462.987C569.331 464.311 569.345 465.637 569.345 466.967H556.256Z" fill="black"/>
</mask>
<g mask="url(#mask0_1082_624)">
<path d="M260.438 367.488L236.877 349.163L246.04 330.838L272.218 305.968L332.43 283.716L395.259 275.862L392.641 305.968L306.251 330.838L260.438 367.488Z" fill="#FF9320"/>
<path d="M395.26 305.968L399.187 277.171L431.91 282.407L479.032 296.805L526.154 337.382L537.935 350.472L520.918 364.87L505.211 368.797L489.504 347.854L454.162 324.293L395.26 305.968Z" fill="#FF0004"/>
<path d="M515.684 370.106L539.245 351.781L556.261 372.724L573.277 408.065L583.749 473.512L551.025 476.13L545.789 461.732L536.627 414.61L515.684 370.106Z" fill="#4C0000"/>
<path d="M229.02 478.747H197.605V406.756L234.256 349.162L260.435 368.796L240.801 406.756L229.02 478.747Z" fill="#6BDA7A"/>
</g>
<path d="M387.406 261.463C500.903 261.463 592.91 353.471 592.91 466.967H590.293C590.293 354.917 499.457 264.081 387.406 264.081C275.355 264.081 184.52 354.917 184.52 466.967H181.902C181.902 353.471 273.91 261.463 387.406 261.463Z" fill="#F5F5F5"/>
<path d="M537.293 350.608L549.7 326.396L564.465 349.247L537.293 350.608Z" fill="#FF0004"/>
</g>
<g filter="url(#filter1_d_1082_624)">
<path d="M686.791 187.488C686.791 183.443 690.077 180.163 694.13 180.163H997.965C1002.02 180.163 1005.3 183.443 1005.3 187.488V313.494C1005.3 317.54 1002.02 320.82 997.965 320.82H694.13C690.077 320.82 686.791 317.54 686.791 313.494V187.488Z" fill="white"/>
<path d="M685.629 314.319V187.825C685.629 182.951 689.564 179 694.419 179V180.471L694.043 180.481C690.172 180.678 687.094 183.89 687.094 187.825V314.319L687.104 314.697C687.293 318.458 690.297 321.473 694.043 321.663L694.419 321.674H997.676L998.053 321.663C1001.8 321.473 1004.8 318.458 1004.99 314.697L1005 314.319V187.825C1005 183.89 1001.92 180.678 998.053 180.481L997.676 180.471V179C1002.53 179 1006.47 182.951 1006.47 187.825V314.319C1006.47 319.193 1002.53 323.144 997.676 323.144H694.419C689.564 323.144 685.629 319.193 685.629 314.319ZM997.676 179V180.471H694.419V179H997.676Z" fill="#F0F0F0"/>
<path d="M752.876 210.247L751.126 210.432C751.076 210.261 750.989 210.1 750.866 209.95C750.745 209.799 750.583 209.678 750.378 209.585C750.173 209.493 749.922 209.447 749.625 209.447C749.225 209.447 748.889 209.531 748.617 209.698C748.348 209.866 748.215 210.083 748.219 210.35C748.215 210.579 748.302 210.765 748.479 210.909C748.659 211.053 748.956 211.171 749.37 211.263L750.76 211.55C751.53 211.711 752.103 211.966 752.478 212.315C752.856 212.664 753.047 213.12 753.051 213.685C753.047 214.181 752.897 214.618 752.6 214.998C752.307 215.374 751.898 215.669 751.375 215.881C750.852 216.093 750.25 216.199 749.571 216.199C748.574 216.199 747.772 215.997 747.163 215.593C746.555 215.186 746.193 214.62 746.076 213.895L747.948 213.721C748.033 214.076 748.214 214.345 748.489 214.526C748.765 214.707 749.124 214.798 749.566 214.798C750.022 214.798 750.388 214.707 750.664 214.526C750.943 214.345 751.083 214.121 751.083 213.854C751.083 213.628 750.993 213.442 750.813 213.295C750.636 213.148 750.36 213.035 749.985 212.956L748.596 212.674C747.814 212.517 747.236 212.252 746.861 211.879C746.486 211.502 746.301 211.027 746.304 210.452C746.301 209.967 746.437 209.546 746.713 209.19C746.992 208.831 747.379 208.554 747.874 208.359C748.373 208.161 748.947 208.062 749.598 208.062C750.553 208.062 751.304 208.258 751.852 208.652C752.404 209.045 752.745 209.577 752.876 210.247Z" fill="#4D4D4D"/>
<path d="M744.913 204.574V216.199H742.588V204.574H744.913Z" fill="#4D4D4D"/>
<path d="M739.257 216.199V207.882H741.26V216.199H739.257ZM740.264 206.702C739.947 206.702 739.674 206.599 739.445 206.393C739.216 206.184 739.102 205.933 739.102 205.641C739.102 205.345 739.216 205.094 739.445 204.888C739.674 204.679 739.947 204.574 740.264 204.574C740.585 204.574 740.858 204.679 741.083 204.888C741.312 205.094 741.426 205.345 741.426 205.641C741.426 205.933 741.312 206.184 741.083 206.393C740.858 206.599 740.585 206.702 740.264 206.702Z" fill="#4D4D4D"/>
<path d="M732.506 216.199C731.994 216.199 731.533 216.11 731.122 215.932C730.715 215.751 730.392 215.484 730.153 215.132C729.918 214.78 729.801 214.346 729.801 213.83C729.801 213.385 729.885 213.018 730.053 212.727C730.222 212.437 730.452 212.204 730.743 212.03C731.034 211.856 731.362 211.724 731.727 211.635C732.096 211.543 732.477 211.476 732.87 211.435C733.343 211.387 733.728 211.345 734.022 211.307C734.317 211.266 734.531 211.205 734.665 211.123C734.802 211.037 734.87 210.906 734.87 210.728V210.697C734.87 210.311 734.752 210.012 734.517 209.8C734.282 209.588 733.944 209.482 733.501 209.482C733.035 209.482 732.664 209.581 732.391 209.779C732.12 209.977 731.938 210.212 731.843 210.482L730.064 210.236C730.204 209.757 730.436 209.357 730.759 209.036C731.082 208.711 731.476 208.468 731.943 208.308C732.41 208.144 732.926 208.062 733.491 208.062C733.88 208.062 734.268 208.106 734.654 208.195C735.04 208.284 735.393 208.431 735.712 208.636C736.032 208.837 736.288 209.113 736.481 209.461C736.677 209.81 736.776 210.246 736.776 210.769V216.04H734.944V214.958H734.88C734.765 215.177 734.602 215.382 734.391 215.573C734.184 215.761 733.922 215.913 733.607 216.03C733.294 216.142 732.928 216.199 732.506 216.199ZM733.001 214.835C733.384 214.835 733.715 214.761 733.996 214.614C734.277 214.464 734.493 214.266 734.644 214.02C734.798 213.773 734.875 213.505 734.875 213.215V212.287C734.816 212.334 734.714 212.379 734.57 212.42C734.43 212.461 734.272 212.497 734.096 212.527C733.921 212.558 733.747 212.586 733.575 212.61C733.403 212.633 733.254 212.654 733.128 212.671C732.843 212.709 732.589 212.77 732.364 212.856C732.14 212.941 731.963 213.061 731.833 213.215C731.703 213.365 731.638 213.56 731.638 213.799C731.638 214.141 731.766 214.399 732.022 214.573C732.278 214.748 732.605 214.835 733.001 214.835Z" fill="#4D4D4D"/>
<path d="M728.495 207.736V209.258H723.988V207.736H728.495ZM725.101 205.736H726.949V213.572C726.949 213.837 726.986 214.039 727.061 214.181C727.139 214.318 727.241 214.413 727.367 214.463C727.493 214.514 727.633 214.539 727.786 214.539C727.901 214.539 728.007 214.53 728.102 214.512C728.201 214.494 728.276 214.478 728.327 214.463L728.638 216.001C728.539 216.037 728.398 216.077 728.214 216.121C728.034 216.164 727.813 216.189 727.551 216.197C727.088 216.211 726.671 216.137 726.3 215.974C725.93 215.807 725.635 215.55 725.417 215.202C725.203 214.854 725.098 214.42 725.101 213.898V205.736Z" fill="#4D4D4D"/>
<path d="M719.493 216.199C718.741 216.199 718.092 216.035 717.545 215.706C717.002 215.374 716.584 214.906 716.291 214.3C715.998 213.692 715.852 212.975 715.852 212.151C715.852 211.34 715.998 210.629 716.291 210.016C716.587 209.401 717 208.922 717.531 208.58C718.061 208.234 718.684 208.062 719.4 208.062C719.862 208.062 720.298 208.14 720.708 208.298C721.121 208.451 721.486 208.691 721.801 209.016C722.12 209.341 722.371 209.755 722.553 210.257C722.735 210.757 722.826 211.352 722.826 212.043V212.612H716.681V211.361H721.133C721.129 211.005 721.056 210.688 720.913 210.411C720.77 210.131 720.57 209.91 720.313 209.75C720.059 209.589 719.763 209.508 719.424 209.508C719.063 209.508 718.746 209.601 718.473 209.785C718.199 209.967 717.986 210.206 717.833 210.504C717.684 210.798 717.607 211.121 717.604 211.473V212.566C717.604 213.025 717.684 213.418 717.843 213.746C718.002 214.071 718.225 214.321 718.512 214.495C718.798 214.666 719.133 214.752 719.517 214.752C719.774 214.752 720.007 214.714 720.215 214.639C720.423 214.56 720.604 214.446 720.757 214.295C720.91 214.145 721.025 213.958 721.103 213.736L722.753 213.931C722.649 214.389 722.45 214.789 722.158 215.132C721.868 215.47 721.497 215.734 721.045 215.922C720.592 216.106 720.075 216.199 719.493 216.199Z" fill="#4D4D4D"/>
<path d="M709.214 216.199H705.391V204.574H709.291C710.411 204.574 711.374 204.807 712.178 205.272C712.986 205.734 713.607 206.398 714.04 207.265C714.474 208.131 714.69 209.168 714.69 210.375C714.69 211.586 714.472 212.627 714.035 213.497C713.601 214.367 712.975 215.035 712.156 215.501C711.341 215.966 710.36 216.199 709.214 216.199ZM707.435 214.377H709.115C709.901 214.377 710.556 214.229 711.082 213.934C711.607 213.635 712.002 213.19 712.266 212.6C712.531 212.006 712.663 211.264 712.663 210.375C712.663 209.486 712.531 208.748 712.266 208.161C712.002 207.571 711.611 207.13 711.093 206.839C710.579 206.544 709.939 206.396 709.175 206.396H707.435V214.377Z" fill="#4D4D4D"/>
<path d="M768.162 248.747V259.209H767V248.747H768.162Z" fill="#767676"/>
<path d="M761.395 260.372C760.631 260.372 759.973 260.181 759.419 259.798C758.869 259.411 758.444 258.873 758.145 258.182C757.849 257.487 757.701 256.679 757.701 255.757C757.701 254.836 757.849 254.024 758.145 253.321C758.444 252.614 758.86 252.064 759.393 251.67C759.93 251.271 760.556 251.072 761.271 251.072C761.684 251.072 762.091 251.15 762.494 251.307C762.896 251.463 763.262 251.716 763.593 252.068C763.923 252.415 764.186 252.876 764.382 253.45C764.578 254.024 764.676 254.73 764.676 255.57V256.155H758.568V254.961H763.438C763.438 254.453 763.348 254 763.17 253.602C762.994 253.204 762.743 252.89 762.416 252.659C762.093 252.429 761.711 252.314 761.271 252.314C760.786 252.314 760.367 252.45 760.012 252.724C759.662 252.993 759.392 253.344 759.202 253.778C759.013 254.211 758.919 254.676 758.919 255.172V255.968C758.919 256.647 759.022 257.223 759.228 257.696C759.438 258.164 759.729 258.521 760.1 258.767C760.471 259.009 760.903 259.13 761.395 259.13C761.715 259.13 762.004 259.08 762.262 258.978C762.523 258.873 762.748 258.717 762.937 258.51C763.127 258.299 763.273 258.037 763.376 257.725L764.552 258.1C764.428 258.553 764.22 258.951 763.928 259.294C763.636 259.634 763.274 259.9 762.845 260.091C762.415 260.278 761.931 260.372 761.395 260.372Z" fill="#767676"/>
<path d="M756.537 252.235L753.658 259.21H752.442L749.562 252.235H750.86L753.009 257.793H753.09L755.24 252.235H756.537Z" fill="#767676"/>
<path d="M745.119 260.372C744.356 260.372 743.697 260.181 743.144 259.798C742.593 259.411 742.169 258.873 741.869 258.182C741.574 257.487 741.426 256.679 741.426 255.757C741.426 254.836 741.574 254.024 741.869 253.321C742.169 252.614 742.585 252.064 743.118 251.67C743.654 251.271 744.28 251.072 744.996 251.072C745.408 251.072 745.816 251.15 746.218 251.307C746.621 251.463 746.987 251.716 747.317 252.068C747.647 252.415 747.91 252.876 748.106 253.45C748.302 254.024 748.401 254.73 748.401 255.57V256.155H742.292V254.961H747.162C747.162 254.453 747.073 254 746.894 253.602C746.719 253.204 746.468 252.89 746.141 252.659C745.818 252.429 745.436 252.314 744.996 252.314C744.511 252.314 744.091 252.45 743.737 252.724C743.386 252.993 743.116 253.344 742.927 253.778C742.738 254.211 742.643 254.676 742.643 255.172V255.968C742.643 256.647 742.746 257.223 742.953 257.696C743.163 258.164 743.453 258.521 743.825 258.767C744.196 259.009 744.628 259.13 745.119 259.13C745.439 259.13 745.728 259.08 745.986 258.978C746.248 258.873 746.473 258.717 746.662 258.51C746.851 258.299 746.997 258.037 747.1 257.725L748.277 258.1C748.153 258.553 747.945 258.951 747.652 259.294C747.36 259.634 746.999 259.9 746.569 260.091C746.139 260.278 745.656 260.372 745.119 260.372Z" fill="#767676"/>
<path d="M739.102 248.747V259.209H737.939V248.747H739.102Z" fill="#767676"/>
<path d="M727.517 256.348L727.495 254.857H727.758L731.431 251.363H733.027L729.113 255.061H729.004L727.517 256.348ZM726.314 259.209V248.747H727.604V259.209H726.314ZM731.649 259.209L728.37 255.327L729.288 254.489L733.289 259.209H731.649Z" fill="#767676"/>
<path d="M723.853 253.204L722.812 253.555C722.746 253.348 722.65 253.147 722.522 252.952C722.398 252.753 722.228 252.589 722.012 252.46C721.796 252.331 721.519 252.267 721.182 252.267C720.721 252.267 720.336 252.394 720.028 252.648C719.724 252.897 719.572 253.216 719.572 253.602C719.572 253.946 719.677 254.217 719.886 254.416C720.096 254.615 720.423 254.781 720.868 254.914L721.987 255.242C722.661 255.437 723.164 255.736 723.494 256.138C723.825 256.536 723.99 257.049 723.99 257.678C723.99 258.193 723.866 258.654 723.617 259.06C723.371 259.466 723.028 259.786 722.586 260.021C722.144 260.255 721.63 260.372 721.045 260.372C720.276 260.372 719.639 260.173 719.135 259.775C718.631 259.376 718.312 258.795 718.178 258.029L719.277 257.701C719.382 258.186 719.58 258.549 719.871 258.791C720.166 259.033 720.55 259.154 721.025 259.154C721.565 259.154 721.994 259.017 722.311 258.744C722.632 258.467 722.792 258.135 722.792 257.748C722.792 257.436 722.701 257.174 722.517 256.964C722.334 256.749 722.053 256.589 721.673 256.483L720.416 256.132C719.726 255.937 719.218 255.634 718.894 255.224C718.574 254.81 718.413 254.293 718.413 253.672C718.413 253.165 718.533 252.716 718.772 252.325C719.014 251.935 719.343 251.629 719.758 251.406C720.177 251.184 720.652 251.072 721.182 251.072C721.928 251.072 722.514 251.267 722.939 251.658C723.368 252.048 723.673 252.564 723.853 253.204Z" fill="#767676"/>
<path d="M715.022 259.209V251.6H716.655V259.209H715.022ZM715.852 250.332C715.534 250.332 715.259 250.255 715.029 250.099C714.802 249.944 714.689 249.758 714.689 249.54C714.689 249.322 714.802 249.135 715.029 248.98C715.259 248.825 715.534 248.747 715.852 248.747C716.17 248.747 716.442 248.825 716.668 248.98C716.899 249.135 717.014 249.322 717.014 249.54C717.014 249.758 716.899 249.944 716.668 250.099C716.442 250.255 716.17 250.332 715.852 250.332Z" fill="#767676"/>
<path d="M705.391 259.209V248.747H709.226C710.113 248.747 710.841 248.887 711.41 249.166C711.979 249.442 712.401 249.822 712.674 250.305C712.948 250.789 713.084 251.339 713.084 251.955C713.084 252.572 712.948 253.118 712.674 253.595C712.401 254.072 711.981 254.446 711.416 254.719C710.851 254.988 710.128 255.122 709.249 255.122H706.144V253.978H709.204C709.81 253.978 710.298 253.896 710.668 253.733C711.041 253.569 711.311 253.338 711.477 253.038C711.647 252.735 711.732 252.374 711.732 251.955C711.732 251.536 711.647 251.17 711.477 250.857C711.307 250.544 711.035 250.302 710.662 250.131C710.289 249.958 709.795 249.871 709.182 249.871H706.765V259.209H705.391ZM710.734 254.509L713.528 259.209H711.931L709.182 254.509H710.734Z" fill="#767676"/>
<path d="M862.145 253.57L860.395 253.781C860.346 253.586 860.259 253.402 860.135 253.23C860.015 253.058 859.852 252.919 859.647 252.814C859.442 252.708 859.191 252.655 858.894 252.655C858.494 252.655 858.159 252.751 857.886 252.943C857.618 253.134 857.485 253.383 857.489 253.687C857.485 253.949 857.572 254.162 857.748 254.327C857.929 254.491 858.226 254.626 858.639 254.731L860.029 255.059C860.8 255.243 861.373 255.534 861.748 255.933C862.126 256.332 862.317 256.854 862.32 257.499C862.317 258.066 862.167 258.566 861.87 259C861.576 259.43 861.168 259.766 860.644 260.008C860.121 260.251 859.52 260.372 858.841 260.372C857.844 260.372 857.041 260.141 856.433 259.68C855.825 259.215 855.462 258.568 855.346 257.739L857.218 257.54C857.303 257.946 857.483 258.253 857.759 258.46C858.035 258.668 858.394 258.771 858.836 258.771C859.292 258.771 859.658 258.668 859.934 258.46C860.213 258.253 860.353 257.997 860.353 257.692C860.353 257.434 860.262 257.221 860.082 257.053C859.905 256.885 859.63 256.756 859.255 256.666L857.865 256.344C857.084 256.164 856.506 255.861 856.131 255.435C855.756 255.005 855.57 254.461 855.574 253.805C855.57 253.25 855.706 252.769 855.982 252.362C856.262 251.952 856.649 251.635 857.144 251.412C857.642 251.186 858.217 251.072 858.868 251.072C859.822 251.072 860.574 251.297 861.122 251.747C861.673 252.196 862.015 252.804 862.145 253.57Z" fill="#FF0004"/>
<path d="M851.139 256.889V252.235H853.022V260.267H851.196V258.84H851.113C850.932 259.29 850.636 259.657 850.223 259.943C849.814 260.229 849.31 260.372 848.71 260.372C848.186 260.372 847.723 260.255 847.321 260.022C846.922 259.785 846.61 259.441 846.385 258.991C846.16 258.538 846.047 257.991 846.047 257.349V252.235H847.93V257.057C847.93 257.566 848.068 257.97 848.346 258.27C848.623 258.57 848.987 258.72 849.438 258.72C849.715 258.72 849.984 258.652 850.244 258.516C850.504 258.38 850.718 258.177 850.884 257.909C851.054 257.637 851.139 257.297 851.139 256.889Z" fill="#FF0004"/>
<path d="M840.817 260.372C839.987 260.372 839.269 260.178 838.661 259.791C838.053 259.404 837.581 258.863 837.246 258.167C836.914 257.471 836.748 256.658 836.748 255.728C836.748 254.798 836.914 253.983 837.246 253.283C837.581 252.583 838.053 252.04 838.661 251.653C839.269 251.266 839.987 251.072 840.817 251.072C841.646 251.072 842.364 251.266 842.973 251.653C843.581 252.04 844.051 252.583 844.382 253.283C844.718 253.983 844.885 254.798 844.885 255.728C844.885 256.658 844.718 257.471 844.382 258.167C844.051 258.863 843.581 259.404 842.973 259.791C842.364 260.178 841.646 260.372 840.817 260.372ZM840.828 258.671C841.277 258.671 841.653 258.541 841.955 258.279C842.258 258.013 842.482 257.657 842.63 257.211C842.781 256.766 842.856 256.269 842.856 255.722C842.856 255.171 842.781 254.673 842.63 254.227C842.482 253.777 842.258 253.42 841.955 253.154C841.653 252.888 841.277 252.755 840.828 252.755C840.367 252.755 839.984 252.888 839.678 253.154C839.376 253.42 839.149 253.777 838.998 254.227C838.851 254.673 838.777 255.171 838.777 255.722C838.777 256.269 838.851 256.766 838.998 257.211C839.149 257.657 839.376 258.013 839.678 258.279C839.984 258.541 840.367 258.671 840.828 258.671Z" fill="#FF0004"/>
<path d="M832.098 259.209V251.187H833.961V252.524H834.046C834.194 252.061 834.449 251.704 834.81 251.454C835.175 251.199 835.59 251.072 836.057 251.072C836.164 251.072 836.282 251.077 836.413 251.088C836.548 251.095 836.659 251.107 836.747 251.124V252.864C836.666 252.836 836.537 252.811 836.36 252.791C836.187 252.766 836.019 252.754 835.856 252.754C835.505 252.754 835.19 252.829 834.911 252.979C834.635 253.125 834.417 253.329 834.258 253.59C834.099 253.851 834.019 254.152 834.019 254.493V259.209H832.098Z" fill="#FF0004"/>
<path d="M827.045 260.372C826.168 260.372 825.411 260.184 824.773 259.809C824.139 259.43 823.651 258.894 823.309 258.202C822.968 257.507 822.797 256.688 822.797 255.746C822.797 254.819 822.968 254.006 823.309 253.306C823.655 252.603 824.137 252.055 824.756 251.664C825.375 251.27 826.101 251.072 826.937 251.072C827.476 251.072 827.984 251.162 828.463 251.342C828.945 251.518 829.37 251.792 829.738 252.163C830.11 252.534 830.403 253.007 830.615 253.582C830.828 254.153 830.934 254.833 830.934 255.622V256.273H823.765V254.843H828.958C828.954 254.436 828.869 254.074 828.702 253.758C828.535 253.437 828.301 253.185 828.001 253.001C827.705 252.818 827.36 252.726 826.965 252.726C826.544 252.726 826.174 252.831 825.855 253.042C825.536 253.25 825.287 253.523 825.109 253.863C824.934 254.2 824.845 254.569 824.841 254.972V256.22C824.841 256.744 824.934 257.194 825.12 257.569C825.306 257.94 825.566 258.226 825.9 258.425C826.234 258.621 826.625 258.718 827.073 258.718C827.373 258.718 827.645 258.675 827.888 258.589C828.131 258.499 828.341 258.369 828.52 258.197C828.698 258.025 828.833 257.811 828.924 257.557L830.849 257.78C830.727 258.304 830.496 258.761 830.154 259.152C829.816 259.539 829.383 259.84 828.856 260.055C828.328 260.266 827.724 260.372 827.045 260.372Z" fill="#FF0004"/>
<path d="M817.595 262.697C816.866 262.697 816.24 262.602 815.717 262.412C815.194 262.226 814.774 261.975 814.456 261.66C814.139 261.345 813.918 260.996 813.795 260.613L815.622 260.188C815.704 260.349 815.824 260.509 815.981 260.666C816.138 260.827 816.349 260.96 816.614 261.064C816.883 261.171 817.221 261.225 817.628 261.225C818.204 261.225 818.68 261.091 819.057 260.822C819.435 260.557 819.623 260.12 819.623 259.511V257.948H819.522C819.418 258.149 819.265 258.355 819.063 258.566C818.865 258.777 818.602 258.954 818.273 259.098C817.948 259.241 817.539 259.313 817.045 259.313C816.384 259.313 815.785 259.164 815.247 258.867C814.712 258.566 814.286 258.118 813.969 257.524C813.655 256.926 813.498 256.177 813.498 255.278C813.498 254.372 813.655 253.608 813.969 252.985C814.286 252.358 814.714 251.883 815.252 251.561C815.79 251.235 816.39 251.072 817.051 251.072C817.555 251.072 817.97 251.155 818.295 251.319C818.624 251.481 818.885 251.676 819.08 251.905C819.274 252.131 819.422 252.344 819.522 252.544H819.635V251.18H821.635V259.565C821.635 260.271 821.46 260.854 821.108 261.316C820.757 261.778 820.277 262.124 819.668 262.353C819.059 262.582 818.368 262.697 817.595 262.697ZM817.611 257.787C818.041 257.787 818.407 257.687 818.71 257.486C819.013 257.286 819.242 256.997 819.399 256.621C819.556 256.245 819.635 255.794 819.635 255.268C819.635 254.748 819.556 254.294 819.399 253.903C819.246 253.513 819.018 253.21 818.715 252.995C818.417 252.777 818.049 252.668 817.611 252.668C817.159 252.668 816.782 252.78 816.479 253.006C816.177 253.232 815.949 253.541 815.796 253.935C815.643 254.326 815.566 254.77 815.566 255.268C815.566 255.773 815.643 256.215 815.796 256.594C815.953 256.97 816.182 257.264 816.485 257.475C816.791 257.683 817.167 257.787 817.611 257.787Z" fill="#FF0004"/>
<path d="M807.234 254.503V259.209H805.361V251.177H807.152V252.542H807.245C807.428 252.092 807.719 251.735 808.119 251.47C808.523 251.205 809.021 251.072 809.614 251.072C810.163 251.072 810.641 251.191 811.048 251.428C811.458 251.665 811.775 252.008 812 252.458C812.227 252.908 812.339 253.453 812.336 254.095V259.209H810.463V254.388C810.463 253.851 810.325 253.431 810.049 253.127C809.777 252.824 809.399 252.673 808.916 252.673C808.588 252.673 808.297 252.746 808.041 252.892C807.79 253.035 807.591 253.243 807.446 253.514C807.305 253.786 807.234 254.116 807.234 254.503Z" fill="#FF0004"/>
<path d="M798.766 260.372C798.254 260.372 797.792 260.27 797.382 260.067C796.975 259.86 796.652 259.555 796.413 259.153C796.178 258.751 796.061 258.255 796.061 257.665C796.061 257.157 796.145 256.737 796.313 256.405C796.482 256.073 796.712 255.807 797.003 255.608C797.294 255.409 797.622 255.258 797.987 255.157C798.356 255.051 798.736 254.975 799.129 254.928C799.603 254.873 799.987 254.825 800.282 254.782C800.577 254.735 800.791 254.664 800.924 254.571C801.061 254.473 801.13 254.323 801.13 254.119V254.084C801.13 253.643 801.012 253.301 800.777 253.059C800.542 252.817 800.203 252.695 799.761 252.695C799.294 252.695 798.924 252.809 798.65 253.035C798.38 253.262 798.198 253.53 798.103 253.838L796.324 253.557C796.464 253.01 796.696 252.553 797.019 252.186C797.341 251.815 797.736 251.537 798.203 251.354C798.67 251.166 799.186 251.072 799.751 251.072C800.14 251.072 800.528 251.123 800.914 251.225C801.3 251.326 801.653 251.494 801.972 251.729C802.291 251.959 802.547 252.274 802.74 252.672C802.937 253.07 803.035 253.569 803.035 254.166V260.19H801.203V258.954H801.14C801.024 259.204 800.861 259.438 800.651 259.657C800.444 259.872 800.182 260.046 799.866 260.179C799.554 260.307 799.187 260.372 798.766 260.372ZM799.261 258.813C799.644 258.813 799.975 258.729 800.256 258.561C800.537 258.389 800.752 258.163 800.903 257.881C801.058 257.6 801.135 257.294 801.135 256.961V255.901C801.075 255.956 800.974 256.006 800.83 256.053C800.689 256.1 800.531 256.141 800.356 256.176C800.18 256.211 800.007 256.243 799.835 256.27C799.663 256.297 799.514 256.321 799.387 256.34C799.103 256.383 798.849 256.454 798.624 256.551C798.399 256.649 798.222 256.786 798.092 256.961C797.963 257.133 797.898 257.356 797.898 257.629C797.898 258.02 798.026 258.315 798.282 258.514C798.538 258.714 798.864 258.813 799.261 258.813Z" fill="#FF0004"/>
<path d="M790.107 259.209H786.762V248.747H790.175C791.155 248.747 791.997 248.957 792.701 249.375C793.408 249.791 793.951 250.389 794.33 251.168C794.709 251.948 794.899 252.882 794.899 253.968C794.899 255.058 794.708 255.994 794.325 256.778C793.946 257.561 793.398 258.162 792.681 258.581C791.968 259 791.11 259.209 790.107 259.209ZM788.55 257.569H790.02C790.708 257.569 791.282 257.437 791.741 257.171C792.201 256.902 792.546 256.502 792.778 255.97C793.009 255.436 793.125 254.768 793.125 253.968C793.125 253.168 793.009 252.503 792.778 251.976C792.546 251.444 792.204 251.048 791.751 250.785C791.301 250.52 790.742 250.387 790.073 250.387H788.55V257.569Z" fill="#FF0004"/>
<path d="M928.582 210.386C928.582 205.892 932.303 202.249 936.893 202.249H979.556C984.146 202.249 987.867 205.892 987.867 210.386C987.867 214.88 984.146 218.523 979.556 218.523H936.893C932.303 218.523 928.582 214.88 928.582 210.386Z" fill="#03FF81"/>
<path d="M943.252 214.899L941.369 208.062H942.451L944.092 214.235H944.218L945.85 208.062H946.931L945.058 214.899H943.252Z" fill="#14054D"/>
<path d="M947.879 214.899V210.084H948.874V214.899H947.879ZM948.381 209.429C948.188 209.429 948.024 209.367 947.889 209.244C947.76 209.113 947.696 208.947 947.696 208.745C947.696 208.543 947.76 208.381 947.889 208.257C948.024 208.127 948.188 208.062 948.381 208.062C948.581 208.062 948.745 208.127 948.874 208.257C949.002 208.381 949.067 208.543 949.067 208.745C949.067 208.947 949.002 209.113 948.874 209.244C948.745 209.367 948.581 209.429 948.381 209.429Z" fill="#14054D"/>
<path d="M952.532 215.036C952.049 215.036 951.628 214.935 951.267 214.733C950.907 214.525 950.623 214.235 950.417 213.864C950.218 213.486 950.118 213.05 950.118 212.555V212.438C950.118 211.936 950.218 211.5 950.417 211.129C950.617 210.751 950.894 210.461 951.248 210.259C951.608 210.051 952.024 209.947 952.494 209.947C952.951 209.947 953.35 210.051 953.691 210.259C954.039 210.461 954.309 210.745 954.502 211.109C954.695 211.474 954.792 211.901 954.792 212.389V212.77H951.132C951.145 213.193 951.283 213.532 951.547 213.786C951.818 214.033 952.152 214.157 952.551 214.157C952.925 214.157 953.205 214.072 953.392 213.903C953.585 213.734 953.733 213.538 953.836 213.317L954.657 213.747C954.566 213.929 954.434 214.121 954.261 214.323C954.093 214.525 953.871 214.694 953.594 214.831C953.318 214.968 952.963 215.036 952.532 215.036ZM951.142 211.998H953.778C953.752 211.634 953.623 211.35 953.392 211.148C953.16 210.94 952.857 210.836 952.484 210.836C952.11 210.836 951.805 210.94 951.566 211.148C951.335 211.35 951.193 211.634 951.142 211.998Z" fill="#14054D"/>
<path d="M956.454 214.899L955.643 210.084H956.637L957.236 214.225H957.391L958.221 210.084H959.834L960.655 214.225H960.809L961.408 210.084H962.402L961.591 214.899H959.921L959.1 210.767H958.945L958.125 214.899H956.454Z" fill="#14054D"/>
<path d="M967.519 215.036C967.178 215.036 966.872 214.978 966.602 214.86C966.338 214.743 966.125 214.571 965.964 214.343C965.81 214.115 965.733 213.838 965.733 213.512C965.733 213.18 965.81 212.907 965.964 212.692C966.125 212.47 966.341 212.304 966.611 212.194C966.888 212.083 967.2 212.028 967.548 212.028H968.997V211.715C968.997 211.435 968.913 211.21 968.746 211.041C968.578 210.872 968.321 210.787 967.973 210.787C967.632 210.787 967.371 210.868 967.191 211.031C967.011 211.194 966.891 211.406 966.834 211.666L965.907 211.363C965.984 211.103 966.106 210.868 966.273 210.66C966.447 210.445 966.676 210.272 966.959 210.142C967.242 210.012 967.584 209.947 967.983 209.947C968.601 209.947 969.087 210.106 969.441 210.426C969.795 210.745 969.972 211.197 969.972 211.783V213.766C969.972 213.962 970.062 214.059 970.242 214.059H970.648V214.899H969.904C969.679 214.899 969.496 214.841 969.354 214.724C969.212 214.606 969.141 214.447 969.141 214.245V214.216H968.997C968.945 214.313 968.868 214.427 968.765 214.558C968.662 214.688 968.511 214.802 968.311 214.899C968.111 214.991 967.847 215.036 967.519 215.036ZM967.664 214.206C968.063 214.206 968.385 214.092 968.63 213.864C968.874 213.63 968.997 213.31 968.997 212.907V212.809H967.606C967.342 212.809 967.13 212.868 966.969 212.985C966.808 213.096 966.727 213.262 966.727 213.483C966.727 213.704 966.811 213.88 966.978 214.011C967.146 214.141 967.374 214.206 967.664 214.206Z" fill="#14054D"/>
<path d="M971.615 214.899V208.062H972.61V214.899H971.615Z" fill="#14054D"/>
<path d="M974.086 214.899V208.062H975.08V214.899H974.086Z" fill="#14054D"/>
<path d="M704.227 281.877C704.227 279.63 706.2 277.809 708.635 277.809H983.457C985.892 277.809 987.866 279.63 987.866 281.877C987.866 284.124 985.892 285.946 983.457 285.946H708.635C706.2 285.946 704.227 284.124 704.227 281.877Z" fill="#D9D9D9"/>
<path d="M704 282C704 279.791 705.84 278 708.11 278H936.89C939.16 278 941 279.791 941 282C941 284.209 939.16 286 936.89 286H708.11C705.84 286 704 284.209 704 282Z" fill="#FF0004"/>
</g>
<path d="M736.42 303.09C735.939 303.09 735.528 302.959 735.19 302.697C734.851 302.432 734.592 302.05 734.413 301.549C734.234 301.046 734.145 300.439 734.145 299.727C734.145 299.02 734.234 298.416 734.413 297.915C734.594 297.412 734.854 297.029 735.193 296.765C735.534 296.498 735.943 296.365 736.42 296.365C736.897 296.365 737.305 296.498 737.644 296.765C737.985 297.029 738.245 297.412 738.424 297.915C738.605 298.416 738.696 299.02 738.696 299.727C738.696 300.439 738.606 301.046 738.427 301.549C738.248 302.05 737.989 302.432 737.651 302.697C737.312 302.959 736.902 303.09 736.42 303.09ZM736.42 302.387C736.897 302.387 737.268 302.156 737.532 301.696C737.797 301.236 737.929 300.58 737.929 299.727C737.929 299.161 737.868 298.678 737.746 298.28C737.627 297.881 737.455 297.578 737.229 297.369C737.005 297.16 736.735 297.056 736.42 297.056C735.947 297.056 735.577 297.289 735.311 297.756C735.045 298.22 734.912 298.877 734.912 299.727C734.912 300.294 734.971 300.776 735.091 301.172C735.21 301.568 735.381 301.87 735.605 302.077C735.831 302.283 736.103 302.387 736.42 302.387Z" fill="#ACACAC"/>
<path d="M730.795 303.09C730.314 303.09 729.903 302.959 729.565 302.697C729.226 302.432 728.967 302.05 728.788 301.549C728.609 301.046 728.52 300.439 728.52 299.727C728.52 299.02 728.609 298.416 728.788 297.915C728.969 297.412 729.229 297.029 729.568 296.765C729.909 296.498 730.318 296.365 730.795 296.365C731.272 296.365 731.68 296.498 732.019 296.765C732.36 297.029 732.62 297.412 732.799 297.915C732.98 298.416 733.071 299.02 733.071 299.727C733.071 300.439 732.981 301.046 732.802 301.549C732.623 302.05 732.364 302.432 732.026 302.697C731.687 302.959 731.277 303.09 730.795 303.09ZM730.795 302.387C731.272 302.387 731.643 302.156 731.907 301.696C732.172 301.236 732.304 300.58 732.304 299.727C732.304 299.161 732.243 298.678 732.121 298.28C732.002 297.881 731.83 297.578 731.604 297.369C731.38 297.16 731.11 297.056 730.795 297.056C730.322 297.056 729.952 297.289 729.686 297.756C729.42 298.22 729.287 298.877 729.287 299.727C729.287 300.294 729.346 300.776 729.466 301.172C729.585 301.568 729.756 301.87 729.98 302.077C730.206 302.283 730.478 302.387 730.795 302.387Z" fill="#ACACAC"/>
<path d="M726.779 296.455V303H725.986V297.286H725.948L724.35 298.347V297.541L725.986 296.455H726.779Z" fill="#ACACAC"/>
<path d="M721.065 296.148L718.956 303.985H718.266L720.375 296.148H721.065Z" fill="#ACACAC"/>
<path d="M712.777 303.09C712.402 303.09 712.064 303.015 711.764 302.866C711.463 302.717 711.222 302.512 711.041 302.252C710.86 301.992 710.761 301.696 710.744 301.364H711.511C711.541 301.66 711.675 301.905 711.914 302.099C712.155 302.291 712.442 302.386 712.777 302.386C713.045 302.386 713.284 302.324 713.493 302.198C713.704 302.072 713.869 301.9 713.988 301.68C714.11 301.458 714.17 301.208 714.17 300.929C714.17 300.644 714.107 300.389 713.982 300.165C713.858 299.939 713.688 299.761 713.47 299.631C713.253 299.501 713.005 299.435 712.726 299.433C712.525 299.431 712.32 299.462 712.109 299.526C711.898 299.588 711.724 299.668 711.588 299.766L710.846 299.676L711.243 296.455H714.643V297.158H711.907L711.677 299.088H711.716C711.85 298.982 712.018 298.893 712.221 298.823C712.423 298.753 712.634 298.717 712.854 298.717C713.254 298.717 713.611 298.813 713.924 299.005C714.24 299.195 714.487 299.455 714.666 299.785C714.847 300.115 714.937 300.492 714.937 300.916C714.937 301.334 714.844 301.707 714.656 302.035C714.471 302.361 714.215 302.619 713.889 302.808C713.563 302.996 713.192 303.09 712.777 303.09Z" fill="#ACACAC"/>
<path d="M705.883 303L708.811 297.209V297.158H705.436V296.455H709.629V297.196L706.714 303H705.883Z" fill="#ACACAC"/>
<defs>
<filter id="filter0_d_1082_624" x="83" y="159" width="608.812" height="402" filterUnits="userSpaceOnUse" color-interpolation-filters="sRGB">
<feFlood flood-opacity="0" result="BackgroundImageFix"/>
<feColorMatrix in="SourceAlpha" type="matrix" values="0 0 0 0 0 0 0 0 0 0 0 0 0 0 0 0 0 0 127 0" result="hardAlpha"/>
<feOffset dy="20"/>
<feGaussianBlur stdDeviation="20"/>
<feComposite in2="hardAlpha" operator="out"/>
<feColorMatrix type="matrix" values="0 0 0 0 0.0784314 0 0 0 0 0.0196078 0 0 0 0 0.301961 0 0 0 0.15 0"/>
<feBlend mode="normal" in2="BackgroundImageFix" result="effect1_dropShadow_1082_624"/>
<feBlend mode="normal" in="SourceGraphic" in2="effect1_dropShadow_1082_624" result="shape"/>
</filter>
<filter id="filter1_d_1082_624" x="645.629" y="149" width="400.838" height="224.145" filterUnits="userSpaceOnUse" color-interpolation-filters="sRGB">
<feFlood flood-opacity="0" result="BackgroundImageFix"/>
<feColorMatrix in="SourceAlpha" type="matrix" values="0 0 0 0 0 0 0 0 0 0 0 0 0 0 0 0 0 0 127 0" result="hardAlpha"/>
<feOffset dy="10"/>
<feGaussianBlur stdDeviation="20"/>
<feComposite in2="hardAlpha" operator="out"/>
<feColorMatrix type="matrix" values="0 0 0 0 0.0784314 0 0 0 0 0.0196078 0 0 0 0 0.301961 0 0 0 0.15 0"/>
<feBlend mode="normal" in2="BackgroundImageFix" result="effect1_dropShadow_1082_624"/>
<feBlend mode="normal" in="SourceGraphic" in2="effect1_dropShadow_1082_624" result="shape"/>
</filter>
</defs>
</svg>
