<svg width="1130" height="680" viewBox="0 0 1130 680" fill="none" xmlns="http://www.w3.org/2000/svg">
<rect width="1130" height="680" fill="#F2F2F2"/>
<g filter="url(#filter0_d_1015_13069)">
<path d="M845.72 163C850.763 163 855 166.776 855 171.607V509.393C855 514.224 850.763 518 845.72 518H284.281C279.237 518 275 514.224 275 509.393V171.607C275 166.776 279.237 163 284.281 163H845.72Z" fill="white" stroke="#F0F0F0" stroke-width="2"/>
<path d="M514.178 309.622V310.373H511.189V309.622H514.178ZM512.06 308.241H512.946V313.737C512.946 313.987 512.983 314.175 513.055 314.3C513.13 314.422 513.225 314.505 513.341 314.548C513.458 314.588 513.582 314.608 513.712 314.608C513.81 314.608 513.89 314.603 513.952 314.593C514.015 314.58 514.065 314.57 514.103 314.563L514.283 315.358C514.223 315.381 514.139 315.404 514.031 315.426C513.924 315.451 513.787 315.464 513.622 315.464C513.372 315.464 513.127 315.41 512.886 315.302C512.649 315.195 512.451 315.031 512.293 314.81C512.138 314.59 512.06 314.312 512.06 313.977V308.241Z" fill="#767676"/>
<path d="M510.23 310.914L509.435 311.139C509.384 311.006 509.311 310.878 509.213 310.752C509.118 310.625 508.988 310.52 508.823 310.437C508.657 310.354 508.446 310.313 508.188 310.313C507.835 310.313 507.541 310.395 507.306 310.557C507.073 310.717 506.957 310.921 506.957 311.169C506.957 311.389 507.037 311.563 507.197 311.691C507.357 311.819 507.608 311.925 507.948 312.01L508.804 312.22C509.319 312.345 509.704 312.537 509.956 312.795C510.209 313.05 510.335 313.379 510.335 313.782C510.335 314.112 510.24 314.408 510.05 314.668C509.862 314.928 509.6 315.133 509.262 315.284C508.924 315.434 508.531 315.509 508.083 315.509C507.495 315.509 507.008 315.381 506.623 315.126C506.237 314.871 505.993 314.498 505.891 314.007L506.732 313.797C506.812 314.107 506.963 314.34 507.186 314.495C507.411 314.65 507.705 314.728 508.068 314.728C508.481 314.728 508.809 314.64 509.052 314.465C509.297 314.288 509.419 314.075 509.419 313.827C509.419 313.627 509.349 313.459 509.209 313.324C509.069 313.186 508.854 313.084 508.564 313.016L507.602 312.791C507.074 312.666 506.686 312.472 506.439 312.209C506.193 311.944 506.071 311.612 506.071 311.214C506.071 310.889 506.162 310.601 506.345 310.351C506.53 310.1 506.782 309.904 507.099 309.761C507.42 309.619 507.783 309.547 508.188 309.547C508.759 309.547 509.207 309.672 509.532 309.923C509.86 310.173 510.093 310.503 510.23 310.914Z" fill="#767676"/>
<path d="M503.637 315.389V309.622H504.523V315.389H503.637ZM504.088 308.661C503.915 308.661 503.766 308.602 503.641 308.485C503.518 308.367 503.457 308.226 503.457 308.061C503.457 307.895 503.518 307.754 503.641 307.636C503.766 307.519 503.915 307.46 504.088 307.46C504.26 307.46 504.408 307.519 504.531 307.636C504.656 307.754 504.718 307.895 504.718 308.061C504.718 308.226 504.656 308.367 504.531 308.485C504.408 308.602 504.26 308.661 504.088 308.661Z" fill="#767676"/>
<path d="M502.017 307.7V315.389H501.131V307.7H502.017Z" fill="#767676"/>
<path d="M495.769 311.92V315.389H494.883V307.7H495.769V310.523H495.844C495.979 310.225 496.182 309.989 496.452 309.814C496.725 309.636 497.088 309.547 497.541 309.547C497.934 309.547 498.278 309.626 498.573 309.784C498.868 309.939 499.097 310.178 499.26 310.501C499.425 310.821 499.508 311.229 499.508 311.725V315.389H498.622V311.785C498.622 311.327 498.503 310.973 498.265 310.722C498.03 310.469 497.703 310.343 497.285 310.343C496.995 310.343 496.735 310.404 496.505 310.527C496.277 310.65 496.097 310.829 495.964 311.064C495.834 311.299 495.769 311.584 495.769 311.92Z" fill="#767676"/>
<path d="M491.32 315.509C490.779 315.509 490.314 315.381 489.923 315.126C489.533 314.871 489.233 314.519 489.022 314.071C488.812 313.623 488.707 313.111 488.707 312.536C488.707 311.95 488.815 311.433 489.03 310.985C489.248 310.535 489.55 310.183 489.938 309.93C490.329 309.675 490.784 309.547 491.305 309.547C491.71 309.547 492.076 309.622 492.401 309.773C492.726 309.923 492.993 310.133 493.201 310.403C493.408 310.674 493.537 310.989 493.587 311.349H492.701C492.634 311.087 492.484 310.854 492.251 310.651C492.021 310.446 491.71 310.343 491.32 310.343C490.975 310.343 490.672 310.433 490.411 310.614C490.154 310.791 489.952 311.043 489.807 311.368C489.664 311.691 489.593 312.07 489.593 312.506C489.593 312.951 489.663 313.339 489.803 313.669C489.946 314 490.146 314.256 490.404 314.439C490.664 314.622 490.97 314.713 491.32 314.713C491.55 314.713 491.759 314.673 491.947 314.593C492.135 314.513 492.293 314.398 492.424 314.247C492.554 314.097 492.646 313.917 492.701 313.707H493.587C493.537 314.047 493.413 314.354 493.216 314.627C493.02 314.897 492.761 315.112 492.439 315.272C492.118 315.43 491.745 315.509 491.32 315.509Z" fill="#767676"/>
<path d="M487.707 309.622V310.373H484.719V309.622H487.707ZM485.59 308.241H486.476V313.737C486.476 313.987 486.512 314.175 486.585 314.3C486.66 314.422 486.755 314.505 486.87 314.548C486.987 314.588 487.111 314.608 487.242 314.608C487.339 314.608 487.419 314.603 487.482 314.593C487.544 314.58 487.594 314.57 487.632 314.563L487.812 315.358C487.752 315.381 487.668 315.404 487.561 315.426C487.453 315.451 487.317 315.464 487.151 315.464C486.901 315.464 486.656 315.41 486.416 315.302C486.178 315.195 485.98 315.031 485.822 314.81C485.667 314.59 485.59 314.312 485.59 313.977V308.241Z" fill="#767676"/>
<path d="M480.94 315.524C480.574 315.524 480.243 315.455 479.945 315.317C479.647 315.177 479.411 314.976 479.235 314.713C479.06 314.448 478.973 314.127 478.973 313.752C478.973 313.422 479.038 313.154 479.168 312.949C479.298 312.741 479.472 312.578 479.69 312.461C479.907 312.343 480.148 312.255 480.41 312.198C480.676 312.138 480.942 312.09 481.21 312.055C481.56 312.01 481.845 311.976 482.062 311.954C482.283 311.929 482.443 311.887 482.543 311.83C482.645 311.772 482.697 311.672 482.697 311.53V311.499C482.697 311.129 482.595 310.841 482.393 310.636C482.192 310.431 481.888 310.328 481.48 310.328C481.057 310.328 480.726 310.421 480.486 310.606C480.245 310.791 480.076 310.989 479.979 311.199L479.138 310.899C479.288 310.548 479.488 310.276 479.739 310.08C479.991 309.883 480.267 309.745 480.564 309.667C480.865 309.587 481.16 309.547 481.45 309.547C481.636 309.547 481.848 309.57 482.089 309.615C482.331 309.657 482.565 309.746 482.791 309.881C483.018 310.017 483.207 310.221 483.357 310.493C483.508 310.766 483.583 311.132 483.583 311.59V315.389H482.697V314.608H482.652C482.592 314.733 482.492 314.867 482.351 315.01C482.211 315.152 482.025 315.274 481.792 315.374C481.559 315.474 481.275 315.524 480.94 315.524ZM481.075 314.728C481.425 314.728 481.721 314.659 481.961 314.522C482.204 314.384 482.386 314.206 482.509 313.988C482.634 313.771 482.697 313.542 482.697 313.301V312.491C482.659 312.536 482.577 312.577 482.449 312.614C482.324 312.65 482.179 312.681 482.013 312.708C481.851 312.733 481.692 312.756 481.537 312.776C481.384 312.793 481.26 312.808 481.165 312.821C480.935 312.851 480.72 312.9 480.519 312.967C480.322 313.032 480.161 313.131 480.039 313.264C479.919 313.394 479.859 313.572 479.859 313.797C479.859 314.105 479.972 314.338 480.2 314.495C480.43 314.65 480.722 314.728 481.075 314.728Z" fill="#767676"/>
<path d="M471.958 315.389L470.201 309.623H471.132L472.379 314.037H472.439L473.67 309.623H474.616L475.832 314.022H475.892L477.139 309.623H478.07L476.313 315.389H475.442L474.181 310.959H474.09L472.829 315.389H471.958Z" fill="#767676"/>
<path d="M466.242 310.914L465.446 311.139C465.396 311.006 465.322 310.878 465.225 310.752C465.13 310.625 464.999 310.52 464.834 310.437C464.669 310.354 464.458 310.313 464.2 310.313C463.847 310.313 463.553 310.395 463.318 310.557C463.085 310.717 462.969 310.921 462.969 311.169C462.969 311.389 463.049 311.563 463.209 311.691C463.369 311.819 463.619 311.925 463.96 312.01L464.816 312.22C465.331 312.345 465.715 312.537 465.968 312.795C466.221 313.05 466.347 313.379 466.347 313.782C466.347 314.112 466.252 314.408 466.062 314.668C465.874 314.928 465.611 315.133 465.274 315.284C464.936 315.434 464.543 315.509 464.095 315.509C463.507 315.509 463.02 315.381 462.634 315.126C462.249 314.871 462.005 314.498 461.902 314.007L462.743 313.797C462.823 314.107 462.975 314.34 463.198 314.495C463.423 314.65 463.717 314.728 464.08 314.728C464.493 314.728 464.821 314.64 465.063 314.465C465.309 314.288 465.431 314.075 465.431 313.827C465.431 313.627 465.361 313.459 465.221 313.324C465.081 313.186 464.866 313.084 464.575 313.016L463.614 312.791C463.086 312.666 462.698 312.472 462.45 312.209C462.205 311.944 462.083 311.612 462.083 311.214C462.083 310.889 462.174 310.601 462.357 310.351C462.542 310.1 462.793 309.904 463.111 309.761C463.432 309.619 463.794 309.547 464.2 309.547C464.77 309.547 465.218 309.672 465.544 309.923C465.872 310.173 466.104 310.503 466.242 310.914Z" fill="#767676"/>
<path d="M456.859 311.92V315.389H455.973V309.622H456.829V310.523H456.904C457.039 310.231 457.244 309.995 457.519 309.818C457.795 309.637 458.15 309.547 458.586 309.547C458.976 309.547 459.318 309.627 459.61 309.788C459.903 309.945 460.131 310.186 460.294 310.508C460.456 310.829 460.538 311.234 460.538 311.725V315.389H459.652V311.785C459.652 311.332 459.534 310.979 459.299 310.726C459.064 310.471 458.741 310.343 458.33 310.343C458.047 310.343 457.795 310.405 457.572 310.527C457.352 310.65 457.178 310.829 457.05 311.064C456.922 311.299 456.859 311.585 456.859 311.92Z" fill="#767676"/>
<path d="M452.007 315.509C451.487 315.509 451.03 315.385 450.637 315.137C450.247 314.889 449.941 314.543 449.721 314.097C449.503 313.652 449.395 313.131 449.395 312.536C449.395 311.935 449.503 311.411 449.721 310.963C449.941 310.515 450.247 310.167 450.637 309.919C451.03 309.671 451.487 309.547 452.007 309.547C452.528 309.547 452.983 309.671 453.374 309.919C453.767 310.167 454.072 310.515 454.29 310.963C454.51 311.411 454.62 311.935 454.62 312.536C454.62 313.131 454.51 313.652 454.29 314.097C454.072 314.543 453.767 314.889 453.374 315.137C452.983 315.385 452.528 315.509 452.007 315.509ZM452.007 314.713C452.403 314.713 452.728 314.612 452.983 314.409C453.239 314.206 453.428 313.94 453.55 313.609C453.673 313.279 453.734 312.921 453.734 312.536C453.734 312.15 453.673 311.791 453.55 311.458C453.428 311.125 453.239 310.856 452.983 310.651C452.728 310.446 452.403 310.343 452.007 310.343C451.612 310.343 451.287 310.446 451.031 310.651C450.776 310.856 450.587 311.125 450.464 311.458C450.342 311.791 450.281 312.15 450.281 312.536C450.281 312.921 450.342 313.279 450.464 313.609C450.587 313.94 450.776 314.206 451.031 314.409C451.287 314.612 451.612 314.713 452.007 314.713Z" fill="#767676"/>
<path d="M448.226 310.914L447.431 311.139C447.381 311.006 447.307 310.878 447.209 310.752C447.114 310.625 446.984 310.52 446.819 310.437C446.653 310.354 446.442 310.313 446.184 310.313C445.831 310.313 445.537 310.395 445.302 310.557C445.069 310.717 444.953 310.921 444.953 311.169C444.953 311.389 445.033 311.563 445.193 311.691C445.353 311.819 445.604 311.925 445.944 312.01L446.8 312.22C447.315 312.345 447.7 312.537 447.952 312.795C448.205 313.05 448.332 313.379 448.332 313.782C448.332 314.112 448.236 314.408 448.046 314.668C447.859 314.928 447.596 315.133 447.258 315.284C446.92 315.434 446.527 315.509 446.079 315.509C445.491 315.509 445.004 315.381 444.619 315.126C444.233 314.871 443.989 314.498 443.887 314.007L444.728 313.797C444.808 314.107 444.959 314.34 445.182 314.495C445.407 314.65 445.701 314.728 446.064 314.728C446.477 314.728 446.805 314.64 447.048 314.465C447.293 314.288 447.416 314.075 447.416 313.827C447.416 313.627 447.345 313.459 447.205 313.324C447.065 313.186 446.85 313.084 446.56 313.016L445.599 312.791C445.071 312.666 444.683 312.472 444.435 312.209C444.19 311.944 444.067 311.612 444.067 311.214C444.067 310.889 444.158 310.601 444.341 310.351C444.526 310.1 444.778 309.904 445.096 309.761C445.416 309.619 445.779 309.547 446.184 309.547C446.755 309.547 447.203 309.672 447.528 309.923C447.856 310.173 448.089 310.503 448.226 310.914Z" fill="#767676"/>
<path d="M440.209 315.389V309.622H441.065V310.493H441.125C441.23 310.208 441.42 309.976 441.696 309.799C441.971 309.621 442.281 309.532 442.627 309.532C442.692 309.532 442.773 309.533 442.871 309.536C442.968 309.538 443.042 309.542 443.092 309.547V310.448C443.062 310.441 442.993 310.429 442.886 310.414C442.781 310.397 442.669 310.388 442.552 310.388C442.271 310.388 442.021 310.447 441.801 310.565C441.583 310.68 441.41 310.84 441.283 311.045C441.158 311.248 441.095 311.479 441.095 311.74V315.389H440.209Z" fill="#767676"/>
<path d="M436.473 315.509C435.917 315.509 435.438 315.386 435.035 315.141C434.635 314.893 434.326 314.548 434.108 314.105C433.893 313.659 433.785 313.141 433.785 312.551C433.785 311.96 433.893 311.439 434.108 310.989C434.326 310.536 434.629 310.183 435.017 309.93C435.407 309.675 435.862 309.547 436.383 309.547C436.683 309.547 436.98 309.597 437.273 309.698C437.566 309.798 437.832 309.96 438.072 310.186C438.313 310.408 438.504 310.704 438.647 311.072C438.789 311.439 438.861 311.892 438.861 312.431V312.806H434.416V312.04H437.96C437.96 311.715 437.895 311.424 437.765 311.169C437.637 310.914 437.454 310.712 437.216 310.565C436.981 310.417 436.703 310.343 436.383 310.343C436.03 310.343 435.725 310.431 435.467 310.606C435.212 310.779 435.015 311.004 434.878 311.282C434.74 311.56 434.671 311.857 434.671 312.175V312.686C434.671 313.121 434.746 313.49 434.896 313.793C435.049 314.094 435.261 314.323 435.531 314.48C435.801 314.635 436.115 314.713 436.473 314.713C436.706 314.713 436.916 314.68 437.104 314.615C437.294 314.548 437.458 314.448 437.596 314.315C437.733 314.18 437.84 314.012 437.915 313.812L438.771 314.052C438.681 314.343 438.529 314.598 438.316 314.818C438.104 315.036 437.841 315.206 437.528 315.329C437.215 315.449 436.864 315.509 436.473 315.509Z" fill="#767676"/>
<path d="M427.613 317.551V309.622H428.469V310.538H428.574C428.639 310.438 428.729 310.311 428.845 310.156C428.962 309.998 429.13 309.858 429.348 309.735C429.568 309.61 429.866 309.547 430.241 309.547C430.727 309.547 431.155 309.669 431.525 309.912C431.895 310.154 432.185 310.498 432.392 310.944C432.6 311.389 432.704 311.915 432.704 312.521C432.704 313.131 432.6 313.661 432.392 314.109C432.185 314.554 431.897 314.899 431.529 315.145C431.161 315.387 430.737 315.509 430.256 315.509C429.886 315.509 429.589 315.448 429.366 315.325C429.144 315.2 428.972 315.058 428.852 314.901C428.732 314.741 428.639 314.608 428.574 314.503H428.499V317.551H427.613ZM428.484 312.506C428.484 312.941 428.548 313.325 428.676 313.658C428.803 313.988 428.99 314.247 429.235 314.435C429.48 314.62 429.781 314.713 430.136 314.713C430.506 314.713 430.816 314.615 431.063 314.42C431.314 314.222 431.501 313.957 431.626 313.624C431.754 313.289 431.818 312.916 431.818 312.506C431.818 312.1 431.755 311.735 431.63 311.409C431.508 311.082 431.321 310.823 431.071 310.632C430.823 310.44 430.511 310.343 430.136 310.343C429.776 310.343 429.473 310.435 429.228 310.617C428.982 310.797 428.797 311.05 428.672 311.376C428.547 311.698 428.484 312.075 428.484 312.506Z" fill="#767676"/>
<path d="M420.25 315.509C419.77 315.509 419.346 315.387 418.978 315.145C418.61 314.899 418.322 314.554 418.114 314.108C417.907 313.66 417.803 313.131 417.803 312.52C417.803 311.915 417.907 311.389 418.114 310.944C418.322 310.498 418.611 310.154 418.982 309.911C419.352 309.669 419.78 309.547 420.265 309.547C420.641 309.547 420.937 309.61 421.155 309.735C421.375 309.858 421.543 309.998 421.658 310.155C421.776 310.311 421.867 310.438 421.932 310.538H422.007V307.7H422.893V315.389H422.037V314.503H421.932C421.867 314.608 421.775 314.74 421.654 314.901C421.534 315.058 421.363 315.2 421.14 315.325C420.917 315.447 420.621 315.509 420.25 315.509ZM420.371 314.713C420.726 314.713 421.026 314.62 421.272 314.435C421.517 314.247 421.703 313.988 421.831 313.658C421.959 313.325 422.022 312.941 422.022 312.505C422.022 312.075 421.96 311.698 421.835 311.375C421.71 311.05 421.524 310.797 421.279 310.617C421.034 310.434 420.731 310.343 420.371 310.343C419.995 310.343 419.682 310.439 419.432 310.632C419.184 310.822 418.998 311.081 418.873 311.409C418.75 311.735 418.689 312.1 418.689 312.505C418.689 312.916 418.751 313.289 418.876 313.624C419.004 313.957 419.192 314.222 419.44 314.42C419.69 314.615 420 314.713 420.371 314.713Z" fill="#767676"/>
<path d="M414.338 315.509C413.783 315.509 413.303 315.386 412.901 315.141C412.5 314.893 412.191 314.548 411.973 314.105C411.758 313.659 411.65 313.141 411.65 312.551C411.65 311.96 411.758 311.439 411.973 310.989C412.191 310.536 412.494 310.183 412.882 309.93C413.272 309.675 413.728 309.547 414.248 309.547C414.549 309.547 414.845 309.597 415.138 309.698C415.431 309.798 415.697 309.96 415.938 310.186C416.178 310.408 416.369 310.704 416.512 311.072C416.655 311.439 416.726 311.892 416.726 312.431V312.806H412.281V312.04H415.825C415.825 311.715 415.76 311.424 415.63 311.169C415.502 310.914 415.319 310.712 415.082 310.565C414.846 310.417 414.569 310.343 414.248 310.343C413.895 310.343 413.59 310.431 413.332 310.606C413.077 310.779 412.88 311.004 412.743 311.282C412.605 311.56 412.536 311.857 412.536 312.175V312.686C412.536 313.121 412.611 313.49 412.762 313.793C412.914 314.094 413.126 314.323 413.396 314.48C413.666 314.635 413.98 314.713 414.338 314.713C414.571 314.713 414.781 314.68 414.969 314.615C415.159 314.548 415.323 314.448 415.461 314.315C415.598 314.18 415.705 314.012 415.78 313.812L416.636 314.052C416.546 314.343 416.394 314.598 416.182 314.818C415.969 315.036 415.706 315.206 415.393 315.329C415.08 315.449 414.729 315.509 414.338 315.509Z" fill="#767676"/>
<path d="M410.482 310.914L409.686 311.139C409.636 311.006 409.563 310.878 409.465 310.752C409.37 310.625 409.24 310.52 409.075 310.437C408.909 310.354 408.698 310.313 408.44 310.313C408.087 310.313 407.793 310.395 407.558 310.557C407.325 310.717 407.209 310.921 407.209 311.169C407.209 311.389 407.289 311.563 407.449 311.691C407.609 311.819 407.859 311.925 408.2 312.01L409.056 312.22C409.571 312.345 409.955 312.537 410.208 312.795C410.461 313.05 410.587 313.379 410.587 313.782C410.587 314.112 410.492 314.408 410.302 314.668C410.114 314.928 409.852 315.133 409.514 315.284C409.176 315.434 408.783 315.509 408.335 315.509C407.747 315.509 407.26 315.381 406.875 315.126C406.489 314.871 406.245 314.498 406.143 314.007L406.983 313.797C407.064 314.107 407.215 314.34 407.438 314.495C407.663 314.65 407.957 314.728 408.32 314.728C408.733 314.728 409.061 314.64 409.304 314.465C409.549 314.288 409.671 314.075 409.671 313.827C409.671 313.627 409.601 313.459 409.461 313.324C409.321 313.186 409.106 313.084 408.815 313.016L407.854 312.791C407.326 312.666 406.938 312.472 406.691 312.209C406.445 311.944 406.323 311.612 406.323 311.214C406.323 310.889 406.414 310.601 406.597 310.351C406.782 310.1 407.034 309.904 407.351 309.761C407.672 309.619 408.035 309.547 408.44 309.547C409.011 309.547 409.459 309.672 409.784 309.923C410.112 310.173 410.345 310.503 410.482 310.914Z" fill="#767676"/>
<path d="M402.431 315.509C401.911 315.509 401.454 315.385 401.061 315.137C400.671 314.889 400.365 314.543 400.145 314.097C399.927 313.652 399.818 313.131 399.818 312.536C399.818 311.935 399.927 311.411 400.145 310.963C400.365 310.515 400.671 310.167 401.061 309.919C401.454 309.671 401.911 309.547 402.431 309.547C402.952 309.547 403.407 309.671 403.798 309.919C404.191 310.167 404.496 310.515 404.714 310.963C404.934 311.411 405.044 311.935 405.044 312.536C405.044 313.131 404.934 313.652 404.714 314.097C404.496 314.543 404.191 314.889 403.798 315.137C403.407 315.385 402.952 315.509 402.431 315.509ZM402.431 314.713C402.827 314.713 403.152 314.612 403.407 314.409C403.663 314.206 403.852 313.94 403.974 313.609C404.097 313.279 404.158 312.921 404.158 312.536C404.158 312.15 404.097 311.791 403.974 311.458C403.852 311.125 403.663 310.856 403.407 310.651C403.152 310.446 402.827 310.343 402.431 310.343C402.036 310.343 401.71 310.446 401.455 310.651C401.2 310.856 401.011 311.125 400.888 311.458C400.766 311.791 400.704 312.15 400.704 312.536C400.704 312.921 400.766 313.279 400.888 313.609C401.011 313.94 401.2 314.206 401.455 314.409C401.71 314.612 402.036 314.713 402.431 314.713Z" fill="#767676"/>
<path d="M393.648 317.551V309.622H394.504V310.538H394.609C394.675 310.438 394.765 310.311 394.88 310.156C394.997 309.998 395.165 309.858 395.383 309.735C395.603 309.61 395.901 309.547 396.276 309.547C396.762 309.547 397.19 309.669 397.56 309.912C397.931 310.154 398.22 310.498 398.427 310.944C398.635 311.389 398.739 311.915 398.739 312.521C398.739 313.131 398.635 313.661 398.427 314.109C398.22 314.554 397.932 314.899 397.564 315.145C397.196 315.387 396.772 315.509 396.291 315.509C395.921 315.509 395.624 315.448 395.402 315.325C395.179 315.2 395.007 315.058 394.887 314.901C394.767 314.741 394.675 314.608 394.609 314.503H394.534V317.551H393.648ZM394.519 312.506C394.519 312.941 394.583 313.325 394.711 313.658C394.838 313.988 395.025 314.247 395.27 314.435C395.515 314.62 395.816 314.713 396.171 314.713C396.542 314.713 396.851 314.615 397.098 314.42C397.349 314.222 397.536 313.957 397.662 313.624C397.789 313.289 397.853 312.916 397.853 312.506C397.853 312.1 397.79 311.735 397.665 311.409C397.543 311.082 397.356 310.823 397.106 310.632C396.858 310.44 396.547 310.343 396.171 310.343C395.811 310.343 395.508 310.435 395.263 310.617C395.017 310.797 394.832 311.05 394.707 311.376C394.582 311.698 394.519 312.075 394.519 312.506Z" fill="#767676"/>
<path d="M388.599 309.623L389.981 311.98L391.362 309.623H392.383L390.521 312.506L392.383 315.389H391.362L389.981 313.151L388.599 315.389H387.578L389.41 312.506L387.578 309.623H388.599Z" fill="#767676"/>
<path d="M384.36 315.509C383.804 315.509 383.325 315.386 382.922 315.141C382.522 314.893 382.212 314.548 381.995 314.105C381.779 313.659 381.672 313.141 381.672 312.551C381.672 311.96 381.779 311.439 381.995 310.989C382.212 310.536 382.515 310.183 382.903 309.93C383.294 309.675 383.749 309.547 384.27 309.547C384.57 309.547 384.867 309.597 385.159 309.698C385.452 309.798 385.719 309.96 385.959 310.186C386.199 310.408 386.391 310.704 386.533 311.072C386.676 311.439 386.747 311.892 386.747 312.431V312.806H382.303V312.04H385.846C385.846 311.715 385.781 311.424 385.651 311.169C385.524 310.914 385.341 310.712 385.103 310.565C384.868 310.417 384.59 310.343 384.27 310.343C383.917 310.343 383.611 310.431 383.354 310.606C383.098 310.779 382.902 311.004 382.764 311.282C382.627 311.56 382.558 311.857 382.558 312.175V312.686C382.558 313.121 382.633 313.49 382.783 313.793C382.936 314.094 383.147 314.323 383.418 314.48C383.688 314.635 384.002 314.713 384.36 314.713C384.593 314.713 384.803 314.68 384.991 314.615C385.181 314.548 385.345 314.448 385.482 314.315C385.62 314.18 385.726 314.012 385.801 313.812L386.657 314.052C386.567 314.343 386.416 314.598 386.203 314.818C385.99 315.036 385.728 315.206 385.415 315.329C385.102 315.449 384.75 315.509 384.36 315.509Z" fill="#767676"/>
<path d="M373.654 317.551C373.504 317.551 373.37 317.539 373.252 317.514C373.135 317.491 373.053 317.469 373.008 317.446L373.233 316.665C373.449 316.72 373.639 316.74 373.804 316.725C373.969 316.71 374.116 316.636 374.243 316.504C374.373 316.374 374.492 316.162 374.6 315.869L374.765 315.419L372.633 309.623H373.594L375.186 314.218H375.246L376.837 309.623H377.798L375.351 316.23C375.241 316.528 375.104 316.774 374.942 316.969C374.779 317.167 374.59 317.313 374.375 317.409C374.162 317.504 373.922 317.551 373.654 317.551Z" fill="#767676"/>
<path d="M371.46 307.7V315.389H370.574V307.7H371.46Z" fill="#767676"/>
<path d="M368.952 307.7V315.389H368.066V307.7H368.952Z" fill="#767676"/>
<path d="M363.807 315.524C363.442 315.524 363.11 315.455 362.812 315.317C362.514 315.177 362.278 314.976 362.103 314.713C361.927 314.448 361.84 314.127 361.84 313.752C361.84 313.422 361.905 313.154 362.035 312.949C362.165 312.741 362.339 312.578 362.557 312.461C362.775 312.343 363.015 312.255 363.278 312.198C363.543 312.138 363.809 312.09 364.077 312.055C364.428 312.01 364.712 311.976 364.929 311.954C365.15 311.929 365.31 311.887 365.41 311.83C365.513 311.772 365.564 311.672 365.564 311.53V311.499C365.564 311.129 365.463 310.841 365.26 310.636C365.06 310.431 364.756 310.328 364.348 310.328C363.925 310.328 363.593 310.421 363.353 310.606C363.112 310.791 362.944 310.989 362.846 311.199L362.005 310.899C362.155 310.548 362.355 310.276 362.606 310.08C362.858 309.883 363.134 309.745 363.432 309.667C363.732 309.587 364.027 309.547 364.318 309.547C364.503 309.547 364.715 309.57 364.956 309.615C365.199 309.657 365.433 309.746 365.658 309.881C365.886 310.017 366.074 310.221 366.225 310.493C366.375 310.766 366.45 311.132 366.45 311.59V315.389H365.564V314.608H365.519C365.459 314.733 365.359 314.867 365.219 315.01C365.078 315.152 364.892 315.274 364.659 315.374C364.426 315.474 364.142 315.524 363.807 315.524ZM363.942 314.728C364.293 314.728 364.588 314.659 364.828 314.522C365.071 314.384 365.254 314.206 365.376 313.988C365.501 313.771 365.564 313.542 365.564 313.301V312.491C365.526 312.536 365.444 312.577 365.316 312.614C365.191 312.65 365.046 312.681 364.881 312.708C364.718 312.733 364.559 312.756 364.404 312.776C364.251 312.793 364.127 312.808 364.032 312.821C363.802 312.851 363.587 312.9 363.387 312.967C363.189 313.032 363.029 313.131 362.906 313.264C362.786 313.394 362.726 313.572 362.726 313.797C362.726 314.105 362.84 314.338 363.067 314.495C363.298 314.65 363.589 314.728 363.942 314.728Z" fill="#767676"/>
<path d="M358.546 315.509C358.006 315.509 357.54 315.381 357.15 315.126C356.759 314.871 356.459 314.519 356.249 314.071C356.039 313.623 355.934 313.111 355.934 312.536C355.934 311.95 356.041 311.433 356.256 310.985C356.474 310.535 356.777 310.183 357.165 309.93C357.555 309.675 358.011 309.547 358.531 309.547C358.937 309.547 359.302 309.622 359.628 309.773C359.953 309.923 360.22 310.133 360.427 310.403C360.635 310.674 360.764 310.989 360.814 311.349H359.928C359.86 311.087 359.71 310.854 359.477 310.651C359.247 310.446 358.937 310.343 358.546 310.343C358.201 310.343 357.898 310.433 357.638 310.614C357.38 310.791 357.179 311.043 357.034 311.368C356.891 311.691 356.82 312.07 356.82 312.506C356.82 312.951 356.89 313.339 357.03 313.669C357.172 314 357.373 314.256 357.63 314.439C357.891 314.622 358.196 314.713 358.546 314.713C358.777 314.713 358.986 314.673 359.173 314.593C359.361 314.513 359.52 314.398 359.65 314.247C359.78 314.097 359.873 313.917 359.928 313.707H360.814C360.764 314.047 360.64 314.354 360.442 314.627C360.247 314.897 359.988 315.112 359.665 315.272C359.345 315.43 358.972 315.509 358.546 315.509Z" fill="#767676"/>
<path d="M353.694 315.389V309.622H354.58V315.389H353.694ZM354.144 308.661C353.972 308.661 353.823 308.602 353.698 308.485C353.575 308.367 353.514 308.226 353.514 308.061C353.514 307.895 353.575 307.754 353.698 307.636C353.823 307.519 353.972 307.46 354.144 307.46C354.317 307.46 354.465 307.519 354.587 307.636C354.712 307.754 354.775 307.895 354.775 308.061C354.775 308.226 354.712 308.367 354.587 308.485C354.465 308.602 354.317 308.661 354.144 308.661Z" fill="#767676"/>
<path d="M352.363 309.622V310.373H349.375V309.622H352.363ZM350.246 308.241H351.132V313.737C351.132 313.987 351.168 314.175 351.241 314.3C351.316 314.422 351.411 314.505 351.526 314.548C351.644 314.588 351.768 314.608 351.898 314.608C351.995 314.608 352.075 314.603 352.138 314.593C352.201 314.58 352.251 314.57 352.288 314.563L352.468 315.358C352.408 315.381 352.324 315.404 352.217 315.426C352.109 315.451 351.973 315.464 351.808 315.464C351.557 315.464 351.312 315.41 351.072 315.302C350.834 315.195 350.636 315.031 350.479 314.81C350.324 314.59 350.246 314.312 350.246 313.977V308.241Z" fill="#767676"/>
<path d="M347.346 315.389V309.622H348.232V315.389H347.346ZM347.797 308.661C347.624 308.661 347.475 308.602 347.35 308.485C347.227 308.367 347.166 308.226 347.166 308.061C347.166 307.895 347.227 307.754 347.35 307.636C347.475 307.519 347.624 307.46 347.797 307.46C347.969 307.46 348.117 307.519 348.24 307.636C348.365 307.754 348.427 307.895 348.427 308.061C348.427 308.226 348.365 308.367 348.24 308.485C348.117 308.602 347.969 308.661 347.797 308.661Z" fill="#767676"/>
<path d="M345.724 307.7V315.389H344.838V307.7H345.724Z" fill="#767676"/>
<path d="M340.873 315.509C340.352 315.509 339.895 315.385 339.502 315.137C339.112 314.889 338.807 314.543 338.586 314.097C338.369 313.652 338.26 313.131 338.26 312.536C338.26 311.935 338.369 311.411 338.586 310.963C338.807 310.515 339.112 310.167 339.502 309.919C339.895 309.671 340.352 309.547 340.873 309.547C341.393 309.547 341.849 309.671 342.239 309.919C342.632 310.167 342.937 310.515 343.155 310.963C343.375 311.411 343.485 311.935 343.485 312.536C343.485 313.131 343.375 313.652 343.155 314.097C342.937 314.543 342.632 314.889 342.239 315.137C341.849 315.385 341.393 315.509 340.873 315.509ZM340.873 314.713C341.268 314.713 341.593 314.612 341.849 314.409C342.104 314.206 342.293 313.94 342.416 313.609C342.538 313.279 342.6 312.921 342.6 312.536C342.6 312.15 342.538 311.791 342.416 311.458C342.293 311.125 342.104 310.856 341.849 310.651C341.593 310.446 341.268 310.343 340.873 310.343C340.477 310.343 340.152 310.446 339.897 310.651C339.641 310.856 339.452 311.125 339.33 311.458C339.207 311.791 339.146 312.15 339.146 312.536C339.146 312.921 339.207 313.279 339.33 313.609C339.452 313.94 339.641 314.206 339.897 314.409C340.152 314.612 340.477 314.713 340.873 314.713Z" fill="#767676"/>
<path d="M332 315.389V307.7H334.598C335.201 307.7 335.694 307.809 336.077 308.027C336.462 308.242 336.748 308.534 336.933 308.902C337.118 309.269 337.211 309.68 337.211 310.133C337.211 310.586 337.118 310.998 336.933 311.368C336.75 311.738 336.467 312.034 336.084 312.254C335.702 312.472 335.211 312.581 334.613 312.581H332.751V311.755H334.583C334.996 311.755 335.327 311.683 335.578 311.541C335.828 311.398 336.009 311.205 336.122 310.963C336.237 310.717 336.295 310.441 336.295 310.133C336.295 309.825 336.237 309.55 336.122 309.307C336.009 309.064 335.827 308.874 335.574 308.736C335.321 308.596 334.986 308.526 334.568 308.526H332.931V315.389H332Z" fill="#767676"/>
<path d="M705.897 310.169V310.912H702.941V310.169H705.897ZM703.803 308.803H704.679V314.239C704.679 314.487 704.715 314.673 704.787 314.797C704.861 314.918 704.955 315 705.069 315.042C705.186 315.081 705.308 315.101 705.437 315.101C705.534 315.101 705.613 315.096 705.675 315.086C705.737 315.074 705.786 315.064 705.823 315.056L706.001 315.844C705.942 315.866 705.859 315.888 705.753 315.911C705.646 315.935 705.511 315.948 705.348 315.948C705.1 315.948 704.858 315.895 704.62 315.788C704.385 315.682 704.189 315.519 704.033 315.302C703.88 315.084 703.803 314.809 703.803 314.477V308.803Z" fill="#767676"/>
<path d="M701.992 311.447L701.205 311.67C701.155 311.539 701.082 311.411 700.986 311.287C700.892 311.161 700.763 311.057 700.6 310.975C700.436 310.894 700.227 310.853 699.972 310.853C699.623 310.853 699.332 310.933 699.099 311.094C698.869 311.253 698.754 311.454 698.754 311.7C698.754 311.917 698.833 312.089 698.992 312.216C699.15 312.342 699.398 312.447 699.734 312.531L700.581 312.739C701.091 312.863 701.471 313.053 701.721 313.308C701.971 313.56 702.096 313.886 702.096 314.284C702.096 314.611 702.002 314.903 701.814 315.161C701.628 315.418 701.368 315.621 701.034 315.77C700.7 315.918 700.311 315.992 699.868 315.992C699.286 315.992 698.805 315.866 698.423 315.614C698.042 315.361 697.801 314.992 697.699 314.507L698.531 314.299C698.61 314.606 698.76 314.836 698.98 314.99C699.203 315.143 699.494 315.22 699.853 315.22C700.262 315.22 700.586 315.133 700.826 314.96C701.069 314.784 701.19 314.574 701.19 314.329C701.19 314.131 701.121 313.965 700.982 313.831C700.843 313.695 700.631 313.593 700.343 313.527L699.393 313.304C698.87 313.18 698.487 312.988 698.241 312.728C697.999 312.466 697.877 312.138 697.877 311.744C697.877 311.422 697.968 311.138 698.149 310.89C698.332 310.642 698.581 310.448 698.895 310.307C699.212 310.166 699.571 310.095 699.972 310.095C700.536 310.095 700.98 310.219 701.301 310.467C701.626 310.714 701.856 311.041 701.992 311.447Z" fill="#767676"/>
<path d="M695.467 315.873V310.169H696.344V315.873H695.467ZM695.913 309.219C695.742 309.219 695.595 309.16 695.471 309.044C695.35 308.928 695.289 308.788 695.289 308.624C695.289 308.461 695.35 308.321 695.471 308.205C695.595 308.088 695.742 308.03 695.913 308.03C696.084 308.03 696.23 308.088 696.351 308.205C696.475 308.321 696.537 308.461 696.537 308.624C696.537 308.788 696.475 308.928 696.351 309.044C696.23 309.16 696.084 309.219 695.913 309.219Z" fill="#767676"/>
<path d="M693.865 308.268V315.874H692.988V308.268H693.865Z" fill="#767676"/>
<path d="M687.687 312.442V315.874H686.811V308.268H687.687V311.061H687.761C687.895 310.766 688.095 310.532 688.363 310.359C688.633 310.183 688.992 310.095 689.44 310.095C689.828 310.095 690.169 310.173 690.461 310.329C690.753 310.483 690.98 310.719 691.141 311.038C691.304 311.355 691.386 311.759 691.386 312.249V315.874H690.509V312.308C690.509 311.855 690.392 311.505 690.157 311.258C689.924 311.007 689.601 310.882 689.187 310.882C688.9 310.882 688.643 310.943 688.415 311.064C688.19 311.186 688.011 311.363 687.88 311.595C687.751 311.828 687.687 312.11 687.687 312.442Z" fill="#767676"/>
<path d="M683.286 315.992C682.751 315.992 682.291 315.866 681.904 315.614C681.518 315.361 681.221 315.013 681.013 314.57C680.805 314.127 680.701 313.621 680.701 313.051C680.701 312.472 680.808 311.961 681.021 311.518C681.236 311.072 681.536 310.724 681.919 310.474C682.305 310.221 682.756 310.095 683.271 310.095C683.672 310.095 684.034 310.169 684.355 310.318C684.677 310.467 684.941 310.675 685.146 310.942C685.352 311.209 685.479 311.521 685.529 311.878H684.652C684.586 311.618 684.437 311.388 684.207 311.187C683.979 310.984 683.672 310.883 683.286 310.883C682.944 310.883 682.645 310.972 682.387 311.15C682.132 311.326 681.933 311.574 681.789 311.896C681.648 312.216 681.578 312.591 681.578 313.022C681.578 313.462 681.647 313.846 681.786 314.173C681.927 314.5 682.125 314.753 682.38 314.934C682.637 315.115 682.939 315.205 683.286 315.205C683.514 315.205 683.72 315.166 683.906 315.086C684.092 315.007 684.249 314.893 684.378 314.745C684.506 314.596 684.598 314.418 684.652 314.21H685.529C685.479 314.547 685.357 314.85 685.161 315.12C684.968 315.387 684.712 315.6 684.393 315.759C684.076 315.914 683.707 315.992 683.286 315.992Z" fill="#767676"/>
<path d="M679.712 310.169V310.912H676.756V310.169H679.712ZM677.617 308.803H678.494V314.239C678.494 314.487 678.53 314.673 678.602 314.797C678.676 314.918 678.77 315 678.884 315.042C679 315.081 679.123 315.101 679.251 315.101C679.348 315.101 679.427 315.096 679.489 315.086C679.551 315.074 679.601 315.064 679.638 315.056L679.816 315.844C679.756 315.866 679.674 315.888 679.567 315.911C679.461 315.935 679.326 315.948 679.162 315.948C678.915 315.948 678.672 315.895 678.434 315.788C678.199 315.682 678.004 315.519 677.848 315.302C677.694 315.084 677.617 314.809 677.617 314.477V308.803Z" fill="#767676"/>
<path d="M673.016 316.007C672.655 316.007 672.327 315.939 672.032 315.803C671.738 315.664 671.504 315.465 671.33 315.205C671.157 314.943 671.07 314.626 671.07 314.254C671.07 313.928 671.135 313.663 671.263 313.46C671.392 313.254 671.564 313.093 671.78 312.977C671.995 312.861 672.233 312.774 672.493 312.717C672.755 312.658 673.019 312.611 673.284 312.576C673.63 312.531 673.911 312.498 674.127 312.476C674.345 312.451 674.503 312.41 674.602 312.353C674.703 312.296 674.754 312.197 674.754 312.056V312.026C674.754 311.66 674.654 311.375 674.453 311.172C674.255 310.969 673.955 310.868 673.551 310.868C673.133 310.868 672.805 310.959 672.567 311.142C672.329 311.326 672.162 311.521 672.066 311.729L671.234 311.432C671.382 311.086 671.58 310.816 671.828 310.623C672.078 310.427 672.35 310.291 672.645 310.214C672.942 310.135 673.234 310.095 673.521 310.095C673.705 310.095 673.915 310.117 674.153 310.162C674.393 310.204 674.624 310.292 674.847 310.426C675.072 310.559 675.259 310.761 675.408 311.031C675.556 311.301 675.631 311.662 675.631 312.115V315.874H674.754V315.101H674.71C674.65 315.225 674.551 315.357 674.413 315.499C674.274 315.64 674.089 315.76 673.859 315.859C673.629 315.958 673.348 316.007 673.016 316.007ZM673.15 315.22C673.497 315.22 673.789 315.152 674.026 315.016C674.267 314.88 674.447 314.704 674.569 314.488C674.692 314.273 674.754 314.047 674.754 313.809V313.007C674.717 313.051 674.635 313.092 674.509 313.129C674.385 313.164 674.242 313.195 674.078 313.222C673.917 313.247 673.76 313.269 673.607 313.289C673.456 313.306 673.333 313.321 673.239 313.334C673.011 313.363 672.798 313.411 672.6 313.478C672.405 313.543 672.246 313.64 672.125 313.772C672.006 313.9 671.947 314.076 671.947 314.299C671.947 314.604 672.059 314.834 672.285 314.99C672.512 315.143 672.801 315.22 673.15 315.22Z" fill="#767676"/>
<path d="M664.133 315.874L662.395 310.169H663.316L664.548 314.537H664.608L665.826 310.169H666.762L667.965 314.522H668.024L669.257 310.169H670.178L668.44 315.874H667.579L666.331 311.491H666.242L664.994 315.874H664.133Z" fill="#767676"/>
<path d="M658.477 311.447L657.689 311.67C657.64 311.539 657.567 311.411 657.47 311.287C657.376 311.161 657.247 311.057 657.084 310.975C656.921 310.894 656.711 310.853 656.456 310.853C656.107 310.853 655.816 310.933 655.584 311.094C655.353 311.253 655.238 311.454 655.238 311.7C655.238 311.917 655.317 312.089 655.476 312.216C655.634 312.342 655.882 312.447 656.219 312.531L657.065 312.739C657.575 312.863 657.955 313.053 658.205 313.308C658.456 313.56 658.581 313.886 658.581 314.284C658.581 314.611 658.486 314.903 658.298 315.161C658.113 315.418 657.853 315.621 657.518 315.77C657.184 315.918 656.796 315.992 656.352 315.992C655.771 315.992 655.289 315.866 654.908 315.614C654.526 315.361 654.285 314.992 654.184 314.507L655.015 314.299C655.095 314.606 655.244 314.836 655.465 314.99C655.688 315.143 655.979 315.22 656.338 315.22C656.746 315.22 657.07 315.133 657.31 314.96C657.553 314.784 657.674 314.574 657.674 314.329C657.674 314.131 657.605 313.965 657.466 313.831C657.328 313.695 657.115 313.593 656.828 313.527L655.877 313.304C655.355 313.18 654.971 312.988 654.726 312.728C654.483 312.466 654.362 312.138 654.362 311.744C654.362 311.422 654.452 311.138 654.633 310.89C654.816 310.642 655.065 310.448 655.379 310.307C655.696 310.166 656.055 310.095 656.456 310.095C657.021 310.095 657.464 310.219 657.786 310.467C658.11 310.714 658.34 311.041 658.477 311.447Z" fill="#767676"/>
<path d="M649.195 312.442V315.874H648.318V310.169H649.165V311.061H649.239C649.373 310.771 649.576 310.538 649.848 310.363C650.121 310.184 650.472 310.095 650.903 310.095C651.289 310.095 651.627 310.174 651.917 310.333C652.207 310.489 652.432 310.727 652.593 311.046C652.754 311.363 652.834 311.764 652.834 312.249V315.874H651.958V312.309C651.958 311.86 651.841 311.511 651.609 311.261C651.376 311.009 651.057 310.883 650.651 310.883C650.371 310.883 650.121 310.943 649.9 311.064C649.683 311.186 649.51 311.363 649.384 311.596C649.258 311.828 649.195 312.11 649.195 312.442Z" fill="#767676"/>
<path d="M644.395 315.992C643.88 315.992 643.428 315.87 643.04 315.625C642.654 315.38 642.351 315.037 642.134 314.596C641.918 314.155 641.811 313.64 641.811 313.051C641.811 312.457 641.918 311.938 642.134 311.495C642.351 311.052 642.654 310.708 643.04 310.463C643.428 310.218 643.88 310.095 644.395 310.095C644.91 310.095 645.361 310.218 645.747 310.463C646.136 310.708 646.438 311.052 646.653 311.495C646.871 311.938 646.98 312.457 646.98 313.051C646.98 313.64 646.871 314.155 646.653 314.596C646.438 315.037 646.136 315.38 645.747 315.625C645.361 315.87 644.91 315.992 644.395 315.992ZM644.395 315.205C644.786 315.205 645.108 315.105 645.361 314.904C645.613 314.704 645.8 314.44 645.922 314.113C646.043 313.787 646.104 313.433 646.104 313.051C646.104 312.67 646.043 312.315 645.922 311.985C645.8 311.656 645.613 311.39 645.361 311.187C645.108 310.984 644.786 310.883 644.395 310.883C644.004 310.883 643.682 310.984 643.43 311.187C643.177 311.39 642.99 311.656 642.869 311.985C642.748 312.315 642.687 312.67 642.687 313.051C642.687 313.433 642.748 313.787 642.869 314.113C642.99 314.44 643.177 314.704 643.43 314.904C643.682 315.105 644.004 315.205 644.395 315.205Z" fill="#767676"/>
<path d="M639.596 315.873V310.169H640.473V315.873H639.596ZM640.042 309.219C639.871 309.219 639.724 309.16 639.6 309.044C639.479 308.928 639.418 308.788 639.418 308.624C639.418 308.461 639.479 308.321 639.6 308.205C639.724 308.088 639.871 308.03 640.042 308.03C640.213 308.03 640.359 308.088 640.48 308.205C640.604 308.321 640.666 308.461 640.666 308.624C640.666 308.788 640.604 308.928 640.48 309.044C640.359 309.16 640.213 309.219 640.042 309.219Z" fill="#767676"/>
<path d="M638.278 310.169V310.912H635.322V310.169H638.278ZM636.184 308.803H637.06V314.239C637.06 314.487 637.096 314.673 637.168 314.797C637.242 314.918 637.336 315 637.45 315.042C637.567 315.081 637.689 315.101 637.818 315.101C637.914 315.101 637.994 315.096 638.055 315.086C638.117 315.074 638.167 315.064 638.204 315.056L638.382 315.844C638.323 315.866 638.24 315.888 638.133 315.911C638.027 315.935 637.892 315.948 637.729 315.948C637.481 315.948 637.239 315.895 637.001 315.788C636.766 315.682 636.57 315.519 636.414 315.302C636.261 315.084 636.184 314.809 636.184 314.477V308.803Z" fill="#767676"/>
<path d="M632.274 315.992C631.739 315.992 631.279 315.866 630.893 315.614C630.506 315.361 630.209 315.013 630.001 314.57C629.793 314.127 629.689 313.621 629.689 313.051C629.689 312.472 629.796 311.961 630.009 311.518C630.224 311.072 630.524 310.724 630.908 310.474C631.294 310.221 631.744 310.095 632.259 310.095C632.66 310.095 633.022 310.169 633.344 310.318C633.666 310.467 633.929 310.675 634.135 310.942C634.34 311.209 634.468 311.521 634.517 311.878H633.641C633.574 311.618 633.425 311.388 633.195 311.187C632.967 310.984 632.66 310.883 632.274 310.883C631.932 310.883 631.633 310.972 631.375 311.15C631.12 311.326 630.921 311.574 630.778 311.896C630.636 312.216 630.566 312.591 630.566 313.022C630.566 313.462 630.635 313.846 630.774 314.173C630.915 314.5 631.113 314.753 631.368 314.934C631.625 315.115 631.928 315.205 632.274 315.205C632.502 315.205 632.709 315.166 632.894 315.086C633.08 315.007 633.237 314.893 633.366 314.745C633.495 314.596 633.586 314.418 633.641 314.21H634.517C634.468 314.547 634.345 314.85 634.15 315.12C633.956 315.387 633.7 315.6 633.381 315.759C633.064 315.914 632.695 315.992 632.274 315.992Z" fill="#767676"/>
<path d="M624.716 312.442V315.874H623.84V310.169H624.687V311.061H624.761C624.895 310.771 625.098 310.538 625.37 310.363C625.642 310.184 625.994 310.095 626.425 310.095C626.811 310.095 627.149 310.174 627.438 310.333C627.728 310.489 627.953 310.727 628.114 311.046C628.275 311.363 628.356 311.764 628.356 312.249V315.874H627.479V312.309C627.479 311.86 627.363 311.511 627.13 311.261C626.897 311.009 626.578 310.883 626.172 310.883C625.892 310.883 625.642 310.943 625.422 311.064C625.204 311.186 625.032 311.363 624.906 311.596C624.779 311.828 624.716 312.11 624.716 312.442Z" fill="#767676"/>
<path d="M619.626 316.007C619.264 316.007 618.936 315.939 618.642 315.803C618.347 315.664 618.113 315.465 617.94 315.205C617.766 314.943 617.68 314.626 617.68 314.254C617.68 313.928 617.744 313.663 617.873 313.46C618.002 313.254 618.174 313.093 618.389 312.977C618.604 312.861 618.842 312.774 619.102 312.717C619.364 312.658 619.628 312.611 619.893 312.576C620.24 312.531 620.521 312.498 620.736 312.476C620.954 312.451 621.112 312.41 621.211 312.353C621.313 312.296 621.364 312.197 621.364 312.056V312.026C621.364 311.66 621.263 311.375 621.063 311.172C620.865 310.969 620.564 310.868 620.16 310.868C619.742 310.868 619.414 310.959 619.176 311.142C618.939 311.326 618.771 311.521 618.675 311.729L617.843 311.432C617.992 311.086 618.19 310.816 618.437 310.623C618.687 310.427 618.96 310.291 619.254 310.214C619.551 310.135 619.844 310.095 620.131 310.095C620.314 310.095 620.524 310.117 620.762 310.162C621.002 310.204 621.234 310.292 621.456 310.426C621.682 310.559 621.869 310.761 622.017 311.031C622.166 311.301 622.24 311.662 622.24 312.115V315.874H621.364V315.101H621.319C621.26 315.225 621.161 315.357 621.022 315.499C620.883 315.64 620.699 315.76 620.469 315.859C620.238 315.958 619.957 316.007 619.626 316.007ZM619.759 315.22C620.106 315.22 620.398 315.152 620.636 315.016C620.876 314.88 621.057 314.704 621.178 314.488C621.302 314.273 621.364 314.047 621.364 313.809V313.007C621.326 313.051 621.245 313.092 621.119 313.129C620.995 313.164 620.851 313.195 620.688 313.222C620.527 313.247 620.37 313.269 620.216 313.289C620.065 313.306 619.943 313.321 619.848 313.334C619.621 313.363 619.408 313.411 619.21 313.478C619.014 313.543 618.856 313.64 618.734 313.772C618.616 313.9 618.556 314.076 618.556 314.299C618.556 314.604 618.669 314.834 618.894 314.99C619.122 315.143 619.41 315.22 619.759 315.22Z" fill="#767676"/>
<path d="M616.523 311.447L615.736 311.67C615.687 311.539 615.614 311.411 615.517 311.287C615.423 311.161 615.294 311.057 615.131 310.975C614.967 310.894 614.758 310.853 614.503 310.853C614.154 310.853 613.863 310.933 613.631 311.094C613.4 311.253 613.285 311.454 613.285 311.7C613.285 311.917 613.364 312.089 613.523 312.216C613.681 312.342 613.929 312.447 614.266 312.531L615.112 312.739C615.622 312.863 616.002 313.053 616.252 313.308C616.502 313.56 616.627 313.886 616.627 314.284C616.627 314.611 616.533 314.903 616.345 315.161C616.159 315.418 615.9 315.621 615.565 315.77C615.231 315.918 614.842 315.992 614.399 315.992C613.817 315.992 613.336 315.866 612.955 315.614C612.573 315.361 612.332 314.992 612.23 314.507L613.062 314.299C613.142 314.606 613.291 314.836 613.512 314.99C613.734 315.143 614.025 315.22 614.384 315.22C614.793 315.22 615.117 315.133 615.357 314.96C615.6 314.784 615.721 314.574 615.721 314.329C615.721 314.131 615.652 313.965 615.513 313.831C615.375 313.695 615.162 313.593 614.875 313.527L613.924 313.304C613.402 313.18 613.018 312.988 612.773 312.728C612.53 312.466 612.409 312.138 612.409 311.744C612.409 311.422 612.499 311.138 612.68 310.89C612.863 310.642 613.112 310.448 613.426 310.307C613.743 310.166 614.102 310.095 614.503 310.095C615.068 310.095 615.511 310.219 615.833 310.467C616.157 310.714 616.387 311.041 616.523 311.447Z" fill="#767676"/>
<path d="M607.937 308.268V315.874H607.061V308.268H607.937Z" fill="#767676"/>
<path d="M602.844 316.007C602.483 316.007 602.155 315.939 601.86 315.803C601.566 315.664 601.332 315.465 601.158 315.205C600.985 314.943 600.898 314.626 600.898 314.254C600.898 313.928 600.963 313.663 601.092 313.46C601.22 313.254 601.392 313.093 601.608 312.977C601.823 312.861 602.061 312.774 602.321 312.717C602.583 312.658 602.847 312.611 603.112 312.576C603.458 312.531 603.739 312.498 603.955 312.476C604.173 312.451 604.331 312.41 604.43 312.353C604.532 312.296 604.582 312.197 604.582 312.056V312.026C604.582 311.66 604.482 311.375 604.282 311.172C604.083 310.969 603.783 310.868 603.379 310.868C602.961 310.868 602.633 310.959 602.395 311.142C602.157 311.326 601.99 311.521 601.894 311.729L601.062 311.432C601.21 311.086 601.408 310.816 601.656 310.623C601.906 310.427 602.178 310.291 602.473 310.214C602.77 310.135 603.062 310.095 603.349 310.095C603.533 310.095 603.743 310.117 603.981 310.162C604.221 310.204 604.452 310.292 604.675 310.426C604.9 310.559 605.087 310.761 605.236 311.031C605.385 311.301 605.459 311.662 605.459 312.115V315.874H604.582V315.101H604.538C604.478 315.225 604.379 315.357 604.241 315.499C604.102 315.64 603.918 315.76 603.687 315.859C603.457 315.958 603.176 316.007 602.844 316.007ZM602.978 315.22C603.325 315.22 603.617 315.152 603.854 315.016C604.095 314.88 604.275 314.704 604.397 314.488C604.52 314.273 604.582 314.047 604.582 313.809V313.007C604.545 313.051 604.464 313.092 604.337 313.129C604.213 313.164 604.07 313.195 603.906 313.222C603.746 313.247 603.588 313.269 603.435 313.289C603.284 313.306 603.161 313.321 603.067 313.334C602.839 313.363 602.627 313.411 602.428 313.478C602.233 313.543 602.074 313.64 601.953 313.772C601.834 313.9 601.775 314.076 601.775 314.299C601.775 314.604 601.888 314.834 602.113 314.99C602.341 315.143 602.629 315.22 602.978 315.22Z" fill="#767676"/>
<path d="M594.789 315.874V308.268H595.665V311.076H595.74C595.804 310.977 595.893 310.85 596.007 310.697C596.123 310.541 596.289 310.402 596.505 310.281C596.723 310.157 597.017 310.095 597.389 310.095C597.869 310.095 598.292 310.215 598.659 310.455C599.025 310.696 599.311 311.036 599.517 311.477C599.722 311.917 599.825 312.437 599.825 313.036C599.825 313.64 599.722 314.164 599.517 314.607C599.311 315.048 599.026 315.39 598.662 315.632C598.298 315.872 597.879 315.992 597.403 315.992C597.037 315.992 596.744 315.932 596.523 315.81C596.303 315.687 596.133 315.547 596.015 315.391C595.896 315.232 595.804 315.101 595.74 314.997H595.636V315.874H594.789ZM595.651 313.022C595.651 313.452 595.714 313.832 595.84 314.162C595.966 314.488 596.151 314.745 596.393 314.93C596.636 315.114 596.933 315.205 597.285 315.205C597.651 315.205 597.957 315.109 598.202 314.915C598.449 314.72 598.635 314.457 598.759 314.128C598.885 313.796 598.948 313.428 598.948 313.022C598.948 312.62 598.886 312.259 598.763 311.937C598.641 311.613 598.457 311.357 598.209 311.168C597.964 310.978 597.656 310.882 597.285 310.882C596.928 310.882 596.629 310.973 596.386 311.154C596.143 311.332 595.96 311.582 595.836 311.904C595.713 312.223 595.651 312.596 595.651 313.022Z" fill="#767676"/>
<path d="M590.749 315.992C590.234 315.992 589.782 315.87 589.393 315.625C589.007 315.38 588.705 315.037 588.487 314.596C588.272 314.155 588.164 313.64 588.164 313.051C588.164 312.457 588.272 311.938 588.487 311.495C588.705 311.052 589.007 310.708 589.393 310.463C589.782 310.218 590.234 310.095 590.749 310.095C591.264 310.095 591.714 310.218 592.101 310.463C592.489 310.708 592.791 311.052 593.007 311.495C593.225 311.938 593.333 312.457 593.333 313.051C593.333 313.64 593.225 314.155 593.007 314.596C592.791 315.037 592.489 315.38 592.101 315.625C591.714 315.87 591.264 315.992 590.749 315.992ZM590.749 315.205C591.14 315.205 591.462 315.105 591.714 314.904C591.967 314.704 592.154 314.44 592.275 314.113C592.396 313.787 592.457 313.433 592.457 313.051C592.457 312.67 592.396 312.315 592.275 311.985C592.154 311.656 591.967 311.39 591.714 311.187C591.462 310.984 591.14 310.883 590.749 310.883C590.358 310.883 590.036 310.984 589.783 311.187C589.531 311.39 589.344 311.656 589.222 311.985C589.101 312.315 589.04 312.67 589.04 313.051C589.04 313.433 589.101 313.787 589.222 314.113C589.344 314.44 589.531 314.704 589.783 314.904C590.036 315.105 590.358 315.205 590.749 315.205Z" fill="#767676"/>
<path d="M586.828 308.268V315.874H585.951V308.268H586.828Z" fill="#767676"/>
<path d="M583.496 310.645C583.414 310.395 583.307 310.171 583.173 309.973C583.042 309.772 582.885 309.601 582.701 309.46C582.521 309.319 582.315 309.211 582.085 309.137C581.855 309.063 581.602 309.026 581.327 309.026C580.877 309.026 580.467 309.142 580.098 309.375C579.729 309.607 579.436 309.95 579.218 310.403C579 310.856 578.891 311.412 578.891 312.071C578.891 312.729 579.001 313.285 579.222 313.738C579.442 314.191 579.74 314.534 580.117 314.767C580.493 315 580.916 315.116 581.387 315.116C581.823 315.116 582.206 315.023 582.538 314.837C582.872 314.649 583.132 314.384 583.318 314.043C583.506 313.699 583.6 313.294 583.6 312.828L583.882 312.888H581.595V312.071H584.491V312.888C584.491 313.514 584.358 314.059 584.09 314.522C583.825 314.985 583.459 315.344 582.991 315.599C582.526 315.851 581.991 315.978 581.387 315.978C580.713 315.978 580.122 315.819 579.612 315.502C579.104 315.185 578.708 314.735 578.423 314.15C578.141 313.566 578 312.873 578 312.071C578 311.469 578.08 310.928 578.241 310.448C578.405 309.965 578.635 309.554 578.932 309.215C579.229 308.876 579.581 308.616 579.987 308.435C580.393 308.254 580.84 308.164 581.327 308.164C581.728 308.164 582.102 308.225 582.449 308.346C582.798 308.465 583.109 308.634 583.381 308.855C583.656 309.073 583.885 309.334 584.068 309.638C584.251 309.94 584.378 310.276 584.447 310.645H583.496Z" fill="#767676"/>
<path d="M621.756 275.259C620.908 275.259 620.154 275.114 619.495 274.823C618.839 274.533 618.321 274.128 617.94 273.61C617.56 273.092 617.358 272.493 617.334 271.814H619.548C619.568 272.14 619.676 272.425 619.872 272.668C620.068 272.908 620.329 273.094 620.655 273.227C620.981 273.361 621.346 273.428 621.75 273.428C622.182 273.428 622.565 273.353 622.898 273.204C623.232 273.051 623.493 272.839 623.681 272.568C623.87 272.297 623.962 271.985 623.958 271.632C623.962 271.267 623.868 270.945 623.676 270.666C623.483 270.387 623.205 270.17 622.839 270.013C622.478 269.855 622.043 269.777 621.532 269.777H620.467V268.093H621.532C621.952 268.093 622.319 268.02 622.633 267.875C622.951 267.73 623.201 267.526 623.381 267.263C623.562 266.996 623.65 266.688 623.646 266.338C623.65 265.997 623.574 265.7 623.417 265.449C623.263 265.194 623.046 264.996 622.763 264.854C622.484 264.713 622.156 264.642 621.78 264.642C621.411 264.642 621.069 264.709 620.755 264.843C620.441 264.976 620.188 265.167 619.995 265.414C619.803 265.657 619.701 265.948 619.689 266.285H617.587C617.603 265.61 617.797 265.017 618.17 264.507C618.547 263.993 619.049 263.592 619.677 263.306C620.306 263.015 621.01 262.87 621.791 262.87C622.596 262.87 623.295 263.021 623.888 263.324C624.484 263.622 624.945 264.024 625.271 264.531C625.597 265.037 625.76 265.596 625.76 266.209C625.764 266.888 625.564 267.457 625.159 267.916C624.759 268.376 624.233 268.676 623.581 268.817V268.911C624.429 269.029 625.079 269.343 625.53 269.854C625.986 270.36 626.211 270.99 626.208 271.744C626.208 272.419 626.015 273.023 625.63 273.557C625.25 274.087 624.724 274.503 624.052 274.806C623.385 275.108 622.62 275.259 621.756 275.259Z" fill="#4D4D4D"/>
<path d="M610.827 275.324C609.858 275.324 609.026 275.078 608.331 274.588C607.64 274.093 607.108 273.381 606.735 272.45C606.366 271.516 606.182 270.391 606.182 269.076C606.186 267.761 606.372 266.642 606.741 265.72C607.114 264.794 607.646 264.087 608.337 263.6C609.032 263.113 609.862 262.87 610.827 262.87C611.793 262.87 612.623 263.113 613.318 263.6C614.013 264.087 614.545 264.794 614.914 265.72C615.287 266.646 615.473 267.765 615.473 269.076C615.473 270.395 615.287 271.522 614.914 272.456C614.545 273.386 614.013 274.097 613.318 274.588C612.627 275.078 611.797 275.324 610.827 275.324ZM610.827 273.481C611.581 273.481 612.176 273.11 612.612 272.368C613.051 271.622 613.271 270.525 613.271 269.076C613.271 268.118 613.171 267.314 612.971 266.662C612.771 266.01 612.488 265.52 612.123 265.19C611.758 264.856 611.326 264.69 610.827 264.69C610.078 264.69 609.485 265.062 609.049 265.808C608.613 266.55 608.394 267.64 608.39 269.076C608.386 270.038 608.482 270.847 608.678 271.502C608.878 272.158 609.161 272.652 609.526 272.986C609.891 273.316 610.325 273.481 610.827 273.481Z" fill="#4D4D4D"/>
<path d="M596.071 275.094V273.516L600.257 269.412C600.658 269.008 600.991 268.648 601.258 268.334C601.525 268.02 601.725 267.716 601.859 267.422C601.992 267.127 602.059 266.813 602.059 266.48C602.059 266.099 601.973 265.773 601.8 265.502C601.627 265.227 601.39 265.015 601.087 264.866C600.785 264.717 600.442 264.642 600.057 264.642C599.661 264.642 599.313 264.725 599.015 264.89C598.716 265.051 598.485 265.28 598.32 265.579C598.159 265.877 598.079 266.232 598.079 266.644H596C596 265.879 596.175 265.214 596.524 264.648C596.873 264.083 597.354 263.645 597.967 263.335C598.583 263.025 599.29 262.87 600.086 262.87C600.895 262.87 601.606 263.021 602.218 263.324C602.83 263.626 603.305 264.04 603.643 264.566C603.984 265.092 604.155 265.693 604.155 266.368C604.155 266.819 604.069 267.263 603.896 267.698C603.723 268.134 603.419 268.617 602.983 269.147C602.552 269.677 601.945 270.319 601.164 271.072L599.085 273.186V273.269H604.338V275.094H596.071Z" fill="#4D4D4D"/>
<path d="M589.468 275.324C588.498 275.324 587.666 275.078 586.971 274.588C586.281 274.093 585.749 273.381 585.376 272.45C585.007 271.516 584.822 270.391 584.822 269.076C584.826 267.761 585.013 266.642 585.382 265.72C585.755 264.794 586.286 264.087 586.977 263.6C587.672 263.113 588.502 262.87 589.468 262.87C590.434 262.87 591.264 263.113 591.959 263.6C592.654 264.087 593.185 264.794 593.554 265.72C593.927 266.646 594.114 267.765 594.114 269.076C594.114 270.395 593.927 271.522 593.554 272.456C593.185 273.386 592.654 274.097 591.959 274.588C591.268 275.078 590.438 275.324 589.468 275.324ZM589.468 273.481C590.222 273.481 590.816 273.11 591.252 272.368C591.692 271.622 591.912 270.525 591.912 269.076C591.912 268.118 591.812 267.314 591.611 266.662C591.411 266.01 591.129 265.52 590.763 265.19C590.398 264.856 589.967 264.69 589.468 264.69C588.718 264.69 588.126 265.062 587.69 265.808C587.254 266.55 587.034 267.64 587.03 269.076C587.026 270.038 587.123 270.847 587.319 271.502C587.519 272.158 587.802 272.652 588.167 272.986C588.532 273.316 588.966 273.481 589.468 273.481Z" fill="#4D4D4D"/>
<path d="M578.409 275.324C577.44 275.324 576.608 275.078 575.913 274.588C575.222 274.093 574.69 273.381 574.317 272.45C573.948 271.516 573.764 270.391 573.764 269.076C573.768 267.761 573.954 266.642 574.323 265.72C574.696 264.794 575.228 264.087 575.919 263.6C576.614 263.113 577.444 262.87 578.409 262.87C579.375 262.87 580.205 263.113 580.9 263.6C581.595 264.087 582.127 264.794 582.496 265.72C582.869 266.646 583.055 267.765 583.055 269.076C583.055 270.395 582.869 271.522 582.496 272.456C582.127 273.386 581.595 274.097 580.9 274.588C580.209 275.078 579.379 275.324 578.409 275.324ZM578.409 273.481C579.163 273.481 579.758 273.11 580.194 272.368C580.633 271.622 580.853 270.525 580.853 269.076C580.853 268.118 580.753 267.314 580.553 266.662C580.353 266.01 580.07 265.52 579.705 265.19C579.34 264.856 578.908 264.69 578.409 264.69C577.66 264.69 577.067 265.062 576.631 265.808C576.196 266.55 575.976 267.64 575.972 269.076C575.968 270.038 576.064 270.847 576.26 271.502C576.46 272.158 576.743 272.652 577.108 272.986C577.473 273.316 577.907 273.481 578.409 273.481Z" fill="#4D4D4D"/>
<path d="M570.892 263.035V275.094H568.708V265.161H568.637L565.816 266.963V264.961L568.814 263.035H570.892Z" fill="#4D4D4D"/>
<path d="M562.925 263.035V275.094H560.741V265.161H560.67L557.85 266.963V264.961L560.847 263.035H562.925Z" fill="#4D4D4D"/>
<path d="M551.917 275.094L553.896 263.035H555.544L553.566 275.094H551.917ZM546.482 271.985L546.759 270.337H556.039L555.762 271.985H546.482ZM547.678 275.094L549.656 263.035H551.305L549.326 275.094H547.678ZM547.183 267.793L547.454 266.144H556.734L556.463 267.793H547.183Z" fill="#4D4D4D"/>
<path d="M536.682 275.094V266.049H538.748V267.557H538.843C539.007 267.035 539.29 266.632 539.691 266.35C540.095 266.063 540.556 265.92 541.074 265.92C541.192 265.92 541.324 265.926 541.469 265.938C541.618 265.945 541.742 265.959 541.84 265.979V267.94C541.749 267.908 541.606 267.881 541.41 267.857C541.218 267.83 541.031 267.816 540.85 267.816C540.462 267.816 540.113 267.9 539.802 268.069C539.496 268.234 539.255 268.464 539.078 268.758C538.901 269.052 538.813 269.392 538.813 269.777V275.094H536.682Z" fill="#4D4D4D"/>
<path d="M530.861 275.27C529.955 275.27 529.171 275.082 528.512 274.705C527.856 274.324 527.352 273.787 526.999 273.092C526.645 272.393 526.469 271.571 526.469 270.625C526.469 269.694 526.645 268.878 526.999 268.175C527.356 267.468 527.854 266.919 528.494 266.526C529.134 266.13 529.886 265.932 530.749 265.932C531.307 265.932 531.833 266.022 532.328 266.202C532.826 266.379 533.266 266.654 533.646 267.027C534.031 267.4 534.333 267.875 534.553 268.452C534.773 269.025 534.883 269.708 534.883 270.501V271.154H527.47V269.718H532.84C532.836 269.31 532.748 268.946 532.575 268.628C532.402 268.307 532.161 268.053 531.851 267.869C531.544 267.684 531.187 267.592 530.779 267.592C530.343 267.592 529.96 267.698 529.631 267.91C529.301 268.118 529.044 268.393 528.859 268.734C528.679 269.072 528.587 269.443 528.583 269.847V271.101C528.583 271.628 528.679 272.079 528.871 272.456C529.063 272.829 529.332 273.115 529.678 273.315C530.023 273.512 530.428 273.61 530.891 273.61C531.201 273.61 531.482 273.567 531.733 273.48C531.984 273.39 532.202 273.259 532.386 273.086C532.571 272.913 532.71 272.699 532.804 272.444L534.795 272.668C534.669 273.194 534.43 273.653 534.076 274.046C533.727 274.434 533.279 274.736 532.734 274.952C532.188 275.164 531.564 275.27 530.861 275.27Z" fill="#4D4D4D"/>
<path d="M524.904 268.44L522.961 268.652C522.906 268.456 522.81 268.271 522.673 268.099C522.539 267.926 522.358 267.786 522.131 267.68C521.903 267.574 521.624 267.521 521.295 267.521C520.851 267.521 520.478 267.618 520.176 267.81C519.878 268.002 519.73 268.252 519.734 268.558C519.73 268.821 519.827 269.035 520.023 269.2C520.223 269.364 520.553 269.5 521.012 269.606L522.555 269.936C523.411 270.12 524.046 270.413 524.463 270.813C524.883 271.213 525.095 271.737 525.098 272.385C525.095 272.954 524.928 273.457 524.598 273.892C524.272 274.324 523.819 274.662 523.238 274.905C522.657 275.149 521.989 275.27 521.236 275.27C520.129 275.27 519.238 275.039 518.563 274.576C517.887 274.108 517.485 273.459 517.355 272.627L519.434 272.426C519.528 272.835 519.728 273.143 520.035 273.351C520.341 273.559 520.739 273.663 521.23 273.663C521.736 273.663 522.143 273.559 522.449 273.351C522.759 273.143 522.914 272.886 522.914 272.579C522.914 272.32 522.814 272.106 522.614 271.938C522.417 271.769 522.111 271.639 521.695 271.549L520.152 271.225C519.285 271.045 518.643 270.74 518.227 270.312C517.811 269.881 517.605 269.335 517.609 268.676C517.605 268.118 517.756 267.635 518.062 267.227C518.372 266.815 518.802 266.497 519.352 266.273C519.905 266.045 520.543 265.932 521.265 265.932C522.325 265.932 523.159 266.157 523.768 266.609C524.38 267.06 524.759 267.671 524.904 268.44Z" fill="#4D4D4D"/>
<path d="M513.291 263.035H515.476V270.914C515.476 271.777 515.272 272.537 514.863 273.192C514.459 273.848 513.89 274.36 513.156 274.729C512.422 275.094 511.564 275.277 510.583 275.277C509.597 275.277 508.738 275.094 508.004 274.729C507.269 274.36 506.7 273.848 506.296 273.192C505.892 272.537 505.689 271.777 505.689 270.914V263.035H507.874V270.731C507.874 271.234 507.984 271.681 508.204 272.074C508.427 272.466 508.742 272.774 509.146 272.998C509.55 273.218 510.029 273.328 510.583 273.328C511.136 273.328 511.615 273.218 512.019 272.998C512.428 272.774 512.742 272.466 512.961 272.074C513.181 271.681 513.291 271.234 513.291 270.731V263.035Z" fill="#4D4D4D"/>
<path d="M537.641 220.376C537.641 204.808 550.261 192.188 565.829 192.188C581.396 192.188 594.017 204.808 594.017 220.376C594.017 235.944 581.396 248.564 565.829 248.564C550.261 248.564 537.641 235.944 537.641 220.376Z" fill="#D9D9D9"/>
<mask id="mask0_1015_13069" style="mask-type:alpha" maskUnits="userSpaceOnUse" x="547" y="207" width="38" height="49">
<path d="M575.778 217.06C575.778 222.554 571.324 227.008 565.83 227.008C560.335 227.008 555.881 222.554 555.881 217.06C555.881 211.565 560.335 207.111 565.83 207.111C571.324 207.111 575.778 211.565 575.778 217.06Z" fill="#F4F4F4"/>
<path d="M547.59 236.957C547.59 231.462 552.044 227.008 557.539 227.008H574.12C579.614 227.008 584.068 231.462 584.068 236.957V255.196H547.59V236.957Z" fill="#F4F4F4"/>
</mask>
<g mask="url(#mask0_1015_13069)">
<path d="M537.641 220.376C537.641 204.808 550.261 192.188 565.829 192.188C581.396 192.188 594.017 204.808 594.017 220.376C594.017 235.943 581.396 248.564 565.829 248.564C550.261 248.564 537.641 235.943 537.641 220.376Z" fill="#F6F6F6"/>
</g>
<path d="M330.377 341.316C330.377 338.569 332.604 336.342 335.351 336.342H545.932C548.68 336.342 550.907 338.569 550.907 341.316V366.794C550.907 369.541 548.68 371.768 545.932 371.768H335.351C332.604 371.768 330.377 369.541 330.377 366.794V341.316Z" fill="white"/>
<path d="M329.547 366.794V341.316C329.547 338.111 332.145 335.513 335.35 335.513V336.342L335.094 336.348C332.466 336.481 330.376 338.655 330.376 341.316V366.794L330.382 367.049C330.511 369.593 332.551 371.633 335.094 371.761L335.35 371.768H545.931L546.187 371.761C548.731 371.633 550.771 369.593 550.899 367.049L550.906 366.794V341.316C550.906 338.655 548.816 336.481 546.187 336.348L545.931 336.342V335.513C549.137 335.513 551.735 338.111 551.735 341.316V366.794C551.735 369.999 549.137 372.597 545.931 372.597H335.35C332.145 372.597 329.547 369.999 329.547 366.794ZM545.931 335.513V336.342H335.35V335.513H545.931Z" fill="#C3C3C3"/>
<path d="M337.463 354.055C337.463 345.739 344.204 338.999 352.519 338.999C360.834 338.999 367.575 345.739 367.575 354.055C367.575 362.37 360.834 369.111 352.519 369.111C344.204 369.111 337.463 362.37 337.463 354.055Z" fill="#D9D9D9"/>
<mask id="mask1_1015_13069" style="mask-type:alpha" maskUnits="userSpaceOnUse" x="342" y="346" width="21" height="27">
<path d="M357.831 352.283C357.831 355.218 355.452 357.597 352.517 357.597C349.582 357.597 347.203 355.218 347.203 352.283C347.203 349.348 349.582 346.969 352.517 346.969C355.452 346.969 357.831 349.348 357.831 352.283Z" fill="#F4F4F4"/>
<path d="M342.775 367.339C342.775 361.959 347.137 357.597 352.518 357.597C357.898 357.597 362.26 361.959 362.26 367.339V372.653H342.775V367.339Z" fill="#F4F4F4"/>
</mask>
<g mask="url(#mask1_1015_13069)">
<path d="M337.463 354.055C337.463 345.739 344.204 338.999 352.519 338.999C360.834 338.999 367.575 345.739 367.575 354.055C367.575 362.37 360.834 369.111 352.519 369.111C344.204 369.111 337.463 362.37 337.463 354.055Z" fill="#F6F6F6"/>
</g>
<path d="M375.145 341.316H446.444V346.29H375.145V341.316Z" fill="#D9D9D9"/>
<path d="M453.076 341.316H481.264V346.29H453.076V341.316Z" fill="#D9D9D9"/>
<path d="M375.145 349.607H423.23V354.581H375.145V349.607Z" fill="#D9D9D9"/>
<path d="M429.863 349.607H451.419V354.581H429.863V349.607Z" fill="#D9D9D9"/>
<path d="M458.051 349.607H467.999V354.581H458.051V349.607Z" fill="#D9D9D9"/>
<path d="M375.145 357.897H396.7V362.872H375.145V357.897Z" fill="#D9D9D9"/>
<path d="M403.334 357.897H438.154V362.872H403.334V357.897Z" fill="#D9D9D9"/>
<path d="M579.094 341.316C579.094 338.569 581.321 336.342 584.068 336.342H794.649C797.397 336.342 799.624 338.569 799.624 341.316V366.794C799.624 369.541 797.397 371.768 794.649 371.768H584.068C581.321 371.768 579.094 369.541 579.094 366.794V341.316Z" fill="white"/>
<path d="M578.266 366.794V341.316C578.266 338.111 580.864 335.513 584.069 335.513V336.342L583.813 336.348C581.185 336.481 579.095 338.655 579.095 341.316V366.794L579.101 367.049C579.23 369.593 581.269 371.633 583.813 371.761L584.069 371.768H794.65L794.906 371.761C797.45 371.633 799.489 369.593 799.618 367.049L799.625 366.794V341.316C799.625 338.655 797.534 336.481 794.906 336.348L794.65 336.342V335.513C797.855 335.513 800.454 338.111 800.454 341.316V366.794C800.454 369.999 797.855 372.597 794.65 372.597H584.069C580.864 372.597 578.266 369.999 578.266 366.794ZM794.65 335.513V336.342H584.069V335.513H794.65Z" fill="#FF0004"/>
<path d="M586.18 354.055C586.18 345.739 592.921 338.999 601.236 338.999C609.551 338.999 616.292 345.739 616.292 354.055C616.292 362.37 609.551 369.111 601.236 369.111C592.921 369.111 586.18 362.37 586.18 354.055Z" fill="#D9D9D9"/>
<mask id="mask2_1015_13069" style="mask-type:alpha" maskUnits="userSpaceOnUse" x="591" y="346" width="20" height="27">
<path d="M606.55 352.283C606.55 355.218 604.171 357.597 601.236 357.597C598.301 357.597 595.922 355.218 595.922 352.283C595.922 349.348 598.301 346.969 601.236 346.969C604.171 346.969 606.55 349.348 606.55 352.283Z" fill="#F4F4F4"/>
<path d="M591.494 367.339C591.494 361.959 595.856 357.597 601.236 357.597C606.617 357.597 610.979 361.959 610.979 367.339V372.653H591.494V367.339Z" fill="#F4F4F4"/>
</mask>
<g mask="url(#mask2_1015_13069)">
<path d="M586.18 354.055C586.18 345.739 592.921 338.999 601.236 338.999C609.551 338.999 616.292 345.739 616.292 354.055C616.292 362.37 609.551 369.111 601.236 369.111C592.921 369.111 586.18 362.37 586.18 354.055Z" fill="#F6F6F6"/>
</g>
<path d="M623.863 341.316H695.162V346.29H623.863V341.316Z" fill="#D9D9D9"/>
<path d="M701.795 341.316H729.983V346.29H701.795V341.316Z" fill="#D9D9D9"/>
<path d="M623.863 349.607H671.949V354.581H623.863V349.607Z" fill="#D9D9D9"/>
<path d="M678.582 349.607H700.138V354.581H678.582V349.607Z" fill="#D9D9D9"/>
<path d="M706.77 349.607H716.718V354.581H706.77V349.607Z" fill="#D9D9D9"/>
<path d="M623.863 357.897H645.419V362.872H623.863V357.897Z" fill="#D9D9D9"/>
<path d="M652.051 357.897H686.871V362.872H652.051V357.897Z" fill="#D9D9D9"/>
<path d="M781.131 347.044C781.711 346.039 783.161 346.039 783.741 347.044L791.574 360.611C792.154 361.616 791.429 362.872 790.269 362.872H774.603C773.443 362.872 772.718 361.616 773.298 360.611L781.131 347.044Z" fill="#FF9320"/>
<path d="M782.939 351.117L782.844 358.121H781.74L781.645 351.117H782.939ZM782.292 360.938C782.057 360.938 781.856 360.854 781.688 360.686C781.52 360.518 781.436 360.316 781.436 360.082C781.436 359.847 781.52 359.645 781.688 359.477C781.856 359.309 782.057 359.225 782.292 359.225C782.527 359.225 782.728 359.309 782.896 359.477C783.064 359.645 783.148 359.847 783.148 360.082C783.148 360.237 783.109 360.38 783.03 360.51C782.953 360.64 782.85 360.745 782.72 360.824C782.593 360.9 782.451 360.938 782.292 360.938Z" fill="white"/>
<path d="M330.377 394.376C330.377 391.628 332.604 389.401 335.351 389.401H545.932C548.68 389.401 550.907 391.628 550.907 394.376V419.854C550.907 422.601 548.68 424.828 545.932 424.828H335.351C332.604 424.828 330.377 422.601 330.377 419.854V394.376Z" fill="white"/>
<path d="M329.547 419.853V394.376C329.547 391.171 332.145 388.572 335.35 388.572V389.401L335.094 389.408C332.466 389.541 330.376 391.714 330.376 394.376V419.853L330.382 420.109C330.511 422.653 332.551 424.692 335.094 424.821L335.35 424.827H545.931L546.187 424.821C548.731 424.692 550.771 422.653 550.899 420.109L550.906 419.853V394.376C550.906 391.714 548.816 389.541 546.187 389.408L545.931 389.401V388.572C549.137 388.572 551.735 391.171 551.735 394.376V419.853C551.735 423.058 549.137 425.657 545.931 425.657H335.35C332.145 425.657 329.547 423.058 329.547 419.853ZM545.931 388.572V389.401H335.35V388.572H545.931Z" fill="#FF0004"/>
<path d="M337.463 407.114C337.463 398.799 344.204 392.058 352.519 392.058C360.834 392.058 367.575 398.799 367.575 407.114C367.575 415.43 360.834 422.171 352.519 422.171C344.204 422.171 337.463 415.43 337.463 407.114Z" fill="#D9D9D9"/>
<mask id="mask3_1015_13069" style="mask-type:alpha" maskUnits="userSpaceOnUse" x="342" y="400" width="21" height="26">
<path d="M357.831 405.343C357.831 408.278 355.452 410.657 352.517 410.657C349.582 410.657 347.203 408.278 347.203 405.343C347.203 402.408 349.582 400.029 352.517 400.029C355.452 400.029 357.831 402.408 357.831 405.343Z" fill="#F4F4F4"/>
<path d="M342.775 420.399C342.775 415.019 347.137 410.657 352.518 410.657C357.898 410.657 362.26 415.019 362.26 420.399V425.713H342.775V420.399Z" fill="#F4F4F4"/>
</mask>
<g mask="url(#mask3_1015_13069)">
<path d="M337.463 407.114C337.463 398.799 344.204 392.058 352.519 392.058C360.834 392.058 367.575 398.799 367.575 407.114C367.575 415.43 360.834 422.171 352.519 422.171C344.204 422.171 337.463 415.43 337.463 407.114Z" fill="#F6F6F6"/>
</g>
<path d="M375.145 394.376H446.444V399.35H375.145V394.376Z" fill="#D9D9D9"/>
<path d="M453.076 394.376H481.264V399.35H453.076V394.376Z" fill="#D9D9D9"/>
<path d="M375.145 402.667H423.23V407.641H375.145V402.667Z" fill="#D9D9D9"/>
<path d="M429.863 402.667H451.419V407.641H429.863V402.667Z" fill="#D9D9D9"/>
<path d="M458.051 402.667H467.999V407.641H458.051V402.667Z" fill="#D9D9D9"/>
<path d="M375.145 410.957H396.7V415.931H375.145V410.957Z" fill="#D9D9D9"/>
<path d="M403.334 410.957H438.154V415.931H403.334V410.957Z" fill="#D9D9D9"/>
<path d="M532.414 400.104C532.994 399.099 534.444 399.099 535.025 400.104L542.857 413.67C543.437 414.675 542.712 415.931 541.552 415.931H525.887C524.726 415.931 524.001 414.675 524.581 413.67L532.414 400.104Z" fill="#FF9320"/>
<path d="M534.222 404.177L534.127 411.181H533.023L532.928 404.177H534.222ZM533.575 413.998C533.34 413.998 533.139 413.914 532.971 413.745C532.803 413.577 532.719 413.376 532.719 413.141C532.719 412.906 532.803 412.705 532.971 412.537C533.139 412.369 533.34 412.285 533.575 412.285C533.81 412.285 534.011 412.369 534.18 412.537C534.348 412.705 534.432 412.906 534.432 413.141C534.432 413.297 534.392 413.439 534.313 413.569C534.237 413.699 534.134 413.804 534.003 413.883C533.877 413.96 533.734 413.998 533.575 413.998Z" fill="white"/>
<path d="M579.094 394.376C579.094 391.628 581.321 389.401 584.068 389.401H794.649C797.397 389.401 799.624 391.628 799.624 394.376V419.854C799.624 422.601 797.397 424.828 794.649 424.828H584.068C581.321 424.828 579.094 422.601 579.094 419.854V394.376Z" fill="white"/>
<path d="M578.266 419.853V394.376C578.266 391.171 580.864 388.572 584.069 388.572V389.401L583.813 389.408C581.185 389.541 579.095 391.714 579.095 394.376V419.853L579.101 420.109C579.23 422.653 581.269 424.692 583.813 424.821L584.069 424.827H794.65L794.906 424.821C797.45 424.692 799.489 422.653 799.618 420.109L799.625 419.853V394.376C799.625 391.714 797.534 389.541 794.906 389.408L794.65 389.401V388.572C797.855 388.572 800.454 391.171 800.454 394.376V419.853C800.454 423.058 797.855 425.657 794.65 425.657H584.069C580.864 425.657 578.266 423.058 578.266 419.853ZM794.65 388.572V389.401H584.069V388.572H794.65Z" fill="#C3C3C3"/>
<path d="M586.18 407.114C586.18 398.799 592.921 392.058 601.236 392.058C609.551 392.058 616.292 398.799 616.292 407.114C616.292 415.43 609.551 422.171 601.236 422.171C592.921 422.171 586.18 415.43 586.18 407.114Z" fill="#D9D9D9"/>
<mask id="mask4_1015_13069" style="mask-type:alpha" maskUnits="userSpaceOnUse" x="591" y="400" width="20" height="26">
<path d="M606.55 405.343C606.55 408.278 604.171 410.657 601.236 410.657C598.301 410.657 595.922 408.278 595.922 405.343C595.922 402.408 598.301 400.029 601.236 400.029C604.171 400.029 606.55 402.408 606.55 405.343Z" fill="#F4F4F4"/>
<path d="M591.494 420.399C591.494 415.019 595.856 410.657 601.236 410.657C606.617 410.657 610.979 415.019 610.979 420.399V425.713H591.494V420.399Z" fill="#F4F4F4"/>
</mask>
<g mask="url(#mask4_1015_13069)">
<path d="M586.18 407.114C586.18 398.799 592.921 392.058 601.236 392.058C609.551 392.058 616.292 398.799 616.292 407.114C616.292 415.43 609.551 422.171 601.236 422.171C592.921 422.171 586.18 415.43 586.18 407.114Z" fill="#F6F6F6"/>
</g>
<path d="M623.863 394.376H695.162V399.35H623.863V394.376Z" fill="#D9D9D9"/>
<path d="M701.795 394.376H729.983V399.35H701.795V394.376Z" fill="#D9D9D9"/>
<path d="M623.863 402.667H671.949V407.641H623.863V402.667Z" fill="#D9D9D9"/>
<path d="M678.582 402.667H700.138V407.641H678.582V402.667Z" fill="#D9D9D9"/>
<path d="M706.77 402.667H716.718V407.641H706.77V402.667Z" fill="#D9D9D9"/>
<path d="M623.863 410.957H645.419V415.931H623.863V410.957Z" fill="#D9D9D9"/>
<path d="M652.051 410.957H686.871V415.931H652.051V410.957Z" fill="#D9D9D9"/>
<path d="M330.377 447.436C330.377 444.689 332.604 442.461 335.351 442.461H545.932C548.68 442.461 550.907 444.689 550.907 447.436V472.914C550.907 475.661 548.68 477.888 545.932 477.888H335.351C332.604 477.888 330.377 475.661 330.377 472.914V447.436Z" fill="white"/>
<path d="M329.547 472.913V447.436C329.547 444.231 332.145 441.632 335.35 441.632V442.461L335.094 442.468C332.466 442.601 330.376 444.774 330.376 447.436V472.913L330.382 473.169C330.511 475.713 332.551 477.752 335.094 477.881L335.35 477.888H545.931L546.187 477.881C548.731 477.752 550.771 475.713 550.899 473.169L550.906 472.913V447.436C550.906 444.774 548.816 442.601 546.187 442.468L545.931 442.461V441.632C549.137 441.632 551.735 444.231 551.735 447.436V472.913C551.735 476.118 549.137 478.717 545.931 478.717H335.35C332.145 478.717 329.547 476.118 329.547 472.913ZM545.931 441.632V442.461H335.35V441.632H545.931Z" fill="#C3C3C3"/>
<path d="M337.463 460.174C337.463 451.859 344.204 445.118 352.519 445.118C360.834 445.118 367.575 451.859 367.575 460.174C367.575 468.49 360.834 475.231 352.519 475.231C344.204 475.231 337.463 468.49 337.463 460.174Z" fill="#D9D9D9"/>
<mask id="mask5_1015_13069" style="mask-type:alpha" maskUnits="userSpaceOnUse" x="342" y="453" width="21" height="26">
<path d="M357.831 458.403C357.831 461.338 355.452 463.717 352.517 463.717C349.582 463.717 347.203 461.338 347.203 458.403C347.203 455.468 349.582 453.089 352.517 453.089C355.452 453.089 357.831 455.468 357.831 458.403Z" fill="#F4F4F4"/>
<path d="M342.775 473.459C342.775 468.079 347.137 463.717 352.518 463.717C357.898 463.717 362.26 468.079 362.26 473.459V478.773H342.775V473.459Z" fill="#F4F4F4"/>
</mask>
<g mask="url(#mask5_1015_13069)">
<path d="M337.463 460.174C337.463 451.859 344.204 445.118 352.519 445.118C360.834 445.118 367.575 451.859 367.575 460.174C367.575 468.49 360.834 475.231 352.519 475.231C344.204 475.231 337.463 468.49 337.463 460.174Z" fill="#F6F6F6"/>
</g>
<path d="M375.145 447.436H446.444V452.41H375.145V447.436Z" fill="#D9D9D9"/>
<path d="M453.076 447.436H481.264V452.41H453.076V447.436Z" fill="#D9D9D9"/>
<path d="M375.145 455.727H423.23V460.701H375.145V455.727Z" fill="#D9D9D9"/>
<path d="M429.863 455.727H451.419V460.701H429.863V455.727Z" fill="#D9D9D9"/>
<path d="M458.051 455.727H467.999V460.701H458.051V455.727Z" fill="#D9D9D9"/>
<path d="M375.145 464.017H396.7V468.991H375.145V464.017Z" fill="#D9D9D9"/>
<path d="M403.334 464.017H438.154V468.991H403.334V464.017Z" fill="#D9D9D9"/>
<path d="M579.094 447.436C579.094 444.689 581.321 442.461 584.068 442.461H794.649C797.397 442.461 799.624 444.689 799.624 447.436V472.914C799.624 475.661 797.397 477.888 794.649 477.888H584.068C581.321 477.888 579.094 475.661 579.094 472.914V447.436Z" fill="white"/>
<path d="M578.266 472.913V447.436C578.266 444.231 580.864 441.632 584.069 441.632V442.461L583.813 442.468C581.185 442.601 579.095 444.774 579.095 447.436V472.913L579.101 473.169C579.23 475.713 581.269 477.752 583.813 477.881L584.069 477.888H794.65L794.906 477.881C797.45 477.752 799.489 475.713 799.618 473.169L799.625 472.913V447.436C799.625 444.774 797.534 442.601 794.906 442.468L794.65 442.461V441.632C797.855 441.632 800.454 444.231 800.454 447.436V472.913C800.454 476.118 797.855 478.717 794.65 478.717H584.069C580.864 478.717 578.266 476.118 578.266 472.913ZM794.65 441.632V442.461H584.069V441.632H794.65Z" fill="#C3C3C3"/>
<path d="M586.18 460.174C586.18 451.859 592.921 445.118 601.236 445.118C609.551 445.118 616.292 451.859 616.292 460.174C616.292 468.49 609.551 475.231 601.236 475.231C592.921 475.231 586.18 468.49 586.18 460.174Z" fill="#D9D9D9"/>
<mask id="mask6_1015_13069" style="mask-type:alpha" maskUnits="userSpaceOnUse" x="591" y="453" width="20" height="26">
<path d="M606.55 458.403C606.55 461.338 604.171 463.717 601.236 463.717C598.301 463.717 595.922 461.338 595.922 458.403C595.922 455.468 598.301 453.089 601.236 453.089C604.171 453.089 606.55 455.468 606.55 458.403Z" fill="#F4F4F4"/>
<path d="M591.494 473.459C591.494 468.079 595.856 463.717 601.236 463.717C606.617 463.717 610.979 468.079 610.979 473.459V478.773H591.494V473.459Z" fill="#F4F4F4"/>
</mask>
<g mask="url(#mask6_1015_13069)">
<path d="M586.18 460.174C586.18 451.859 592.921 445.118 601.236 445.118C609.551 445.118 616.292 451.859 616.292 460.174C616.292 468.49 609.551 475.231 601.236 475.231C592.921 475.231 586.18 468.49 586.18 460.174Z" fill="#F6F6F6"/>
</g>
<path d="M623.863 447.436H695.162V452.41H623.863V447.436Z" fill="#D9D9D9"/>
<path d="M701.795 447.436H729.983V452.41H701.795V447.436Z" fill="#D9D9D9"/>
<path d="M623.863 455.727H671.949V460.701H623.863V455.727Z" fill="#D9D9D9"/>
<path d="M678.582 455.727H700.138V460.701H678.582V455.727Z" fill="#D9D9D9"/>
<path d="M706.77 455.727H716.718V460.701H706.77V455.727Z" fill="#D9D9D9"/>
<path d="M623.863 464.017H645.419V468.991H623.863V464.017Z" fill="#D9D9D9"/>
<path d="M652.051 464.017H686.871V468.991H652.051V464.017Z" fill="#D9D9D9"/>
<path d="M564.585 393.547V368.675C564.585 360.662 571.081 354.167 579.093 354.167V354.996C571.538 354.996 565.414 361.12 565.414 368.675V393.547C565.414 401.102 559.289 407.226 551.734 407.226V406.397C558.831 406.397 564.585 400.644 564.585 393.547Z" fill="#FF0004"/>
</g>
<defs>
<filter id="filter0_d_1015_13069" x="234" y="142" width="662" height="437" filterUnits="userSpaceOnUse" color-interpolation-filters="sRGB">
<feFlood flood-opacity="0" result="BackgroundImageFix"/>
<feColorMatrix in="SourceAlpha" type="matrix" values="0 0 0 0 0 0 0 0 0 0 0 0 0 0 0 0 0 0 127 0" result="hardAlpha"/>
<feOffset dy="20"/>
<feGaussianBlur stdDeviation="20"/>
<feComposite in2="hardAlpha" operator="out"/>
<feColorMatrix type="matrix" values="0 0 0 0 0.0784314 0 0 0 0 0.0196078 0 0 0 0 0.301961 0 0 0 0.15 0"/>
<feBlend mode="normal" in2="BackgroundImageFix" result="effect1_dropShadow_1015_13069"/>
<feBlend mode="normal" in="SourceGraphic" in2="effect1_dropShadow_1015_13069" result="shape"/>
</filter>
</defs>
</svg>
