<svg width="1133" height="680" viewBox="0 0 1133 680" fill="none" xmlns="http://www.w3.org/2000/svg">
<rect x="1" width="1130" height="680" fill="#F2F2F2"/>
<path d="M2 340H1131" stroke="#C6C6C6" stroke-width="3" stroke-linecap="square" stroke-linejoin="round"/>
<g filter="url(#filter0_d_1098_21376)">
<path d="M163 196.757C163 186.95 170.958 179 180.775 179H952.225C962.042 179 970 186.95 970 196.757V483.243C970 493.05 962.042 501 952.225 501H180.775C170.958 501 163 493.05 163 483.243V196.757Z" fill="white"/>
</g>
<path d="M952.225 498.632V501H180.775V498.632H952.225ZM967.63 483.243V196.757C967.63 188.391 960.947 181.583 952.623 181.372L952.225 181.368H180.775C172.267 181.368 165.37 188.258 165.37 196.757V483.243C165.37 491.742 172.267 498.632 180.775 498.632V501L180.317 500.994C170.864 500.755 163.245 493.144 163.006 483.7L163 483.243V196.757C163 187.103 170.712 179.249 180.317 179.006L180.775 179H952.225L952.683 179.006C962.288 179.249 970 187.103 970 196.757V483.243L969.994 483.7C969.755 493.144 962.136 500.755 952.683 500.994L952.225 501V498.632C960.733 498.632 967.63 491.742 967.63 483.243Z" fill="#F0F0F0"/>
<g clip-path="url(#clip0_1098_21376)">
<path d="M901 251H231C219.954 251 211 259.954 211 271V410C211 421.046 219.954 430 231 430H901C912.046 430 921 421.046 921 410V271C921 259.954 912.046 251 901 251Z" fill="#14054D"/>
<path d="M421.902 276.108H429.494C430.999 276.108 432.211 276.532 433.129 277.38C434.057 278.227 434.511 279.414 434.511 280.95C434.511 282.269 434.095 283.418 433.271 284.398C432.448 285.378 431.189 285.868 429.485 285.868H424.183V293.009H421.883V276.117L421.902 276.108ZM430.819 278.435C430.318 278.199 429.627 278.077 428.746 278.077H424.202V283.927H428.746C429.769 283.927 430.602 283.71 431.245 283.268C431.88 282.834 432.201 282.062 432.201 280.96C432.201 279.716 431.747 278.877 430.829 278.425L430.819 278.435Z" fill="white"/>
<path d="M438.316 280.685H440.295V282.814C440.456 282.4 440.853 281.901 441.488 281.298C442.122 280.704 442.851 280.403 443.675 280.403C443.712 280.403 443.779 280.403 443.873 280.412C443.968 280.412 444.119 280.431 444.347 280.459V282.645C444.224 282.626 444.11 282.607 444.006 282.598C443.902 282.598 443.788 282.588 443.665 282.588C442.614 282.588 441.81 282.927 441.251 283.596C440.693 284.265 440.409 285.038 440.409 285.914V292.999H438.326V280.685H438.316Z" fill="white"/>
<path d="M456.176 281.918C457.274 282.973 457.814 284.528 457.814 286.581C457.814 288.635 457.331 290.208 456.366 291.499C455.4 292.79 453.904 293.44 451.878 293.44C450.184 293.44 448.849 292.865 447.855 291.725C446.861 290.585 446.359 289.04 446.359 287.109C446.359 285.036 446.88 283.397 447.931 282.172C448.982 280.948 450.383 280.335 452.153 280.335C453.734 280.335 455.078 280.863 456.167 281.918H456.176ZM454.889 290.105C455.4 289.069 455.646 287.91 455.646 286.638C455.646 285.489 455.466 284.556 455.097 283.84C454.52 282.709 453.516 282.144 452.106 282.144C450.847 282.144 449.938 282.625 449.36 283.595C448.792 284.556 448.499 285.724 448.499 287.09C448.499 288.456 448.783 289.492 449.36 290.369C449.928 291.245 450.837 291.678 452.077 291.678C453.44 291.678 454.378 291.16 454.879 290.124L454.889 290.105Z" fill="white"/>
<path d="M462.459 280.685L465.763 290.709L469.209 280.685H471.49L466.833 292.998H464.618L460.055 280.685H462.469H462.459Z" fill="white"/>
<path d="M474.328 276.108H476.439V278.454H474.328V276.108ZM474.328 280.743H476.439V293H474.328V280.743Z" fill="white"/>
<path d="M487.447 281.062C487.816 281.288 488.233 281.693 488.706 282.268V276.05H490.704V292.999H488.829V291.284C488.346 292.047 487.769 292.593 487.116 292.933C486.453 293.272 485.696 293.441 484.844 293.441C483.471 293.441 482.278 292.867 481.275 291.708C480.271 290.549 479.77 289.023 479.77 287.101C479.77 285.311 480.224 283.756 481.142 282.438C482.06 281.119 483.367 280.469 485.071 280.469C486.018 280.469 486.803 280.666 487.438 281.062H487.447ZM482.808 290.304C483.367 291.19 484.266 291.642 485.497 291.642C486.453 291.642 487.239 291.227 487.864 290.408C488.479 289.579 488.791 288.401 488.791 286.856C488.791 285.311 488.469 284.152 487.835 283.398C487.201 282.654 486.415 282.277 485.478 282.277C484.437 282.277 483.594 282.673 482.941 283.474C482.297 284.275 481.966 285.443 481.966 286.997C481.966 288.316 482.25 289.419 482.808 290.314V290.304Z" fill="white"/>
<path d="M502.529 281.025C503.352 281.439 503.968 281.967 504.403 282.617C504.82 283.239 505.094 283.964 505.227 284.793C505.35 285.359 505.407 286.263 505.407 287.507H496.404C496.442 288.76 496.735 289.768 497.284 290.521C497.833 291.275 498.685 291.661 499.84 291.661C500.919 291.661 501.781 291.303 502.415 290.587C502.775 290.173 503.03 289.692 503.182 289.146H505.227C505.17 289.598 504.99 290.107 504.687 290.663C504.384 291.219 504.043 291.671 503.665 292.029C503.04 292.641 502.264 293.056 501.336 293.272C500.834 293.395 500.276 293.461 499.651 293.461C498.117 293.461 496.82 292.905 495.76 291.784C494.7 290.672 494.16 289.108 494.16 287.102C494.16 285.095 494.7 283.522 495.769 282.287C496.839 281.053 498.24 280.431 499.973 280.431C500.844 280.431 501.696 280.639 502.51 281.044L502.529 281.025ZM503.277 285.858C503.191 284.963 503.002 284.247 502.69 283.71C502.122 282.711 501.184 282.212 499.859 282.212C498.912 282.212 498.117 282.551 497.473 283.239C496.83 283.927 496.489 284.793 496.451 285.858H503.267H503.277Z" fill="white"/>
<path d="M509.164 280.685H511.143V282.814C511.304 282.4 511.701 281.901 512.335 281.298C512.97 280.704 513.699 280.403 514.522 280.403C514.56 280.403 514.626 280.403 514.721 280.412C514.816 280.412 514.967 280.431 515.194 280.459V282.645C515.071 282.626 514.958 282.607 514.854 282.598C514.749 282.598 514.636 282.588 514.513 282.588C513.462 282.588 512.657 282.927 512.099 283.596C511.54 284.265 511.256 285.038 511.256 285.914V292.999H509.174V280.685H509.164Z" fill="white"/>
<path d="M433.893 312.426C433.562 310.985 432.946 309.958 432.047 309.346C431.148 308.733 429.974 308.422 428.526 308.422C427.503 308.422 426.613 308.63 425.875 309.035C425.136 309.44 424.521 309.996 424.038 310.683C423.556 311.371 423.205 312.172 422.978 313.076C422.751 313.981 422.637 314.932 422.637 315.94C422.637 316.882 422.732 317.806 422.931 318.72C423.13 319.633 423.451 320.444 423.915 321.16C424.37 321.876 424.985 322.45 425.761 322.893C426.538 323.336 427.503 323.553 428.677 323.553C429.406 323.553 430.069 323.439 430.665 323.195C431.261 322.959 431.792 322.629 432.236 322.215C432.691 321.8 433.07 321.31 433.372 320.745C433.685 320.18 433.912 319.558 434.073 318.889H435.758C435.569 319.709 435.294 320.481 434.925 321.207C434.565 321.932 434.082 322.573 433.496 323.129C432.909 323.684 432.189 324.118 431.347 324.438C430.504 324.758 429.51 324.919 428.374 324.919C427.068 324.919 425.941 324.683 425.013 324.203C424.086 323.722 423.319 323.072 422.732 322.262C422.145 321.442 421.71 320.5 421.444 319.426C421.179 318.352 421.047 317.212 421.047 315.997C421.047 314.376 421.246 313.01 421.653 311.87C422.05 310.74 422.609 309.817 423.319 309.101C424.029 308.385 424.862 307.866 425.828 307.546C426.793 307.226 427.834 307.066 428.98 307.066C429.851 307.066 430.656 307.179 431.403 307.405C432.151 307.631 432.814 307.97 433.391 308.432C433.969 308.893 434.442 309.449 434.811 310.118C435.181 310.787 435.436 311.56 435.578 312.436H433.922L433.893 312.426Z" fill="white"/>
<path d="M447.8 312.255H449.22V324.456H447.8V322.76C447.611 322.977 447.402 323.203 447.166 323.438C446.929 323.674 446.655 323.89 446.352 324.088C446.049 324.286 445.689 324.446 445.272 324.588C444.865 324.719 444.392 324.785 443.852 324.785C443.029 324.785 442.347 324.672 441.789 324.446C441.24 324.22 440.795 323.9 440.454 323.495C440.113 323.09 439.867 322.609 439.715 322.072C439.564 321.535 439.488 320.942 439.488 320.292V312.255H440.908V320.263C440.908 321.318 441.154 322.119 441.647 322.675C442.139 323.231 442.944 323.514 444.061 323.514C444.648 323.514 445.168 323.4 445.632 323.174C446.096 322.948 446.484 322.628 446.806 322.223C447.118 321.818 447.365 321.328 447.535 320.763C447.705 320.197 447.8 319.576 447.8 318.897V312.255Z" fill="white"/>
<path d="M454.323 320.643C454.541 321.698 454.939 322.433 455.516 322.866C456.094 323.299 456.917 323.516 457.987 323.516C458.508 323.516 458.962 323.45 459.331 323.328C459.71 323.205 460.022 323.036 460.268 322.819C460.515 322.602 460.694 322.367 460.827 322.103C460.95 321.839 461.016 321.556 461.016 321.255C461.016 320.661 460.827 320.219 460.439 319.927C460.051 319.635 459.568 319.408 458.981 319.239C458.394 319.079 457.769 318.937 457.088 318.815C456.406 318.692 455.781 318.523 455.194 318.287C454.607 318.052 454.125 317.713 453.736 317.27C453.348 316.827 453.159 316.215 453.159 315.404C453.159 314.387 453.538 313.549 454.286 312.898C455.033 312.248 456.094 311.919 457.466 311.919C458.839 311.919 459.871 312.211 460.694 312.804C461.518 313.398 462.02 314.378 462.2 315.762H460.751C460.628 314.82 460.268 314.161 459.672 313.775C459.085 313.388 458.337 313.2 457.438 313.2C456.539 313.2 455.857 313.388 455.384 313.775C454.91 314.161 454.674 314.67 454.674 315.291C454.674 315.838 454.863 316.262 455.251 316.554C455.639 316.846 456.122 317.081 456.709 317.26C457.296 317.439 457.921 317.6 458.602 317.741C459.284 317.882 459.909 318.08 460.496 318.344C461.083 318.598 461.565 318.956 461.954 319.39C462.342 319.832 462.531 320.445 462.531 321.227C462.531 321.811 462.408 322.32 462.152 322.772C461.897 323.224 461.556 323.591 461.111 323.893C460.666 324.194 460.145 324.411 459.54 324.562C458.934 324.712 458.262 324.788 457.542 324.788C456.823 324.788 456.169 324.684 455.611 324.468C455.052 324.251 454.57 323.959 454.181 323.582C453.784 323.205 453.481 322.762 453.254 322.263C453.036 321.764 452.903 321.217 452.875 320.643H454.314H454.323Z" fill="white"/>
<path d="M470.46 324.504C470.289 324.532 470.062 324.589 469.778 324.674C469.494 324.749 469.182 324.787 468.832 324.787C468.122 324.787 467.582 324.608 467.213 324.259C466.844 323.911 466.654 323.27 466.654 322.366V313.434H464.922V312.257H466.654V308.865H468.074V312.257H470.365V313.434H468.074V321.8C468.074 322.102 468.074 322.356 468.093 322.582C468.112 322.808 468.159 322.978 468.235 323.129C468.311 323.27 468.434 323.374 468.604 323.43C468.765 323.496 469.002 323.524 469.305 323.524C469.494 323.524 469.684 323.506 469.882 323.477C470.081 323.449 470.271 323.402 470.46 323.364V324.514V324.504Z" fill="white"/>
<path d="M478.426 324.785C477.64 324.766 476.902 324.625 476.211 324.361C475.529 324.097 474.923 323.692 474.412 323.165C473.901 322.628 473.494 321.968 473.191 321.167C472.888 320.367 472.746 319.434 472.746 318.36C472.746 317.465 472.86 316.626 473.106 315.854C473.342 315.081 473.693 314.394 474.166 313.819C474.639 313.244 475.226 312.783 475.946 312.444C476.656 312.104 477.479 311.935 478.426 311.935C479.373 311.935 480.225 312.104 480.935 312.444C481.645 312.783 482.241 313.235 482.714 313.81C483.188 314.384 483.538 315.063 483.765 315.845C483.993 316.626 484.106 317.474 484.106 318.36C484.106 319.33 483.974 320.216 483.708 320.998C483.443 321.78 483.055 322.458 482.563 323.023C482.071 323.589 481.465 324.022 480.764 324.333C480.064 324.644 479.288 324.795 478.436 324.795L478.426 324.785ZM482.582 318.36C482.582 317.635 482.506 316.966 482.345 316.334C482.184 315.703 481.948 315.157 481.616 314.695C481.285 314.234 480.859 313.866 480.338 313.602C479.818 313.339 479.183 313.197 478.426 313.197C477.669 313.197 477.053 313.339 476.523 313.631C475.993 313.923 475.567 314.309 475.236 314.78C474.904 315.26 474.658 315.807 474.497 316.429C474.336 317.05 474.261 317.691 474.261 318.351C474.261 319.104 474.355 319.801 474.535 320.433C474.715 321.073 474.98 321.61 475.331 322.072C475.681 322.533 476.116 322.882 476.637 323.127C477.158 323.372 477.754 323.504 478.436 323.504C479.174 323.504 479.808 323.363 480.338 323.07C480.868 322.778 481.294 322.392 481.626 321.902C481.957 321.412 482.203 320.866 482.355 320.254C482.516 319.641 482.591 319.01 482.591 318.351L482.582 318.36Z" fill="white"/>
<path d="M488.772 324.458H487.352V312.258H488.772V314.095H488.819C489.179 313.388 489.699 312.851 490.381 312.484C491.062 312.117 491.801 311.928 492.606 311.928C493.174 311.928 493.656 311.994 494.044 312.117C494.442 312.239 494.773 312.409 495.048 312.625C495.322 312.842 495.55 313.087 495.739 313.37C495.919 313.652 496.07 313.954 496.203 314.293C496.61 313.492 497.159 312.899 497.85 312.512C498.532 312.126 499.317 311.938 500.207 311.938C501.04 311.938 501.712 312.079 502.205 312.352C502.706 312.625 503.085 312.983 503.35 313.436C503.615 313.888 503.795 314.397 503.88 314.981C503.966 315.565 504.013 316.158 504.013 316.771V324.468H502.593V316.036C502.593 315.16 502.404 314.462 502.034 313.963C501.665 313.464 500.974 313.209 499.961 313.209C499.44 313.209 498.939 313.323 498.456 313.549C497.973 313.775 497.547 314.123 497.187 314.594C497.026 314.802 496.903 315.037 496.799 315.31C496.695 315.584 496.61 315.876 496.553 316.168C496.487 316.469 496.449 316.761 496.421 317.063C496.392 317.364 496.383 317.637 496.383 317.892V324.468H494.963V316.036C494.963 315.16 494.773 314.462 494.404 313.963C494.035 313.464 493.344 313.209 492.331 313.209C491.81 313.209 491.309 313.323 490.826 313.549C490.343 313.775 489.926 314.123 489.557 314.594C489.396 314.802 489.273 315.037 489.169 315.31C489.065 315.584 488.98 315.876 488.923 316.168C488.857 316.469 488.819 316.761 488.79 317.063C488.762 317.364 488.753 317.637 488.753 317.892V324.468L488.772 324.458Z" fill="white"/>
<path d="M508.956 318.693C508.956 319.352 509.041 319.974 509.221 320.567C509.401 321.161 509.647 321.67 509.988 322.094C510.329 322.527 510.755 322.875 511.275 323.13C511.796 323.384 512.392 323.516 513.074 323.516C514.002 323.516 514.806 323.271 515.46 322.791C516.122 322.301 516.567 321.613 516.785 320.718H518.366C518.196 321.302 517.968 321.839 517.684 322.329C517.4 322.828 517.05 323.252 516.624 323.629C516.198 323.997 515.696 324.289 515.109 324.486C514.522 324.694 513.85 324.797 513.074 324.797C512.099 324.797 511.256 324.628 510.546 324.307C509.836 323.978 509.25 323.526 508.795 322.951C508.341 322.376 508 321.698 507.773 320.925C507.555 320.153 507.441 319.314 507.441 318.419C507.441 317.524 507.574 316.686 507.83 315.894C508.095 315.113 508.464 314.425 508.947 313.831C509.429 313.247 510.016 312.776 510.707 312.437C511.398 312.098 512.194 311.928 513.074 311.928C514.759 311.928 516.084 312.503 517.05 313.662C518.016 314.82 518.489 316.488 518.47 318.693H508.956ZM516.955 317.515C516.955 316.921 516.87 316.356 516.709 315.829C516.548 315.301 516.302 314.849 515.98 314.462C515.658 314.076 515.251 313.775 514.759 313.539C514.267 313.304 513.708 313.2 513.084 313.2C512.459 313.2 511.9 313.313 511.417 313.558C510.935 313.794 510.528 314.104 510.187 314.5C509.846 314.896 509.571 315.348 509.373 315.866C509.164 316.384 509.032 316.931 508.966 317.515H516.965H516.955Z" fill="white"/>
<path d="M523.561 324.455H522.141V312.255H523.561V314.544H523.608C524.006 313.574 524.507 312.896 525.132 312.509C525.757 312.123 526.58 311.935 527.603 311.935V313.461C526.798 313.442 526.136 313.574 525.615 313.838C525.094 314.102 524.678 314.469 524.375 314.921C524.072 315.373 523.854 315.91 523.74 316.532C523.627 317.154 523.561 317.804 523.561 318.473V324.455Z" fill="white"/>
<path d="M539.056 319.398C539.123 320.151 539.293 320.792 539.568 321.32C539.842 321.847 540.202 322.271 540.628 322.601C541.063 322.931 541.565 323.166 542.133 323.317C542.701 323.468 543.307 323.543 543.96 323.543C544.718 323.543 545.371 323.449 545.92 323.26C546.469 323.072 546.923 322.817 547.274 322.497C547.624 322.177 547.879 321.8 548.04 321.376C548.201 320.952 548.286 320.5 548.286 320.029C548.286 319.369 548.135 318.832 547.842 318.427C547.539 318.022 547.15 317.683 546.668 317.429C546.185 317.174 545.636 316.958 545.011 316.807C544.386 316.647 543.752 316.496 543.089 316.345C542.427 316.194 541.792 316.015 541.177 315.818C540.552 315.61 540.003 315.337 539.52 314.989C539.038 314.64 538.649 314.197 538.346 313.66C538.044 313.114 537.902 312.435 537.902 311.597C537.902 311.013 538.025 310.448 538.271 309.901C538.517 309.355 538.877 308.865 539.359 308.441C539.842 308.017 540.448 307.678 541.168 307.423C541.896 307.169 542.73 307.047 543.676 307.047C544.623 307.047 545.475 307.179 546.194 307.452C546.914 307.716 547.51 308.083 547.984 308.545C548.457 309.006 548.817 309.543 549.044 310.156C549.28 310.768 549.404 311.418 549.404 312.106H547.87C547.87 311.465 547.756 310.909 547.529 310.438C547.302 309.967 546.99 309.581 546.592 309.279C546.194 308.978 545.749 308.761 545.248 308.62C544.746 308.479 544.225 308.403 543.686 308.403C542.862 308.403 542.171 308.516 541.612 308.742C541.054 308.969 540.609 309.261 540.278 309.628C539.946 309.986 539.719 310.391 539.596 310.824C539.473 311.267 539.445 311.701 539.52 312.143C539.615 312.69 539.833 313.133 540.183 313.462C540.533 313.792 540.959 314.065 541.461 314.273C541.963 314.48 542.521 314.659 543.127 314.791C543.733 314.923 544.358 315.064 544.983 315.215C545.617 315.365 546.223 315.544 546.819 315.742C547.406 315.95 547.936 316.223 548.391 316.571C548.845 316.92 549.214 317.363 549.489 317.9C549.763 318.437 549.905 319.124 549.905 319.935C549.905 321.508 549.356 322.723 548.277 323.59C547.188 324.457 545.655 324.89 543.686 324.89C542.805 324.89 541.982 324.777 541.224 324.551C540.467 324.325 539.814 323.976 539.255 323.515C538.697 323.053 538.271 322.478 537.968 321.791C537.665 321.103 537.504 320.302 537.504 319.379H539.066L539.056 319.398Z" fill="white"/>
<path d="M554.347 318.693C554.347 319.352 554.432 319.974 554.612 320.567C554.792 321.161 555.038 321.67 555.379 322.094C555.719 322.527 556.145 322.875 556.666 323.13C557.187 323.384 557.783 323.516 558.465 323.516C559.392 323.516 560.197 323.271 560.85 322.791C561.513 322.301 561.958 321.613 562.176 320.718H563.757C563.586 321.302 563.359 321.839 563.075 322.329C562.791 322.828 562.441 323.252 562.015 323.629C561.589 323.997 561.087 324.289 560.5 324.486C559.913 324.694 559.241 324.797 558.465 324.797C557.49 324.797 556.647 324.628 555.937 324.307C555.227 323.978 554.64 323.526 554.186 322.951C553.731 322.376 553.391 321.698 553.163 320.925C552.946 320.153 552.832 319.314 552.832 318.419C552.832 317.524 552.965 316.686 553.22 315.894C553.485 315.113 553.854 314.425 554.337 313.831C554.82 313.247 555.407 312.776 556.098 312.437C556.789 312.098 557.584 311.928 558.465 311.928C560.15 311.928 561.475 312.503 562.441 313.662C563.406 314.82 563.88 316.488 563.861 318.693H554.347ZM562.346 317.515C562.346 316.921 562.261 316.356 562.1 315.829C561.939 315.301 561.693 314.849 561.371 314.462C561.049 314.076 560.642 313.775 560.15 313.539C559.658 313.304 559.099 313.2 558.474 313.2C557.849 313.2 557.291 313.313 556.808 313.558C556.325 313.794 555.918 314.104 555.577 314.5C555.237 314.896 554.962 315.348 554.763 315.866C554.555 316.384 554.422 316.931 554.356 317.515H562.355H562.346Z" fill="white"/>
<path d="M576.147 316.099C575.892 315.185 575.466 314.479 574.841 313.97C574.226 313.461 573.449 313.207 572.503 313.207C571.774 313.207 571.158 313.357 570.638 313.659C570.117 313.96 569.691 314.356 569.36 314.846C569.028 315.336 568.782 315.901 568.631 316.514C568.47 317.135 568.394 317.757 568.394 318.388C568.394 319.02 568.47 319.66 568.621 320.273C568.773 320.885 569.009 321.431 569.341 321.921C569.672 322.411 570.098 322.797 570.619 323.089C571.139 323.381 571.774 323.523 572.512 323.523C573.572 323.523 574.415 323.231 575.059 322.656C575.702 322.081 576.1 321.271 576.28 320.254H577.795C577.671 320.932 577.463 321.544 577.189 322.1C576.914 322.656 576.554 323.137 576.128 323.542C575.693 323.937 575.182 324.248 574.576 324.474C573.97 324.7 573.288 324.804 572.522 324.804C571.547 324.804 570.704 324.634 569.994 324.314C569.284 323.984 568.697 323.532 568.243 322.958C567.788 322.383 567.447 321.705 567.23 320.923C567.012 320.141 566.898 319.293 566.898 318.398C566.898 317.55 567.021 316.74 567.268 315.958C567.514 315.185 567.874 314.497 568.347 313.894C568.82 313.301 569.407 312.82 570.108 312.472C570.808 312.114 571.622 311.944 572.531 311.944C573.951 311.944 575.097 312.283 575.977 312.952C576.848 313.631 577.397 314.676 577.624 316.108H576.176L576.147 316.099Z" fill="white"/>
<path d="M589.753 312.255H591.173V324.456H589.753V322.76C589.564 322.977 589.356 323.203 589.119 323.438C588.882 323.674 588.608 323.89 588.305 324.088C588.002 324.286 587.642 324.446 587.226 324.588C586.818 324.719 586.345 324.785 585.806 324.785C584.982 324.785 584.3 324.672 583.742 324.446C583.193 324.22 582.748 323.9 582.407 323.495C582.066 323.09 581.82 322.609 581.669 322.072C581.517 321.535 581.441 320.942 581.441 320.292V312.255H582.861V320.263C582.861 321.318 583.108 322.119 583.6 322.675C584.092 323.231 584.897 323.514 586.014 323.514C586.601 323.514 587.121 323.4 587.585 323.174C588.049 322.948 588.437 322.628 588.759 322.223C589.072 321.818 589.318 321.328 589.488 320.763C589.658 320.197 589.753 319.576 589.753 318.897V312.255Z" fill="white"/>
<path d="M596.928 324.455H595.508V312.255H596.928V314.544H596.975C597.373 313.574 597.874 312.896 598.499 312.509C599.124 312.123 599.948 311.935 600.97 311.935V313.461C600.165 313.442 599.503 313.574 598.982 313.838C598.461 314.102 598.045 314.469 597.742 314.921C597.439 315.373 597.221 315.91 597.108 316.532C596.994 317.154 596.928 317.804 596.928 318.473V324.455Z" fill="white"/>
<path d="M604.285 309.6V307.499H605.847V309.6H604.285ZM604.361 324.457V312.256H605.781V324.457H604.361Z" fill="white"/>
<path d="M614.534 324.504C614.364 324.532 614.136 324.589 613.852 324.674C613.568 324.749 613.256 324.787 612.906 324.787C612.196 324.787 611.656 324.608 611.287 324.259C610.918 323.911 610.728 323.27 610.728 322.366V313.434H608.996V312.257H610.728V308.865H612.148V312.257H614.439V313.434H612.148V321.8C612.148 322.102 612.148 322.356 612.167 322.582C612.186 322.808 612.234 322.978 612.309 323.129C612.385 323.27 612.508 323.374 612.679 323.43C612.84 323.496 613.076 323.524 613.379 323.524C613.568 323.524 613.758 323.506 613.957 323.477C614.155 323.449 614.345 323.402 614.534 323.364V324.514V324.504Z" fill="white"/>
<path d="M617.531 327.753C617.72 327.781 617.91 327.819 618.108 327.847C618.307 327.875 618.506 327.894 618.714 327.894C619.112 327.894 619.434 327.772 619.68 327.517C619.936 327.263 620.144 326.962 620.305 326.613C620.466 326.264 620.608 325.888 620.721 325.511C620.835 325.125 620.958 324.804 621.1 324.531L616.348 312.255H617.929L621.857 322.732L625.786 312.255H627.32L622.747 324.295C622.463 325.068 622.189 325.756 621.933 326.368C621.677 326.98 621.393 327.499 621.1 327.932C620.806 328.365 620.485 328.695 620.134 328.921C619.784 329.147 619.358 329.26 618.866 329.26C618.61 329.26 618.374 329.242 618.146 329.213C617.919 329.185 617.711 329.147 617.522 329.1V327.762L617.531 327.753Z" fill="white"/>
<path d="M885.952 319.491C885.299 319.491 884.702 319.388 884.163 319.19C883.623 318.992 883.169 318.7 882.78 318.323C882.392 317.946 882.099 317.494 881.891 316.957C881.682 316.42 881.578 315.827 881.578 315.177C881.578 314.527 881.673 313.924 881.872 313.415C882.07 312.906 882.326 312.482 882.657 312.134C882.989 311.785 883.377 311.531 883.831 311.352C884.286 311.173 884.768 311.088 885.27 311.088C885.867 311.088 886.387 311.182 886.842 311.38C887.296 311.578 887.703 311.832 888.053 312.152C888.404 312.473 888.725 312.84 889 313.245C889.275 313.65 889.54 314.074 889.786 314.498C890.032 314.922 890.269 315.346 890.496 315.761C890.723 316.175 890.96 316.543 891.215 316.872C891.376 317.089 891.556 317.296 891.736 317.494C891.916 317.692 892.115 317.88 892.332 318.041C892.55 318.201 892.787 318.333 893.042 318.436C893.298 318.54 893.591 318.596 893.904 318.606V311.201H894.926V319.887C894.282 319.878 893.705 319.802 893.184 319.68C892.664 319.557 892.162 319.275 891.67 318.851C891.139 318.389 890.685 317.909 890.306 317.409C889.928 316.91 889.587 316.43 889.293 315.949C889 315.469 888.725 315.016 888.479 314.593C888.233 314.169 887.968 313.792 887.675 313.462C887.381 313.132 887.059 312.878 886.69 312.689C886.321 312.501 885.876 312.407 885.346 312.407C884.92 312.407 884.532 312.482 884.191 312.633C883.85 312.784 883.557 312.991 883.32 313.255C883.083 313.519 882.903 313.829 882.78 314.178C882.657 314.527 882.601 314.913 882.601 315.327C882.601 315.77 882.695 316.166 882.875 316.524C883.055 316.882 883.301 317.193 883.604 317.447C883.907 317.701 884.257 317.899 884.664 318.041C885.071 318.182 885.497 318.238 885.952 318.21V319.491Z" fill="white"/>
<path d="M881.578 304.417C881.578 303.767 881.673 303.201 881.872 302.721C882.07 302.241 882.335 301.835 882.676 301.506C883.017 301.176 883.415 300.903 883.869 300.695C884.323 300.488 884.806 300.328 885.317 300.215C885.829 300.102 886.359 300.027 886.898 299.989C887.438 299.951 887.968 299.932 888.489 299.932C889.369 299.932 890.221 299.998 891.026 300.121C891.831 300.243 892.55 300.479 893.165 300.809C893.781 301.138 894.273 301.6 894.642 302.175C895.011 302.749 895.191 303.503 895.191 304.417C895.191 305.331 895.011 306.084 894.642 306.668C894.273 307.253 893.781 307.714 893.156 308.044C892.531 308.374 891.802 308.609 890.979 308.732C890.155 308.854 889.275 308.92 888.356 308.92C887.514 308.92 886.681 308.864 885.876 308.75C885.071 308.637 884.342 308.421 883.708 308.1C883.074 307.78 882.553 307.328 882.165 306.734C881.777 306.141 881.578 305.368 881.578 304.417ZM888.356 301.138C887.637 301.138 886.936 301.176 886.245 301.261C885.554 301.346 884.939 301.506 884.399 301.741C883.86 301.977 883.424 302.316 883.093 302.749C882.761 303.183 882.601 303.748 882.601 304.454C882.601 305.123 882.771 305.66 883.102 306.084C883.434 306.508 883.879 306.838 884.437 307.074C884.996 307.309 885.62 307.479 886.33 307.573C887.04 307.667 887.76 307.714 888.489 307.714C889.35 307.714 890.127 307.658 890.827 307.554C891.528 307.45 892.124 307.271 892.616 307.017C893.109 306.763 893.487 306.433 893.762 306.009C894.036 305.585 894.169 305.057 894.169 304.417C894.169 303.701 893.989 303.126 893.639 302.693C893.288 302.259 892.834 301.93 892.275 301.704C891.717 301.477 891.092 301.327 890.401 301.251C889.71 301.176 889.028 301.138 888.356 301.138Z" fill="white"/>
<path d="M885.952 297.219C885.299 297.219 884.702 297.115 884.163 296.918C883.623 296.72 883.169 296.428 882.78 296.051C882.392 295.674 882.099 295.222 881.891 294.685C881.682 294.148 881.578 293.554 881.578 292.904C881.578 292.254 881.673 291.651 881.872 291.142C882.07 290.634 882.326 290.21 882.657 289.861C882.989 289.513 883.377 289.258 883.831 289.079C884.286 288.9 884.768 288.815 885.27 288.815C885.867 288.815 886.387 288.91 886.842 289.107C887.296 289.305 887.703 289.56 888.053 289.88C888.404 290.2 888.725 290.568 889 290.973C889.275 291.378 889.54 291.802 889.786 292.226C890.032 292.65 890.269 293.074 890.496 293.488C890.723 293.903 890.96 294.27 891.215 294.6C891.376 294.817 891.556 295.024 891.736 295.222C891.916 295.42 892.115 295.608 892.332 295.768C892.55 295.928 892.787 296.06 893.042 296.164C893.298 296.267 893.591 296.324 893.904 296.333V288.928H894.926V297.615C894.282 297.605 893.705 297.53 893.184 297.407C892.664 297.285 892.162 297.002 891.67 296.578C891.139 296.117 890.685 295.636 890.306 295.137C889.928 294.638 889.587 294.157 889.293 293.677C889 293.196 888.725 292.744 888.479 292.32C888.233 291.896 887.968 291.519 887.675 291.19C887.381 290.86 887.059 290.605 886.69 290.417C886.321 290.229 885.876 290.134 885.346 290.134C884.92 290.134 884.532 290.21 884.191 290.36C883.85 290.511 883.557 290.718 883.32 290.982C883.083 291.246 882.903 291.557 882.78 291.906C882.657 292.254 882.601 292.64 882.601 293.055C882.601 293.498 882.695 293.893 882.875 294.251C883.055 294.609 883.301 294.92 883.604 295.175C883.907 295.429 884.257 295.627 884.664 295.768C885.071 295.909 885.497 295.966 885.952 295.938V297.219Z" fill="white"/>
<path d="M891.469 285.518C892.378 285.396 893.06 285.028 893.505 284.435C893.95 283.841 894.177 283.106 894.177 282.24C894.177 281.75 894.092 281.307 893.912 280.911C893.732 280.516 893.495 280.176 893.183 279.903C892.87 279.63 892.511 279.413 892.104 279.272C891.697 279.131 891.252 279.055 890.769 279.055C890.286 279.055 889.822 279.131 889.406 279.291C888.989 279.451 888.629 279.668 888.326 279.95C888.024 280.233 887.787 280.581 887.626 280.987C887.465 281.392 887.38 281.853 887.38 282.353C887.38 282.956 887.493 283.493 887.711 283.973C887.929 284.454 888.279 284.868 888.762 285.235L888.629 286.234L881.719 285.16V278.565H882.741V284.143L887.228 284.972C887.067 284.708 886.925 284.463 886.812 284.246C886.698 284.03 886.604 283.803 886.537 283.577C886.471 283.351 886.424 283.116 886.395 282.871C886.367 282.626 886.357 282.353 886.357 282.051C886.357 281.448 886.462 280.892 886.66 280.374C886.859 279.856 887.153 279.413 887.531 279.036C887.91 278.66 888.374 278.368 888.923 278.16C889.472 277.953 890.087 277.849 890.769 277.849C891.45 277.849 892.104 277.962 892.653 278.198C893.202 278.433 893.666 278.744 894.044 279.131C894.423 279.517 894.707 279.969 894.906 280.478C895.105 280.987 895.199 281.514 895.199 282.051C895.199 282.682 895.133 283.266 895.01 283.813C894.887 284.359 894.669 284.84 894.376 285.254C894.082 285.669 893.694 286.008 893.221 286.262C892.747 286.517 892.16 286.677 891.469 286.724V285.518Z" fill="white"/>
<path d="M421.73 356.752V339.794H427.96C429.067 339.794 429.976 339.917 430.695 340.171C431.415 340.426 431.983 340.765 432.399 341.208C432.816 341.65 433.109 342.15 433.27 342.724C433.431 343.299 433.516 343.902 433.516 344.524C433.516 345.466 433.318 346.248 432.939 346.851C432.551 347.463 432.049 347.944 431.434 348.302C430.818 348.66 430.118 348.905 429.342 349.046C428.565 349.187 427.78 349.253 426.984 349.253H423.34V356.743H421.73V356.752ZM427.032 347.897C427.789 347.897 428.471 347.849 429.067 347.755C429.664 347.661 430.175 347.482 430.591 347.228C431.008 346.973 431.33 346.615 431.566 346.172C431.794 345.73 431.907 345.136 431.907 344.42C431.907 343.356 431.557 342.545 430.856 341.99C430.156 341.443 429.039 341.16 427.505 341.16H423.34V347.897H427.032Z" fill="white"/>
<path d="M438.361 356.751H436.941V344.551H438.361V346.84H438.409C438.806 345.869 439.308 345.191 439.933 344.805C440.558 344.419 441.381 344.23 442.404 344.23V345.756C441.599 345.738 440.936 345.869 440.416 346.133C439.895 346.397 439.478 346.764 439.176 347.217C438.873 347.669 438.655 348.206 438.541 348.828C438.428 349.449 438.361 350.1 438.361 350.768V356.751Z" fill="white"/>
<path d="M450.461 357.081C449.676 357.062 448.937 356.92 448.246 356.657C447.564 356.393 446.959 355.988 446.447 355.451C445.936 354.914 445.529 354.254 445.226 353.453C444.923 352.653 444.781 351.72 444.781 350.655C444.781 349.76 444.895 348.922 445.141 348.149C445.378 347.377 445.728 346.699 446.201 346.114C446.675 345.53 447.262 345.078 447.981 344.739C448.691 344.4 449.515 344.23 450.461 344.23C451.408 344.23 452.26 344.4 452.97 344.739C453.68 345.078 454.276 345.53 454.75 346.105C455.223 346.68 455.573 347.358 455.8 348.14C456.028 348.922 456.141 349.76 456.141 350.655C456.141 351.626 456.009 352.511 455.744 353.293C455.479 354.075 455.09 354.754 454.598 355.319C454.096 355.884 453.5 356.317 452.8 356.628C452.099 356.939 451.323 357.09 450.471 357.09L450.461 357.081ZM454.617 350.646C454.617 349.921 454.541 349.252 454.38 348.62C454.22 347.989 453.983 347.443 453.652 346.981C453.32 346.52 452.894 346.152 452.374 345.888C451.853 345.625 451.219 345.483 450.461 345.483C449.704 345.483 449.089 345.625 448.558 345.917C448.028 346.209 447.602 346.595 447.271 347.066C446.94 347.546 446.694 348.093 446.533 348.715C446.372 349.336 446.296 349.977 446.296 350.637C446.296 351.39 446.391 352.087 446.57 352.719C446.75 353.359 447.015 353.896 447.366 354.358C447.716 354.819 448.151 355.168 448.672 355.413C449.193 355.658 449.789 355.79 450.471 355.79C451.209 355.79 451.843 355.649 452.374 355.356C452.904 355.064 453.33 354.678 453.661 354.188C453.992 353.698 454.238 353.152 454.39 352.54C454.551 351.927 454.627 351.296 454.627 350.637L454.617 350.646Z" fill="white"/>
<path d="M469.034 344.554H470.454V355.576C470.454 356.396 470.369 357.178 470.208 357.922C470.047 358.666 469.744 359.326 469.318 359.891C468.892 360.456 468.306 360.909 467.567 361.248C466.829 361.587 465.873 361.756 464.699 361.756C463.799 361.756 463.023 361.643 462.379 361.417C461.736 361.191 461.206 360.899 460.789 360.56C460.382 360.211 460.07 359.835 459.852 359.42C459.644 359.006 459.52 358.619 459.511 358.252H461.026C461.139 358.704 461.31 359.081 461.546 359.373C461.783 359.665 462.058 359.891 462.389 360.051C462.711 360.221 463.07 360.334 463.468 360.39C463.866 360.456 464.273 360.485 464.699 360.485C465.664 360.485 466.431 360.324 467.018 359.985C467.605 359.656 468.04 359.222 468.343 358.685C468.646 358.148 468.836 357.545 468.921 356.876C469.006 356.198 469.044 355.51 469.025 354.804C468.571 355.557 467.936 356.123 467.141 356.509C466.346 356.895 465.513 357.084 464.642 357.084C463.714 357.084 462.9 356.905 462.218 356.556C461.537 356.198 460.959 355.727 460.514 355.143C460.07 354.559 459.729 353.871 459.511 353.08C459.293 352.298 459.18 351.478 459.18 350.63C459.18 349.735 459.284 348.897 459.483 348.115C459.691 347.333 460.013 346.655 460.467 346.08C460.912 345.505 461.49 345.053 462.181 344.723C462.872 344.393 463.714 344.224 464.708 344.224C465.106 344.224 465.503 344.28 465.92 344.384C466.327 344.497 466.725 344.648 467.113 344.855C467.501 345.062 467.851 345.317 468.173 345.637C468.495 345.948 468.76 346.306 468.968 346.692H469.016V344.544L469.034 344.554ZM469.034 350.696C469.034 349.961 468.94 349.274 468.76 348.633C468.58 348.002 468.315 347.446 467.965 346.984C467.614 346.523 467.179 346.155 466.658 345.891C466.138 345.628 465.551 345.486 464.879 345.486C464.282 345.486 463.724 345.59 463.222 345.807C462.72 346.023 462.275 346.325 461.897 346.739C461.518 347.144 461.224 347.644 461.007 348.237C460.789 348.821 460.685 349.509 460.685 350.272C460.656 351.045 460.713 351.761 460.874 352.43C461.035 353.099 461.281 353.683 461.632 354.182C461.982 354.681 462.417 355.077 462.957 355.369C463.496 355.661 464.131 355.802 464.869 355.802C465.513 355.802 466.1 355.661 466.611 355.388C467.122 355.115 467.558 354.747 467.917 354.286C468.277 353.824 468.542 353.278 468.732 352.665C468.921 352.053 469.016 351.393 469.016 350.696H469.034Z" fill="white"/>
<path d="M476.354 356.751H474.934V344.551H476.354V346.84H476.401C476.799 345.869 477.3 345.191 477.925 344.805C478.55 344.419 479.373 344.23 480.396 344.23V345.756C479.591 345.738 478.929 345.869 478.408 346.133C477.887 346.397 477.471 346.764 477.168 347.217C476.865 347.669 476.647 348.206 476.533 348.828C476.42 349.449 476.354 350.1 476.354 350.768V356.751Z" fill="white"/>
<path d="M489.201 349.641C489.466 349.613 489.788 349.566 490.157 349.5C490.526 349.434 490.829 349.349 491.066 349.245C491.303 349.142 491.445 348.953 491.502 348.689C491.558 348.435 491.587 348.19 491.587 347.973C491.587 347.248 491.35 346.655 490.886 346.193C490.422 345.731 489.637 345.496 488.529 345.496C488.037 345.496 487.592 345.543 487.185 345.628C486.778 345.712 486.418 345.863 486.106 346.08C485.793 346.287 485.547 346.57 485.348 346.928C485.149 347.286 485.017 347.729 484.96 348.256H483.512C483.559 347.531 483.72 346.918 484.013 346.41C484.297 345.901 484.667 345.486 485.112 345.157C485.556 344.836 486.087 344.601 486.674 344.45C487.26 344.299 487.895 344.224 488.557 344.224C489.173 344.224 489.75 344.29 490.299 344.422C490.848 344.554 491.322 344.77 491.719 345.053C492.126 345.345 492.439 345.731 492.666 346.221C492.893 346.711 493.007 347.305 493.007 348.011V354.653C493.007 355.199 493.101 355.548 493.3 355.699C493.499 355.849 493.897 355.812 494.493 355.595V356.697C494.379 356.726 494.218 356.773 494.01 356.839C493.792 356.905 493.584 356.933 493.385 356.933C493.168 356.933 492.95 356.905 492.751 356.858C492.514 356.829 492.325 356.754 492.183 356.631C492.041 356.518 491.928 356.368 491.842 356.207C491.757 356.047 491.7 355.859 491.662 355.661C491.634 355.463 491.615 355.256 491.615 355.039C491.019 355.699 490.328 356.198 489.561 356.547C488.785 356.895 487.952 357.065 487.052 357.065C486.513 357.065 486.001 356.989 485.5 356.848C484.998 356.707 484.562 356.49 484.184 356.189C483.805 355.887 483.502 355.529 483.284 355.096C483.067 354.662 482.953 354.154 482.953 353.551C482.953 351.478 484.383 350.253 487.232 349.877L489.201 349.613V349.641ZM491.596 350.348C491 350.602 490.384 350.762 489.769 350.847C489.154 350.922 488.538 350.988 487.923 351.035C486.834 351.111 485.982 351.356 485.377 351.77C484.771 352.175 484.468 352.797 484.468 353.626C484.468 354.003 484.544 354.333 484.695 354.606C484.846 354.879 485.045 355.105 485.282 355.284C485.528 355.463 485.812 355.595 486.134 355.68C486.456 355.765 486.787 355.812 487.118 355.812C487.686 355.812 488.236 355.736 488.775 355.605C489.315 355.463 489.788 355.247 490.205 354.954C490.621 354.662 490.962 354.295 491.208 353.852C491.464 353.4 491.587 352.872 491.587 352.26V350.348H491.596Z" fill="white"/>
<path d="M498.772 356.754H497.352V344.554H498.772V346.391H498.819C499.179 345.684 499.699 345.147 500.381 344.78C501.063 344.412 501.801 344.224 502.606 344.224C503.174 344.224 503.656 344.29 504.045 344.412C504.433 344.535 504.773 344.704 505.048 344.921C505.323 345.138 505.55 345.383 505.739 345.665C505.919 345.948 506.07 346.249 506.203 346.579C506.61 345.778 507.159 345.185 507.85 344.799C508.532 344.412 509.317 344.224 510.207 344.224C511.04 344.224 511.712 344.365 512.205 344.638C512.706 344.912 513.085 345.27 513.35 345.722C513.615 346.165 513.795 346.683 513.88 347.267C513.966 347.851 514.013 348.445 514.013 349.057V356.754H512.593V348.322C512.593 347.446 512.404 346.749 512.034 346.249C511.665 345.75 510.974 345.496 509.961 345.496C509.441 345.496 508.939 345.609 508.456 345.835C507.973 346.061 507.547 346.41 507.187 346.881C507.027 347.088 506.903 347.323 506.799 347.597C506.695 347.87 506.61 348.162 506.553 348.454C506.487 348.755 506.449 349.047 506.421 349.349C506.392 349.65 506.383 349.924 506.383 350.178V356.744H504.963V348.313C504.963 347.436 504.773 346.739 504.404 346.24C504.035 345.741 503.344 345.486 502.331 345.486C501.81 345.486 501.309 345.599 500.826 345.825C500.343 346.052 499.927 346.4 499.557 346.871C499.396 347.078 499.273 347.314 499.169 347.587C499.065 347.86 498.98 348.152 498.923 348.445C498.857 348.746 498.819 349.038 498.791 349.34C498.762 349.641 498.753 349.914 498.753 350.169V356.735L498.772 356.754Z" fill="white"/>
<path d="M519.315 356.754H517.895V344.554H519.315V346.391H519.362C519.722 345.684 520.242 345.147 520.924 344.78C521.605 344.412 522.344 344.224 523.149 344.224C523.717 344.224 524.199 344.29 524.587 344.412C524.976 344.535 525.316 344.704 525.591 344.921C525.865 345.138 526.093 345.383 526.282 345.665C526.462 345.948 526.613 346.249 526.746 346.579C527.153 345.778 527.702 345.185 528.393 344.799C529.075 344.412 529.86 344.224 530.75 344.224C531.583 344.224 532.255 344.365 532.748 344.638C533.249 344.912 533.628 345.27 533.893 345.722C534.158 346.165 534.338 346.683 534.423 347.267C534.509 347.851 534.556 348.445 534.556 349.057V356.754H533.136V348.322C533.136 347.446 532.947 346.749 532.577 346.249C532.208 345.75 531.517 345.496 530.504 345.496C529.983 345.496 529.482 345.609 528.999 345.835C528.516 346.061 528.09 346.41 527.73 346.881C527.569 347.088 527.446 347.323 527.342 347.597C527.238 347.87 527.153 348.162 527.096 348.454C527.03 348.755 526.992 349.047 526.964 349.349C526.935 349.65 526.926 349.924 526.926 350.178V356.744H525.506V348.313C525.506 347.436 525.316 346.739 524.947 346.24C524.578 345.741 523.887 345.486 522.874 345.486C522.353 345.486 521.852 345.599 521.369 345.825C520.886 346.052 520.469 346.4 520.1 346.871C519.939 347.078 519.816 347.314 519.712 347.587C519.608 347.86 519.523 348.152 519.466 348.445C519.4 348.746 519.362 349.038 519.333 349.34C519.305 349.641 519.296 349.914 519.296 350.169V356.735L519.315 356.754Z" fill="white"/>
<path d="M539.511 350.979C539.511 351.638 539.596 352.26 539.776 352.853C539.956 353.447 540.202 353.956 540.543 354.38C540.883 354.813 541.309 355.162 541.83 355.416C542.351 355.67 542.947 355.802 543.629 355.802C544.556 355.802 545.361 355.557 546.014 355.077C546.677 354.587 547.122 353.899 547.34 353.004H548.921C548.75 353.588 548.523 354.125 548.239 354.615C547.955 355.115 547.605 355.538 547.179 355.915C546.753 356.283 546.251 356.575 545.664 356.773C545.077 356.98 544.405 357.084 543.629 357.084C542.654 357.084 541.811 356.914 541.101 356.584C540.391 356.254 539.804 355.802 539.35 355.228C538.895 354.653 538.555 353.975 538.327 353.202C538.11 352.43 537.996 351.591 537.996 350.696C537.996 349.801 538.129 348.963 538.384 348.181C538.649 347.399 539.018 346.711 539.501 346.117C539.984 345.533 540.571 345.062 541.262 344.723C541.953 344.384 542.748 344.214 543.629 344.214C545.314 344.214 546.639 344.789 547.605 345.948C548.57 347.097 549.044 348.774 549.025 350.979H539.511ZM547.51 349.801C547.51 349.208 547.425 348.642 547.264 348.115C547.103 347.587 546.857 347.135 546.535 346.749C546.213 346.362 545.806 346.061 545.314 345.835C544.822 345.609 544.263 345.496 543.638 345.496C543.013 345.496 542.455 345.609 541.972 345.854C541.489 346.089 541.082 346.4 540.741 346.796C540.401 347.191 540.126 347.644 539.927 348.162C539.719 348.68 539.586 349.226 539.52 349.81H547.52L547.51 349.801Z" fill="white"/>
<path d="M558.691 356.752L565.394 339.794H567.211L573.743 356.752H572.087L570.118 351.429H562.355L560.348 356.752H558.691ZM562.904 350.063H569.578L566.236 341.16L562.904 350.063Z" fill="white"/>
<path d="M577.476 352.935C577.693 353.99 578.091 354.725 578.669 355.159C579.246 355.592 580.07 355.809 581.139 355.809C581.66 355.809 582.114 355.743 582.484 355.62C582.862 355.498 583.175 355.328 583.421 355.112C583.667 354.904 583.847 354.659 583.979 354.396C584.102 354.132 584.169 353.849 584.169 353.548C584.169 352.954 583.979 352.511 583.591 352.219C583.203 351.927 582.72 351.701 582.133 351.541C581.546 351.381 580.922 351.23 580.24 351.117C579.558 351.004 578.934 350.825 578.347 350.589C577.76 350.354 577.277 350.015 576.889 349.572C576.501 349.129 576.311 348.517 576.311 347.716C576.311 346.699 576.69 345.86 577.438 345.21C578.186 344.56 579.246 344.23 580.619 344.23C581.991 344.23 583.023 344.522 583.847 345.116C584.67 345.709 585.172 346.689 585.352 348.074H583.904C583.781 347.132 583.421 346.472 582.824 346.086C582.228 345.7 581.49 345.511 580.59 345.511C579.691 345.511 579.009 345.709 578.536 346.086C578.063 346.463 577.826 346.981 577.826 347.603C577.826 348.149 578.015 348.573 578.403 348.865C578.792 349.157 579.274 349.393 579.861 349.572C580.448 349.751 581.073 349.911 581.755 350.052C582.436 350.194 583.061 350.392 583.648 350.655C584.235 350.919 584.718 351.268 585.106 351.701C585.494 352.144 585.683 352.756 585.683 353.538C585.683 354.122 585.56 354.631 585.305 355.083C585.049 355.526 584.708 355.903 584.263 356.204C583.818 356.506 583.298 356.723 582.692 356.873C582.086 357.024 581.414 357.099 580.694 357.099C579.975 357.099 579.322 356.996 578.763 356.779C578.205 356.562 577.722 356.27 577.334 355.893C576.936 355.517 576.633 355.074 576.406 354.575C576.188 354.075 576.056 353.529 576.027 352.954H577.466L577.476 352.935Z" fill="white"/>
<path d="M590.124 352.935C590.342 353.99 590.74 354.725 591.317 355.159C591.894 355.592 592.718 355.809 593.788 355.809C594.308 355.809 594.763 355.743 595.132 355.62C595.511 355.498 595.823 355.328 596.069 355.112C596.315 354.904 596.495 354.659 596.628 354.396C596.751 354.132 596.817 353.849 596.817 353.548C596.817 352.954 596.628 352.511 596.24 352.219C595.852 351.927 595.369 351.701 594.782 351.541C594.195 351.381 593.57 351.23 592.888 351.117C592.207 351.004 591.582 350.825 590.995 350.589C590.408 350.354 589.925 350.015 589.537 349.572C589.149 349.129 588.96 348.517 588.96 347.716C588.96 346.699 589.338 345.86 590.086 345.21C590.834 344.56 591.894 344.23 593.267 344.23C594.64 344.23 595.672 344.522 596.495 345.116C597.319 345.709 597.821 346.689 598 348.074H596.552C596.429 347.132 596.069 346.472 595.473 346.086C594.876 345.7 594.138 345.511 593.239 345.511C592.339 345.511 591.658 345.709 591.184 346.086C590.711 346.463 590.474 346.981 590.474 347.603C590.474 348.149 590.664 348.573 591.052 348.865C591.44 349.157 591.923 349.393 592.51 349.572C593.097 349.751 593.722 349.911 594.403 350.052C595.085 350.194 595.71 350.392 596.296 350.655C596.883 350.919 597.366 351.268 597.754 351.701C598.142 352.144 598.332 352.756 598.332 353.538C598.332 354.122 598.209 354.631 597.953 355.083C597.698 355.526 597.357 355.903 596.912 356.204C596.467 356.506 595.946 356.723 595.34 356.873C594.734 357.024 594.062 357.099 593.343 357.099C592.623 357.099 591.97 356.996 591.412 356.779C590.853 356.562 590.37 356.27 589.982 355.893C589.585 355.517 589.282 355.074 589.054 354.575C588.837 354.075 588.704 353.529 588.676 352.954H590.115L590.124 352.935Z" fill="white"/>
<path d="M602.855 350.979C602.855 351.638 602.94 352.26 603.12 352.853C603.299 353.447 603.546 353.956 603.886 354.38C604.227 354.813 604.653 355.162 605.174 355.416C605.694 355.67 606.291 355.802 606.972 355.802C607.9 355.802 608.705 355.557 609.358 355.077C610.021 354.587 610.466 353.899 610.683 353.004H612.264C612.094 353.588 611.867 354.125 611.583 354.615C611.299 355.115 610.948 355.538 610.522 355.915C610.096 356.283 609.595 356.575 609.008 356.773C608.421 356.98 607.749 357.084 606.972 357.084C605.997 357.084 605.155 356.914 604.445 356.584C603.735 356.254 603.148 355.802 602.694 355.228C602.239 354.653 601.898 353.975 601.671 353.202C601.453 352.43 601.34 351.591 601.34 350.696C601.34 349.801 601.472 348.963 601.728 348.181C601.993 347.399 602.362 346.711 602.845 346.117C603.328 345.533 603.915 345.062 604.606 344.723C605.297 344.384 606.092 344.214 606.972 344.214C608.658 344.214 609.983 344.789 610.949 345.948C611.914 347.097 612.387 348.774 612.369 350.979H602.855ZM610.854 349.801C610.854 349.208 610.769 348.642 610.608 348.115C610.447 347.587 610.201 347.135 609.879 346.749C609.557 346.362 609.15 346.061 608.658 345.835C608.165 345.609 607.607 345.496 606.982 345.496C606.357 345.496 605.799 345.609 605.316 345.854C604.833 346.089 604.426 346.4 604.085 346.796C603.744 347.191 603.47 347.644 603.271 348.162C603.063 348.68 602.93 349.226 602.864 349.81H610.863L610.854 349.801Z" fill="white"/>
<path d="M616.78 352.935C616.998 353.99 617.396 354.725 617.973 355.159C618.551 355.592 619.374 355.809 620.444 355.809C620.965 355.809 621.419 355.743 621.788 355.62C622.167 355.498 622.479 355.328 622.726 355.112C622.972 354.904 623.152 354.659 623.284 354.396C623.407 354.132 623.473 353.849 623.473 353.548C623.473 352.954 623.284 352.511 622.896 352.219C622.508 351.927 622.025 351.701 621.438 351.541C620.851 351.381 620.226 351.23 619.545 351.117C618.863 351.004 618.238 350.825 617.651 350.589C617.064 350.354 616.582 350.015 616.194 349.572C615.805 349.129 615.616 348.517 615.616 347.716C615.616 346.699 615.995 345.86 616.743 345.21C617.49 344.56 618.551 344.23 619.923 344.23C621.296 344.23 622.328 344.522 623.152 345.116C623.975 345.709 624.477 346.689 624.657 348.074H623.208C623.085 347.132 622.726 346.472 622.129 346.086C621.533 345.7 620.794 345.511 619.895 345.511C618.996 345.511 618.314 345.709 617.841 346.086C617.367 346.463 617.131 346.981 617.131 347.603C617.131 348.149 617.32 348.573 617.708 348.865C618.096 349.157 618.579 349.393 619.166 349.572C619.753 349.751 620.378 349.911 621.059 350.052C621.741 350.194 622.366 350.392 622.953 350.655C623.54 350.919 624.022 351.268 624.411 351.701C624.799 352.144 624.988 352.756 624.988 353.538C624.988 354.122 624.865 354.631 624.609 355.083C624.354 355.526 624.013 355.903 623.568 356.204C623.123 356.506 622.602 356.723 621.997 356.873C621.391 357.024 620.719 357.099 619.999 357.099C619.28 357.099 618.626 356.996 618.068 356.779C617.509 356.562 617.027 356.27 616.638 355.893C616.241 355.517 615.938 355.074 615.711 354.575C615.493 354.075 615.36 353.529 615.332 352.954H616.771L616.78 352.935Z" fill="white"/>
<path d="M629.456 352.935C629.674 353.99 630.072 354.725 630.649 355.159C631.226 355.592 632.05 355.809 633.12 355.809C633.641 355.809 634.095 355.743 634.464 355.62C634.843 355.498 635.155 355.328 635.401 355.112C635.647 354.904 635.827 354.659 635.96 354.396C636.083 354.132 636.149 353.849 636.149 353.548C636.149 352.954 635.96 352.511 635.572 352.219C635.184 351.927 634.701 351.701 634.114 351.541C633.527 351.381 632.902 351.23 632.22 351.117C631.539 351.004 630.914 350.825 630.327 350.589C629.74 350.354 629.257 350.015 628.869 349.572C628.481 349.129 628.292 348.517 628.292 347.716C628.292 346.699 628.67 345.86 629.418 345.21C630.166 344.56 631.226 344.23 632.599 344.23C633.972 344.23 635.004 344.522 635.827 345.116C636.651 345.709 637.153 346.689 637.332 348.074H635.884C635.761 347.132 635.401 346.472 634.805 346.086C634.209 345.7 633.47 345.511 632.571 345.511C631.671 345.511 630.99 345.709 630.517 346.086C630.043 346.463 629.807 346.981 629.807 347.603C629.807 348.149 629.996 348.573 630.384 348.865C630.772 349.157 631.255 349.393 631.842 349.572C632.429 349.751 633.054 349.911 633.735 350.052C634.417 350.194 635.042 350.392 635.628 350.655C636.215 350.919 636.698 351.268 637.086 351.701C637.474 352.144 637.664 352.756 637.664 353.538C637.664 354.122 637.541 354.631 637.285 355.083C637.03 355.526 636.689 355.903 636.244 356.204C635.799 356.506 635.278 356.723 634.672 356.873C634.066 357.024 633.394 357.099 632.675 357.099C631.955 357.099 631.302 356.996 630.744 356.779C630.185 356.562 629.702 356.27 629.314 355.893C628.917 355.517 628.614 355.074 628.387 354.575C628.169 354.075 628.036 353.529 628.008 352.954H629.447L629.456 352.935Z" fill="white"/>
<path d="M642.502 356.754H641.082V344.554H642.502V346.391H642.549C642.909 345.684 643.43 345.147 644.111 344.78C644.793 344.412 645.531 344.224 646.336 344.224C646.904 344.224 647.387 344.29 647.775 344.412C648.163 344.535 648.504 344.704 648.778 344.921C649.053 345.138 649.28 345.383 649.469 345.665C649.649 345.948 649.801 346.249 649.933 346.579C650.34 345.778 650.889 345.185 651.581 344.799C652.262 344.412 653.048 344.224 653.938 344.224C654.771 344.224 655.443 344.365 655.935 344.638C656.437 344.912 656.816 345.27 657.081 345.722C657.346 346.165 657.526 346.683 657.611 347.267C657.696 347.851 657.743 348.445 657.743 349.057V356.754H656.323V348.322C656.323 347.446 656.134 346.749 655.765 346.249C655.396 345.75 654.705 345.496 653.692 345.496C653.171 345.496 652.669 345.609 652.186 345.835C651.704 346.061 651.278 346.41 650.918 346.881C650.757 347.088 650.634 347.323 650.53 347.597C650.426 347.87 650.34 348.162 650.284 348.454C650.217 348.755 650.179 349.047 650.151 349.349C650.123 349.65 650.113 349.924 650.113 350.178V356.744H648.693V348.313C648.693 347.436 648.504 346.739 648.135 346.24C647.765 345.741 647.074 345.486 646.061 345.486C645.541 345.486 645.039 345.599 644.556 345.825C644.073 346.052 643.657 346.4 643.288 346.871C643.127 347.078 643.004 347.314 642.9 347.587C642.795 347.86 642.71 348.152 642.654 348.445C642.587 348.746 642.549 349.038 642.521 349.34C642.493 349.641 642.483 349.914 642.483 350.169V356.735L642.502 356.754Z" fill="white"/>
<path d="M662.702 350.979C662.702 351.638 662.787 352.26 662.967 352.853C663.147 353.447 663.393 353.956 663.734 354.38C664.075 354.813 664.501 355.162 665.021 355.416C665.542 355.67 666.139 355.802 666.82 355.802C667.748 355.802 668.553 355.557 669.206 355.077C669.868 354.587 670.313 353.899 670.531 353.004H672.112C671.942 353.588 671.714 354.125 671.43 354.615C671.146 355.115 670.796 355.538 670.37 355.915C669.944 356.283 669.442 356.575 668.856 356.773C668.269 356.98 667.596 357.084 666.82 357.084C665.845 357.084 665.003 356.914 664.293 356.584C663.583 356.254 662.996 355.802 662.541 355.228C662.087 354.653 661.746 353.975 661.519 353.202C661.301 352.43 661.188 351.591 661.188 350.696C661.188 349.801 661.32 348.963 661.576 348.181C661.841 347.399 662.21 346.711 662.693 346.117C663.175 345.533 663.762 345.062 664.453 344.723C665.145 344.384 665.94 344.214 666.82 344.214C668.505 344.214 669.831 344.789 670.796 345.948C671.762 347.097 672.235 348.774 672.216 350.979H662.702ZM670.701 349.801C670.701 349.208 670.616 348.642 670.455 348.115C670.294 347.587 670.048 347.135 669.726 346.749C669.405 346.362 668.997 346.061 668.505 345.835C668.013 345.609 667.454 345.496 666.83 345.496C666.205 345.496 665.646 345.609 665.163 345.854C664.681 346.089 664.274 346.4 663.933 346.796C663.592 347.191 663.317 347.644 663.119 348.162C662.91 348.68 662.778 349.226 662.712 349.81H670.711L670.701 349.801Z" fill="white"/>
<path d="M677.225 356.754H675.805V344.554H677.225V346.249C677.793 345.656 678.38 345.166 678.986 344.789C679.591 344.412 680.32 344.224 681.172 344.224C681.93 344.224 682.63 344.356 683.283 344.61C683.927 344.874 684.476 345.317 684.912 345.967C685.215 346.41 685.385 346.862 685.442 347.323C685.499 347.785 685.527 348.266 685.527 348.774V356.754H684.107V348.793C684.107 347.691 683.861 346.871 683.369 346.325C682.876 345.778 682.062 345.496 680.926 345.496C680.481 345.496 680.084 345.562 679.724 345.694C679.364 345.825 679.033 346.004 678.739 346.221C678.446 346.438 678.2 346.692 677.991 346.975C677.783 347.257 677.632 347.559 677.518 347.87C677.376 348.266 677.291 348.642 677.253 349C677.215 349.358 677.206 349.754 677.206 350.178V356.744L677.225 356.754Z" fill="white"/>
<path d="M694.112 356.8C693.942 356.828 693.715 356.885 693.431 356.969C693.147 357.045 692.834 357.082 692.484 357.082C691.774 357.082 691.234 356.903 690.865 356.555C690.496 356.206 690.307 355.566 690.307 354.661V345.73H688.574V344.552H690.307V341.161H691.727V344.552H694.018V345.73H691.727V354.096C691.727 354.397 691.727 354.652 691.746 354.878C691.764 355.104 691.812 355.274 691.888 355.424C691.963 355.566 692.086 355.669 692.257 355.735C692.427 355.801 692.654 355.829 692.957 355.829C693.147 355.829 693.336 355.811 693.535 355.782C693.734 355.754 693.923 355.707 694.112 355.669V356.819V356.8Z" fill="white"/>
<path d="M411.545 275.373H409.633V403.942H411.545V275.373Z" fill="white"/>
<path d="M870.209 275.373H868.297V403.942H870.209V275.373Z" fill="white"/>
<path d="M261.432 326.359C248.121 326.302 236.07 315.958 236.07 300.979C236.07 286.79 247.449 275.24 261.526 275.306C275.575 275.372 287.02 285.914 287.067 300.715C287.115 314.79 275.49 326.359 261.422 326.349L261.432 326.359ZM260.513 289.4C260.371 289.381 260.258 289.344 260.144 289.344C256.632 289.344 253.11 289.344 249.598 289.334C249.22 289.334 249.115 289.513 249.011 289.824C247.998 292.905 247.449 296.061 247.374 299.311C247.364 299.848 247.516 299.952 248.017 299.952C251.984 299.933 255.941 299.942 259.907 299.942C260.097 299.942 260.286 299.923 260.513 299.914V289.41V289.4ZM275.613 299.914C275.613 299.735 275.613 299.622 275.613 299.509C275.471 296.259 274.903 293.074 274.032 289.937C273.909 289.485 273.71 289.334 273.236 289.344C269.876 289.362 266.515 289.353 263.145 289.353C262.937 289.353 262.728 289.372 262.52 289.381V299.914H275.613ZM262.52 301.713V312.227C262.653 312.246 262.728 312.256 262.804 312.256C266.345 312.256 269.876 312.256 273.416 312.265C273.795 312.265 273.899 312.095 274.003 311.785C274.836 309.307 275.338 306.754 275.546 304.153C275.613 303.353 275.556 302.542 275.556 301.713H262.52ZM247.411 301.836C247.411 302.024 247.411 302.175 247.411 302.326C247.553 305.557 248.121 308.713 248.992 311.832C249.115 312.256 249.286 312.406 249.74 312.397C253.139 312.378 256.537 312.387 259.936 312.387C260.125 312.387 260.314 312.369 260.504 312.359V301.836H247.411ZM247.222 289.372C246.966 289.362 246.749 289.344 246.522 289.344C244.789 289.344 243.066 289.362 241.334 289.334C240.842 289.334 240.576 289.475 240.349 289.918C238.825 292.914 237.916 296.07 237.68 299.434C237.651 299.876 237.812 299.952 238.2 299.952C240.416 299.942 242.631 299.952 244.836 299.952C245.622 299.952 245.594 299.952 245.679 299.179C245.906 297.069 246.124 294.968 246.427 292.867C246.597 291.718 246.938 290.587 247.222 289.391V289.372ZM275.736 289.344C276.805 292.848 277.354 296.325 277.402 299.895H285.297C285.316 299.782 285.344 299.707 285.344 299.641C285.136 296.108 284.189 292.773 282.495 289.654C282.41 289.494 282.097 289.362 281.898 289.353C280.535 289.325 279.182 289.344 277.818 289.344C277.165 289.344 276.502 289.344 275.736 289.344ZM275.755 312.34C275.897 312.369 275.972 312.387 276.048 312.387C278.027 312.387 280.015 312.406 281.993 312.369C282.192 312.369 282.476 312.143 282.571 311.954C283.858 309.552 284.71 306.999 285.117 304.304C285.24 303.494 285.288 302.674 285.363 301.855H277.392C277.354 305.435 276.768 308.883 275.745 312.331L275.755 312.34ZM245.622 301.845H237.718C237.699 301.949 237.68 302.024 237.68 302.1C237.897 305.614 238.835 308.93 240.501 312.039C240.595 312.218 240.917 312.369 241.135 312.369C243.019 312.397 244.903 312.387 246.787 312.378C246.929 312.378 247.071 312.35 247.269 312.322C246.219 308.883 245.67 305.406 245.622 301.836V301.845ZM262.492 324.559C264.158 324.371 265.587 323.778 266.894 322.864C268.778 321.554 270.207 319.84 271.343 317.88C272.053 316.655 272.65 315.365 273.331 314.027H262.492V324.559ZM249.816 314.149C249.854 314.291 249.873 314.404 249.911 314.507C250.734 316.476 251.747 318.342 253.091 320C254.663 321.94 256.518 323.523 258.98 324.249C259.462 324.39 259.974 324.465 260.504 324.578V314.149H249.806H249.816ZM273.227 287.582C272.536 285.792 271.684 284.181 270.624 282.673C269.194 280.657 267.49 278.943 265.19 277.906C264.347 277.53 263.476 277.238 262.511 277.219V287.572H273.236L273.227 287.582ZM260.523 277.247C255.969 277.454 251.52 282.711 249.854 287.563H260.523V277.247ZM241.788 314.112C243.199 317.286 250.905 323.165 253.65 323.184C251.103 320.659 249.276 317.71 247.97 314.432C247.913 314.291 247.705 314.13 247.563 314.13C245.66 314.112 243.757 314.121 241.788 314.121V314.112ZM281.349 314.112C279.428 314.112 277.676 314.14 275.934 314.093C275.366 314.083 275.082 314.243 274.865 314.78C273.596 317.861 271.987 320.725 269.507 323.033C269.459 323.08 269.431 323.146 269.317 323.325C274.382 321.545 278.254 318.464 281.349 314.102V314.112ZM253.622 278.585L253.508 278.472C248.614 280.205 244.751 283.276 241.684 287.61C243.672 287.61 245.49 287.601 247.317 287.62C247.733 287.62 247.913 287.488 248.065 287.101C249.286 284.058 250.933 281.289 253.281 278.971C253.404 278.849 253.508 278.717 253.612 278.594L253.622 278.585ZM281.293 287.554C278.235 283.248 274.354 280.167 269.336 278.415C269.384 278.547 269.384 278.594 269.412 278.613C271.987 281.015 273.681 283.983 274.978 287.196C275.111 287.525 275.291 287.62 275.622 287.62C277.354 287.601 279.077 287.62 280.81 287.62C280.933 287.62 281.065 287.591 281.293 287.563V287.554Z" fill="white"/>
<path d="M341.552 310.945C343.019 305.217 344.487 299.489 345.954 293.742H350.223C349.816 295.221 349.409 296.663 349.012 298.114C347.346 304.039 345.679 309.956 344.023 315.891C343.89 316.381 343.682 316.56 343.152 316.541C342.025 316.494 340.899 316.494 339.772 316.541C339.233 316.569 339.043 316.381 338.92 315.882C337.652 310.615 336.355 305.349 335.067 300.083C335.029 299.932 334.982 299.791 334.831 299.64C333.458 305.255 332.076 310.87 330.694 316.522C329.188 316.522 327.712 316.541 326.235 316.503C326.093 316.503 325.885 316.202 325.828 316.004C324.701 312.057 323.584 308.1 322.477 304.143C321.568 300.893 320.65 297.643 319.741 294.392C319.684 294.194 319.637 293.987 319.57 293.752H323.679C325.146 299.48 326.614 305.217 328.09 310.954C328.147 310.954 328.204 310.954 328.251 310.954C329.671 305.226 331.091 299.498 332.511 293.742H337.122C338.542 299.47 339.962 305.208 341.382 310.945C341.438 310.945 341.495 310.945 341.552 310.945Z" fill="white"/>
<path d="M318.605 289.947C317.488 290.908 316.438 291.803 315.444 292.66C315.074 292.34 314.752 292.067 314.44 291.784C311.543 289.099 308.202 288.364 304.472 289.655C302.275 290.418 301.196 292.397 301.66 294.498C301.868 295.44 302.446 296.118 303.241 296.627C304.491 297.418 305.911 297.748 307.312 298.143C309.527 298.765 311.789 299.302 313.929 300.131C317.148 301.375 318.852 303.843 319.012 307.291C319.173 310.673 317.81 313.293 314.942 315.101C312.85 316.43 310.502 316.929 308.06 316.938C304.699 316.957 301.67 315.987 299.104 313.754C298.025 312.812 296.965 311.38 296.586 310.287C297.826 309.628 299.066 308.959 300.316 308.29C300.392 308.365 300.448 308.412 300.486 308.469C302.664 312.284 307.776 313.782 312.017 311.879C314.298 310.852 315.235 308.799 314.525 306.613C314.156 305.482 313.399 304.616 312.32 304.192C310.758 303.57 309.139 303.108 307.529 302.618C305.769 302.091 303.951 301.705 302.228 301.083C299.852 300.226 298.091 298.662 297.419 296.118C296.51 292.717 297.656 289.467 300.524 287.347C302.682 285.755 305.144 285.124 307.794 285.105C311.496 285.086 314.8 286.113 317.507 288.722C317.886 289.08 318.208 289.495 318.596 289.938L318.605 289.947Z" fill="white"/>
<path d="M372.195 289.004C371.172 289.061 370.245 289.051 369.326 289.183C367.187 289.494 366.079 290.794 366.07 292.933C366.07 293.95 366.07 294.968 366.07 296.07C366.429 296.07 366.732 296.07 367.035 296.07C368.569 296.07 370.103 296.079 371.636 296.07C372.015 296.07 372.204 296.145 372.195 296.579C372.176 297.558 372.195 298.548 372.195 299.584H366.089V316.495H361.971C361.961 316.269 361.942 316.061 361.942 315.854C361.942 308.204 361.923 300.564 361.961 292.914C361.961 291.868 362.103 290.775 362.444 289.795C363.372 287.082 365.502 285.688 368.228 285.198C369.383 284.991 370.585 285.028 371.769 284.953C372.053 284.934 372.204 285.028 372.204 285.339C372.204 286.555 372.204 287.77 372.204 289.013L372.195 289.004Z" fill="white"/>
<path d="M374.94 284.954H379.02V296.042H385.135V299.585H379.077C379.067 299.858 379.048 300.084 379.048 300.301C379.048 302.967 379.048 305.633 379.048 308.299C379.048 310.862 380.421 312.265 383.015 312.379C383.715 312.407 384.406 312.379 385.145 312.379V316.505C382.248 316.561 379.465 316.298 377.183 314.263C375.659 312.897 374.959 311.126 374.949 309.1C374.921 305.2 374.94 301.299 374.94 297.399C374.94 293.499 374.94 289.598 374.94 285.698C374.94 285.472 374.94 285.246 374.94 284.954Z" fill="white"/>
<path d="M357.54 293.566V316.336C356.698 316.336 355.865 316.336 355.041 316.336C353.975 316.336 353.441 315.803 353.441 314.735C353.441 307.942 353.441 301.14 353.441 294.348C353.441 293.826 353.706 293.566 354.237 293.566C355.325 293.566 356.404 293.566 357.54 293.566Z" fill="white"/>
<path d="M355.479 290.371C353.917 290.361 352.677 289.108 352.696 287.554C352.714 286.018 353.983 284.784 355.545 284.794C357.154 284.803 358.319 285.999 358.3 287.601C358.281 289.174 357.05 290.38 355.469 290.361L355.479 290.371Z" fill="white"/>
</g>
<defs>
<filter id="filter0_d_1098_21376" x="123" y="159" width="887" height="402" filterUnits="userSpaceOnUse" color-interpolation-filters="sRGB">
<feFlood flood-opacity="0" result="BackgroundImageFix"/>
<feColorMatrix in="SourceAlpha" type="matrix" values="0 0 0 0 0 0 0 0 0 0 0 0 0 0 0 0 0 0 127 0" result="hardAlpha"/>
<feOffset dy="20"/>
<feGaussianBlur stdDeviation="20"/>
<feComposite in2="hardAlpha" operator="out"/>
<feColorMatrix type="matrix" values="0 0 0 0 0.0784314 0 0 0 0 0.0196078 0 0 0 0 0.301961 0 0 0 0.15 0"/>
<feBlend mode="normal" in2="BackgroundImageFix" result="effect1_dropShadow_1098_21376"/>
<feBlend mode="normal" in="SourceGraphic" in2="effect1_dropShadow_1098_21376" result="shape"/>
</filter>
<clipPath id="clip0_1098_21376">
<rect width="710" height="179" fill="white" transform="translate(211 251)"/>
</clipPath>
</defs>
</svg>
