<svg width="1130" height="680" viewBox="0 0 1130 680" fill="none" xmlns="http://www.w3.org/2000/svg">
<rect width="1130" height="680" fill="#F2F2F2"/>
<g filter="url(#filter0_d_1097_17781)">
<path d="M254 198.596C254 191.087 260.09 185 267.603 185H863.397C870.91 185 877 191.087 877 198.596V481.404C877 488.913 870.91 495 863.397 495H267.603C260.09 495 254 488.913 254 481.404V198.596Z" fill="white"/>
<path d="M863.397 492.281V495H267.603V492.281H863.397ZM874.279 481.404V198.596C874.279 192.589 869.407 187.719 863.397 187.719H267.603C261.593 187.719 256.721 192.589 256.721 198.596V481.404C256.721 487.411 261.593 492.281 267.603 492.281V495L266.904 494.981C259.948 494.63 254.371 489.055 254.019 482.102L254 481.404V198.596C254 191.322 259.716 185.382 266.904 185.019L267.603 185H863.397L864.096 185.019C871.284 185.382 877 191.322 877 198.596V481.404L876.981 482.102C876.629 489.055 871.052 494.63 864.096 494.981L863.397 495V492.281C869.407 492.281 874.279 487.411 874.279 481.404Z" fill="#F0F0F0"/>
<path d="M552.165 231.194L548.978 231.541C548.888 231.22 548.73 230.917 548.505 230.634C548.286 230.35 547.99 230.122 547.617 229.948C547.243 229.774 546.786 229.687 546.245 229.687C545.518 229.687 544.906 229.845 544.411 230.161C543.921 230.476 543.68 230.885 543.686 231.387C543.68 231.818 543.838 232.169 544.16 232.439C544.488 232.71 545.029 232.932 545.782 233.106L548.312 233.647C549.715 233.949 550.758 234.429 551.441 235.085C552.129 235.742 552.477 236.601 552.484 237.664C552.477 238.597 552.204 239.421 551.663 240.136C551.128 240.844 550.385 241.398 549.432 241.797C548.479 242.196 547.385 242.395 546.149 242.395C544.333 242.395 542.872 242.016 541.765 241.256C540.657 240.49 539.998 239.424 539.785 238.06L543.194 237.731C543.348 238.401 543.677 238.906 544.179 239.247C544.681 239.589 545.334 239.759 546.139 239.759C546.97 239.759 547.636 239.589 548.138 239.247C548.647 238.906 548.901 238.485 548.901 237.982C548.901 237.557 548.737 237.207 548.409 236.93C548.087 236.653 547.584 236.441 546.902 236.292L544.372 235.761C542.949 235.465 541.897 234.966 541.214 234.265C540.532 233.556 540.194 232.662 540.2 231.58C540.194 230.666 540.442 229.874 540.944 229.205C541.453 228.529 542.157 228.007 543.059 227.64C543.966 227.267 545.013 227.08 546.197 227.08C547.935 227.08 549.303 227.45 550.301 228.191C551.305 228.931 551.927 229.932 552.165 231.194Z" fill="#4D4D4D"/>
<path d="M530.895 242.395C529.408 242.395 528.124 242.086 527.042 241.468C525.967 240.844 525.14 239.962 524.56 238.823C523.981 237.677 523.691 236.328 523.691 234.776C523.691 233.251 523.981 231.912 524.56 230.759C525.146 229.6 525.964 228.699 527.013 228.055C528.063 227.405 529.295 227.08 530.712 227.08C531.626 227.08 532.489 227.228 533.3 227.524C534.117 227.814 534.838 228.265 535.463 228.876C536.094 229.488 536.589 230.267 536.95 231.213C537.31 232.153 537.491 233.273 537.491 234.574V235.645H525.333V233.289H534.14C534.133 232.62 533.989 232.024 533.705 231.503C533.422 230.975 533.026 230.56 532.518 230.257C532.015 229.955 531.43 229.803 530.76 229.803C530.045 229.803 529.418 229.977 528.877 230.325C528.336 230.666 527.915 231.117 527.612 231.677C527.316 232.23 527.165 232.839 527.158 233.502V235.559C527.158 236.421 527.316 237.162 527.631 237.78C527.947 238.391 528.388 238.861 528.954 239.189C529.521 239.511 530.184 239.672 530.944 239.672C531.452 239.672 531.912 239.601 532.324 239.46C532.736 239.312 533.094 239.096 533.396 238.813C533.699 238.53 533.927 238.179 534.082 237.76L537.346 238.127C537.14 238.99 536.747 239.743 536.168 240.387C535.595 241.024 534.861 241.52 533.966 241.874C533.071 242.222 532.048 242.395 530.895 242.395Z" fill="#4D4D4D"/>
<path d="M521.562 227.273V229.977H513.035V227.273H521.562ZM515.14 223.719H518.636V237.644C518.636 238.114 518.707 238.475 518.848 238.726C518.996 238.97 519.19 239.138 519.428 239.228C519.666 239.318 519.93 239.363 520.22 239.363C520.439 239.363 520.638 239.347 520.818 239.315C521.005 239.283 521.147 239.254 521.243 239.228L521.832 241.961C521.646 242.025 521.378 242.096 521.031 242.173C520.69 242.25 520.271 242.296 519.775 242.308C518.9 242.334 518.111 242.202 517.41 241.913C516.708 241.616 516.151 241.159 515.739 240.541C515.333 239.923 515.134 239.151 515.14 238.224V223.719Z" fill="#4D4D4D"/>
<path d="M502.811 242.405C501.871 242.405 501.025 242.238 500.271 241.903C499.525 241.562 498.932 241.06 498.495 240.397C498.063 239.733 497.848 238.916 497.848 237.944C497.848 237.107 498.002 236.415 498.311 235.868C498.62 235.32 499.042 234.883 499.576 234.554C500.111 234.226 500.712 233.978 501.382 233.811C502.058 233.637 502.756 233.511 503.477 233.434C504.347 233.344 505.051 233.264 505.592 233.193C506.133 233.115 506.526 233 506.77 232.845C507.021 232.684 507.147 232.436 507.147 232.102V232.044C507.147 231.316 506.931 230.753 506.5 230.354C506.069 229.955 505.447 229.755 504.636 229.755C503.78 229.755 503.101 229.942 502.599 230.315C502.103 230.688 501.768 231.129 501.594 231.638L498.33 231.174C498.588 230.273 499.013 229.52 499.605 228.915C500.197 228.303 500.922 227.846 501.778 227.544C502.634 227.235 503.58 227.08 504.617 227.08C505.332 227.08 506.043 227.164 506.751 227.331C507.459 227.499 508.106 227.775 508.692 228.162C509.278 228.541 509.748 229.06 510.102 229.716C510.462 230.373 510.643 231.194 510.643 232.179V242.106H507.282V240.068H507.166C506.954 240.48 506.654 240.866 506.268 241.227C505.888 241.581 505.409 241.868 504.829 242.086C504.256 242.299 503.584 242.405 502.811 242.405ZM503.719 239.836C504.421 239.836 505.029 239.698 505.544 239.421C506.059 239.138 506.455 238.765 506.732 238.301C507.015 237.838 507.157 237.332 507.157 236.785V235.037C507.047 235.127 506.86 235.211 506.597 235.288C506.339 235.365 506.049 235.433 505.727 235.491C505.406 235.549 505.087 235.6 504.771 235.645C504.456 235.691 504.182 235.729 503.951 235.761C503.429 235.832 502.962 235.948 502.55 236.109C502.138 236.27 501.813 236.495 501.575 236.785C501.337 237.068 501.218 237.435 501.218 237.886C501.218 238.53 501.453 239.016 501.923 239.344C502.393 239.672 502.991 239.836 503.719 239.836Z" fill="#4D4D4D"/>
<path d="M486.91 242.365C485.744 242.365 484.701 242.066 483.781 241.467C482.86 240.869 482.133 239.999 481.598 238.86C481.064 237.721 480.797 236.336 480.797 234.708C480.797 233.06 481.067 231.669 481.608 230.536C482.155 229.397 482.892 228.537 483.819 227.958C484.746 227.372 485.78 227.079 486.919 227.079C487.788 227.079 488.503 227.227 489.063 227.523C489.623 227.813 490.067 228.164 490.396 228.576C490.724 228.981 490.978 229.364 491.158 229.725H491.303V222.328H494.809V242.105H491.371V239.768H491.158C490.978 240.128 490.717 240.511 490.376 240.917C490.035 241.316 489.584 241.657 489.024 241.94C488.464 242.224 487.759 242.365 486.91 242.365ZM487.885 239.497C488.625 239.497 489.256 239.298 489.778 238.899C490.299 238.493 490.695 237.93 490.965 237.209C491.236 236.488 491.371 235.648 491.371 234.688C491.371 233.729 491.236 232.895 490.965 232.187C490.701 231.479 490.309 230.929 489.787 230.536C489.272 230.143 488.638 229.947 487.885 229.947C487.106 229.947 486.456 230.15 485.934 230.555C485.413 230.961 485.02 231.521 484.756 232.236C484.492 232.95 484.36 233.768 484.36 234.688C484.36 235.615 484.492 236.443 484.756 237.17C485.026 237.891 485.422 238.461 485.944 238.879C486.472 239.291 487.119 239.497 487.885 239.497Z" fill="#4D4D4D"/>
<path d="M464.418 247.668V227.273H467.856V229.726H468.059C468.239 229.365 468.493 228.982 468.821 228.577C469.15 228.165 469.594 227.814 470.154 227.524C470.714 227.228 471.429 227.08 472.298 227.08C473.444 227.08 474.477 227.373 475.398 227.959C476.325 228.538 477.058 229.398 477.599 230.537C478.146 231.67 478.42 233.061 478.42 234.709C478.42 236.338 478.153 237.722 477.619 238.861C477.084 240.001 476.357 240.87 475.436 241.468C474.516 242.067 473.473 242.366 472.307 242.366C471.458 242.366 470.753 242.225 470.193 241.942C469.633 241.658 469.182 241.317 468.841 240.918C468.506 240.512 468.245 240.129 468.059 239.769H467.914V247.668H464.418ZM467.846 234.689C467.846 235.649 467.981 236.489 468.252 237.21C468.528 237.931 468.924 238.494 469.439 238.9C469.961 239.299 470.592 239.498 471.332 239.498C472.105 239.498 472.752 239.292 473.273 238.88C473.795 238.462 474.187 237.892 474.451 237.171C474.722 236.444 474.857 235.617 474.857 234.689C474.857 233.769 474.725 232.951 474.461 232.237C474.197 231.522 473.804 230.962 473.283 230.556C472.761 230.151 472.111 229.948 471.332 229.948C470.585 229.948 469.951 230.144 469.43 230.537C468.908 230.93 468.512 231.48 468.242 232.188C467.978 232.897 467.846 233.73 467.846 234.689Z" fill="#4D4D4D"/>
<path d="M457.096 222.328H460.678V235.248C460.678 236.665 460.343 237.91 459.674 238.986C459.011 240.061 458.077 240.901 456.873 241.506C455.67 242.105 454.263 242.404 452.654 242.404C451.038 242.404 449.628 242.105 448.424 241.506C447.22 240.901 446.287 240.061 445.624 238.986C444.96 237.91 444.629 236.665 444.629 235.248V222.328H448.212V234.949C448.212 235.773 448.392 236.507 448.752 237.151C449.119 237.795 449.634 238.3 450.297 238.667C450.96 239.027 451.746 239.208 452.654 239.208C453.561 239.208 454.347 239.027 455.01 238.667C455.679 238.3 456.194 237.795 456.555 237.151C456.915 236.507 457.096 235.773 457.096 234.949V222.328Z" fill="#4D4D4D"/>
<path d="M424.648 233.415V242.106H421.152V227.273H424.494V229.794H424.667C425.009 228.963 425.553 228.303 426.299 227.814C427.053 227.325 427.983 227.08 429.09 227.08C430.114 227.08 431.005 227.299 431.765 227.737C432.531 228.174 433.123 228.809 433.542 229.639C433.967 230.47 434.176 231.477 434.169 232.662V242.106H430.674V233.202C430.674 232.211 430.416 231.435 429.901 230.875C429.393 230.315 428.688 230.035 427.786 230.035C427.175 230.035 426.631 230.17 426.154 230.441C425.685 230.705 425.314 231.088 425.044 231.59C424.78 232.092 424.648 232.7 424.648 233.415Z" fill="#4D4D4D"/>
<path d="M414.063 242.105V227.272H417.559V242.105H414.063ZM415.821 225.167C415.267 225.167 414.791 224.983 414.392 224.616C413.993 224.243 413.793 223.796 413.793 223.274C413.793 222.746 413.993 222.299 414.392 221.932C414.791 221.559 415.267 221.372 415.821 221.372C416.381 221.372 416.857 221.559 417.25 221.932C417.649 222.299 417.849 222.746 417.849 223.274C417.849 223.796 417.649 224.243 417.25 224.616C416.857 224.983 416.381 225.167 415.821 225.167Z" fill="#4D4D4D"/>
<path d="M402.717 242.405C401.777 242.405 400.931 242.238 400.178 241.903C399.431 241.562 398.839 241.06 398.401 240.397C397.97 239.733 397.754 238.916 397.754 237.944C397.754 237.107 397.908 236.415 398.217 235.868C398.526 235.32 398.948 234.883 399.482 234.554C400.017 234.226 400.619 233.978 401.288 233.811C401.964 233.637 402.663 233.511 403.384 233.434C404.253 233.344 404.958 233.264 405.498 233.193C406.039 233.115 406.432 233 406.677 232.845C406.928 232.684 407.053 232.436 407.053 232.102V232.044C407.053 231.316 406.838 230.753 406.406 230.354C405.975 229.955 405.354 229.755 404.542 229.755C403.686 229.755 403.007 229.942 402.505 230.315C402.009 230.688 401.674 231.129 401.501 231.638L398.237 231.174C398.494 230.273 398.919 229.52 399.511 228.915C400.104 228.303 400.828 227.846 401.684 227.544C402.54 227.235 403.487 227.08 404.523 227.08C405.238 227.08 405.949 227.164 406.657 227.331C407.365 227.499 408.012 227.775 408.598 228.162C409.184 228.541 409.654 229.06 410.008 229.716C410.369 230.373 410.549 231.194 410.549 232.179V242.106H407.188V240.068H407.073C406.86 240.48 406.561 240.866 406.174 241.227C405.795 241.581 405.315 241.868 404.736 242.086C404.163 242.299 403.49 242.405 402.717 242.405ZM403.625 239.836C404.327 239.836 404.935 239.698 405.45 239.421C405.965 239.138 406.361 238.765 406.638 238.301C406.921 237.838 407.063 237.332 407.063 236.785V235.037C406.953 235.127 406.767 235.211 406.503 235.288C406.245 235.365 405.956 235.433 405.634 235.491C405.312 235.549 404.993 235.6 404.678 235.645C404.362 235.691 404.089 235.729 403.857 235.761C403.335 235.832 402.869 235.948 402.457 236.109C402.045 236.27 401.72 236.495 401.481 236.785C401.243 237.068 401.124 237.435 401.124 237.886C401.124 238.53 401.359 239.016 401.829 239.344C402.299 239.672 402.898 239.836 403.625 239.836Z" fill="#4D4D4D"/>
<path d="M385.273 233.414V242.105H381.777V222.328H385.196V229.792H385.37C385.717 228.956 386.255 228.296 386.982 227.813C387.716 227.324 388.65 227.079 389.783 227.079C390.813 227.079 391.711 227.295 392.477 227.726C393.243 228.157 393.835 228.788 394.254 229.619C394.679 230.449 394.891 231.463 394.891 232.66V242.105H391.395V233.201C391.395 232.203 391.138 231.428 390.623 230.874C390.114 230.314 389.4 230.034 388.479 230.034C387.861 230.034 387.307 230.169 386.818 230.439C386.335 230.703 385.955 231.086 385.679 231.589C385.408 232.091 385.273 232.699 385.273 233.414Z" fill="#4D4D4D"/>
<path d="M372.549 242.395C371.068 242.395 369.797 242.07 368.734 241.42C367.679 240.77 366.864 239.872 366.291 238.726C365.725 237.574 365.441 236.247 365.441 234.747C365.441 233.241 365.731 231.912 366.311 230.759C366.89 229.6 367.707 228.699 368.763 228.055C369.826 227.405 371.081 227.08 372.529 227.08C373.733 227.08 374.799 227.302 375.726 227.746C376.659 228.184 377.403 228.805 377.956 229.61C378.51 230.408 378.825 231.342 378.903 232.411H375.562C375.426 231.696 375.104 231.1 374.596 230.624C374.094 230.141 373.421 229.9 372.578 229.9C371.863 229.9 371.235 230.093 370.695 230.479C370.154 230.859 369.732 231.406 369.43 232.121C369.133 232.835 368.985 233.692 368.985 234.689C368.985 235.7 369.133 236.569 369.43 237.297C369.726 238.018 370.141 238.575 370.675 238.967C371.216 239.354 371.85 239.547 372.578 239.547C373.093 239.547 373.553 239.45 373.959 239.257C374.371 239.057 374.715 238.771 374.992 238.398C375.269 238.024 375.459 237.57 375.562 237.036H378.903C378.819 238.085 378.51 239.016 377.976 239.827C377.441 240.632 376.714 241.262 375.793 241.719C374.873 242.17 373.791 242.395 372.549 242.395Z" fill="#4D4D4D"/>
<path d="M354.394 237.45L354.384 233.23H354.944L360.275 227.272H364.359L357.802 234.572H357.078L354.394 237.45ZM351.207 242.105V222.328H354.703V242.105H351.207ZM360.516 242.105L355.688 235.355L358.044 232.892L364.697 242.105H360.516Z" fill="#4D4D4D"/>
<path d="M341.986 242.395C340.505 242.395 339.234 242.07 338.172 241.42C337.116 240.77 336.302 239.872 335.729 238.726C335.162 237.574 334.879 236.247 334.879 234.747C334.879 233.241 335.169 231.912 335.748 230.759C336.327 229.6 337.145 228.699 338.201 228.055C339.263 227.405 340.518 227.08 341.967 227.08C343.171 227.08 344.236 227.302 345.163 227.746C346.097 228.184 346.84 228.805 347.394 229.61C347.948 230.408 348.263 231.342 348.34 232.411H344.999C344.864 231.696 344.542 231.1 344.033 230.624C343.531 230.141 342.858 229.9 342.015 229.9C341.301 229.9 340.673 230.093 340.132 230.479C339.591 230.859 339.17 231.406 338.867 232.121C338.571 232.835 338.423 233.692 338.423 234.689C338.423 235.7 338.571 236.569 338.867 237.297C339.163 238.018 339.578 238.575 340.113 238.967C340.654 239.354 341.288 239.547 342.015 239.547C342.53 239.547 342.99 239.45 343.396 239.257C343.808 239.057 344.152 238.771 344.429 238.398C344.706 238.024 344.896 237.57 344.999 237.036H348.34C348.257 238.085 347.948 239.016 347.413 239.827C346.879 240.632 346.151 241.262 345.231 241.719C344.31 242.17 343.229 242.395 341.986 242.395Z" fill="#4D4D4D"/>
<path d="M325.439 242.395C323.991 242.395 322.735 242.077 321.673 241.439C320.611 240.802 319.787 239.91 319.201 238.765C318.622 237.619 318.332 236.28 318.332 234.747C318.332 233.215 318.622 231.873 319.201 230.721C319.787 229.568 320.611 228.673 321.673 228.036C322.735 227.399 323.991 227.08 325.439 227.08C326.888 227.08 328.143 227.399 329.205 228.036C330.268 228.673 331.088 229.568 331.668 230.721C332.254 231.873 332.547 233.215 332.547 234.747C332.547 236.28 332.254 237.619 331.668 238.765C331.088 239.91 330.268 240.802 329.205 241.439C328.143 242.077 326.888 242.395 325.439 242.395ZM325.459 239.595C326.244 239.595 326.901 239.379 327.429 238.948C327.956 238.51 328.349 237.924 328.607 237.191C328.871 236.457 329.003 235.639 329.003 234.738C329.003 233.83 328.871 233.009 328.607 232.275C328.349 231.535 327.956 230.946 327.429 230.508C326.901 230.07 326.244 229.852 325.459 229.852C324.654 229.852 323.984 230.07 323.45 230.508C322.922 230.946 322.526 231.535 322.262 232.275C322.005 233.009 321.876 233.83 321.876 234.738C321.876 235.639 322.005 236.457 322.262 237.191C322.526 237.924 322.922 238.51 323.45 238.948C323.984 239.379 324.654 239.595 325.459 239.595Z" fill="#4D4D4D"/>
<path d="M315.379 222.328V242.105H311.883V222.328H315.379Z" fill="#4D4D4D"/>
<path d="M294.164 242.105V222.328H301.735C303.164 222.328 304.352 222.553 305.298 223.004C306.251 223.448 306.962 224.056 307.432 224.829C307.909 225.601 308.147 226.477 308.147 227.456C308.147 228.26 307.992 228.949 307.683 229.522C307.374 230.089 306.959 230.549 306.438 230.903C305.916 231.257 305.334 231.511 304.69 231.666V231.859C305.391 231.898 306.064 232.113 306.708 232.506C307.358 232.892 307.889 233.439 308.301 234.148C308.713 234.856 308.919 235.712 308.919 236.716C308.919 237.74 308.671 238.66 308.176 239.478C307.68 240.289 306.933 240.93 305.935 241.4C304.938 241.87 303.682 242.105 302.169 242.105H294.164ZM297.747 239.111H301.6C302.9 239.111 303.837 238.863 304.41 238.367C304.989 237.865 305.279 237.222 305.279 236.436C305.279 235.85 305.134 235.322 304.844 234.852C304.555 234.376 304.143 234.003 303.608 233.732C303.074 233.456 302.437 233.317 301.696 233.317H297.747V239.111ZM297.747 230.739H301.291C301.909 230.739 302.466 230.626 302.961 230.401C303.457 230.169 303.846 229.844 304.13 229.425C304.419 229.001 304.564 228.498 304.564 227.919C304.564 227.153 304.294 226.522 303.753 226.026C303.219 225.531 302.424 225.283 301.368 225.283H297.747V230.739Z" fill="#4D4D4D"/>
<path d="M613 231C613 220.507 621.517 212 632.024 212H824.976C835.483 212 844 220.507 844 231V231C844 241.493 835.483 250 824.976 250H632.024C621.517 250 613 241.493 613 231V231Z" fill="#6BDA7A"/>
<path d="M813.887 242.394C812.69 242.394 811.621 242.089 810.681 241.477C809.748 240.859 809.014 239.98 808.479 238.841C807.951 237.695 807.688 236.32 807.688 234.717C807.688 233.114 807.955 231.743 808.489 230.604C809.03 229.464 809.77 228.592 810.71 227.987C811.65 227.382 812.715 227.079 813.906 227.079C814.827 227.079 815.567 227.233 816.127 227.542C816.694 227.845 817.132 228.199 817.441 228.605C817.756 229.01 818.001 229.368 818.175 229.677H818.348V222.328H821.236V242.105H818.416V239.797H818.175C818.001 240.112 817.75 240.473 817.421 240.878C817.099 241.284 816.655 241.638 816.089 241.94C815.522 242.243 814.788 242.394 813.887 242.394ZM814.524 239.932C815.355 239.932 816.057 239.713 816.63 239.275C817.209 238.831 817.647 238.216 817.943 237.431C818.245 236.645 818.397 235.731 818.397 234.688C818.397 233.658 818.249 232.757 817.952 231.984C817.656 231.212 817.222 230.61 816.649 230.179C816.076 229.747 815.368 229.532 814.524 229.532C813.655 229.532 812.931 229.757 812.352 230.208C811.772 230.658 811.334 231.273 811.038 232.052C810.749 232.831 810.604 233.71 810.604 234.688C810.604 235.68 810.752 236.571 811.048 237.363C811.344 238.155 811.782 238.783 812.361 239.246C812.947 239.703 813.668 239.932 814.524 239.932Z" fill="white"/>
<path d="M798.77 242.405C797.309 242.405 796.05 242.093 794.994 241.468C793.945 240.838 793.134 239.952 792.561 238.813C791.994 237.667 791.711 236.325 791.711 234.786C791.711 233.267 791.994 231.928 792.561 230.769C793.134 229.61 793.932 228.706 794.956 228.055C795.986 227.405 797.189 227.08 798.567 227.08C799.404 227.08 800.215 227.218 801.001 227.495C801.786 227.772 802.491 228.207 803.115 228.799C803.74 229.391 804.232 230.161 804.593 231.107C804.953 232.047 805.134 233.189 805.134 234.535V235.559H793.343V233.395H802.304C802.304 232.636 802.15 231.963 801.841 231.377C801.532 230.785 801.097 230.318 800.537 229.977C799.983 229.636 799.333 229.465 798.586 229.465C797.775 229.465 797.067 229.665 796.462 230.064C795.863 230.457 795.4 230.972 795.071 231.609C794.75 232.24 794.589 232.926 794.589 233.666V235.356C794.589 236.347 794.762 237.191 795.11 237.886C795.464 238.581 795.957 239.112 796.588 239.479C797.218 239.84 797.956 240.02 798.799 240.02C799.346 240.02 799.845 239.943 800.296 239.788C800.746 239.627 801.136 239.389 801.464 239.074C801.792 238.758 802.043 238.369 802.217 237.905L804.95 238.398C804.731 239.202 804.339 239.907 803.772 240.512C803.212 241.111 802.507 241.578 801.657 241.913C800.814 242.241 799.851 242.405 798.77 242.405Z" fill="white"/>
<path d="M775.586 247.668V227.273H778.406V229.678H778.647C778.814 229.369 779.056 229.011 779.371 228.606C779.687 228.2 780.125 227.846 780.685 227.544C781.245 227.235 781.985 227.08 782.906 227.08C784.103 227.08 785.172 227.383 786.112 227.988C787.052 228.593 787.789 229.465 788.323 230.605C788.864 231.744 789.134 233.115 789.134 234.718C789.134 236.321 788.867 237.696 788.333 238.842C787.798 239.981 787.064 240.86 786.131 241.478C785.197 242.09 784.132 242.395 782.935 242.395C782.033 242.395 781.296 242.244 780.723 241.942C780.157 241.639 779.713 241.285 779.391 240.879C779.069 240.474 778.821 240.113 778.647 239.798H778.473V247.668H775.586ZM778.415 234.689C778.415 235.732 778.567 236.647 778.869 237.432C779.172 238.217 779.61 238.832 780.182 239.276C780.755 239.714 781.457 239.933 782.288 239.933C783.15 239.933 783.871 239.704 784.451 239.247C785.03 238.784 785.468 238.156 785.764 237.364C786.067 236.573 786.218 235.681 786.218 234.689C786.218 233.711 786.07 232.832 785.774 232.053C785.484 231.274 785.046 230.659 784.46 230.209C783.881 229.758 783.157 229.533 782.288 229.533C781.451 229.533 780.743 229.749 780.163 230.18C779.59 230.611 779.156 231.213 778.86 231.986C778.563 232.758 778.415 233.659 778.415 234.689Z" fill="white"/>
<path d="M751.559 242.106V227.273H754.33V229.687H754.514C754.823 228.87 755.328 228.232 756.03 227.775C756.731 227.312 757.571 227.08 758.55 227.08C759.541 227.08 760.372 227.312 761.041 227.775C761.717 228.239 762.216 228.876 762.538 229.687H762.693C763.047 228.896 763.61 228.265 764.383 227.795C765.155 227.318 766.076 227.08 767.144 227.08C768.49 227.08 769.587 227.502 770.437 228.345C771.293 229.188 771.722 230.46 771.722 232.159V242.106H768.834V232.43C768.834 231.426 768.561 230.698 768.013 230.247C767.466 229.797 766.813 229.571 766.053 229.571C765.113 229.571 764.383 229.861 763.861 230.441C763.34 231.014 763.079 231.751 763.079 232.652V242.106H760.201V232.246C760.201 231.442 759.95 230.795 759.448 230.305C758.946 229.816 758.292 229.571 757.488 229.571C756.941 229.571 756.435 229.716 755.972 230.006C755.515 230.289 755.144 230.685 754.861 231.194C754.584 231.702 754.446 232.291 754.446 232.961V242.106H751.559Z" fill="white"/>
<path d="M740.395 242.434C739.455 242.434 738.605 242.26 737.845 241.913C737.086 241.559 736.484 241.047 736.039 240.377C735.602 239.708 735.383 238.887 735.383 237.915C735.383 237.078 735.544 236.389 735.866 235.848C736.188 235.308 736.622 234.879 737.169 234.564C737.716 234.248 738.328 234.01 739.004 233.849C739.68 233.688 740.369 233.566 741.071 233.482C741.959 233.379 742.68 233.296 743.234 233.231C743.787 233.161 744.19 233.048 744.441 232.893C744.692 232.739 744.817 232.488 744.817 232.14V232.073C744.817 231.229 744.579 230.576 744.103 230.112C743.633 229.649 742.931 229.417 741.998 229.417C741.025 229.417 740.259 229.633 739.699 230.064C739.146 230.489 738.763 230.962 738.55 231.483L735.837 230.865C736.159 229.964 736.629 229.237 737.247 228.683C737.871 228.123 738.589 227.717 739.4 227.466C740.211 227.209 741.064 227.08 741.959 227.08C742.551 227.08 743.179 227.151 743.842 227.293C744.512 227.428 745.136 227.679 745.715 228.046C746.301 228.413 746.781 228.937 747.154 229.62C747.528 230.296 747.714 231.174 747.714 232.256V242.106H744.895V240.078H744.779C744.592 240.451 744.312 240.818 743.939 241.179C743.565 241.539 743.086 241.839 742.5 242.077C741.914 242.315 741.212 242.434 740.395 242.434ZM741.022 240.116C741.821 240.116 742.503 239.959 743.069 239.643C743.642 239.328 744.077 238.916 744.373 238.407C744.676 237.892 744.827 237.342 744.827 236.756V234.844C744.724 234.947 744.524 235.044 744.228 235.134C743.939 235.217 743.607 235.291 743.234 235.356C742.86 235.414 742.497 235.468 742.142 235.52C741.788 235.565 741.492 235.604 741.254 235.636C740.694 235.707 740.182 235.826 739.719 235.993C739.262 236.16 738.895 236.402 738.618 236.717C738.347 237.026 738.212 237.438 738.212 237.953C738.212 238.668 738.476 239.209 739.004 239.576C739.532 239.936 740.205 240.116 741.022 240.116Z" fill="white"/>
<path d="M732.883 227.273V229.591H724.781V227.273H732.883ZM726.954 223.719H729.841V237.751C729.841 238.311 729.925 238.732 730.092 239.016C730.26 239.292 730.475 239.482 730.739 239.585C731.01 239.682 731.303 239.73 731.618 239.73C731.85 239.73 732.053 239.714 732.226 239.682C732.4 239.65 732.535 239.624 732.632 239.605L733.154 241.99C732.986 242.054 732.748 242.119 732.439 242.183C732.13 242.254 731.744 242.292 731.28 242.299C730.52 242.312 729.812 242.176 729.156 241.893C728.499 241.61 727.968 241.172 727.562 240.58C727.157 239.988 726.954 239.244 726.954 238.349V223.719Z" fill="white"/>
<path d="M719.471 227.524C719.368 226.61 718.943 225.902 718.196 225.4C717.45 224.891 716.51 224.637 715.377 224.637C714.565 224.637 713.864 224.765 713.271 225.023C712.679 225.274 712.219 225.622 711.891 226.066C711.569 226.504 711.408 227.003 711.408 227.563C711.408 228.033 711.517 228.438 711.736 228.779C711.961 229.121 712.254 229.407 712.615 229.639C712.982 229.864 713.374 230.054 713.793 230.209C714.211 230.357 714.614 230.479 715 230.575L716.931 231.078C717.562 231.232 718.209 231.441 718.872 231.705C719.535 231.969 720.15 232.317 720.717 232.748C721.283 233.18 721.74 233.714 722.088 234.351C722.442 234.989 722.619 235.751 722.619 236.64C722.619 237.76 722.329 238.755 721.75 239.624C721.177 240.493 720.343 241.178 719.249 241.681C718.161 242.183 716.844 242.434 715.299 242.434C713.819 242.434 712.538 242.199 711.456 241.729C710.374 241.259 709.528 240.593 708.916 239.73C708.305 238.861 707.967 237.831 707.902 236.64H710.896C710.954 237.354 711.186 237.95 711.591 238.426C712.003 238.896 712.528 239.247 713.165 239.479C713.809 239.704 714.514 239.817 715.28 239.817C716.123 239.817 716.873 239.685 717.53 239.421C718.193 239.151 718.715 238.777 719.094 238.301C719.474 237.818 719.664 237.255 719.664 236.611C719.664 236.025 719.497 235.545 719.162 235.172C718.834 234.799 718.386 234.49 717.82 234.245C717.26 234 716.625 233.785 715.917 233.598L713.58 232.961C711.997 232.529 710.741 231.895 709.814 231.058C708.894 230.221 708.433 229.114 708.433 227.736C708.433 226.597 708.742 225.602 709.36 224.753C709.979 223.903 710.815 223.243 711.871 222.773C712.927 222.297 714.118 222.058 715.444 222.058C716.783 222.058 717.965 222.293 718.988 222.763C720.018 223.233 720.829 223.88 721.422 224.704C722.014 225.522 722.323 226.462 722.349 227.524H719.471Z" fill="white"/>
<path d="M691.7 242.405C690.238 242.405 688.98 242.093 687.924 241.468C686.875 240.838 686.063 239.952 685.49 238.813C684.924 237.667 684.641 236.325 684.641 234.786C684.641 233.267 684.924 231.928 685.49 230.769C686.063 229.61 686.862 228.706 687.885 228.055C688.915 227.405 690.119 227.08 691.497 227.08C692.334 227.08 693.145 227.218 693.93 227.495C694.716 227.772 695.421 228.207 696.045 228.799C696.67 229.391 697.162 230.161 697.523 231.107C697.883 232.047 698.063 233.189 698.063 234.535V235.559H686.273V233.395H695.234C695.234 232.636 695.079 231.963 694.77 231.377C694.461 230.785 694.027 230.318 693.467 229.977C692.913 229.636 692.263 229.465 691.516 229.465C690.705 229.465 689.997 229.665 689.392 230.064C688.793 230.457 688.329 230.972 688.001 231.609C687.679 232.24 687.518 232.926 687.518 233.666V235.356C687.518 236.347 687.692 237.191 688.04 237.886C688.394 238.581 688.886 239.112 689.517 239.479C690.148 239.84 690.885 240.02 691.729 240.02C692.276 240.02 692.775 239.943 693.225 239.788C693.676 239.627 694.065 239.389 694.394 239.074C694.722 238.758 694.973 238.369 695.147 237.905L697.88 238.398C697.661 239.202 697.268 239.907 696.702 240.512C696.142 241.111 695.437 241.578 694.587 241.913C693.744 242.241 692.781 242.405 691.7 242.405Z" fill="white"/>
<path d="M661.27 242.106V227.273H664.041V229.687H664.224C664.533 228.87 665.039 228.232 665.741 227.775C666.442 227.312 667.282 227.08 668.261 227.08C669.252 227.08 670.083 227.312 670.752 227.775C671.428 228.239 671.927 228.876 672.249 229.687H672.404C672.758 228.896 673.321 228.265 674.093 227.795C674.866 227.318 675.787 227.08 676.855 227.08C678.201 227.08 679.298 227.502 680.148 228.345C681.004 229.188 681.433 230.46 681.433 232.159V242.106H678.545V232.43C678.545 231.426 678.272 230.698 677.724 230.247C677.177 229.797 676.524 229.571 675.764 229.571C674.824 229.571 674.093 229.861 673.572 230.441C673.051 231.014 672.79 231.751 672.79 232.652V242.106H669.912V232.246C669.912 231.442 669.661 230.795 669.159 230.305C668.657 229.816 668.003 229.571 667.199 229.571C666.651 229.571 666.146 229.716 665.683 230.006C665.226 230.289 664.855 230.685 664.572 231.194C664.295 231.702 664.157 232.291 664.157 232.961V242.106H661.27Z" fill="white"/>
<path d="M654.5 242.105V227.273H657.387V242.105H654.5ZM655.958 224.984C655.456 224.984 655.024 224.817 654.664 224.482C654.31 224.141 654.133 223.735 654.133 223.265C654.133 222.789 654.31 222.383 654.664 222.048C655.024 221.707 655.456 221.537 655.958 221.537C656.46 221.537 656.888 221.707 657.242 222.048C657.603 222.383 657.783 222.789 657.783 223.265C657.783 223.735 657.603 224.141 657.242 224.482C656.888 224.817 656.46 224.984 655.958 224.984Z" fill="white"/>
<path d="M636.043 224.897V222.328H651.349V224.897H645.178V242.105H642.204V224.897H636.043Z" fill="white"/>
<path d="M529 441C529 430.507 537.476 422 547.932 422H629.068C639.524 422 648 430.507 648 441V441C648 451.493 639.524 460 629.068 460H547.932C537.476 460 529 451.493 529 441V441Z" fill="#4DCBF8"/>
<path d="M621.137 436.659V438.977H613.035V436.659H621.137ZM615.208 433.105H618.095V447.137C618.095 447.697 618.179 448.118 618.346 448.402C618.514 448.678 618.729 448.868 618.993 448.971C619.264 449.068 619.557 449.116 619.872 449.116C620.104 449.116 620.307 449.1 620.48 449.068C620.654 449.036 620.789 449.01 620.886 448.991L621.407 451.376C621.24 451.44 621.002 451.505 620.693 451.569C620.384 451.64 619.998 451.678 619.534 451.685C618.774 451.698 618.066 451.562 617.41 451.279C616.753 450.996 616.222 450.558 615.816 449.966C615.411 449.374 615.208 448.63 615.208 447.735V433.105Z" fill="white"/>
<path d="M607.441 451.491V436.658H610.328V451.491H607.441ZM608.899 434.37C608.397 434.37 607.966 434.202 607.605 433.868C607.251 433.526 607.074 433.121 607.074 432.651C607.074 432.175 607.251 431.769 607.605 431.434C607.966 431.093 608.397 430.922 608.899 430.922C609.401 430.922 609.83 431.093 610.184 431.434C610.544 431.769 610.724 432.175 610.724 432.651C610.724 433.121 610.544 433.526 610.184 433.868C609.83 434.202 609.401 434.37 608.899 434.37Z" fill="white"/>
<path d="M595.973 451.78C594.776 451.78 593.707 451.474 592.767 450.863C591.834 450.245 591.1 449.366 590.565 448.227C590.037 447.081 589.773 445.706 589.773 444.103C589.773 442.5 590.041 441.129 590.575 439.99C591.116 438.85 591.856 437.978 592.796 437.373C593.736 436.767 594.801 436.465 595.992 436.465C596.913 436.465 597.653 436.619 598.213 436.928C598.78 437.231 599.218 437.585 599.527 437.991C599.842 438.396 600.087 438.754 600.261 439.063H600.434V431.714H603.322V451.491H600.502V449.183H600.261C600.087 449.498 599.836 449.859 599.507 450.264C599.185 450.67 598.741 451.024 598.175 451.326C597.608 451.629 596.874 451.78 595.973 451.78ZM596.61 449.318C597.441 449.318 598.142 449.099 598.715 448.661C599.295 448.217 599.733 447.602 600.029 446.817C600.331 446.031 600.483 445.117 600.483 444.074C600.483 443.044 600.335 442.143 600.038 441.37C599.742 440.598 599.308 439.996 598.735 439.565C598.162 439.133 597.454 438.918 596.61 438.918C595.741 438.918 595.017 439.143 594.438 439.594C593.858 440.044 593.42 440.659 593.124 441.438C592.835 442.217 592.69 443.096 592.69 444.074C592.69 445.066 592.838 445.957 593.134 446.749C593.43 447.541 593.868 448.169 594.447 448.632C595.033 449.089 595.754 449.318 596.61 449.318Z" fill="white"/>
<path d="M583.638 445.34V436.659H586.535V451.491H583.696V448.923H583.541C583.2 449.714 582.653 450.374 581.9 450.902C581.153 451.424 580.223 451.684 579.109 451.684C578.156 451.684 577.313 451.475 576.579 451.057C575.852 450.632 575.279 450.004 574.86 449.174C574.448 448.343 574.242 447.316 574.242 446.093V436.659H577.13V445.746C577.13 446.756 577.41 447.561 577.97 448.16C578.53 448.758 579.257 449.058 580.152 449.058C580.693 449.058 581.23 448.923 581.765 448.652C582.305 448.382 582.753 447.973 583.107 447.426C583.467 446.879 583.644 446.183 583.638 445.34Z" fill="white"/>
<path d="M557.109 451.491H553.941L561.058 431.714H564.506L571.623 451.491H568.455L562.864 435.306H562.71L557.109 451.491ZM557.64 443.746H567.915V446.257H557.64V443.746Z" fill="white"/>
</g>
<path d="M292 296.561C292 289.071 298.105 283 305.636 283H488.364C495.895 283 502 289.071 502 296.561V448.439C502 455.929 495.895 462 488.364 462H305.636C298.105 462 292 455.929 292 448.439V296.561Z" fill="#6BDA7A"/>
<path d="M397 428C404.732 428 411 421.732 411 414C411 406.268 404.732 400 397 400C389.268 400 383 406.268 383 414C383 421.732 389.268 428 397 428Z" fill="white"/>
<path d="M441 428C448.732 428 455 421.732 455 414C455 406.268 448.732 400 441 400C433.268 400 427 406.268 427 414C427 421.732 433.268 428 441 428Z" fill="white"/>
<path d="M352 428C359.732 428 366 421.732 366 414C366 406.268 359.732 400 352 400C344.268 400 338 406.268 338 414C338 421.732 344.268 428 352 428Z" fill="white"/>
<path d="M350.81 393.486C350.97 393.647 351.162 393.777 351.375 393.861C351.586 393.948 351.815 393.996 352.05 393.996C352.283 393.996 352.513 393.948 352.724 393.861C352.901 393.787 353.051 393.673 353.194 393.552C353.224 393.524 353.262 393.518 353.29 393.488L360.587 386.24C361.27 385.565 361.27 384.459 360.586 383.781C359.905 383.105 358.793 383.105 358.109 383.781L353.803 388.057V375.835C353.803 371.159 357.638 367.351 362.352 367.351H386.196C389.535 367.351 392.56 366.305 394.745 364.62V388.062L390.437 383.784C389.755 383.106 388.643 383.106 387.959 383.784C387.277 384.46 387.277 385.566 387.961 386.242L395.259 393.488C395.42 393.649 395.613 393.778 395.828 393.866C396.042 393.951 396.269 394 396.497 394C396.726 394 396.953 393.954 397.167 393.866C397.382 393.78 397.574 393.649 397.735 393.488L405.034 386.242C405.718 385.566 405.718 384.46 405.035 383.784C404.352 383.106 403.239 383.106 402.558 383.784L398.249 388.062V364.615C400.438 366.299 403.464 367.346 406.799 367.346H430.642C435.357 367.346 439.192 371.154 439.192 375.834V388.052L434.89 383.777C434.21 383.099 433.094 383.099 432.412 383.777C431.731 384.454 431.731 385.559 432.411 386.239L439.708 393.485C439.735 393.512 439.778 393.519 439.804 393.548C439.942 393.673 440.1 393.786 440.271 393.86C440.482 393.943 440.71 393.994 440.947 393.994C441.185 393.994 441.408 393.946 441.624 393.86C441.836 393.772 442.028 393.643 442.189 393.485L449.488 386.239C450.17 385.559 450.17 384.454 449.489 383.777C448.805 383.099 447.693 383.099 447.012 383.777L442.705 388.053V375.834C442.705 369.235 437.298 363.865 430.652 363.865H406.796C402.167 363.865 398.247 361.235 398.247 358.12V350.636C398.247 350.605 398.231 350.579 398.228 350.55C407.047 349.685 413.936 342.301 413.936 333.318C413.936 323.754 406.126 316 396.497 316C386.868 316 379.057 323.754 379.057 333.318C379.057 342.301 385.945 349.685 394.763 350.55C394.762 350.581 394.745 350.605 394.745 350.636V358.12C394.745 361.235 390.829 363.865 386.196 363.865H362.35C355.704 363.865 350.298 369.235 350.298 375.834V388.053L345.989 383.777C345.308 383.099 344.196 383.099 343.512 383.777C342.829 384.454 342.829 385.559 343.513 386.239L350.81 393.486Z" fill="white"/>
<path d="M761.642 321.235C760.316 321.235 759.131 321.007 758.088 320.55C757.052 320.093 756.231 319.459 755.626 318.647C755.027 317.83 754.705 316.884 754.66 315.808H757.692C757.731 316.394 757.927 316.903 758.281 317.334C758.642 317.759 759.112 318.087 759.691 318.319C760.271 318.551 760.914 318.667 761.623 318.667C762.402 318.667 763.09 318.532 763.689 318.261C764.294 317.991 764.767 317.614 765.109 317.131C765.45 316.642 765.62 316.079 765.62 315.441C765.62 314.778 765.45 314.196 765.109 313.694C764.774 313.185 764.281 312.786 763.631 312.496C762.987 312.207 762.208 312.062 761.294 312.062H759.624V309.628H761.294C762.028 309.628 762.672 309.496 763.226 309.232C763.786 308.968 764.223 308.601 764.539 308.131C764.854 307.655 765.012 307.098 765.012 306.461C765.012 305.849 764.874 305.318 764.597 304.868C764.326 304.41 763.94 304.053 763.438 303.796C762.942 303.538 762.356 303.409 761.68 303.409C761.037 303.409 760.435 303.528 759.875 303.767C759.321 303.998 758.87 304.333 758.523 304.771C758.175 305.202 757.988 305.721 757.963 306.326H755.075C755.108 305.257 755.423 304.317 756.022 303.506C756.627 302.695 757.425 302.061 758.417 301.604C759.408 301.147 760.509 300.918 761.719 300.918C762.987 300.918 764.082 301.166 765.002 301.662C765.929 302.151 766.644 302.804 767.146 303.622C767.655 304.439 767.906 305.334 767.899 306.306C767.906 307.414 767.597 308.354 766.972 309.126C766.354 309.899 765.53 310.417 764.5 310.681V310.835C765.814 311.035 766.831 311.556 767.552 312.4C768.279 313.243 768.64 314.289 768.633 315.538C768.64 316.626 768.337 317.601 767.726 318.464C767.12 319.327 766.293 320.006 765.244 320.502C764.194 320.991 762.994 321.235 761.642 321.235Z" fill="#767676"/>
<path d="M738.09 320.965V318.802L744.782 311.869C745.496 311.115 746.085 310.455 746.549 309.889C747.019 309.316 747.37 308.772 747.601 308.257C747.833 307.742 747.949 307.195 747.949 306.615C747.949 305.959 747.795 305.392 747.485 304.916C747.176 304.433 746.755 304.063 746.22 303.805C745.686 303.541 745.084 303.409 744.415 303.409C743.707 303.409 743.089 303.554 742.561 303.844C742.033 304.134 741.627 304.542 741.344 305.07C741.061 305.598 740.919 306.216 740.919 306.924H738.07C738.07 305.721 738.347 304.668 738.901 303.767C739.454 302.865 740.214 302.167 741.18 301.671C742.145 301.169 743.243 300.918 744.473 300.918C745.715 300.918 746.81 301.166 747.756 301.662C748.709 302.151 749.452 302.82 749.987 303.67C750.521 304.513 750.788 305.466 750.788 306.528C750.788 307.262 750.65 307.98 750.373 308.682C750.102 309.384 749.629 310.166 748.953 311.028C748.277 311.885 747.337 312.924 746.134 314.148L742.203 318.261V318.406H751.107V320.965H738.09Z" fill="#767676"/>
<path d="M721.41 320.965V318.802L728.102 311.869C728.817 311.115 729.406 310.455 729.869 309.889C730.339 309.316 730.69 308.772 730.922 308.257C731.153 307.742 731.269 307.195 731.269 306.615C731.269 305.959 731.115 305.392 730.806 304.916C730.497 304.433 730.075 304.063 729.541 303.805C729.006 303.541 728.405 303.409 727.735 303.409C727.027 303.409 726.409 303.554 725.881 303.844C725.353 304.134 724.947 304.542 724.664 305.07C724.381 305.598 724.239 306.216 724.239 306.924H721.391C721.391 305.721 721.667 304.668 722.221 303.767C722.775 302.865 723.534 302.167 724.5 301.671C725.466 301.169 726.563 300.918 727.793 300.918C729.035 300.918 730.13 301.166 731.076 301.662C732.029 302.151 732.773 302.82 733.307 303.67C733.841 304.513 734.108 305.466 734.108 306.528C734.108 307.262 733.97 307.98 733.693 308.682C733.423 309.384 732.95 310.166 732.274 311.028C731.598 311.885 730.658 312.924 729.454 314.148L725.524 318.261V318.406H734.427V320.965H721.41Z" fill="#767676"/>
<path d="M710.744 321.293C709.219 321.287 707.915 320.885 706.833 320.086C705.752 319.288 704.925 318.126 704.352 316.6C703.779 315.075 703.492 313.237 703.492 311.086C703.492 308.943 703.779 307.111 704.352 305.592C704.931 304.072 705.761 302.914 706.843 302.115C707.931 301.317 709.231 300.918 710.744 300.918C712.257 300.918 713.554 301.32 714.636 302.125C715.717 302.923 716.545 304.082 717.118 305.601C717.697 307.114 717.987 308.943 717.987 311.086C717.987 313.243 717.7 315.084 717.127 316.61C716.554 318.129 715.727 319.291 714.646 320.096C713.564 320.894 712.264 321.293 710.744 321.293ZM710.744 318.715C712.083 318.715 713.129 318.062 713.883 316.755C714.642 315.448 715.022 313.558 715.022 311.086C715.022 309.445 714.848 308.057 714.501 306.924C714.159 305.785 713.667 304.922 713.023 304.336C712.386 303.744 711.626 303.448 710.744 303.448C709.412 303.448 708.366 304.105 707.606 305.418C706.846 306.731 706.463 308.621 706.457 311.086C706.457 312.734 706.627 314.128 706.969 315.268C707.316 316.401 707.809 317.26 708.446 317.846C709.083 318.425 709.849 318.715 710.744 318.715Z" fill="#767676"/>
<path d="M698.501 301.188V320.964H695.508V304.181H695.392L690.66 307.271V304.413L695.595 301.188H698.501Z" fill="#767676"/>
<path d="M680.334 321.293C678.808 321.287 677.505 320.885 676.423 320.086C675.342 319.288 674.514 318.126 673.941 316.6C673.369 315.075 673.082 313.237 673.082 311.086C673.082 308.943 673.369 307.111 673.941 305.592C674.521 304.072 675.351 302.914 676.433 302.115C677.521 301.317 678.821 300.918 680.334 300.918C681.847 300.918 683.144 301.32 684.226 302.125C685.307 302.923 686.135 304.082 686.707 305.601C687.287 307.114 687.577 308.943 687.577 311.086C687.577 313.243 687.29 315.084 686.717 316.61C686.144 318.129 685.317 319.291 684.235 320.096C683.154 320.894 681.853 321.293 680.334 321.293ZM680.334 318.715C681.673 318.715 682.719 318.062 683.473 316.755C684.232 315.448 684.612 313.558 684.612 311.086C684.612 309.445 684.438 308.057 684.091 306.924C683.749 305.785 683.257 304.922 682.613 304.336C681.976 303.744 681.216 303.448 680.334 303.448C679.002 303.448 677.955 304.105 677.196 305.418C676.436 306.731 676.053 308.621 676.047 311.086C676.047 312.734 676.217 314.128 676.558 315.268C676.906 316.401 677.399 317.26 678.036 317.846C678.673 318.425 679.439 318.715 680.334 318.715Z" fill="#767676"/>
<path d="M662.787 321.293C661.262 321.287 659.958 320.885 658.876 320.086C657.795 319.288 656.968 318.126 656.395 316.6C655.822 315.075 655.535 313.237 655.535 311.086C655.535 308.943 655.822 307.111 656.395 305.592C656.974 304.072 657.804 302.914 658.886 302.115C659.974 301.317 661.274 300.918 662.787 300.918C664.3 300.918 665.597 301.32 666.679 302.125C667.76 302.923 668.588 304.082 669.161 305.601C669.74 307.114 670.03 308.943 670.03 311.086C670.03 313.243 669.743 315.084 669.17 316.61C668.597 318.129 667.77 319.291 666.689 320.096C665.607 320.894 664.307 321.293 662.787 321.293ZM662.787 318.715C664.126 318.715 665.172 318.062 665.926 316.755C666.685 315.448 667.065 313.558 667.065 311.086C667.065 309.445 666.891 308.057 666.544 306.924C666.202 305.785 665.71 304.922 665.066 304.336C664.429 303.744 663.669 303.448 662.787 303.448C661.455 303.448 660.409 304.105 659.649 305.418C658.889 306.731 658.506 308.621 658.5 311.086C658.5 312.734 658.67 314.128 659.012 315.268C659.359 316.401 659.852 317.26 660.489 317.846C661.126 318.425 661.892 318.715 662.787 318.715Z" fill="#767676"/>
<path d="M646.034 320.964L649.278 301.188H651.596L648.351 320.964H646.034ZM637.082 315.672L637.459 313.355H652.446L652.069 315.672H637.082ZM639.081 320.964L642.326 301.188H644.643L641.399 320.964H639.081ZM638.231 308.797L638.608 306.479H653.595L653.218 308.797H638.231Z" fill="#767676"/>
<path d="M621.856 321.265C620.394 321.265 619.136 320.953 618.08 320.328C617.031 319.697 616.22 318.812 615.647 317.673C615.08 316.527 614.797 315.185 614.797 313.646C614.797 312.127 615.08 310.788 615.647 309.629C616.22 308.47 617.018 307.565 618.041 306.915C619.072 306.265 620.275 305.94 621.653 305.94C622.49 305.94 623.301 306.078 624.087 306.355C624.872 306.632 625.577 307.067 626.201 307.659C626.826 308.251 627.318 309.02 627.679 309.967C628.039 310.907 628.22 312.049 628.22 313.395V314.418H616.429V312.255H625.39C625.39 311.496 625.236 310.823 624.927 310.237C624.618 309.645 624.183 309.178 623.623 308.837C623.069 308.496 622.419 308.325 621.672 308.325C620.861 308.325 620.153 308.525 619.548 308.924C618.949 309.317 618.486 309.832 618.157 310.469C617.835 311.1 617.675 311.785 617.675 312.526V314.216C617.675 315.207 617.848 316.05 618.196 316.746C618.55 317.441 619.043 317.972 619.673 318.339C620.304 318.7 621.041 318.88 621.885 318.88C622.432 318.88 622.931 318.803 623.382 318.648C623.832 318.487 624.222 318.249 624.55 317.933C624.878 317.618 625.129 317.229 625.303 316.765L628.036 317.257C627.817 318.062 627.424 318.767 626.858 319.372C626.298 319.971 625.593 320.438 624.743 320.772C623.9 321.101 622.937 321.265 621.856 321.265Z" fill="#767676"/>
<path d="M612.426 306.133V308.45H604.324V306.133H612.426ZM606.497 302.579H609.384V316.61C609.384 317.17 609.468 317.592 609.635 317.875C609.803 318.152 610.018 318.342 610.282 318.445C610.553 318.541 610.846 318.59 611.161 318.59C611.393 318.59 611.596 318.574 611.769 318.541C611.943 318.509 612.078 318.484 612.175 318.464L612.696 320.849C612.529 320.914 612.291 320.978 611.982 321.043C611.673 321.113 611.287 321.152 610.823 321.158C610.063 321.171 609.355 321.036 608.699 320.753C608.042 320.47 607.511 320.032 607.105 319.44C606.7 318.847 606.497 318.104 606.497 317.209V302.579Z" fill="#767676"/>
<path d="M594.336 321.294C593.396 321.294 592.546 321.12 591.787 320.772C591.027 320.418 590.425 319.907 589.981 319.237C589.543 318.568 589.324 317.747 589.324 316.775C589.324 315.938 589.485 315.249 589.807 314.708C590.129 314.167 590.563 313.739 591.111 313.424C591.658 313.108 592.269 312.87 592.945 312.709C593.621 312.548 594.31 312.426 595.012 312.342C595.9 312.239 596.621 312.156 597.175 312.091C597.729 312.02 598.131 311.908 598.382 311.753C598.633 311.599 598.759 311.348 598.759 311V310.932C598.759 310.089 598.521 309.436 598.044 308.972C597.574 308.509 596.872 308.277 595.939 308.277C594.967 308.277 594.201 308.493 593.641 308.924C593.087 309.349 592.704 309.822 592.492 310.343L589.778 309.725C590.1 308.824 590.57 308.097 591.188 307.543C591.812 306.983 592.53 306.577 593.341 306.326C594.153 306.069 595.006 305.94 595.9 305.94C596.493 305.94 597.12 306.011 597.783 306.152C598.453 306.288 599.077 306.539 599.657 306.906C600.243 307.273 600.722 307.797 601.096 308.48C601.469 309.156 601.656 310.034 601.656 311.116V320.966H598.836V318.938H598.72C598.533 319.311 598.253 319.678 597.88 320.039C597.507 320.399 597.027 320.698 596.441 320.937C595.855 321.175 595.154 321.294 594.336 321.294ZM594.964 318.976C595.762 318.976 596.444 318.819 597.011 318.503C597.584 318.188 598.018 317.776 598.315 317.267C598.617 316.752 598.768 316.202 598.768 315.616V313.704C598.665 313.807 598.466 313.903 598.17 313.994C597.88 314.077 597.548 314.151 597.175 314.216C596.802 314.274 596.438 314.328 596.084 314.38C595.73 314.425 595.434 314.463 595.195 314.496C594.635 314.567 594.124 314.686 593.66 314.853C593.203 315.02 592.836 315.262 592.559 315.577C592.289 315.886 592.154 316.298 592.154 316.813C592.154 317.528 592.418 318.069 592.945 318.436C593.473 318.796 594.146 318.976 594.964 318.976Z" fill="#767676"/>
<path d="M578.551 321.254C577.354 321.254 576.285 320.948 575.345 320.337C574.412 319.719 573.678 318.84 573.143 317.7C572.616 316.554 572.352 315.18 572.352 313.577C572.352 311.974 572.619 310.603 573.153 309.463C573.694 308.324 574.434 307.451 575.374 306.846C576.314 306.241 577.379 305.939 578.57 305.939C579.491 305.939 580.231 306.093 580.791 306.402C581.358 306.705 581.796 307.059 582.105 307.464C582.42 307.87 582.665 308.227 582.839 308.536H583.012V301.188H585.9V320.964H583.08V318.656H582.839C582.665 318.972 582.414 319.332 582.085 319.738C581.764 320.143 581.319 320.497 580.753 320.8C580.186 321.103 579.452 321.254 578.551 321.254ZM579.188 318.791C580.019 318.791 580.721 318.573 581.294 318.135C581.873 317.691 582.311 317.076 582.607 316.29C582.909 315.505 583.061 314.591 583.061 313.548C583.061 312.518 582.913 311.617 582.617 310.844C582.32 310.072 581.886 309.47 581.313 309.038C580.74 308.607 580.032 308.391 579.188 308.391C578.319 308.391 577.595 308.617 577.016 309.067C576.436 309.518 575.999 310.133 575.702 310.912C575.413 311.691 575.268 312.569 575.268 313.548C575.268 314.539 575.416 315.431 575.712 316.223C576.008 317.015 576.446 317.642 577.025 318.106C577.611 318.563 578.332 318.791 579.188 318.791Z" fill="#767676"/>
<path d="M556.215 326.528V306.133H559.035V308.538H559.276C559.443 308.229 559.685 307.871 560 307.466C560.316 307.06 560.753 306.706 561.314 306.403C561.874 306.094 562.614 305.94 563.535 305.94C564.732 305.94 565.801 306.243 566.741 306.848C567.68 307.453 568.418 308.325 568.952 309.465C569.493 310.604 569.763 311.975 569.763 313.578C569.763 315.181 569.496 316.556 568.962 317.702C568.427 318.841 567.693 319.72 566.76 320.338C565.826 320.95 564.761 321.255 563.564 321.255C562.662 321.255 561.925 321.104 561.352 320.801C560.786 320.499 560.341 320.145 560.02 319.739C559.698 319.334 559.45 318.973 559.276 318.658H559.102V326.528H556.215ZM559.044 313.549C559.044 314.592 559.196 315.506 559.498 316.292C559.801 317.077 560.238 317.692 560.811 318.136C561.384 318.574 562.086 318.793 562.917 318.793C563.779 318.793 564.5 318.564 565.08 318.107C565.659 317.644 566.097 317.016 566.393 316.224C566.695 315.432 566.847 314.541 566.847 313.549C566.847 312.571 566.699 311.692 566.403 310.913C566.113 310.134 565.675 309.519 565.089 309.069C564.51 308.618 563.786 308.393 562.917 308.393C562.08 308.393 561.371 308.608 560.792 309.04C560.219 309.471 559.785 310.073 559.488 310.845C559.192 311.618 559.044 312.519 559.044 313.549Z" fill="#767676"/>
<path d="M549.124 301.188H552.118V314.195C552.118 315.579 551.792 316.805 551.142 317.874C550.492 318.936 549.578 319.773 548.4 320.385C547.222 320.99 545.841 321.293 544.257 321.293C542.68 321.293 541.302 320.99 540.124 320.385C538.946 319.773 538.032 318.936 537.382 317.874C536.731 316.805 536.406 315.579 536.406 314.195V301.188H539.39V313.954C539.39 314.848 539.586 315.643 539.979 316.339C540.378 317.034 540.942 317.581 541.669 317.98C542.397 318.373 543.259 318.569 544.257 318.569C545.261 318.569 546.127 318.373 546.855 317.98C547.589 317.581 548.149 317.034 548.535 316.339C548.928 315.643 549.124 314.848 549.124 313.954V301.188Z" fill="#767676"/>
<path d="M710.266 377.02L708.629 377.483C708.526 377.21 708.374 376.945 708.173 376.687C707.977 376.425 707.709 376.208 707.369 376.038C707.029 375.868 706.594 375.783 706.064 375.783C705.338 375.783 704.732 375.951 704.248 376.286C703.769 376.615 703.53 377.035 703.53 377.545C703.53 377.998 703.695 378.356 704.024 378.619C704.354 378.881 704.869 379.1 705.569 379.275L707.331 379.708C708.392 379.965 709.182 380.359 709.702 380.89C710.223 381.415 710.483 382.092 710.483 382.922C710.483 383.601 710.287 384.209 709.896 384.745C709.509 385.28 708.969 385.703 708.273 386.012C707.578 386.321 706.769 386.475 705.847 386.475C704.637 386.475 703.635 386.213 702.842 385.687C702.049 385.162 701.547 384.395 701.336 383.385L703.066 382.953C703.231 383.591 703.543 384.07 704.001 384.389C704.465 384.709 705.07 384.868 705.817 384.868C706.666 384.868 707.341 384.688 707.841 384.328C708.345 383.962 708.598 383.524 708.598 383.014C708.598 382.602 708.453 382.257 708.165 381.979C707.877 381.696 707.434 381.485 706.836 381.346L704.859 380.882C703.772 380.625 702.974 380.226 702.464 379.685C701.959 379.139 701.707 378.456 701.707 377.638C701.707 376.968 701.895 376.376 702.271 375.861C702.652 375.346 703.169 374.941 703.823 374.648C704.483 374.354 705.229 374.208 706.064 374.208C707.238 374.208 708.16 374.465 708.829 374.98C709.504 375.495 709.983 376.175 710.266 377.02Z" fill="#767676"/>
<path d="M698.903 377.02L697.265 377.483C697.162 377.21 697.01 376.945 696.81 376.687C696.614 376.425 696.346 376.208 696.006 376.038C695.666 375.868 695.231 375.783 694.701 375.783C693.974 375.783 693.369 375.951 692.885 376.286C692.406 376.615 692.167 377.035 692.167 377.545C692.167 377.998 692.331 378.356 692.661 378.619C692.991 378.881 693.506 379.1 694.206 379.275L695.967 379.708C697.028 379.965 697.819 380.359 698.339 380.89C698.859 381.415 699.119 382.092 699.119 382.922C699.119 383.601 698.924 384.209 698.532 384.745C698.146 385.28 697.605 385.703 696.91 386.012C696.215 386.321 695.406 386.475 694.484 386.475C693.274 386.475 692.272 386.213 691.479 385.687C690.686 385.162 690.184 384.395 689.973 383.385L691.703 382.953C691.868 383.591 692.18 384.07 692.638 384.389C693.101 384.709 693.707 384.868 694.453 384.868C695.303 384.868 695.978 384.688 696.477 384.328C696.982 383.962 697.234 383.524 697.234 383.014C697.234 382.602 697.09 382.257 696.802 381.979C696.513 381.696 696.07 381.485 695.473 381.346L693.495 380.882C692.409 380.625 691.61 380.226 691.101 379.685C690.596 379.139 690.343 378.456 690.343 377.638C690.343 376.968 690.531 376.376 690.907 375.861C691.289 375.346 691.806 374.941 692.46 374.648C693.119 374.354 693.866 374.208 694.701 374.208C695.875 374.208 696.797 374.465 697.466 374.98C698.141 375.495 698.62 376.175 698.903 377.02Z" fill="#767676"/>
<path d="M682.809 386.475C681.665 386.475 680.679 386.223 679.85 385.718C679.026 385.208 678.39 384.498 677.942 383.586C677.499 382.669 677.277 381.603 677.277 380.388C677.277 379.172 677.499 378.101 677.942 377.174C678.39 376.242 679.013 375.516 679.811 374.995C680.615 374.47 681.552 374.208 682.623 374.208C683.241 374.208 683.852 374.311 684.454 374.517C685.057 374.723 685.605 375.057 686.1 375.521C686.594 375.979 686.988 376.587 687.282 377.344C687.575 378.101 687.722 379.033 687.722 380.141V380.913H678.575V379.337H685.868C685.868 378.668 685.734 378.07 685.466 377.545C685.203 377.02 684.828 376.605 684.338 376.301C683.854 375.997 683.282 375.845 682.623 375.845C681.897 375.845 681.269 376.026 680.738 376.386C680.213 376.741 679.809 377.205 679.525 377.777C679.242 378.348 679.101 378.961 679.101 379.615V380.666C679.101 381.562 679.255 382.322 679.564 382.945C679.878 383.563 680.313 384.034 680.87 384.359C681.426 384.678 682.072 384.838 682.809 384.838C683.288 384.838 683.72 384.771 684.106 384.637C684.498 384.498 684.835 384.292 685.118 384.019C685.402 383.741 685.621 383.395 685.775 382.983L687.537 383.478C687.351 384.075 687.04 384.601 686.602 385.054C686.164 385.502 685.623 385.852 684.979 386.104C684.336 386.352 683.612 386.475 682.809 386.475Z" fill="#767676"/>
<path d="M670.098 386.229V374.363H671.859V376.155H671.983C672.199 375.568 672.59 375.091 673.157 374.726C673.723 374.36 674.362 374.177 675.073 374.177C675.207 374.177 675.374 374.18 675.575 374.185C675.776 374.19 675.928 374.198 676.031 374.208V376.062C675.969 376.047 675.827 376.024 675.606 375.993C675.389 375.957 675.16 375.939 674.918 375.939C674.341 375.939 673.826 376.06 673.373 376.302C672.925 376.539 672.57 376.868 672.307 377.291C672.05 377.708 671.921 378.184 671.921 378.72V386.229H670.098Z" fill="#767676"/>
<path d="M661.635 390.925C660.754 390.925 659.997 390.812 659.364 390.585C658.73 390.364 658.202 390.07 657.78 389.704C657.363 389.344 657.031 388.958 656.783 388.546L658.236 387.526C658.401 387.742 658.609 387.989 658.862 388.268C659.114 388.551 659.459 388.795 659.897 389.001C660.34 389.213 660.919 389.318 661.635 389.318C662.593 389.318 663.383 389.086 664.007 388.623C664.63 388.159 664.941 387.433 664.941 386.444V384.034H664.787C664.653 384.25 664.462 384.518 664.215 384.838C663.973 385.152 663.623 385.432 663.165 385.68C662.711 385.922 662.098 386.043 661.326 386.043C660.368 386.043 659.508 385.816 658.746 385.363C657.989 384.91 657.389 384.25 656.946 383.385C656.508 382.52 656.289 381.469 656.289 380.233C656.289 379.018 656.503 377.959 656.93 377.058C657.358 376.152 657.953 375.451 658.715 374.957C659.477 374.457 660.358 374.208 661.357 374.208C662.129 374.208 662.742 374.336 663.195 374.594C663.654 374.846 664.004 375.135 664.246 375.459C664.493 375.778 664.684 376.041 664.818 376.247H665.003V374.362H666.765V386.568C666.765 387.588 666.533 388.417 666.069 389.056C665.611 389.699 664.993 390.171 664.215 390.469C663.443 390.773 662.583 390.925 661.635 390.925ZM661.573 384.405C662.304 384.405 662.923 384.238 663.427 383.903C663.932 383.568 664.316 383.086 664.578 382.458C664.841 381.83 664.972 381.078 664.972 380.202C664.972 379.347 664.844 378.593 664.586 377.939C664.329 377.285 663.947 376.772 663.443 376.401C662.938 376.031 662.315 375.845 661.573 375.845C660.801 375.845 660.157 376.041 659.642 376.432C659.132 376.824 658.748 377.349 658.491 378.008C658.238 378.668 658.112 379.399 658.112 380.202C658.112 381.026 658.241 381.755 658.498 382.389C658.761 383.017 659.147 383.511 659.657 383.872C660.172 384.227 660.811 384.405 661.573 384.405Z" fill="#767676"/>
<path d="M648.685 386.475C647.614 386.475 646.674 386.22 645.866 385.71C645.062 385.201 644.434 384.487 643.981 383.571C643.533 382.654 643.309 381.583 643.309 380.357C643.309 379.121 643.533 378.042 643.981 377.12C644.434 376.198 645.062 375.482 645.866 374.972C646.674 374.462 647.614 374.208 648.685 374.208C649.757 374.208 650.694 374.462 651.497 374.972C652.306 375.482 652.934 376.198 653.382 377.12C653.836 378.042 654.062 379.121 654.062 380.357C654.062 381.583 653.836 382.654 653.382 383.571C652.934 384.487 652.306 385.201 651.497 385.71C650.694 386.22 649.757 386.475 648.685 386.475ZM648.685 384.838C649.499 384.838 650.169 384.629 650.694 384.212C651.219 383.795 651.608 383.246 651.86 382.566C652.113 381.886 652.239 381.15 652.239 380.357C652.239 379.564 652.113 378.825 651.86 378.14C651.608 377.455 651.219 376.901 650.694 376.479C650.169 376.056 649.499 375.845 648.685 375.845C647.872 375.845 647.202 376.056 646.677 376.479C646.151 376.901 645.763 377.455 645.51 378.14C645.258 378.825 645.132 379.564 645.132 380.357C645.132 381.15 645.258 381.886 645.51 382.566C645.763 383.246 646.151 383.795 646.677 384.212C647.202 384.629 647.872 384.838 648.685 384.838Z" fill="#767676"/>
<path d="M636.129 386.229V374.363H637.89V376.155H638.014C638.23 375.568 638.622 375.091 639.188 374.726C639.755 374.36 640.393 374.177 641.104 374.177C641.238 374.177 641.405 374.18 641.606 374.185C641.807 374.19 641.959 374.198 642.062 374.208V376.062C642 376.047 641.858 376.024 641.637 375.993C641.421 375.957 641.192 375.939 640.949 375.939C640.373 375.939 639.858 376.06 639.404 376.302C638.956 376.539 638.601 376.868 638.338 377.291C638.081 377.708 637.952 378.184 637.952 378.72V386.229H636.129Z" fill="#767676"/>
<path d="M622.871 390.678V374.362H624.632V376.247H624.849C624.983 376.041 625.168 375.778 625.405 375.459C625.647 375.135 625.992 374.846 626.44 374.594C626.893 374.336 627.506 374.208 628.279 374.208C629.278 374.208 630.159 374.457 630.921 374.957C631.683 375.456 632.278 376.165 632.705 377.081C633.133 377.998 633.347 379.08 633.347 380.326C633.347 381.583 633.133 382.672 632.705 383.594C632.278 384.51 631.686 385.221 630.929 385.726C630.171 386.225 629.299 386.475 628.31 386.475C627.547 386.475 626.937 386.349 626.479 386.097C626.02 385.839 625.668 385.548 625.42 385.224C625.173 384.894 624.983 384.621 624.849 384.405H624.694V390.678H622.871ZM624.663 380.295C624.663 381.191 624.795 381.982 625.057 382.667C625.32 383.347 625.704 383.88 626.208 384.266C626.713 384.647 627.331 384.838 628.062 384.838C628.825 384.838 629.461 384.637 629.971 384.235C630.486 383.828 630.872 383.282 631.129 382.597C631.392 381.907 631.523 381.14 631.523 380.295C631.523 379.461 631.395 378.709 631.137 378.039C630.885 377.365 630.501 376.832 629.986 376.44C629.476 376.044 628.835 375.845 628.062 375.845C627.321 375.845 626.698 376.033 626.193 376.409C625.688 376.78 625.307 377.3 625.05 377.97C624.792 378.634 624.663 379.409 624.663 380.295Z" fill="#767676"/>
<path d="M605.851 379.09V386.228H604.027V374.362H605.789V376.216H605.943C606.221 375.614 606.644 375.129 607.21 374.764C607.777 374.393 608.508 374.208 609.404 374.208C610.208 374.208 610.911 374.372 611.513 374.702C612.116 375.026 612.584 375.521 612.919 376.185C613.254 376.844 613.421 377.679 613.421 378.688V386.228H611.598V378.812C611.598 377.88 611.356 377.153 610.872 376.633C610.388 376.108 609.723 375.845 608.879 375.845C608.297 375.845 607.777 375.971 607.318 376.224C606.865 376.476 606.507 376.844 606.245 377.329C605.982 377.813 605.851 378.4 605.851 379.09Z" fill="#767676"/>
<path d="M598.863 386.228V374.362H600.686V386.228H598.863ZM599.79 372.384C599.435 372.384 599.128 372.263 598.871 372.021C598.618 371.779 598.492 371.488 598.492 371.148C598.492 370.808 598.618 370.517 598.871 370.275C599.128 370.033 599.435 369.912 599.79 369.912C600.145 369.912 600.449 370.033 600.702 370.275C600.959 370.517 601.088 370.808 601.088 371.148C601.088 371.488 600.959 371.779 600.702 372.021C600.449 372.263 600.145 372.384 599.79 372.384Z" fill="#767676"/>
<path d="M588.082 386.352C587.701 386.352 587.374 386.216 587.101 385.943C586.828 385.67 586.691 385.343 586.691 384.962C586.691 384.58 586.828 384.253 587.101 383.98C587.374 383.707 587.701 383.571 588.082 383.571C588.463 383.571 588.79 383.707 589.063 383.98C589.336 384.253 589.473 384.58 589.473 384.962C589.473 385.214 589.408 385.446 589.279 385.657C589.156 385.868 588.988 386.038 588.777 386.167C588.571 386.29 588.339 386.352 588.082 386.352ZM588.082 377.545C587.701 377.545 587.374 377.409 587.101 377.136C586.828 376.863 586.691 376.536 586.691 376.155C586.691 375.774 586.828 375.447 587.101 375.174C587.374 374.901 587.701 374.764 588.082 374.764C588.463 374.764 588.79 374.901 589.063 375.174C589.336 375.447 589.473 375.774 589.473 376.155C589.473 376.407 589.408 376.639 589.279 376.85C589.156 377.061 588.988 377.231 588.777 377.36C588.571 377.483 588.339 377.545 588.082 377.545Z" fill="#767676"/>
<path d="M579.428 386.475C578.315 386.475 577.357 386.213 576.554 385.687C575.75 385.162 575.132 384.438 574.7 383.516C574.267 382.595 574.051 381.541 574.051 380.357C574.051 379.152 574.272 378.088 574.715 377.166C575.163 376.239 575.786 375.516 576.585 374.995C577.388 374.47 578.325 374.208 579.397 374.208C580.231 374.208 580.983 374.362 581.652 374.671C582.322 374.98 582.87 375.413 583.298 375.969C583.725 376.525 583.991 377.174 584.094 377.916H582.27C582.131 377.375 581.822 376.896 581.343 376.479C580.87 376.056 580.231 375.845 579.428 375.845C578.717 375.845 578.094 376.031 577.558 376.401C577.028 376.767 576.613 377.285 576.314 377.954C576.021 378.619 575.874 379.399 575.874 380.295C575.874 381.212 576.018 382.01 576.307 382.69C576.6 383.37 577.012 383.898 577.543 384.274C578.078 384.65 578.707 384.838 579.428 384.838C579.901 384.838 580.331 384.755 580.718 384.59C581.104 384.425 581.431 384.189 581.699 383.88C581.967 383.571 582.157 383.2 582.27 382.767H584.094C583.991 383.468 583.736 384.098 583.329 384.66C582.927 385.216 582.394 385.659 581.73 385.989C581.07 386.313 580.303 386.475 579.428 386.475Z" fill="#767676"/>
<path d="M563.702 379.09V386.228H561.879V374.362H563.64V376.216H563.795C564.073 375.614 564.495 375.129 565.062 374.764C565.628 374.393 566.36 374.208 567.256 374.208C568.059 374.208 568.762 374.372 569.365 374.702C569.967 375.026 570.436 375.521 570.771 376.185C571.105 376.844 571.273 377.679 571.273 378.688V386.228H569.45V378.812C569.45 377.88 569.208 377.153 568.724 376.633C568.239 376.108 567.575 375.845 566.73 375.845C566.148 375.845 565.628 375.971 565.17 376.224C564.717 376.476 564.359 376.844 564.096 377.329C563.833 377.813 563.702 378.4 563.702 379.09Z" fill="#767676"/>
<path d="M550.945 390.678C550.636 390.678 550.36 390.652 550.118 390.6C549.876 390.554 549.709 390.508 549.616 390.461L550.08 388.854C550.523 388.968 550.914 389.009 551.254 388.978C551.594 388.947 551.895 388.795 552.158 388.522C552.426 388.254 552.67 387.819 552.892 387.217L553.232 386.29L548.844 374.362H550.821L554.097 383.818H554.221L557.496 374.362H559.474L554.437 387.958C554.21 388.571 553.93 389.078 553.595 389.48C553.26 389.887 552.871 390.188 552.428 390.384C551.991 390.58 551.496 390.678 550.945 390.678Z" fill="#767676"/>
<path d="M544.793 374.362C544.7 373.579 544.324 372.971 543.665 372.538C543.006 372.106 542.197 371.89 541.239 371.89C540.539 371.89 539.926 372.003 539.401 372.229C538.881 372.456 538.474 372.768 538.18 373.164C537.892 373.561 537.748 374.011 537.748 374.516C537.748 374.938 537.848 375.302 538.049 375.605C538.255 375.904 538.518 376.154 538.837 376.355C539.156 376.55 539.491 376.713 539.841 376.841C540.191 376.965 540.513 377.065 540.807 377.143L542.414 377.575C542.826 377.683 543.284 377.833 543.789 378.023C544.299 378.214 544.785 378.474 545.249 378.804C545.718 379.128 546.104 379.545 546.408 380.055C546.712 380.565 546.863 381.191 546.863 381.932C546.863 382.787 546.639 383.56 546.191 384.25C545.748 384.94 545.1 385.489 544.245 385.895C543.395 386.302 542.362 386.506 541.147 386.506C540.014 386.506 539.033 386.323 538.203 385.957C537.379 385.592 536.73 385.082 536.257 384.428C535.788 383.774 535.523 383.014 535.461 382.149H537.439C537.49 382.746 537.691 383.241 538.041 383.632C538.397 384.018 538.845 384.307 539.385 384.497C539.931 384.683 540.518 384.775 541.147 384.775C541.878 384.775 542.535 384.657 543.117 384.42C543.699 384.178 544.16 383.843 544.5 383.416C544.839 382.983 545.009 382.478 545.009 381.901C545.009 381.376 544.863 380.949 544.569 380.619C544.275 380.289 543.889 380.022 543.41 379.816C542.931 379.61 542.414 379.429 541.857 379.275L539.911 378.719C538.675 378.363 537.696 377.856 536.975 377.197C536.254 376.538 535.894 375.675 535.894 374.609C535.894 373.723 536.133 372.95 536.612 372.291C537.096 371.627 537.745 371.112 538.559 370.746C539.378 370.375 540.292 370.19 541.301 370.19C542.321 370.19 543.227 370.373 544.021 370.738C544.814 371.099 545.442 371.593 545.906 372.222C546.374 372.85 546.621 373.563 546.647 374.362H544.793Z" fill="#767676"/>
<path d="M641.961 353.596V352.205L647.183 346.489C647.796 345.819 648.301 345.237 648.697 344.743C649.094 344.243 649.388 343.774 649.578 343.337C649.774 342.894 649.872 342.43 649.872 341.946C649.872 341.39 649.738 340.908 649.47 340.501C649.207 340.095 648.847 339.78 648.388 339.559C647.93 339.337 647.415 339.227 646.843 339.227C646.236 339.227 645.705 339.353 645.252 339.605C644.804 339.853 644.456 340.2 644.209 340.648C643.967 341.096 643.846 341.622 643.846 342.224H642.023C642.023 341.297 642.236 340.483 642.664 339.783C643.091 339.083 643.673 338.537 644.41 338.145C645.151 337.754 645.983 337.558 646.905 337.558C647.832 337.558 648.654 337.754 649.369 338.145C650.085 338.537 650.647 339.065 651.054 339.729C651.46 340.393 651.664 341.132 651.664 341.946C651.664 342.528 651.558 343.097 651.347 343.653C651.141 344.204 650.781 344.82 650.266 345.5C649.756 346.174 649.048 346.998 648.141 347.972L644.588 351.773V351.896H651.942V353.596H641.961Z" fill="#767676"/>
<path d="M637.41 337.774V353.596H635.494V339.783H635.402L631.539 342.348V340.401L635.494 337.774H637.41Z" fill="#767676"/>
<path d="M627.215 351.572C626.834 351.572 626.507 351.436 626.234 351.163C625.961 350.89 625.824 350.563 625.824 350.182C625.824 349.8 625.961 349.473 626.234 349.2C626.507 348.927 626.834 348.791 627.215 348.791C627.596 348.791 627.923 348.927 628.196 349.2C628.469 349.473 628.605 349.8 628.605 350.182C628.605 350.434 628.541 350.666 628.412 350.877C628.289 351.088 628.121 351.258 627.91 351.387C627.704 351.51 627.472 351.572 627.215 351.572ZM627.215 343.569C626.834 343.569 626.507 343.432 626.234 343.159C625.961 342.886 625.824 342.559 625.824 342.178C625.824 341.797 625.961 341.47 626.234 341.197C626.507 340.924 626.834 340.788 627.215 340.788C627.596 340.788 627.923 340.924 628.196 341.197C628.469 341.47 628.605 341.797 628.605 342.178C628.605 342.431 628.541 342.662 628.412 342.873C628.289 343.085 628.121 343.255 627.91 343.383C627.704 343.507 627.472 343.569 627.215 343.569Z" fill="#767676"/>
<path d="M617.418 353.812C616.254 353.812 615.263 353.495 614.444 352.862C613.625 352.223 613 351.299 612.567 350.089C612.134 348.873 611.918 347.405 611.918 345.685C611.918 343.975 612.134 342.515 612.567 341.305C613.005 340.089 613.633 339.162 614.452 338.524C615.276 337.88 616.265 337.558 617.418 337.558C618.572 337.558 619.558 337.88 620.377 338.524C621.201 339.162 621.83 340.089 622.262 341.305C622.7 342.515 622.919 343.975 622.919 345.685C622.919 347.405 622.702 348.873 622.27 350.089C621.837 351.299 621.211 352.223 620.393 352.862C619.574 353.495 618.582 353.812 617.418 353.812ZM617.418 352.113C618.572 352.113 619.468 351.556 620.107 350.444C620.745 349.331 621.065 347.745 621.065 345.685C621.065 344.315 620.918 343.149 620.624 342.186C620.336 341.222 619.919 340.489 619.373 339.984C618.832 339.479 618.181 339.227 617.418 339.227C616.275 339.227 615.381 339.791 614.738 340.919C614.094 342.041 613.772 343.63 613.772 345.685C613.772 347.055 613.916 348.219 614.205 349.177C614.493 350.135 614.908 350.864 615.448 351.363C615.994 351.863 616.651 352.113 617.418 352.113Z" fill="#767676"/>
<path d="M603.825 353.812C602.661 353.812 601.669 353.495 600.85 352.862C600.032 352.223 599.406 351.299 598.973 350.089C598.541 348.873 598.324 347.405 598.324 345.685C598.324 343.975 598.541 342.515 598.973 341.305C599.411 340.089 600.039 339.162 600.858 338.524C601.682 337.88 602.671 337.558 603.825 337.558C604.978 337.558 605.965 337.88 606.783 338.524C607.607 339.162 608.236 340.089 608.668 341.305C609.106 342.515 609.325 343.975 609.325 345.685C609.325 347.405 609.109 348.873 608.676 350.089C608.243 351.299 607.618 352.223 606.799 352.862C605.98 353.495 604.989 353.812 603.825 353.812ZM603.825 352.113C604.978 352.113 605.874 351.556 606.513 350.444C607.152 349.331 607.471 347.745 607.471 345.685C607.471 344.315 607.324 343.149 607.031 342.186C606.742 341.222 606.325 340.489 605.779 339.984C605.238 339.479 604.587 339.227 603.825 339.227C602.681 339.227 601.788 339.791 601.144 340.919C600.5 342.041 600.178 343.63 600.178 345.685C600.178 347.055 600.322 348.219 600.611 349.177C600.899 350.135 601.314 350.864 601.855 351.363C602.401 351.863 603.057 352.113 603.825 352.113Z" fill="#767676"/>
<path d="M587.91 353.72C587.529 353.72 587.202 353.584 586.929 353.311C586.656 353.038 586.52 352.711 586.52 352.33C586.52 351.949 586.656 351.622 586.929 351.349C587.202 351.076 587.529 350.939 587.91 350.939C588.291 350.939 588.618 351.076 588.891 351.349C589.164 351.622 589.301 351.949 589.301 352.33C589.301 352.582 589.236 352.814 589.107 353.025C588.984 353.236 588.817 353.406 588.605 353.535C588.399 353.658 588.168 353.72 587.91 353.72ZM587.91 344.913C587.529 344.913 587.202 344.777 586.929 344.504C586.656 344.231 586.52 343.904 586.52 343.523C586.52 343.142 586.656 342.815 586.929 342.542C587.202 342.269 587.529 342.132 587.91 342.132C588.291 342.132 588.618 342.269 588.891 342.542C589.164 342.815 589.301 343.142 589.301 343.523C589.301 343.775 589.236 344.007 589.107 344.218C588.984 344.429 588.817 344.599 588.605 344.728C588.399 344.852 588.168 344.913 587.91 344.913Z" fill="#767676"/>
<path d="M578.902 353.844C577.759 353.844 576.773 353.592 575.944 353.087C575.12 352.577 574.484 351.866 574.035 350.955C573.593 350.038 573.371 348.972 573.371 347.756C573.371 346.541 573.593 345.47 574.035 344.543C574.484 343.61 575.107 342.884 575.905 342.364C576.708 341.839 577.646 341.576 578.717 341.576C579.335 341.576 579.945 341.679 580.548 341.885C581.15 342.091 581.699 342.426 582.193 342.889C582.688 343.348 583.082 343.956 583.375 344.713C583.669 345.47 583.816 346.402 583.816 347.509V348.282H574.669V346.706H581.962C581.962 346.036 581.828 345.439 581.56 344.913C581.297 344.388 580.921 343.974 580.432 343.67C579.948 343.366 579.376 343.214 578.717 343.214C577.991 343.214 577.362 343.394 576.832 343.755C576.307 344.11 575.902 344.574 575.619 345.145C575.336 345.717 575.194 346.33 575.194 346.984V348.035C575.194 348.931 575.349 349.69 575.658 350.313C575.972 350.931 576.407 351.403 576.963 351.727C577.52 352.047 578.166 352.206 578.902 352.206C579.381 352.206 579.814 352.139 580.2 352.005C580.592 351.866 580.929 351.66 581.212 351.387C581.496 351.109 581.714 350.764 581.869 350.352L583.63 350.847C583.445 351.444 583.133 351.969 582.696 352.422C582.258 352.871 581.717 353.221 581.073 353.473C580.429 353.72 579.706 353.844 578.902 353.844Z" fill="#767676"/>
<path d="M555.016 353.597V341.731H556.777V343.585H556.931C557.179 342.951 557.578 342.459 558.129 342.109C558.68 341.754 559.342 341.576 560.114 341.576C560.897 341.576 561.549 341.754 562.069 342.109C562.594 342.459 563.004 342.951 563.297 343.585H563.421C563.725 342.972 564.18 342.485 564.788 342.125C565.396 341.759 566.125 341.576 566.974 341.576C568.035 341.576 568.903 341.908 569.578 342.573C570.252 343.232 570.59 344.259 570.59 345.655V353.597H568.767V345.655C568.767 344.78 568.527 344.154 568.048 343.778C567.569 343.402 567.005 343.214 566.356 343.214C565.522 343.214 564.876 343.466 564.417 343.971C563.959 344.471 563.73 345.104 563.73 345.871V353.597H561.876V345.47C561.876 344.795 561.657 344.252 561.219 343.84C560.781 343.423 560.217 343.214 559.527 343.214C559.053 343.214 558.61 343.34 558.198 343.592C557.792 343.845 557.462 344.195 557.21 344.643C556.962 345.086 556.839 345.598 556.839 346.18V353.597H555.016Z" fill="#767676"/>
<path d="M549.851 353.597V341.731H551.674V353.597H549.851ZM550.778 339.753C550.423 339.753 550.117 339.632 549.859 339.39C549.607 339.148 549.48 338.857 549.48 338.517C549.48 338.177 549.607 337.886 549.859 337.644C550.117 337.402 550.423 337.281 550.778 337.281C551.134 337.281 551.438 337.402 551.69 337.644C551.947 337.886 552.076 338.177 552.076 338.517C552.076 338.857 551.947 339.148 551.69 339.39C551.438 339.632 551.134 339.753 550.778 339.753Z" fill="#767676"/>
<path d="M535.281 339.474V337.774H547.147V339.474H542.172V353.596H540.256V339.474H535.281Z" fill="#767676"/>
<defs>
<filter id="filter0_d_1097_17781" x="214" y="165" width="703" height="390" filterUnits="userSpaceOnUse" color-interpolation-filters="sRGB">
<feFlood flood-opacity="0" result="BackgroundImageFix"/>
<feColorMatrix in="SourceAlpha" type="matrix" values="0 0 0 0 0 0 0 0 0 0 0 0 0 0 0 0 0 0 127 0" result="hardAlpha"/>
<feOffset dy="20"/>
<feGaussianBlur stdDeviation="20"/>
<feComposite in2="hardAlpha" operator="out"/>
<feColorMatrix type="matrix" values="0 0 0 0 0.0784314 0 0 0 0 0.0196078 0 0 0 0 0.301961 0 0 0 0.15 0"/>
<feBlend mode="normal" in2="BackgroundImageFix" result="effect1_dropShadow_1097_17781"/>
<feBlend mode="normal" in="SourceGraphic" in2="effect1_dropShadow_1097_17781" result="shape"/>
</filter>
</defs>
</svg>
