<svg width="118" height="50" viewBox="0 0 118 50" fill="none" xmlns="http://www.w3.org/2000/svg">
<g id="iPiD company logo 1" clip-path="url(#clip0_126_1057)">
<g id="Layer 1">
<path id="Vector" d="M11.6375 41.6924C10.8622 41.6924 10.2312 42.3149 10.2188 43.0841V43.1058C10.2265 43.6078 10.4901 44.0558 10.9274 44.3075C11.1491 44.4357 11.3925 44.4991 11.636 44.4991C11.8794 44.4991 12.1229 44.4357 12.3446 44.3075C12.7756 44.0588 13.0454 43.6001 13.0532 43.1058V43.0841C13.0423 42.3149 12.4097 41.6924 11.6344 41.6924H11.6375Z" fill="#5B4CE2"/>
<path id="Vector_2" d="M28.0289 31.9847C27.8149 31.8627 27.5498 31.8627 27.3373 31.9847L22.0204 35.0432C21.9227 35.1003 21.8002 35.1003 21.7026 35.0432L16.3856 31.9847C16.1717 31.8611 15.9065 31.8627 15.6941 31.9847L14.7637 32.5207C14.5498 32.6427 14.418 32.8729 14.418 33.1185V33.7178C14.418 33.9634 14.5513 34.192 14.7637 34.3156L21.5165 38.2005C21.6235 38.2623 21.7429 38.2932 21.8623 38.2932C21.9817 38.2932 22.101 38.2623 22.208 38.2005L28.9608 34.3156C29.1748 34.192 29.3066 33.9634 29.3066 33.7178V33.1185C29.3066 32.8729 29.1732 32.6443 28.9608 32.5207L28.0304 31.9847H28.0289Z" fill="#5B4CE2"/>
<path id="Vector_3" d="M22.8629 27.209L32.157 32.5551C32.4377 32.7158 32.7711 32.7158 33.0517 32.5551C33.3324 32.3945 33.4998 32.1056 33.4998 31.7828V10.5866C33.4998 10.0954 33.0982 9.69531 32.6051 9.69531H31.5585C31.0654 9.69531 30.6638 10.0954 30.6638 10.5866V16.6819L23.0521 12.2981C22.3171 11.8749 21.4054 11.8749 20.6704 12.2981L10.6692 18.0567C10.3932 18.2158 10.2227 18.5108 10.2227 18.8291V39.7395C10.2227 40.2307 10.6243 40.6308 11.1173 40.6308H12.164C12.6571 40.6308 13.0587 40.2307 13.0587 39.7395V31.6963L20.8596 27.2105C21.4782 26.8552 22.2458 26.8552 22.8645 27.2105L22.8629 27.209ZM23.2785 24.1845V15.6964L30.6638 19.9443V28.4324L23.2785 24.1845ZM20.4425 15.6964V24.1845L13.0571 28.4324V19.9443L20.4425 15.6964Z" fill="#5B4CE2"/>
<path id="Vector_4" d="M32.0828 8.59729C32.8643 8.59729 33.5016 7.96396 33.5016 7.1839C33.5016 6.40383 32.8659 5.77051 32.0828 5.77051C31.2998 5.77051 30.6641 6.40383 30.6641 7.1839C30.6641 7.96396 31.2998 8.59729 32.0828 8.59729Z" fill="#5B4CE2"/>
<path id="Vector_5" d="M8.4103 39.1433L3.09959 36.091C2.93678 35.9984 2.83599 35.8238 2.83599 35.6369V14.3635C2.83599 14.1766 2.93678 14.002 3.09959 13.9093L21.5979 3.27415C21.7592 3.17992 21.9607 3.17992 22.1251 3.27415L27.9459 6.62149C28.2297 6.78522 28.5693 6.78522 28.853 6.62149C29.1368 6.45775 29.3058 6.1658 29.3058 5.83987V4.66282C29.3058 4.34153 29.1321 4.04186 28.853 3.87967L22.3096 0.118351C22.0305 -0.0407523 21.6863 -0.0407523 21.4087 0.118351L0.449666 12.1685C0.172113 12.3276 0 12.6257 0 12.9454V37.0518C0 37.3716 0.172113 37.6697 0.449666 37.8288L7.50321 41.8836C7.64587 41.9655 7.80092 42.0057 7.95598 42.0057C8.11104 42.0057 8.26764 41.9655 8.40875 41.8836C8.6925 41.7199 8.86151 41.4279 8.86151 41.102V39.925C8.86151 39.6037 8.68785 39.304 8.4072 39.1418L8.4103 39.1433Z" fill="#5B4CE2"/>
<path id="Vector_6" d="M43.2686 12.1688L36.2166 8.11401C35.9329 7.95028 35.5933 7.95028 35.3096 8.11401C35.0258 8.27775 34.8568 8.5697 34.8568 8.89563V10.0727C34.8568 10.394 35.0305 10.6936 35.3096 10.8558L40.6203 13.9081C40.7831 14.0008 40.8839 14.1754 40.8839 14.3623V35.6342C40.8839 35.8211 40.7831 35.9956 40.6203 36.0883L22.1235 46.7219C21.9607 46.8162 21.7591 46.8162 21.5963 46.7219L15.7739 43.3746C15.4902 43.2109 15.1506 43.2109 14.8668 43.3746C14.5831 43.5383 14.4141 43.8303 14.4141 44.1562V45.3333C14.4141 45.6546 14.5877 45.9542 14.8668 46.1164L21.4087 49.8777C21.5467 49.9565 21.7033 49.9967 21.8584 49.9967C22.0134 49.9967 22.17 49.9565 22.3096 49.8777L43.2671 37.8276C43.5462 37.6685 43.7183 37.3704 43.7183 37.0507V12.9473C43.7183 12.6276 43.5446 12.3295 43.2671 12.1704L43.2686 12.1688Z" fill="#5B4CE2"/>
<path id="Vector_7" d="M93.8203 11.251H104.884C112.968 11.251 117.997 16.9153 117.997 24.7392C117.997 32.563 113.046 38.2274 104.884 38.2274H93.8203V11.251ZM98.0363 34.412H104.806C110.339 34.412 113.703 30.2893 113.703 24.662C113.703 19.0347 110.339 15.0664 104.806 15.0664H98.0363V34.412Z" fill="#5B4CE2"/>
<path id="Vector_8" d="M86.2801 15.7215C84.8489 15.7215 83.6875 14.6047 83.6875 13.1774C83.6875 11.7501 84.8473 10.6719 86.2801 10.6719C87.7128 10.6719 88.8711 11.7887 88.8711 13.1774C88.8711 14.566 87.7112 15.7215 86.2801 15.7215ZM88.2911 38.2276H84.1914V18.8433H88.2911V38.2276Z" fill="#5B4CE2"/>
<path id="Vector_9" d="M58.9922 11.251H71.2929C77.1726 11.251 80.4614 15.9916 80.4614 20.3075C80.4614 24.6233 77.1726 29.364 71.1006 29.364H63.2097V38.2274H58.9937V11.251H58.9922ZM63.2082 25.5486H71.0231C74.3506 25.5486 76.3617 23.0045 76.3617 20.3461C76.3617 17.6877 74.2731 15.105 71.2169 15.105H63.2097V25.5486H63.2082Z" fill="#5B4CE2"/>
<path id="Vector_10" d="M51.448 15.7215C50.0168 15.7215 48.8555 14.6047 48.8555 13.1774C48.8555 11.7501 50.0153 10.6719 51.448 10.6719C52.8808 10.6719 54.0406 11.7887 54.0406 13.1774C54.0406 14.566 52.8808 15.7215 51.448 15.7215ZM53.4591 38.2276H49.3594V18.8433H53.4591V38.2276Z" fill="#5B4CE2"/>
</g>
</g>
<defs>
<clipPath id="clip0_126_1057">
<rect width="118" height="50" fill="white"/>
</clipPath>
</defs>
</svg>
