<svg width="1130" height="680" viewBox="0 0 1130 680" fill="none" xmlns="http://www.w3.org/2000/svg">
<rect width="1130" height="680" fill="#F2F2F2"/>
<g filter="url(#filter0_d_1139_5947)">
<path d="M240.687 189.807C240.687 181.989 247.019 175.65 254.83 175.65H840.382C848.193 175.65 854.525 181.989 854.525 189.807V515.418C854.525 523.237 848.193 529.575 840.382 529.575H254.83C247.019 529.575 240.687 523.237 240.687 515.418V189.807Z" fill="white"/>
<path d="M237 514.436V188.945C237 179.566 244.597 171.963 253.969 171.963V174.793L253.243 174.813C245.77 175.191 239.828 181.373 239.828 188.945V514.436L239.848 515.163C240.213 522.4 246.011 528.202 253.243 528.568L253.969 528.588H839.4L840.126 528.568C847.358 528.202 853.155 522.4 853.521 515.163L853.541 514.436V188.945C853.541 181.373 847.598 175.191 840.126 174.813L839.4 174.793V171.963C848.772 171.963 856.369 179.566 856.369 188.945V514.436C856.369 523.815 848.772 531.418 839.4 531.418H253.969C244.89 531.418 237.476 524.282 237.022 515.309L237 514.436ZM839.4 171.963V174.793H253.969V171.963H839.4Z" fill="#F0F0F0"/>
<path d="M535.261 470.113C534.117 470.113 533.133 469.966 532.309 469.671C531.486 469.383 530.8 469.002 530.251 468.527C529.708 468.058 529.277 467.556 528.955 467.02L530.843 465.695C531.057 465.976 531.328 466.297 531.656 466.659C531.984 467.027 532.433 467.345 533.002 467.613C533.578 467.887 534.331 468.024 535.261 468.024C536.507 468.024 537.534 467.723 538.344 467.121C539.154 466.518 539.559 465.574 539.559 464.289V461.156H539.358C539.184 461.437 538.937 461.785 538.615 462.2C538.301 462.609 537.845 462.973 537.25 463.295C536.661 463.609 535.864 463.767 534.86 463.767C533.615 463.767 532.497 463.472 531.506 462.883C530.522 462.294 529.742 461.437 529.166 460.312C528.597 459.188 528.312 457.822 528.312 456.215C528.312 454.635 528.59 453.26 529.146 452.088C529.702 450.91 530.475 450 531.466 449.357C532.456 448.708 533.601 448.383 534.9 448.383C535.904 448.383 536.701 448.55 537.29 448.885C537.886 449.213 538.341 449.588 538.656 450.01C538.977 450.425 539.225 450.766 539.399 451.034H539.64V448.584H541.929V464.45C541.929 465.775 541.628 466.853 541.025 467.683C540.43 468.52 539.626 469.132 538.615 469.521C537.611 469.916 536.493 470.113 535.261 470.113ZM535.181 461.638C536.132 461.638 536.935 461.42 537.591 460.985C538.247 460.55 538.746 459.924 539.087 459.107C539.429 458.291 539.599 457.313 539.599 456.175C539.599 455.064 539.432 454.083 539.097 453.233C538.763 452.383 538.267 451.717 537.611 451.235C536.955 450.753 536.145 450.512 535.181 450.512C534.177 450.512 533.34 450.766 532.671 451.275C532.008 451.784 531.509 452.466 531.174 453.323C530.846 454.18 530.682 455.131 530.682 456.175C530.682 457.246 530.85 458.194 531.184 459.017C531.526 459.834 532.028 460.476 532.691 460.945C533.36 461.407 534.19 461.638 535.181 461.638Z" fill="#767676"/>
<path d="M514.862 454.729V464.008H512.492V448.584H514.782V450.994H514.983C515.344 450.21 515.893 449.581 516.629 449.106C517.366 448.624 518.316 448.383 519.481 448.383C520.526 448.383 521.439 448.597 522.223 449.025C523.006 449.447 523.615 450.09 524.05 450.954C524.485 451.81 524.703 452.895 524.703 454.207V464.008H522.333V454.368C522.333 453.156 522.018 452.212 521.389 451.536C520.76 450.853 519.896 450.512 518.798 450.512C518.042 450.512 517.366 450.676 516.77 451.004C516.181 451.332 515.716 451.81 515.374 452.44C515.033 453.069 514.862 453.832 514.862 454.729Z" fill="#767676"/>
<path d="M505.783 464.009V448.585H508.153V464.009H505.783ZM506.988 446.014C506.526 446.014 506.128 445.857 505.793 445.542C505.465 445.228 505.301 444.849 505.301 444.407C505.301 443.966 505.465 443.587 505.793 443.273C506.128 442.958 506.526 442.801 506.988 442.801C507.45 442.801 507.845 442.958 508.173 443.273C508.507 443.587 508.675 443.966 508.675 444.407C508.675 444.849 508.507 445.228 508.173 445.542C507.845 445.857 507.45 446.014 506.988 446.014Z" fill="#767676"/>
<path d="M502.654 448.584L496.951 464.008H494.541L488.837 448.584H491.408L495.665 460.875H495.826L500.084 448.584H502.654Z" fill="#767676"/>
<path d="M479.198 464.369C478.221 464.369 477.334 464.185 476.537 463.817C475.741 463.442 475.108 462.903 474.639 462.2C474.171 461.491 473.937 460.634 473.937 459.63C473.937 458.746 474.111 458.03 474.459 457.481C474.807 456.925 475.272 456.49 475.855 456.175C476.437 455.861 477.08 455.626 477.783 455.472C478.492 455.312 479.205 455.184 479.921 455.091C480.859 454.97 481.618 454.88 482.201 454.82C482.79 454.753 483.218 454.642 483.486 454.488C483.761 454.334 483.898 454.066 483.898 453.685V453.605C483.898 452.614 483.627 451.844 483.085 451.295C482.549 450.746 481.736 450.472 480.644 450.472C479.513 450.472 478.626 450.719 477.983 451.215C477.341 451.71 476.889 452.239 476.628 452.801L474.378 451.998C474.78 451.061 475.316 450.331 475.985 449.809C476.661 449.28 477.398 448.912 478.194 448.704C478.998 448.49 479.788 448.383 480.564 448.383C481.059 448.383 481.629 448.443 482.271 448.564C482.921 448.677 483.546 448.915 484.149 449.277C484.758 449.638 485.264 450.184 485.665 450.913C486.067 451.643 486.268 452.62 486.268 453.846V464.008H483.898V461.919H483.777C483.617 462.254 483.349 462.612 482.974 462.994C482.599 463.375 482.1 463.7 481.478 463.968C480.855 464.235 480.095 464.369 479.198 464.369ZM479.56 462.24C480.497 462.24 481.287 462.056 481.93 461.688C482.579 461.32 483.068 460.845 483.396 460.262C483.731 459.68 483.898 459.067 483.898 458.425V456.256C483.798 456.376 483.577 456.487 483.235 456.587C482.9 456.681 482.512 456.764 482.07 456.838C481.635 456.905 481.21 456.965 480.795 457.019C480.387 457.066 480.055 457.106 479.801 457.139C479.185 457.22 478.609 457.35 478.074 457.531C477.545 457.705 477.116 457.969 476.788 458.324C476.467 458.672 476.306 459.148 476.306 459.75C476.306 460.574 476.611 461.196 477.22 461.618C477.836 462.033 478.616 462.24 479.56 462.24Z" fill="#767676"/>
<path d="M470.811 452.038L468.683 452.641C468.549 452.286 468.351 451.941 468.09 451.606C467.836 451.265 467.488 450.984 467.046 450.763C466.604 450.542 466.038 450.431 465.349 450.431C464.405 450.431 463.618 450.649 462.989 451.084C462.366 451.512 462.055 452.058 462.055 452.721C462.055 453.31 462.269 453.775 462.698 454.117C463.126 454.458 463.796 454.743 464.706 454.97L466.996 455.533C468.375 455.867 469.402 456.379 470.078 457.069C470.754 457.752 471.093 458.632 471.093 459.71C471.093 460.594 470.838 461.384 470.329 462.08C469.827 462.776 469.124 463.325 468.221 463.727C467.317 464.128 466.266 464.329 465.068 464.329C463.494 464.329 462.192 463.988 461.161 463.305C460.13 462.622 459.478 461.625 459.203 460.312L461.452 459.75C461.667 460.58 462.072 461.203 462.668 461.618C463.27 462.033 464.057 462.24 465.027 462.24C466.132 462.24 467.009 462.006 467.658 461.538C468.314 461.062 468.642 460.493 468.642 459.83C468.642 459.295 468.455 458.846 468.08 458.485C467.705 458.117 467.129 457.842 466.353 457.661L463.782 457.059C462.37 456.724 461.332 456.205 460.669 455.502C460.013 454.793 459.685 453.906 459.685 452.841C459.685 451.971 459.929 451.201 460.418 450.532C460.914 449.862 461.586 449.337 462.437 448.955C463.293 448.574 464.264 448.383 465.349 448.383C466.875 448.383 468.073 448.718 468.944 449.387C469.821 450.056 470.443 450.94 470.811 452.038Z" fill="#767676"/>
<path d="M441.941 464.329C440.455 464.329 439.173 464.001 438.095 463.345C437.024 462.682 436.197 461.758 435.615 460.574C435.039 459.382 434.751 457.996 434.751 456.416C434.751 454.836 435.039 453.444 435.615 452.239C436.197 451.027 437.007 450.083 438.045 449.407C439.089 448.724 440.307 448.383 441.7 448.383C442.503 448.383 443.297 448.517 444.08 448.784C444.863 449.052 445.576 449.487 446.219 450.09C446.861 450.686 447.373 451.476 447.755 452.46C448.137 453.444 448.327 454.656 448.327 456.095V457.099H436.438V455.051H445.917C445.917 454.18 445.743 453.404 445.395 452.721C445.054 452.038 444.565 451.499 443.929 451.104C443.3 450.709 442.557 450.512 441.7 450.512C440.756 450.512 439.939 450.746 439.25 451.215C438.567 451.677 438.041 452.279 437.673 453.022C437.305 453.765 437.121 454.562 437.121 455.412V456.778C437.121 457.943 437.322 458.93 437.723 459.74C438.132 460.543 438.697 461.156 439.42 461.578C440.143 461.993 440.984 462.2 441.941 462.2C442.563 462.2 443.126 462.113 443.628 461.939C444.137 461.758 444.575 461.491 444.943 461.136C445.312 460.774 445.596 460.326 445.797 459.79L448.086 460.433C447.845 461.209 447.44 461.892 446.871 462.481C446.302 463.064 445.599 463.519 444.763 463.847C443.926 464.168 442.985 464.329 441.941 464.329Z" fill="#767676"/>
<path d="M425.944 464.329C424.498 464.329 423.253 463.988 422.209 463.305C421.164 462.622 420.361 461.681 419.799 460.483C419.236 459.285 418.955 457.916 418.955 456.376C418.955 454.81 419.243 453.427 419.819 452.229C420.401 451.024 421.211 450.083 422.249 449.407C423.293 448.724 424.512 448.383 425.904 448.383C426.988 448.383 427.966 448.584 428.836 448.985C429.706 449.387 430.419 449.949 430.975 450.672C431.531 451.395 431.875 452.239 432.009 453.203H429.64C429.459 452.5 429.057 451.877 428.434 451.335C427.819 450.786 426.988 450.512 425.944 450.512C425.02 450.512 424.21 450.753 423.514 451.235C422.825 451.71 422.286 452.383 421.897 453.253C421.516 454.117 421.325 455.131 421.325 456.296C421.325 457.487 421.512 458.525 421.887 459.409C422.269 460.292 422.804 460.979 423.494 461.467C424.19 461.956 425.007 462.2 425.944 462.2C426.56 462.2 427.119 462.093 427.621 461.879C428.123 461.665 428.548 461.357 428.896 460.955C429.245 460.553 429.492 460.071 429.64 459.509H432.009C431.875 460.42 431.544 461.24 431.015 461.969C430.493 462.692 429.8 463.268 428.937 463.696C428.08 464.118 427.082 464.329 425.944 464.329Z" fill="#767676"/>
<path d="M409.629 464.007V448.583H411.918V450.912H412.079C412.36 450.149 412.869 449.53 413.605 449.055C414.342 448.579 415.172 448.342 416.096 448.342C416.27 448.342 416.487 448.345 416.749 448.352C417.01 448.359 417.207 448.369 417.341 448.382V450.792C417.261 450.772 417.077 450.742 416.789 450.702C416.508 450.655 416.21 450.631 415.895 450.631C415.145 450.631 414.476 450.789 413.887 451.103C413.304 451.411 412.842 451.84 412.501 452.389C412.166 452.931 411.999 453.55 411.999 454.246V464.007H409.629Z" fill="#767676"/>
<path d="M402.919 457.702V448.584H405.289V464.008H402.919V461.397H402.758C402.396 462.181 401.834 462.847 401.071 463.396C400.308 463.938 399.344 464.209 398.179 464.209C397.215 464.209 396.358 463.998 395.608 463.576C394.858 463.148 394.269 462.505 393.841 461.648C393.412 460.785 393.198 459.697 393.198 458.385V448.584H395.568V458.224C395.568 459.349 395.883 460.246 396.512 460.915C397.148 461.585 397.958 461.919 398.942 461.919C399.531 461.919 400.13 461.769 400.74 461.468C401.355 461.166 401.871 460.704 402.286 460.082C402.708 459.459 402.919 458.666 402.919 457.702Z" fill="#767676"/>
<path d="M382.591 464.329C381.198 464.329 379.976 463.998 378.925 463.335C377.881 462.672 377.064 461.745 376.475 460.553C375.893 459.362 375.602 457.969 375.602 456.376C375.602 454.769 375.893 453.367 376.475 452.169C377.064 450.97 377.881 450.04 378.925 449.377C379.976 448.714 381.198 448.383 382.591 448.383C383.983 448.383 385.201 448.714 386.246 449.377C387.297 450.04 388.114 450.97 388.696 452.169C389.285 453.367 389.58 454.769 389.58 456.376C389.58 457.969 389.285 459.362 388.696 460.553C388.114 461.745 387.297 462.672 386.246 463.335C385.201 463.998 383.983 464.329 382.591 464.329ZM382.591 462.2C383.648 462.2 384.519 461.929 385.201 461.387C385.884 460.845 386.39 460.132 386.718 459.248C387.046 458.364 387.21 457.407 387.21 456.376C387.21 455.345 387.046 454.384 386.718 453.494C386.39 452.604 385.884 451.884 385.201 451.335C384.519 450.786 383.648 450.512 382.591 450.512C381.533 450.512 380.663 450.786 379.98 451.335C379.297 451.884 378.791 452.604 378.463 453.494C378.135 454.384 377.971 455.345 377.971 456.376C377.971 457.407 378.135 458.364 378.463 459.248C378.791 460.132 379.297 460.845 379.98 461.387C380.663 461.929 381.533 462.2 382.591 462.2Z" fill="#767676"/>
<path d="M372.473 452.038L370.344 452.641C370.21 452.286 370.012 451.941 369.751 451.606C369.497 451.265 369.149 450.984 368.707 450.763C368.265 450.542 367.699 450.431 367.01 450.431C366.066 450.431 365.279 450.649 364.65 451.084C364.027 451.512 363.716 452.058 363.716 452.721C363.716 453.31 363.93 453.775 364.359 454.117C364.787 454.458 365.457 454.743 366.367 454.97L368.657 455.533C370.036 455.867 371.063 456.379 371.739 457.069C372.416 457.752 372.754 458.632 372.754 459.71C372.754 460.594 372.499 461.384 371.991 462.08C371.488 462.776 370.786 463.325 369.882 463.727C368.978 464.128 367.927 464.329 366.729 464.329C365.155 464.329 363.853 463.988 362.822 463.305C361.791 462.622 361.139 461.625 360.864 460.312L363.114 459.75C363.328 460.58 363.733 461.203 364.329 461.618C364.931 462.033 365.718 462.24 366.688 462.24C367.793 462.24 368.67 462.006 369.319 461.538C369.975 461.062 370.304 460.493 370.304 459.83C370.304 459.295 370.116 458.846 369.741 458.485C369.366 458.117 368.791 457.842 368.014 457.661L365.443 457.059C364.031 456.724 362.993 456.205 362.33 455.502C361.674 454.793 361.346 453.906 361.346 452.841C361.346 451.971 361.591 451.201 362.079 450.532C362.575 449.862 363.248 449.337 364.098 448.955C364.955 448.574 365.925 448.383 367.01 448.383C368.536 448.383 369.734 448.718 370.605 449.387C371.482 450.056 372.104 450.94 372.473 452.038Z" fill="#767676"/>
<path d="M351.561 464.329C350.075 464.329 348.793 464.001 347.715 463.345C346.644 462.682 345.817 461.758 345.235 460.574C344.659 459.382 344.371 457.996 344.371 456.416C344.371 454.836 344.659 453.444 345.235 452.239C345.817 451.027 346.627 450.083 347.665 449.407C348.709 448.724 349.928 448.383 351.32 448.383C352.123 448.383 352.917 448.517 353.7 448.784C354.483 449.052 355.196 449.487 355.839 450.09C356.481 450.686 356.994 451.476 357.375 452.46C357.757 453.444 357.948 454.656 357.948 456.095V457.099H346.058V455.051H355.538C355.538 454.18 355.363 453.404 355.015 452.721C354.674 452.038 354.185 451.499 353.549 451.104C352.92 450.709 352.177 450.512 351.32 450.512C350.376 450.512 349.559 450.746 348.87 451.215C348.187 451.677 347.661 452.279 347.293 453.022C346.925 453.765 346.741 454.562 346.741 455.412V456.778C346.741 457.943 346.942 458.93 347.343 459.74C347.752 460.543 348.318 461.156 349.041 461.578C349.764 461.993 350.604 462.2 351.561 462.2C352.184 462.2 352.746 462.113 353.248 461.939C353.757 461.758 354.195 461.491 354.563 461.136C354.932 460.774 355.216 460.326 355.417 459.79L357.707 460.433C357.466 461.209 357.061 461.892 356.491 462.481C355.922 463.064 355.22 463.519 354.383 463.847C353.546 464.168 352.605 464.329 351.561 464.329Z" fill="#767676"/>
<path d="M327.49 464.007V443.441H334.439C336.046 443.441 337.365 443.716 338.396 444.265C339.427 444.807 340.19 445.554 340.685 446.504C341.18 447.455 341.428 448.536 341.428 449.748C341.428 450.959 341.18 452.034 340.685 452.971C340.19 453.908 339.43 454.645 338.406 455.18C337.381 455.709 336.073 455.974 334.479 455.974H328.856V453.724H334.399C335.497 453.724 336.381 453.563 337.05 453.242C337.726 452.921 338.215 452.466 338.516 451.876C338.824 451.281 338.978 450.571 338.978 449.748C338.978 448.924 338.824 448.205 338.516 447.589C338.208 446.973 337.716 446.497 337.04 446.163C336.364 445.821 335.47 445.651 334.359 445.651H329.981V464.007H327.49ZM337.17 454.769L342.232 464.007H339.34L334.359 454.769H337.17Z" fill="#767676"/>
<path d="M472.988 402.25C471.843 402.25 470.859 402.103 470.036 401.808C469.212 401.52 468.526 401.139 467.977 400.663C467.435 400.195 467.003 399.693 466.682 399.157L468.57 397.832C468.784 398.113 469.055 398.434 469.383 398.796C469.711 399.164 470.16 399.482 470.729 399.749C471.304 400.024 472.057 400.161 472.988 400.161C474.233 400.161 475.261 399.86 476.071 399.257C476.881 398.655 477.286 397.711 477.286 396.426V393.293H477.085C476.911 393.574 476.663 393.922 476.342 394.337C476.027 394.745 475.572 395.11 474.976 395.432C474.387 395.746 473.59 395.904 472.586 395.904C471.341 395.904 470.223 395.609 469.232 395.02C468.248 394.431 467.468 393.574 466.893 392.449C466.324 391.324 466.039 389.959 466.039 388.352C466.039 386.772 466.317 385.396 466.873 384.225C467.428 383.047 468.201 382.136 469.192 381.494C470.183 380.844 471.328 380.52 472.626 380.52C473.631 380.52 474.427 380.687 475.016 381.022C475.612 381.35 476.067 381.725 476.382 382.146C476.703 382.561 476.951 382.903 477.125 383.171H477.366V380.72H479.656V396.586C479.656 397.912 479.354 398.99 478.752 399.82C478.156 400.657 477.353 401.269 476.342 401.657C475.338 402.052 474.22 402.25 472.988 402.25ZM472.908 393.775C473.858 393.775 474.662 393.557 475.318 393.122C475.974 392.687 476.472 392.061 476.814 391.244C477.155 390.427 477.326 389.45 477.326 388.312C477.326 387.201 477.159 386.22 476.824 385.37C476.489 384.52 475.994 383.853 475.338 383.371C474.682 382.889 473.872 382.648 472.908 382.648C471.903 382.648 471.067 382.903 470.397 383.412C469.734 383.92 469.236 384.603 468.901 385.46C468.573 386.317 468.409 387.268 468.409 388.312C468.409 389.383 468.576 390.33 468.911 391.154C469.252 391.97 469.755 392.613 470.417 393.082C471.087 393.544 471.917 393.775 472.908 393.775Z" fill="#767676"/>
<path d="M452.59 386.866V396.145H450.22V380.72H452.509V383.13H452.71C453.072 382.347 453.621 381.718 454.357 381.243C455.093 380.761 456.044 380.52 457.209 380.52C458.253 380.52 459.167 380.734 459.95 381.162C460.733 381.584 461.343 382.227 461.778 383.09C462.213 383.947 462.431 385.032 462.431 386.344V396.145H460.061V386.504C460.061 385.293 459.746 384.349 459.117 383.673C458.487 382.99 457.624 382.648 456.526 382.648C455.769 382.648 455.093 382.812 454.498 383.14C453.908 383.468 453.443 383.947 453.102 384.576C452.76 385.206 452.59 385.969 452.59 386.866Z" fill="#767676"/>
<path d="M443.506 396.142V380.718H445.876V396.142H443.506ZM444.711 378.147C444.25 378.147 443.851 377.99 443.516 377.675C443.188 377.36 443.024 376.982 443.024 376.54C443.024 376.098 443.188 375.72 443.516 375.406C443.851 375.091 444.25 374.934 444.711 374.934C445.173 374.934 445.568 375.091 445.896 375.406C446.231 375.72 446.398 376.098 446.398 376.54C446.398 376.982 446.231 377.36 445.896 377.675C445.568 377.99 445.173 378.147 444.711 378.147Z" fill="#767676"/>
<path d="M440.388 380.719L434.684 396.143H432.274L426.57 380.719H429.141L433.399 393.01H433.559L437.817 380.719H440.388Z" fill="#767676"/>
<path d="M416.93 396.506C415.952 396.506 415.065 396.322 414.269 395.954C413.472 395.579 412.84 395.04 412.371 394.337C411.902 393.627 411.668 392.77 411.668 391.766C411.668 390.883 411.842 390.166 412.19 389.617C412.538 389.062 413.004 388.627 413.586 388.312C414.168 387.997 414.811 387.763 415.514 387.609C416.224 387.448 416.937 387.321 417.653 387.227C418.59 387.107 419.35 387.017 419.932 386.956C420.521 386.889 420.95 386.779 421.218 386.625C421.492 386.471 421.629 386.203 421.629 385.822V385.741C421.629 384.75 421.358 383.981 420.816 383.432C420.28 382.883 419.467 382.608 418.376 382.608C417.244 382.608 416.357 382.856 415.715 383.351C415.072 383.847 414.62 384.376 414.359 384.938L412.11 384.135C412.511 383.197 413.047 382.468 413.716 381.945C414.393 381.417 415.129 381.048 415.926 380.841C416.729 380.627 417.519 380.52 418.296 380.52C418.791 380.52 419.36 380.58 420.003 380.7C420.652 380.814 421.278 381.052 421.88 381.413C422.49 381.775 422.995 382.32 423.397 383.05C423.798 383.78 423.999 384.757 423.999 385.982V396.145H421.629V394.056H421.509C421.348 394.391 421.08 394.749 420.706 395.13C420.331 395.512 419.832 395.837 419.209 396.104C418.587 396.372 417.827 396.506 416.93 396.506ZM417.291 394.377C418.229 394.377 419.019 394.193 419.661 393.825C420.311 393.457 420.799 392.981 421.127 392.399C421.462 391.817 421.629 391.204 421.629 390.561V388.392C421.529 388.513 421.308 388.623 420.967 388.724C420.632 388.817 420.244 388.901 419.802 388.975C419.367 389.042 418.942 389.102 418.526 389.155C418.118 389.202 417.787 389.242 417.532 389.276C416.916 389.356 416.341 389.487 415.805 389.668C415.276 389.842 414.848 390.106 414.52 390.461C414.198 390.809 414.038 391.284 414.038 391.887C414.038 392.71 414.342 393.333 414.952 393.755C415.568 394.17 416.347 394.377 417.291 394.377Z" fill="#767676"/>
<path d="M408.538 384.175L406.409 384.777C406.275 384.422 406.078 384.078 405.817 383.743C405.562 383.402 405.214 383.12 404.772 382.899C404.33 382.679 403.765 382.568 403.075 382.568C402.131 382.568 401.345 382.786 400.715 383.221C400.093 383.649 399.782 384.195 399.782 384.858C399.782 385.447 399.996 385.912 400.424 386.253C400.853 386.595 401.522 386.879 402.433 387.107L404.722 387.669C406.101 388.004 407.129 388.516 407.805 389.206C408.481 389.888 408.819 390.769 408.819 391.847C408.819 392.73 408.565 393.52 408.056 394.216C407.554 394.913 406.851 395.462 405.947 395.863C405.043 396.265 403.992 396.466 402.794 396.466C401.221 396.466 399.919 396.124 398.888 395.442C397.857 394.759 397.204 393.761 396.93 392.449L399.179 391.887C399.393 392.717 399.798 393.34 400.394 393.755C400.997 394.17 401.783 394.377 402.754 394.377C403.859 394.377 404.735 394.143 405.385 393.674C406.041 393.199 406.369 392.63 406.369 391.967C406.369 391.432 406.181 390.983 405.807 390.622C405.432 390.253 404.856 389.979 404.079 389.798L401.509 389.196C400.096 388.861 399.059 388.342 398.396 387.639C397.74 386.93 397.412 386.043 397.412 384.978C397.412 384.108 397.656 383.338 398.145 382.668C398.64 381.999 399.313 381.474 400.163 381.092C401.02 380.71 401.991 380.52 403.075 380.52C404.602 380.52 405.8 380.854 406.67 381.524C407.547 382.193 408.17 383.077 408.538 384.175Z" fill="#767676"/>
<path d="M386.096 380.719V382.727H378.103V380.719H386.096ZM380.432 377.023H382.802V391.725C382.802 392.394 382.899 392.896 383.093 393.231C383.294 393.559 383.549 393.78 383.856 393.894C384.171 394.001 384.502 394.054 384.851 394.054C385.112 394.054 385.326 394.041 385.493 394.014C385.661 393.981 385.795 393.954 385.895 393.934L386.377 396.063C386.216 396.123 385.992 396.183 385.704 396.243C385.416 396.31 385.051 396.344 384.61 396.344C383.94 396.344 383.284 396.2 382.641 395.912C382.005 395.624 381.477 395.186 381.055 394.597C380.64 394.007 380.432 393.264 380.432 392.367V377.023Z" fill="#767676"/>
<path d="M375.543 384.175L373.414 384.777C373.28 384.422 373.083 384.078 372.822 383.743C372.567 383.402 372.219 383.12 371.777 382.899C371.335 382.679 370.77 382.568 370.08 382.568C369.136 382.568 368.35 382.786 367.72 383.221C367.098 383.649 366.786 384.195 366.786 384.858C366.786 385.447 367.001 385.912 367.429 386.253C367.858 386.595 368.527 386.879 369.437 387.107L371.727 387.669C373.106 388.004 374.134 388.516 374.81 389.206C375.486 389.888 375.824 390.769 375.824 391.847C375.824 392.73 375.57 393.52 375.061 394.216C374.559 394.913 373.856 395.462 372.952 395.863C372.048 396.265 370.997 396.466 369.799 396.466C368.226 396.466 366.924 396.124 365.893 395.442C364.862 394.759 364.209 393.761 363.935 392.449L366.184 391.887C366.398 392.717 366.803 393.34 367.399 393.755C368.001 394.17 368.788 394.377 369.759 394.377C370.863 394.377 371.74 394.143 372.39 393.674C373.046 393.199 373.374 392.63 373.374 391.967C373.374 391.432 373.186 390.983 372.811 390.622C372.437 390.253 371.861 389.979 371.084 389.798L368.514 389.196C367.101 388.861 366.063 388.342 365.401 387.639C364.745 386.93 364.417 386.043 364.417 384.978C364.417 384.108 364.661 383.338 365.15 382.668C365.645 381.999 366.318 381.474 367.168 381.092C368.025 380.71 368.996 380.52 370.08 380.52C371.606 380.52 372.805 380.854 373.675 381.524C374.552 382.193 375.175 383.077 375.543 384.175Z" fill="#767676"/>
<path d="M354.01 396.466C352.617 396.466 351.395 396.134 350.344 395.472C349.3 394.809 348.483 393.882 347.894 392.69C347.312 391.499 347.021 390.106 347.021 388.513C347.021 386.906 347.312 385.504 347.894 384.305C348.483 383.107 349.3 382.176 350.344 381.514C351.395 380.851 352.617 380.52 354.01 380.52C355.402 380.52 356.62 380.851 357.665 381.514C358.716 382.176 359.533 383.107 360.115 384.305C360.704 385.504 360.999 386.906 360.999 388.513C360.999 390.106 360.704 391.499 360.115 392.69C359.533 393.882 358.716 394.809 357.665 395.472C356.62 396.134 355.402 396.466 354.01 396.466ZM354.01 394.337C355.067 394.337 355.938 394.066 356.62 393.524C357.303 392.981 357.809 392.268 358.137 391.385C358.465 390.501 358.629 389.544 358.629 388.513C358.629 387.482 358.465 386.521 358.137 385.631C357.809 384.74 357.303 384.021 356.62 383.472C355.938 382.923 355.067 382.648 354.01 382.648C352.952 382.648 352.082 382.923 351.399 383.472C350.716 384.021 350.21 384.74 349.882 385.631C349.554 386.521 349.39 387.482 349.39 388.513C349.39 389.544 349.554 390.501 349.882 391.385C350.21 392.268 350.716 392.981 351.399 393.524C352.082 394.066 352.952 394.337 354.01 394.337Z" fill="#767676"/>
<path d="M344.038 382.003H341.547C341.4 381.287 341.142 380.657 340.774 380.115C340.413 379.573 339.971 379.117 339.449 378.749C338.933 378.374 338.361 378.093 337.731 377.906C337.102 377.718 336.446 377.625 335.763 377.625C334.518 377.625 333.39 377.939 332.379 378.569C331.375 379.198 330.575 380.125 329.979 381.35C329.39 382.575 329.096 384.078 329.096 385.859C329.096 387.64 329.39 389.142 329.979 390.368C330.575 391.593 331.375 392.52 332.379 393.149C333.39 393.778 334.518 394.093 335.763 394.093C336.446 394.093 337.102 393.999 337.731 393.812C338.361 393.624 338.933 393.347 339.449 392.978C339.971 392.604 340.413 392.145 340.774 391.603C341.142 391.054 341.4 390.424 341.547 389.715H344.038C343.85 390.766 343.509 391.707 343.013 392.537C342.518 393.367 341.902 394.073 341.166 394.655C340.429 395.231 339.603 395.67 338.685 395.971C337.775 396.272 336.801 396.423 335.763 396.423C334.009 396.423 332.45 395.994 331.084 395.137C329.718 394.281 328.644 393.062 327.86 391.482C327.077 389.902 326.686 388.028 326.686 385.859C326.686 383.69 327.077 381.815 327.86 380.235C328.644 378.656 329.718 377.437 331.084 376.58C332.45 375.723 334.009 375.295 335.763 375.295C336.801 375.295 337.775 375.446 338.685 375.747C339.603 376.048 340.429 376.49 341.166 377.072C341.902 377.648 342.518 378.351 343.013 379.181C343.509 380.005 343.85 380.945 344.038 382.003Z" fill="#767676"/>
<path d="M476.384 334.379C475.24 334.379 474.256 334.232 473.432 333.937C472.609 333.649 471.923 333.268 471.374 332.792C470.831 332.324 470.4 331.821 470.078 331.286L471.966 329.96C472.18 330.242 472.451 330.563 472.779 330.924C473.107 331.293 473.556 331.611 474.125 331.878C474.701 332.153 475.454 332.29 476.384 332.29C477.63 332.29 478.657 331.989 479.467 331.386C480.277 330.784 480.682 329.84 480.682 328.555V325.422H480.481C480.307 325.703 480.06 326.051 479.738 326.466C479.424 326.874 478.969 327.239 478.373 327.56C477.784 327.875 476.987 328.032 475.983 328.032C474.738 328.032 473.62 327.738 472.629 327.149C471.645 326.56 470.865 325.703 470.289 324.578C469.72 323.453 469.436 322.088 469.436 320.481C469.436 318.901 469.713 317.525 470.269 316.354C470.825 315.176 471.598 314.265 472.589 313.622C473.579 312.973 474.724 312.648 476.023 312.648C477.027 312.648 477.824 312.816 478.413 313.151C479.009 313.479 479.464 313.853 479.779 314.275C480.1 314.69 480.348 315.032 480.522 315.299H480.763V312.849H483.052V328.715C483.052 330.041 482.751 331.119 482.148 331.949C481.553 332.786 480.749 333.398 479.738 333.786C478.734 334.181 477.616 334.379 476.384 334.379ZM476.304 325.904C477.255 325.904 478.058 325.686 478.714 325.251C479.37 324.816 479.869 324.19 480.21 323.373C480.552 322.556 480.722 321.579 480.722 320.441C480.722 319.33 480.555 318.349 480.22 317.499C479.886 316.648 479.39 315.982 478.734 315.5C478.078 315.018 477.268 314.777 476.304 314.777C475.3 314.777 474.463 315.032 473.794 315.54C473.131 316.049 472.632 316.732 472.297 317.589C471.969 318.446 471.805 319.396 471.805 320.441C471.805 321.512 471.973 322.459 472.307 323.283C472.649 324.099 473.151 324.742 473.814 325.211C474.483 325.673 475.313 325.904 476.304 325.904Z" fill="#767676"/>
<path d="M455.99 318.995V328.273H453.62V312.849H455.91V315.259H456.11C456.472 314.476 457.021 313.847 457.757 313.371C458.494 312.889 459.444 312.648 460.609 312.648C461.654 312.648 462.567 312.863 463.351 313.291C464.134 313.713 464.743 314.356 465.178 315.219C465.613 316.076 465.831 317.161 465.831 318.473V328.273H463.461V318.633C463.461 317.422 463.146 316.478 462.517 315.802C461.888 315.119 461.024 314.777 459.926 314.777C459.17 314.777 458.494 314.941 457.898 315.269C457.309 315.597 456.844 316.076 456.502 316.705C456.161 317.335 455.99 318.098 455.99 318.995Z" fill="#767676"/>
<path d="M446.906 328.277V312.852H449.276V328.277H446.906ZM448.111 310.282C447.649 310.282 447.251 310.124 446.916 309.81C446.588 309.495 446.424 309.117 446.424 308.675C446.424 308.233 446.588 307.855 446.916 307.54C447.251 307.226 447.649 307.068 448.111 307.068C448.573 307.068 448.968 307.226 449.296 307.54C449.63 307.855 449.798 308.233 449.798 308.675C449.798 309.117 449.63 309.495 449.296 309.81C448.968 310.124 448.573 310.282 448.111 310.282Z" fill="#767676"/>
<path d="M443.779 312.854L438.076 328.278H435.666L429.962 312.854H432.533L436.79 325.145H436.951L441.209 312.854H443.779Z" fill="#767676"/>
<path d="M420.328 328.635C419.351 328.635 418.464 328.451 417.667 328.083C416.871 327.708 416.238 327.169 415.769 326.466C415.301 325.756 415.066 324.899 415.066 323.895C415.066 323.012 415.24 322.295 415.589 321.746C415.937 321.191 416.402 320.755 416.984 320.441C417.567 320.126 418.209 319.892 418.912 319.738C419.622 319.577 420.335 319.45 421.051 319.356C421.989 319.236 422.748 319.145 423.331 319.085C423.92 319.018 424.348 318.908 424.616 318.754C424.891 318.6 425.028 318.332 425.028 317.95V317.87C425.028 316.879 424.757 316.109 424.214 315.561C423.679 315.012 422.866 314.737 421.774 314.737C420.643 314.737 419.756 314.985 419.113 315.48C418.471 315.976 418.019 316.504 417.758 317.067L415.508 316.263C415.91 315.326 416.445 314.597 417.115 314.074C417.791 313.545 418.527 313.177 419.324 312.97C420.127 312.756 420.917 312.648 421.694 312.648C422.189 312.648 422.758 312.709 423.401 312.829C424.05 312.943 424.676 313.181 425.279 313.542C425.888 313.904 426.394 314.449 426.795 315.179C427.197 315.909 427.398 316.886 427.398 318.111V328.273H425.028V326.185H424.907C424.747 326.519 424.479 326.878 424.104 327.259C423.729 327.641 423.23 327.965 422.608 328.233C421.985 328.501 421.225 328.635 420.328 328.635ZM420.69 326.506C421.627 326.506 422.417 326.322 423.06 325.954C423.709 325.586 424.198 325.11 424.526 324.528C424.86 323.945 425.028 323.333 425.028 322.69V320.521C424.927 320.642 424.706 320.752 424.365 320.853C424.03 320.946 423.642 321.03 423.2 321.104C422.765 321.171 422.34 321.231 421.925 321.284C421.517 321.331 421.185 321.371 420.931 321.405C420.315 321.485 419.739 321.616 419.204 321.796C418.675 321.971 418.246 322.235 417.918 322.59C417.597 322.938 417.436 323.413 417.436 324.016C417.436 324.839 417.741 325.462 418.35 325.883C418.966 326.299 419.746 326.506 420.69 326.506Z" fill="#767676"/>
<path d="M411.937 316.304L409.809 316.906C409.675 316.551 409.477 316.207 409.216 315.872C408.962 315.53 408.614 315.249 408.172 315.028C407.73 314.807 407.164 314.697 406.475 314.697C405.531 314.697 404.744 314.915 404.115 315.35C403.492 315.778 403.181 316.324 403.181 316.986C403.181 317.576 403.395 318.041 403.824 318.382C404.252 318.724 404.922 319.008 405.832 319.236L408.122 319.798C409.501 320.133 410.528 320.645 411.204 321.335C411.88 322.017 412.219 322.898 412.219 323.976C412.219 324.859 411.964 325.649 411.455 326.345C410.953 327.042 410.25 327.591 409.347 327.992C408.443 328.394 407.392 328.595 406.193 328.595C404.62 328.595 403.318 328.253 402.287 327.57C401.256 326.888 400.604 325.89 400.329 324.578L402.578 324.016C402.793 324.846 403.198 325.468 403.794 325.883C404.396 326.299 405.183 326.506 406.153 326.506C407.258 326.506 408.135 326.272 408.784 325.803C409.44 325.328 409.768 324.759 409.768 324.096C409.768 323.56 409.581 323.112 409.206 322.75C408.831 322.382 408.255 322.108 407.479 321.927L404.908 321.325C403.496 320.99 402.458 320.471 401.795 319.768C401.139 319.058 400.811 318.171 400.811 317.107C400.811 316.237 401.055 315.467 401.544 314.797C402.04 314.128 402.712 313.602 403.563 313.221C404.419 312.839 405.39 312.648 406.475 312.648C408.001 312.648 409.199 312.983 410.07 313.653C410.947 314.322 411.569 315.206 411.937 316.304Z" fill="#767676"/>
<path d="M383.068 328.595C381.582 328.595 380.3 328.267 379.222 327.611C378.151 326.948 377.324 326.024 376.742 324.839C376.166 323.648 375.878 322.262 375.878 320.682C375.878 319.102 376.166 317.709 376.742 316.504C377.324 315.293 378.134 314.349 379.172 313.673C380.216 312.99 381.434 312.648 382.827 312.648C383.63 312.648 384.423 312.782 385.207 313.05C385.99 313.318 386.703 313.753 387.346 314.356C387.988 314.951 388.5 315.741 388.882 316.725C389.264 317.709 389.454 318.921 389.454 320.361V321.365H377.565V319.316H387.044C387.044 318.446 386.87 317.669 386.522 316.986C386.181 316.304 385.692 315.765 385.056 315.37C384.427 314.975 383.684 314.777 382.827 314.777C381.883 314.777 381.066 315.012 380.377 315.48C379.694 315.942 379.168 316.545 378.8 317.288C378.432 318.031 378.248 318.827 378.248 319.678V321.043C378.248 322.208 378.449 323.196 378.85 324.006C379.259 324.809 379.824 325.422 380.547 325.843C381.27 326.258 382.111 326.466 383.068 326.466C383.69 326.466 384.253 326.379 384.755 326.205C385.264 326.024 385.702 325.756 386.07 325.401C386.439 325.04 386.723 324.591 386.924 324.056L389.213 324.699C388.972 325.475 388.567 326.158 387.998 326.747C387.429 327.329 386.726 327.785 385.89 328.113C385.053 328.434 384.112 328.595 383.068 328.595Z" fill="#767676"/>
<path d="M352.026 328.273V312.849H354.316V315.259H354.517C354.838 314.436 355.357 313.797 356.073 313.341C356.79 312.879 357.65 312.648 358.654 312.648C359.671 312.648 360.518 312.879 361.194 313.341C361.877 313.797 362.41 314.436 362.791 315.259H362.952C363.347 314.463 363.939 313.83 364.729 313.361C365.519 312.886 366.466 312.648 367.571 312.648C368.95 312.648 370.078 313.08 370.955 313.944C371.832 314.801 372.271 316.136 372.271 317.95V328.273H369.901V317.95C369.901 316.812 369.589 315.999 368.967 315.51C368.344 315.022 367.611 314.777 366.768 314.777C365.683 314.777 364.843 315.105 364.247 315.761C363.651 316.411 363.353 317.234 363.353 318.232V328.273H360.943V317.709C360.943 316.833 360.659 316.126 360.09 315.591C359.521 315.048 358.788 314.777 357.891 314.777C357.275 314.777 356.699 314.941 356.164 315.269C355.635 315.597 355.206 316.053 354.878 316.635C354.557 317.211 354.396 317.877 354.396 318.633V328.273H352.026Z" fill="#767676"/>
<path d="M345.309 328.277V312.852H347.679V328.277H345.309ZM346.514 310.282C346.052 310.282 345.654 310.124 345.319 309.81C344.991 309.495 344.827 309.117 344.827 308.675C344.827 308.233 344.991 307.855 345.319 307.54C345.654 307.226 346.052 307.068 346.514 307.068C346.976 307.068 347.371 307.226 347.699 307.54C348.034 307.855 348.201 308.233 348.201 308.675C348.201 309.117 348.034 309.495 347.699 309.81C347.371 310.124 346.976 310.282 346.514 310.282Z" fill="#767676"/>
<path d="M326.364 309.92V307.711H341.788V309.92H335.322V328.276H332.831V309.92H326.364Z" fill="#767676"/>
<path d="M537.309 225.825C537.849 225.287 538.724 225.287 539.264 225.825L548.061 234.587C548.601 235.125 548.601 235.996 548.061 236.534L539.264 245.296C538.724 245.833 537.849 245.833 537.309 245.296C536.769 244.758 536.769 243.886 537.309 243.349L543.746 236.937H509.756V234.183H543.746L537.309 227.772C536.769 227.234 536.769 226.363 537.309 225.825Z" fill="#4DCBF8"/>
<path d="M295.984 311.27C295.984 309.67 294.805 308.373 293.351 308.373H280.184C278.73 308.373 277.551 309.67 277.551 311.27V325.753C277.551 327.353 278.73 328.65 280.184 328.65H293.351C294.805 328.65 295.984 327.353 295.984 325.753V311.27Z" fill="#F3F3F3"/>
<path d="M299.674 325.166V311.853C299.674 308.912 297.106 306.527 293.939 306.527V309.19L294.233 309.203C295.679 309.34 296.806 310.474 296.806 311.853V325.166L296.792 325.439C296.655 326.691 295.582 327.688 294.233 327.815L293.939 327.828H279.602L279.308 327.815C277.959 327.688 276.886 326.691 276.748 325.439L276.734 325.166V311.853C276.734 310.474 277.862 309.34 279.308 309.203L279.602 309.19V306.527C276.434 306.527 273.867 308.912 273.867 311.853V325.166C273.867 328.107 276.434 330.491 279.602 330.491H293.939C297.106 330.491 299.674 328.107 299.674 325.166ZM279.602 306.527V309.19H293.939V306.527H279.602Z" fill="#DDDDDD"/>
<path d="M295.984 379.471C295.984 377.871 294.805 376.574 293.351 376.574H280.184C278.73 376.574 277.551 377.871 277.551 379.471V393.954C277.551 395.554 278.73 396.851 280.184 396.851H293.351C294.805 396.851 295.984 395.554 295.984 393.954V379.471Z" fill="#F3F3F3"/>
<path d="M299.674 392.963V378.626C299.674 375.458 297.106 372.891 293.939 372.891V375.758L294.233 375.772C295.679 375.919 296.806 377.141 296.806 378.626V392.963L296.792 393.257C296.655 394.606 295.582 395.679 294.233 395.816L293.939 395.83H279.602L279.308 395.816C277.959 395.679 276.886 394.606 276.748 393.257L276.734 392.963V378.626C276.734 377.141 277.862 375.919 279.308 375.772L279.602 375.758V372.891C276.434 372.891 273.867 375.458 273.867 378.626V392.963C273.867 396.13 276.434 398.698 279.602 398.698H293.939C297.106 398.698 299.674 396.13 299.674 392.963ZM279.602 372.891V375.758H293.939V372.891H279.602Z" fill="#DDDDDD"/>
<path d="M295.984 447.413C295.984 445.958 294.805 444.779 293.351 444.779H280.184C278.73 444.779 277.551 445.958 277.551 447.413V460.58C277.551 462.034 278.73 463.213 280.184 463.213H293.351C294.805 463.213 295.984 462.034 295.984 460.58V447.413Z" fill="#F3F3F3"/>
<path d="M299.674 461.168V446.831C299.674 443.663 297.106 441.096 293.939 441.096V443.963L294.233 443.977C295.679 444.124 296.806 445.346 296.806 446.831V461.168L296.792 461.462C296.655 462.811 295.582 463.884 294.233 464.021L293.939 464.035H279.602L279.308 464.021C277.959 463.884 276.886 462.811 276.748 461.462L276.734 461.168V446.831C276.734 445.346 277.862 444.124 279.308 443.977L279.602 443.963V441.096C276.434 441.096 273.867 443.663 273.867 446.831V461.168C273.867 464.335 276.434 466.903 279.602 466.903H293.939C297.106 466.903 299.674 464.335 299.674 461.168ZM279.602 441.096V443.963H293.939V441.096H279.602Z" fill="#DDDDDD"/>
<path d="M304.758 304.913C305.33 304.559 306.109 304.619 306.613 305.091C307.117 305.564 307.181 306.294 306.803 306.83L306.613 307.046L285.968 326.402C285.643 326.707 285.185 326.851 284.73 326.794C284.274 326.736 283.872 326.484 283.644 326.11L277.745 316.432L277.624 316.176C277.411 315.565 277.677 314.876 278.296 314.545C278.914 314.214 279.68 314.351 280.133 314.834L280.309 315.061L285.248 323.164L304.528 305.091L304.758 304.913Z" fill="#6BDA7A"/>
<path d="M304.758 373.118C305.33 372.764 306.109 372.824 306.613 373.296C307.117 373.769 307.181 374.499 306.803 375.035L306.613 375.251L285.968 394.607C285.643 394.912 285.185 395.056 284.73 394.999C284.274 394.941 283.872 394.69 283.644 394.315L277.745 384.638L277.624 384.381C277.411 383.77 277.677 383.081 278.296 382.75C278.914 382.419 279.68 382.556 280.133 383.039L280.309 383.266L285.248 391.369L304.528 373.296L304.758 373.118Z" fill="#6BDA7A"/>
<path d="M304.758 439.498C305.33 439.114 306.109 439.18 306.613 439.691C307.117 440.203 307.181 440.994 306.803 441.575L306.613 441.809L285.968 462.778C285.643 463.108 285.185 463.264 284.73 463.202C284.274 463.14 283.872 462.867 283.644 462.462L277.745 451.978L277.624 451.7C277.411 451.038 277.677 450.292 278.296 449.933C278.914 449.574 279.68 449.723 280.133 450.246L280.309 450.492L285.248 459.271L304.528 439.691L304.758 439.498Z" fill="#6BDA7A"/>
<path d="M793.691 176.442C793.691 171.668 796.723 167.41 801.265 165.804L849.763 148.658C852.244 147.781 854.957 147.781 857.439 148.658L905.937 165.804C910.478 167.41 913.51 171.668 913.51 176.442V238.563C913.51 242.407 911.535 245.987 908.269 248.065L859.771 278.928C856.012 281.32 851.189 281.32 847.43 278.928L798.932 248.065C795.666 245.987 793.691 242.407 793.691 238.563V176.442Z" fill="#03FF81"/>
<path d="M887.573 209.753C887.573 190.992 872.364 175.783 853.603 175.783C834.842 175.783 819.632 190.992 819.632 209.753C819.632 228.515 834.842 243.724 853.603 243.724C855.166 243.724 856.434 244.991 856.434 246.555C856.434 248.118 855.166 249.386 853.603 249.386C831.715 249.386 813.971 231.642 813.971 209.753C813.971 187.865 831.715 170.121 853.603 170.121C875.491 170.121 893.235 187.865 893.235 209.753C893.235 211.317 891.968 212.584 890.404 212.584C888.841 212.584 887.573 211.317 887.573 209.753Z" fill="#14054D"/>
<path d="M850.838 189.576C850.838 187.993 852.135 186.709 853.735 186.709C855.334 186.709 856.631 187.993 856.631 189.576V211.02L869.878 220.202L870.113 220.382C871.225 221.331 871.451 222.979 870.591 224.196C869.731 225.411 868.091 225.766 866.809 225.058L866.557 224.901L852.074 214.865C851.3 214.329 850.838 213.451 850.838 212.516V189.576Z" fill="#14054D"/>
<path d="M892.351 218.702C893.452 217.769 895.074 217.835 896.1 218.901C897.126 219.967 897.189 221.652 896.292 222.795L896.1 223.017L875.085 244.847C874.059 245.913 872.437 245.979 871.336 245.046L871.123 244.847L862.717 236.115L862.525 235.893C861.628 234.75 861.691 233.065 862.717 231.999C863.743 230.933 865.365 230.868 866.466 231.8L866.679 231.999L873.104 238.673L892.138 218.901L892.351 218.702Z" fill="#14054D"/>
<path d="M486.685 231.848H483.472C483.349 231.162 483.119 230.557 482.782 230.036C482.446 229.514 482.034 229.071 481.547 228.707C481.059 228.343 480.513 228.069 479.909 227.883C479.312 227.698 478.677 227.605 478.004 227.605C476.789 227.605 475.701 227.911 474.739 228.522C473.785 229.133 473.03 230.029 472.474 231.21C471.924 232.391 471.65 233.832 471.65 235.535C471.65 237.251 471.924 238.7 472.474 239.881C473.03 241.062 473.788 241.954 474.75 242.558C475.711 243.163 476.792 243.465 477.994 243.465C478.66 243.465 479.291 243.375 479.888 243.197C480.493 243.012 481.038 242.74 481.526 242.383C482.013 242.026 482.425 241.59 482.762 241.075C483.105 240.554 483.342 239.956 483.472 239.284L486.685 239.294C486.514 240.331 486.181 241.285 485.686 242.157C485.199 243.022 484.571 243.77 483.802 244.402C483.04 245.027 482.168 245.511 481.186 245.854C480.204 246.197 479.133 246.369 477.973 246.369C476.147 246.369 474.52 245.936 473.092 245.071C471.664 244.199 470.538 242.953 469.714 241.333C468.897 239.713 468.488 237.78 468.488 235.535C468.488 233.283 468.9 231.35 469.724 229.737C470.548 228.117 471.674 226.874 473.102 226.009C474.53 225.137 476.154 224.701 477.973 224.701C479.092 224.701 480.136 224.863 481.104 225.185C482.079 225.501 482.954 225.968 483.73 226.586C484.506 227.197 485.147 227.945 485.656 228.831C486.164 229.71 486.507 230.715 486.685 231.848Z" fill="#4D4D4D"/>
<path d="M448.765 224.988H452.379L457.889 234.576H458.115L463.625 224.988H467.24L459.588 237.799V246.079H456.416V237.799L448.765 224.988Z" fill="#4D4D4D"/>
<path d="M431.134 246.079V224.988H434.316V235.06H434.573L443.42 224.988H447.426L438.919 234.483L447.457 246.079H443.626L436.808 236.656L434.316 239.519V246.079H431.134Z" fill="#4D4D4D"/>
<path d="M408.846 236.687V246.079H405.767V224.988H408.805V232.836H409C409.371 231.984 409.937 231.308 410.699 230.807C411.462 230.306 412.457 230.055 413.686 230.055C414.771 230.055 415.718 230.278 416.528 230.724C417.345 231.171 417.977 231.837 418.423 232.722C418.876 233.601 419.103 234.7 419.103 236.018V246.079H416.024V236.388C416.024 235.228 415.725 234.329 415.128 233.69C414.53 233.045 413.7 232.722 412.636 232.722C411.908 232.722 411.256 232.877 410.679 233.186C410.109 233.495 409.659 233.948 409.33 234.545C409.007 235.136 408.846 235.85 408.846 236.687Z" fill="#4D4D4D"/>
<path d="M395.975 246.4C394.444 246.4 393.126 246.053 392.021 245.36C390.922 244.66 390.078 243.695 389.487 242.466C388.897 241.237 388.602 239.83 388.602 238.244C388.602 236.637 388.904 235.22 389.508 233.991C390.112 232.755 390.963 231.79 392.062 231.097C393.16 230.403 394.454 230.057 395.944 230.057C397.146 230.057 398.217 230.28 399.157 230.726C400.098 231.165 400.857 231.783 401.433 232.58C402.017 233.376 402.364 234.306 402.473 235.371H399.477C399.312 234.629 398.934 233.991 398.344 233.455C397.76 232.92 396.978 232.652 395.996 232.652C395.138 232.652 394.386 232.878 393.74 233.331C393.102 233.778 392.604 234.416 392.247 235.247C391.89 236.071 391.712 237.046 391.712 238.172C391.712 239.325 391.887 240.321 392.237 241.158C392.587 241.996 393.081 242.645 393.72 243.105C394.365 243.565 395.124 243.795 395.996 243.795C396.579 243.795 397.108 243.688 397.582 243.475C398.062 243.256 398.464 242.943 398.787 242.538C399.116 242.133 399.346 241.646 399.477 241.076H402.473C402.364 242.099 402.031 243.012 401.474 243.815C400.918 244.618 400.173 245.25 399.24 245.71C398.313 246.17 397.225 246.4 395.975 246.4Z" fill="#4D4D4D"/>
<path d="M386.076 230.262V232.734H377.436V230.262H386.076ZM379.753 226.473H382.832V241.436C382.832 242.033 382.921 242.483 383.1 242.785C383.278 243.08 383.508 243.283 383.79 243.393C384.078 243.496 384.39 243.547 384.727 243.547C384.974 243.547 385.19 243.53 385.376 243.496C385.561 243.461 385.705 243.434 385.808 243.413L386.364 245.957C386.186 246.026 385.932 246.094 385.602 246.163C385.273 246.239 384.861 246.28 384.366 246.287C383.556 246.3 382.801 246.156 382.101 245.854C381.4 245.552 380.834 245.085 380.401 244.453C379.969 243.822 379.753 243.029 379.753 242.075V226.473Z" fill="#4D4D4D"/>
<path d="M366.784 246.431C365.782 246.431 364.876 246.246 364.066 245.875C363.255 245.497 362.613 244.951 362.14 244.237C361.673 243.523 361.439 242.648 361.439 241.611C361.439 240.719 361.611 239.984 361.954 239.407C362.298 238.831 362.761 238.374 363.345 238.038C363.928 237.701 364.58 237.447 365.301 237.276C366.022 237.104 366.757 236.974 367.505 236.884C368.453 236.775 369.222 236.685 369.812 236.617C370.402 236.541 370.831 236.421 371.099 236.256C371.367 236.091 371.501 235.824 371.501 235.453V235.381C371.501 234.481 371.247 233.785 370.739 233.29C370.238 232.796 369.489 232.549 368.494 232.549C367.457 232.549 366.64 232.779 366.043 233.239C365.452 233.692 365.044 234.197 364.817 234.753L361.923 234.094C362.267 233.132 362.768 232.357 363.427 231.766C364.093 231.169 364.858 230.736 365.724 230.469C366.589 230.194 367.498 230.057 368.453 230.057C369.084 230.057 369.754 230.132 370.461 230.283C371.175 230.427 371.841 230.695 372.459 231.086C373.083 231.478 373.595 232.037 373.993 232.765C374.391 233.486 374.59 234.423 374.59 235.577V246.081H371.583V243.918H371.46C371.261 244.316 370.962 244.708 370.564 245.092C370.166 245.477 369.654 245.796 369.029 246.05C368.405 246.304 367.656 246.431 366.784 246.431ZM367.454 243.959C368.305 243.959 369.033 243.791 369.637 243.455C370.248 243.118 370.711 242.679 371.027 242.137C371.35 241.587 371.511 241 371.511 240.376V238.336C371.401 238.446 371.189 238.549 370.873 238.645C370.564 238.735 370.21 238.814 369.812 238.882C369.414 238.944 369.026 239.002 368.648 239.057C368.271 239.105 367.955 239.147 367.701 239.181C367.104 239.256 366.558 239.383 366.063 239.562C365.576 239.74 365.185 239.998 364.889 240.334C364.601 240.664 364.457 241.103 364.457 241.653C364.457 242.415 364.738 242.991 365.301 243.383C365.864 243.767 366.582 243.959 367.454 243.959Z" fill="#4D4D4D"/>
<path d="M339.767 246.079L333.918 224.988H337.265L341.374 241.321H341.57L345.843 224.988H349.159L353.433 241.332H353.629L357.728 224.988H361.085L355.225 246.079H352.022L347.584 230.282H347.419L342.98 246.079H339.767Z" fill="#4D4D4D"/>
<path d="M326.66 246.4C325.101 246.4 323.759 246.067 322.633 245.401C321.514 244.728 320.649 243.784 320.038 242.569C319.434 241.347 319.132 239.916 319.132 238.275C319.132 236.654 319.434 235.226 320.038 233.991C320.649 232.755 321.5 231.79 322.592 231.097C323.691 230.403 324.974 230.057 326.444 230.057C327.336 230.057 328.201 230.204 329.039 230.499C329.876 230.795 330.628 231.258 331.294 231.89C331.96 232.521 332.485 233.342 332.87 234.351C333.254 235.353 333.446 236.572 333.446 238.007V239.099H320.872V236.792H330.429C330.429 235.982 330.264 235.264 329.935 234.639C329.605 234.008 329.142 233.51 328.544 233.146C327.954 232.782 327.261 232.6 326.464 232.6C325.599 232.6 324.844 232.813 324.199 233.239C323.56 233.658 323.066 234.207 322.716 234.887C322.372 235.559 322.201 236.291 322.201 237.08V238.882C322.201 239.94 322.386 240.839 322.757 241.58C323.134 242.322 323.66 242.888 324.332 243.28C325.005 243.664 325.791 243.856 326.691 243.856C327.274 243.856 327.806 243.774 328.287 243.609C328.768 243.438 329.183 243.184 329.533 242.847C329.883 242.511 330.151 242.095 330.336 241.601L333.251 242.126C333.017 242.984 332.599 243.736 331.994 244.382C331.397 245.02 330.645 245.518 329.739 245.875C328.84 246.225 327.813 246.4 326.66 246.4Z" fill="#4D4D4D"/>
<path d="M317.289 230.261V232.733H308.35V230.261H317.289ZM310.801 246.08V228.428C310.801 227.44 311.017 226.619 311.449 225.967C311.882 225.308 312.455 224.817 313.169 224.494C313.883 224.165 314.659 224 315.497 224C316.115 224 316.643 224.051 317.083 224.154C317.522 224.251 317.848 224.34 318.061 224.422L317.34 226.914C317.196 226.873 317.01 226.825 316.784 226.77C316.557 226.708 316.283 226.678 315.96 226.678C315.212 226.678 314.676 226.863 314.354 227.234C314.038 227.604 313.88 228.14 313.88 228.84V246.08H310.801Z" fill="#4D4D4D"/>
<path d="M297.853 246.431C296.85 246.431 295.944 246.246 295.134 245.875C294.324 245.497 293.682 244.951 293.208 244.237C292.741 243.523 292.508 242.648 292.508 241.611C292.508 240.719 292.679 239.984 293.023 239.407C293.366 238.831 293.829 238.374 294.413 238.038C294.997 237.701 295.649 237.447 296.37 237.276C297.091 237.104 297.825 236.974 298.574 236.884C299.521 236.775 300.29 236.685 300.88 236.617C301.471 236.541 301.9 236.421 302.168 236.256C302.435 236.091 302.569 235.824 302.569 235.453V235.381C302.569 234.481 302.315 233.785 301.807 233.29C301.306 232.796 300.558 232.549 299.562 232.549C298.525 232.549 297.708 232.779 297.111 233.239C296.521 233.692 296.112 234.197 295.886 234.753L292.992 234.094C293.335 233.132 293.836 232.357 294.495 231.766C295.161 231.169 295.927 230.736 296.792 230.469C297.657 230.194 298.567 230.057 299.521 230.057C300.153 230.057 300.822 230.132 301.529 230.283C302.243 230.427 302.909 230.695 303.527 231.086C304.152 231.478 304.663 232.037 305.061 232.765C305.46 233.486 305.659 234.423 305.659 235.577V246.081H302.652V243.918H302.528C302.329 244.316 302.03 244.708 301.632 245.092C301.234 245.477 300.722 245.796 300.098 246.05C299.473 246.304 298.725 246.431 297.853 246.431ZM298.522 243.959C299.373 243.959 300.101 243.791 300.705 243.455C301.316 243.118 301.78 242.679 302.096 242.137C302.418 241.587 302.58 241 302.58 240.376V238.336C302.47 238.446 302.257 238.549 301.941 238.645C301.632 238.735 301.279 238.814 300.88 238.882C300.482 238.944 300.094 239.002 299.717 239.057C299.339 239.105 299.023 239.147 298.769 239.181C298.172 239.256 297.626 239.383 297.132 239.562C296.644 239.74 296.253 239.998 295.958 240.334C295.669 240.664 295.525 241.103 295.525 241.653C295.525 242.415 295.807 242.991 296.37 243.383C296.933 243.767 297.65 243.959 298.522 243.959Z" fill="#4D4D4D"/>
<path d="M286.337 230.53C286.228 229.555 285.774 228.8 284.978 228.264C284.182 227.722 283.179 227.451 281.971 227.451C281.106 227.451 280.357 227.588 279.726 227.863C279.094 228.131 278.603 228.501 278.253 228.975C277.91 229.442 277.738 229.974 277.738 230.571C277.738 231.072 277.855 231.505 278.088 231.869C278.329 232.233 278.641 232.538 279.026 232.785C279.417 233.026 279.836 233.228 280.282 233.393C280.728 233.551 281.157 233.681 281.569 233.784L283.629 234.32C284.302 234.485 284.992 234.708 285.699 234.989C286.406 235.271 287.062 235.641 287.666 236.101C288.27 236.561 288.757 237.131 289.128 237.811C289.506 238.491 289.695 239.304 289.695 240.252C289.695 241.446 289.386 242.507 288.768 243.434C288.157 244.361 287.268 245.092 286.1 245.627C284.94 246.163 283.536 246.431 281.888 246.431C280.309 246.431 278.943 246.18 277.79 245.679C276.636 245.178 275.734 244.467 275.081 243.547C274.429 242.62 274.069 241.522 274 240.252H277.192C277.254 241.014 277.501 241.649 277.934 242.157C278.373 242.658 278.933 243.032 279.613 243.279C280.299 243.52 281.051 243.64 281.868 243.64C282.767 243.64 283.567 243.499 284.267 243.218C284.975 242.929 285.531 242.531 285.936 242.023C286.341 241.508 286.543 240.907 286.543 240.221C286.543 239.596 286.365 239.084 286.008 238.686C285.658 238.288 285.181 237.959 284.576 237.698C283.979 237.437 283.303 237.207 282.548 237.008L280.055 236.328C278.366 235.868 277.028 235.192 276.039 234.299C275.057 233.407 274.566 232.226 274.566 230.757C274.566 229.541 274.896 228.481 275.555 227.574C276.214 226.668 277.107 225.964 278.233 225.463C279.359 224.955 280.629 224.701 282.043 224.701C283.471 224.701 284.731 224.952 285.822 225.453C286.921 225.954 287.786 226.644 288.418 227.523C289.049 228.395 289.379 229.397 289.406 230.53H286.337Z" fill="#4D4D4D"/>
</g>
<defs>
<filter id="filter0_d_1139_5947" x="197" y="128" width="756.51" height="463.418" filterUnits="userSpaceOnUse" color-interpolation-filters="sRGB">
<feFlood flood-opacity="0" result="BackgroundImageFix"/>
<feColorMatrix in="SourceAlpha" type="matrix" values="0 0 0 0 0 0 0 0 0 0 0 0 0 0 0 0 0 0 127 0" result="hardAlpha"/>
<feOffset dy="20"/>
<feGaussianBlur stdDeviation="20"/>
<feComposite in2="hardAlpha" operator="out"/>
<feColorMatrix type="matrix" values="0 0 0 0 0.0784314 0 0 0 0 0.0196078 0 0 0 0 0.301961 0 0 0 0.15 0"/>
<feBlend mode="normal" in2="BackgroundImageFix" result="effect1_dropShadow_1139_5947"/>
<feBlend mode="normal" in="SourceGraphic" in2="effect1_dropShadow_1139_5947" result="shape"/>
</filter>
</defs>
</svg>
