<svg width="126" height="45" viewBox="0 0 126 45" fill="none" xmlns="http://www.w3.org/2000/svg">
<g id="Group">
<path id="Vector" d="M21.3511 44.1011C10.1456 44.0534 0 35.3175 0 22.6672C0 10.6852 9.57971 0.930872 21.4308 0.986565C33.258 1.04226 42.8935 9.94523 42.9334 22.4444C42.9732 34.3309 33.1863 44.1011 21.3432 44.0932L21.3511 44.1011ZM20.5781 12.889C20.4585 12.8731 20.3629 12.8413 20.2672 12.8413C17.3104 12.8413 14.3457 12.8413 11.3889 12.8333C11.0701 12.8333 10.9824 12.9845 10.8947 13.247C10.042 15.8487 9.57971 18.514 9.51595 21.2589C9.50798 21.7124 9.6355 21.7999 10.0579 21.7999C13.3973 21.784 16.7286 21.792 20.068 21.792C20.2274 21.792 20.3868 21.7761 20.5781 21.7681V12.897V12.889ZM33.2899 21.7681C33.2899 21.617 33.2899 21.5215 33.2899 21.426C33.1704 18.6811 32.6922 15.9919 31.9589 13.3425C31.8553 12.9606 31.688 12.8333 31.2895 12.8413C28.4602 12.8572 25.6309 12.8492 22.7937 12.8492C22.6183 12.8492 22.443 12.8652 22.2677 12.8731V21.7681H33.2899ZM22.2677 23.2878V32.1669C22.3792 32.1828 22.443 32.1907 22.5067 32.1907C25.4875 32.1907 28.4602 32.1907 31.4409 32.1987C31.7597 32.1987 31.8474 32.0555 31.935 31.7929C32.6364 29.7004 33.0588 27.5443 33.2341 25.3484C33.2899 24.6721 33.2421 23.9879 33.2421 23.2878H22.2677ZM9.54783 23.3912C9.54783 23.5503 9.54783 23.6776 9.54783 23.8049C9.66738 26.5339 10.1456 29.1992 10.8788 31.8327C10.9824 32.1907 11.1259 32.318 11.5084 32.3101C14.3696 32.2942 17.2307 32.3021 20.0919 32.3021C20.2513 32.3021 20.4107 32.2862 20.5701 32.2782V23.3912H9.54783ZM9.38844 12.8652C9.17325 12.8572 8.98995 12.8413 8.79867 12.8413C7.34019 12.8413 5.88969 12.8572 4.43121 12.8333C4.01678 12.8333 3.79363 12.9527 3.60235 13.3266C2.31922 15.8567 1.55411 18.522 1.35487 21.3624C1.33096 21.7363 1.46645 21.7999 1.79321 21.7999C3.65814 21.792 5.52308 21.7999 7.38004 21.7999C8.04154 21.7999 8.01763 21.7999 8.08936 21.1475C8.28063 19.3654 8.46394 17.5911 8.71897 15.8169C8.86243 14.8462 9.14934 13.8915 9.38844 12.8811V12.8652ZM33.3935 12.8413C34.2941 15.801 34.7563 18.7368 34.7962 21.7522H41.443C41.459 21.6567 41.4829 21.5931 41.4829 21.5374C41.3075 18.5538 40.5105 15.7373 39.084 13.1038C39.0122 12.9686 38.7492 12.8572 38.5819 12.8492C37.4342 12.8254 36.2945 12.8413 35.1469 12.8413C34.5969 12.8413 34.0391 12.8413 33.3935 12.8413ZM33.4095 32.2623C33.529 32.2862 33.5928 32.3021 33.6565 32.3021C35.3222 32.3021 36.9959 32.318 38.6616 32.2862C38.8289 32.2862 39.068 32.0952 39.1477 31.9361C40.2316 29.9073 40.9489 27.7512 41.2916 25.4757C41.3952 24.7915 41.435 24.0993 41.4988 23.4071H34.7882C34.7563 26.4304 34.2622 29.3424 33.4015 32.2544L33.4095 32.2623ZM8.04154 23.3991H1.38675C1.37081 23.4867 1.35487 23.5503 1.35487 23.614C1.53817 26.5816 2.32718 29.3822 3.72987 32.0077C3.80957 32.1589 4.08054 32.2862 4.26385 32.2862C5.84984 32.3101 7.43583 32.3021 9.02183 32.2942C9.14137 32.2942 9.26092 32.2703 9.42829 32.2464C8.54364 29.3424 8.08139 26.4066 8.04154 23.3912V23.3991ZM22.2437 42.5815C23.6464 42.4224 24.8499 41.9211 25.9497 41.1494C27.5357 40.0435 28.7391 38.5955 29.6955 36.9406C30.2933 35.9063 30.7953 34.8163 31.3692 33.6865H22.2437V42.5815ZM11.5722 33.7899C11.604 33.9093 11.62 34.0047 11.6519 34.0923C12.3452 35.7551 13.198 37.3304 14.3297 38.7307C15.6527 40.3697 17.2148 41.7063 19.2869 42.319C19.6934 42.4383 20.1238 42.5019 20.5701 42.5974V33.7899H11.5642H11.5722ZM31.2815 11.3535C30.6997 9.8418 29.9824 8.48129 29.0898 7.2083C27.8864 5.50568 26.4518 4.05765 24.5151 3.18247C23.8058 2.86423 23.0726 2.61758 22.2597 2.60167V11.3455H31.2895L31.2815 11.3535ZM20.586 2.62554C16.7525 2.80058 13.0067 7.24013 11.604 11.3376H20.586V2.62554ZM4.81376 33.7581C6.00127 36.4393 12.4887 41.404 14.7999 41.4199C12.6561 39.2876 11.1179 36.7974 10.0181 34.0286C9.97023 33.9093 9.7949 33.774 9.67535 33.774C8.07342 33.7581 6.47149 33.7661 4.81376 33.7661V33.7581ZM38.1196 33.7581C36.5017 33.7581 35.0273 33.782 33.5609 33.7422C33.0827 33.7342 32.8436 33.8695 32.6603 34.323C31.5923 36.9247 30.2375 39.3433 28.1494 41.2926C28.1095 41.3324 28.0856 41.3881 27.99 41.5392C32.2538 40.0355 35.5135 37.4339 38.1196 33.7501V33.7581ZM14.776 3.75532L14.6804 3.65984C10.56 5.12378 7.30831 7.7175 4.7261 11.3773C6.39976 11.3773 7.92996 11.3694 9.46813 11.3853C9.81881 11.3853 9.97023 11.2739 10.0977 10.9477C11.1259 8.37786 12.5126 6.03874 14.4891 4.08152C14.5927 3.97809 14.6804 3.86671 14.7681 3.76328L14.776 3.75532ZM38.0718 11.3296C35.4975 7.69363 32.2299 5.09196 28.0059 3.61211C28.0458 3.72349 28.0458 3.76327 28.0697 3.77919C30.2375 5.80801 31.6641 8.31421 32.7559 11.0273C32.8675 11.3057 33.0189 11.3853 33.2979 11.3853C34.7563 11.3694 36.2069 11.3853 37.6653 11.3853C37.7689 11.3853 37.8805 11.3614 38.0718 11.3376V11.3296Z" fill="#5B4CE2"/>
<path id="Vector_2" d="M88.8028 31.0846C90.0381 26.2473 91.2734 21.4099 92.5087 16.5566H96.1031C95.7604 17.8058 95.4177 19.0231 95.083 20.2483C93.6803 25.2528 92.2776 30.2492 90.8829 35.2616C90.7713 35.6754 90.596 35.8265 90.1497 35.8106C89.2013 35.7708 88.2529 35.7708 87.3044 35.8106C86.8502 35.8345 86.6908 35.6754 86.5872 35.2537C85.5192 30.8062 84.4273 26.3587 83.3435 21.9112C83.3116 21.7839 83.2717 21.6645 83.1442 21.5372C81.9886 26.2791 80.825 31.021 79.6614 35.7947C78.3942 35.7947 77.1509 35.8106 75.9076 35.7788C75.7881 35.7788 75.6127 35.5242 75.5649 35.3571C74.6165 32.0235 73.6761 28.6819 72.7436 25.3403C71.9785 22.5954 71.2054 19.8505 70.4403 17.1056C70.3925 16.9385 70.3527 16.7635 70.2969 16.5646H73.7558C74.9911 21.402 76.2264 26.2473 77.4697 31.0926C77.5175 31.0926 77.5653 31.0926 77.6052 31.0926C78.8007 26.2552 79.9961 21.4179 81.1916 16.5566H85.0729C86.2684 21.394 87.4638 26.2393 88.6593 31.0846C88.7071 31.0846 88.755 31.0846 88.8028 31.0846Z" fill="#5B4CE2"/>
<path id="Vector_3" d="M69.4831 13.3514C68.5427 14.1629 67.658 14.9188 66.8212 15.6428C66.5104 15.3723 66.2394 15.1416 65.9764 14.9029C63.5376 12.6354 60.7243 12.0148 57.5842 13.1048C55.7352 13.7492 54.8266 15.42 55.2171 17.1942C55.3925 17.9899 55.8786 18.5627 56.5481 18.9923C57.6001 19.6607 58.7956 19.9391 59.9751 20.2733C61.84 20.7984 63.7448 21.2519 65.546 21.952C68.2557 23.0023 69.6903 25.0868 69.8258 27.9987C69.9613 30.855 68.8136 33.0668 66.3988 34.5944C64.6374 35.7162 62.6609 36.1379 60.6047 36.1459C57.7754 36.1618 55.2251 35.3423 53.0653 33.4567C52.1567 32.6611 51.2641 31.4517 50.9453 30.5288C51.9894 29.9719 53.0334 29.407 54.0854 28.8421C54.1492 28.9058 54.197 28.9455 54.2289 28.9933C56.0619 32.2155 60.3656 33.4806 63.9361 31.8734C65.8568 31.0062 66.6458 29.2717 66.0481 27.4259C65.7373 26.4712 65.0997 25.7392 64.1911 25.3812C62.8761 24.8561 61.5133 24.4662 60.1584 24.0525C58.676 23.6069 57.1458 23.2807 55.6953 22.7556C53.6949 22.0316 52.2125 20.7109 51.6467 18.5627C50.8816 15.6905 51.8459 12.9456 54.2608 11.1555C56.0779 9.81091 58.15 9.27785 60.3816 9.26193C63.4978 9.24602 66.2792 10.1132 68.5586 12.3171C68.8774 12.6194 69.1484 12.9695 69.4751 13.3435L69.4831 13.3514Z" fill="#5B4CE2"/>
<path id="Vector_4" d="M114.6 12.5549C113.739 12.6027 112.958 12.5947 112.185 12.7061C110.384 12.9687 109.452 14.0666 109.444 15.8727C109.444 16.7319 109.444 17.5912 109.444 18.5221C109.747 18.5221 110.002 18.5221 110.257 18.5221C111.548 18.5221 112.839 18.53 114.13 18.5221C114.449 18.5221 114.608 18.5857 114.6 18.9517C114.584 19.7792 114.6 20.6146 114.6 21.4897H109.46V35.7711H105.993C105.985 35.5801 105.969 35.4051 105.969 35.2301C105.969 28.7696 105.953 22.3172 105.985 15.8568C105.985 14.9736 106.104 14.0507 106.391 13.2233C107.172 10.9319 108.965 9.75436 111.261 9.34064C112.233 9.1656 113.245 9.19743 114.241 9.13378C114.481 9.11786 114.608 9.19743 114.608 9.45998C114.608 10.4863 114.608 11.5127 114.608 12.5629L114.6 12.5549Z" fill="#5B4CE2"/>
<path id="Vector_5" d="M116.911 9.13477H120.346V18.4992H125.495V21.4907H120.394C120.386 21.7215 120.37 21.9124 120.37 22.0954C120.37 24.347 120.37 26.5986 120.37 28.8502C120.37 31.0143 121.526 32.1997 123.71 32.2952C124.299 32.3191 124.881 32.2952 125.503 32.2952V35.78C123.064 35.8278 120.721 35.605 118.8 33.8865C117.517 32.7328 116.927 31.237 116.919 29.5265C116.896 26.2326 116.911 22.9387 116.911 19.6449C116.911 16.351 116.911 13.0572 116.911 9.76331C116.911 9.57236 116.911 9.38141 116.911 9.13477Z" fill="#5B4CE2"/>
<path id="Vector_6" d="M102.263 16.4072V35.6373C101.554 35.6373 100.853 35.6373 100.159 35.6373C99.2615 35.6373 98.8125 35.1865 98.8125 34.2848C98.8125 28.5484 98.8125 22.804 98.8125 17.0676C98.8125 16.6273 99.0357 16.4072 99.482 16.4072C100.398 16.4072 101.307 16.4072 102.263 16.4072Z" fill="#5B4CE2"/>
<path id="Vector_7" d="M100.527 13.7082C99.2119 13.7002 98.1678 12.642 98.1838 11.3293C98.1997 10.0324 99.2677 8.99014 100.583 8.99809C101.938 9.00605 102.918 10.0165 102.902 11.369C102.886 12.6977 101.85 13.7161 100.519 13.7002L100.527 13.7082Z" fill="#5B4CE2"/>
</g>
</svg>
